%FSLAX45Y45*%
G04 Gerber Fmt 4.5, Leading zero omitted, Abs format (unit mm)*
G04 Created by KiCad (PCBNEW (6.0.2)) date 2022-06-24 18:37:44*
%MOMM*%
%LPD*%
G01*
G04 APERTURE LIST*
%TA.AperFunction,Profile*%
%ADD10C,0.100000*%
%TD*%
%ADD11C,0.200000*%
G04 APERTURE END LIST*
D10*
X6350000Y-8026400D02*
X20116800Y-8026400D01*
X20116800Y-8026400D02*
X20116800Y-13665200D01*
X20116800Y-13665200D02*
X6350000Y-13665200D01*
X6350000Y-13665200D02*
X6350000Y-8026400D01*
D11*
X6602619Y-13980676D02*
X6602619Y-13780676D01*
X6650238Y-13780676D01*
X6678809Y-13790200D01*
X6697857Y-13809248D01*
X6707381Y-13828295D01*
X6716905Y-13866390D01*
X6716905Y-13894962D01*
X6707381Y-13933057D01*
X6697857Y-13952105D01*
X6678809Y-13971152D01*
X6650238Y-13980676D01*
X6602619Y-13980676D01*
X6802619Y-13980676D02*
X6802619Y-13847343D01*
X6802619Y-13885438D02*
X6812143Y-13866390D01*
X6821667Y-13856867D01*
X6840714Y-13847343D01*
X6859762Y-13847343D01*
X6926428Y-13980676D02*
X6926428Y-13847343D01*
X6926428Y-13780676D02*
X6916905Y-13790200D01*
X6926428Y-13799724D01*
X6935952Y-13790200D01*
X6926428Y-13780676D01*
X6926428Y-13799724D01*
X7050238Y-13980676D02*
X7031190Y-13971152D01*
X7021667Y-13952105D01*
X7021667Y-13780676D01*
X7155000Y-13980676D02*
X7135952Y-13971152D01*
X7126428Y-13952105D01*
X7126428Y-13780676D01*
X7383571Y-13980676D02*
X7383571Y-13780676D01*
X7450238Y-13923533D01*
X7516905Y-13780676D01*
X7516905Y-13980676D01*
X7697857Y-13980676D02*
X7697857Y-13875914D01*
X7688333Y-13856867D01*
X7669286Y-13847343D01*
X7631190Y-13847343D01*
X7612143Y-13856867D01*
X7697857Y-13971152D02*
X7678809Y-13980676D01*
X7631190Y-13980676D01*
X7612143Y-13971152D01*
X7602619Y-13952105D01*
X7602619Y-13933057D01*
X7612143Y-13914009D01*
X7631190Y-13904486D01*
X7678809Y-13904486D01*
X7697857Y-13894962D01*
X7793095Y-13847343D02*
X7793095Y-14047343D01*
X7793095Y-13856867D02*
X7812143Y-13847343D01*
X7850238Y-13847343D01*
X7869286Y-13856867D01*
X7878809Y-13866390D01*
X7888333Y-13885438D01*
X7888333Y-13942581D01*
X7878809Y-13961628D01*
X7869286Y-13971152D01*
X7850238Y-13980676D01*
X7812143Y-13980676D01*
X7793095Y-13971152D01*
X7974048Y-13961628D02*
X7983571Y-13971152D01*
X7974048Y-13980676D01*
X7964524Y-13971152D01*
X7974048Y-13961628D01*
X7974048Y-13980676D01*
X7974048Y-13856867D02*
X7983571Y-13866390D01*
X7974048Y-13875914D01*
X7964524Y-13866390D01*
X7974048Y-13856867D01*
X7974048Y-13875914D01*
M02*
