%TF.GenerationSoftware,KiCad,Pcbnew,(6.0.2)*%
%TF.CreationDate,2022-06-24T18:37:41+02:00*%
%TF.ProjectId,divergence_meter_top,64697665-7267-4656-9e63-655f6d657465,rev?*%
%TF.SameCoordinates,Original*%
%TF.FileFunction,Legend,Top*%
%TF.FilePolarity,Positive*%
%FSLAX46Y46*%
G04 Gerber Fmt 4.6, Leading zero omitted, Abs format (unit mm)*
G04 Created by KiCad (PCBNEW (6.0.2)) date 2022-06-24 18:37:41*
%MOMM*%
%LPD*%
G01*
G04 APERTURE LIST*
%ADD10C,0.150000*%
%ADD11C,0.120000*%
%ADD12C,1.524000*%
%ADD13C,0.800000*%
%ADD14C,7.000000*%
%ADD15R,1.700000X1.700000*%
%ADD16O,1.700000X1.700000*%
G04 APERTURE END LIST*
D10*
%TO.C,itr8*%
X182824571Y-108664380D02*
X182824571Y-107997714D01*
X182824571Y-107664380D02*
X182776952Y-107712000D01*
X182824571Y-107759619D01*
X182872190Y-107712000D01*
X182824571Y-107664380D01*
X182824571Y-107759619D01*
X183157904Y-107997714D02*
X183538857Y-107997714D01*
X183300761Y-107664380D02*
X183300761Y-108521523D01*
X183348380Y-108616761D01*
X183443619Y-108664380D01*
X183538857Y-108664380D01*
X183872190Y-108664380D02*
X183872190Y-107997714D01*
X183872190Y-108188190D02*
X183919809Y-108092952D01*
X183967428Y-108045333D01*
X184062666Y-107997714D01*
X184157904Y-107997714D01*
X184634095Y-108092952D02*
X184538857Y-108045333D01*
X184491238Y-107997714D01*
X184443619Y-107902476D01*
X184443619Y-107854857D01*
X184491238Y-107759619D01*
X184538857Y-107712000D01*
X184634095Y-107664380D01*
X184824571Y-107664380D01*
X184919809Y-107712000D01*
X184967428Y-107759619D01*
X185015047Y-107854857D01*
X185015047Y-107902476D01*
X184967428Y-107997714D01*
X184919809Y-108045333D01*
X184824571Y-108092952D01*
X184634095Y-108092952D01*
X184538857Y-108140571D01*
X184491238Y-108188190D01*
X184443619Y-108283428D01*
X184443619Y-108473904D01*
X184491238Y-108569142D01*
X184538857Y-108616761D01*
X184634095Y-108664380D01*
X184824571Y-108664380D01*
X184919809Y-108616761D01*
X184967428Y-108569142D01*
X185015047Y-108473904D01*
X185015047Y-108283428D01*
X184967428Y-108188190D01*
X184919809Y-108140571D01*
X184824571Y-108092952D01*
%TO.C,itr7*%
X168092571Y-108664380D02*
X168092571Y-107997714D01*
X168092571Y-107664380D02*
X168044952Y-107712000D01*
X168092571Y-107759619D01*
X168140190Y-107712000D01*
X168092571Y-107664380D01*
X168092571Y-107759619D01*
X168425904Y-107997714D02*
X168806857Y-107997714D01*
X168568761Y-107664380D02*
X168568761Y-108521523D01*
X168616380Y-108616761D01*
X168711619Y-108664380D01*
X168806857Y-108664380D01*
X169140190Y-108664380D02*
X169140190Y-107997714D01*
X169140190Y-108188190D02*
X169187809Y-108092952D01*
X169235428Y-108045333D01*
X169330666Y-107997714D01*
X169425904Y-107997714D01*
X169664000Y-107664380D02*
X170330666Y-107664380D01*
X169902095Y-108664380D01*
%TO.C,itr6*%
X153360571Y-108664380D02*
X153360571Y-107997714D01*
X153360571Y-107664380D02*
X153312952Y-107712000D01*
X153360571Y-107759619D01*
X153408190Y-107712000D01*
X153360571Y-107664380D01*
X153360571Y-107759619D01*
X153693904Y-107997714D02*
X154074857Y-107997714D01*
X153836761Y-107664380D02*
X153836761Y-108521523D01*
X153884380Y-108616761D01*
X153979619Y-108664380D01*
X154074857Y-108664380D01*
X154408190Y-108664380D02*
X154408190Y-107997714D01*
X154408190Y-108188190D02*
X154455809Y-108092952D01*
X154503428Y-108045333D01*
X154598666Y-107997714D01*
X154693904Y-107997714D01*
X155455809Y-107664380D02*
X155265333Y-107664380D01*
X155170095Y-107712000D01*
X155122476Y-107759619D01*
X155027238Y-107902476D01*
X154979619Y-108092952D01*
X154979619Y-108473904D01*
X155027238Y-108569142D01*
X155074857Y-108616761D01*
X155170095Y-108664380D01*
X155360571Y-108664380D01*
X155455809Y-108616761D01*
X155503428Y-108569142D01*
X155551047Y-108473904D01*
X155551047Y-108235809D01*
X155503428Y-108140571D01*
X155455809Y-108092952D01*
X155360571Y-108045333D01*
X155170095Y-108045333D01*
X155074857Y-108092952D01*
X155027238Y-108140571D01*
X154979619Y-108235809D01*
%TO.C,itr5*%
X138628571Y-108664380D02*
X138628571Y-107997714D01*
X138628571Y-107664380D02*
X138580952Y-107712000D01*
X138628571Y-107759619D01*
X138676190Y-107712000D01*
X138628571Y-107664380D01*
X138628571Y-107759619D01*
X138961904Y-107997714D02*
X139342857Y-107997714D01*
X139104761Y-107664380D02*
X139104761Y-108521523D01*
X139152380Y-108616761D01*
X139247619Y-108664380D01*
X139342857Y-108664380D01*
X139676190Y-108664380D02*
X139676190Y-107997714D01*
X139676190Y-108188190D02*
X139723809Y-108092952D01*
X139771428Y-108045333D01*
X139866666Y-107997714D01*
X139961904Y-107997714D01*
X140771428Y-107664380D02*
X140295238Y-107664380D01*
X140247619Y-108140571D01*
X140295238Y-108092952D01*
X140390476Y-108045333D01*
X140628571Y-108045333D01*
X140723809Y-108092952D01*
X140771428Y-108140571D01*
X140819047Y-108235809D01*
X140819047Y-108473904D01*
X140771428Y-108569142D01*
X140723809Y-108616761D01*
X140628571Y-108664380D01*
X140390476Y-108664380D01*
X140295238Y-108616761D01*
X140247619Y-108569142D01*
%TO.C,itr4*%
X123896571Y-109164380D02*
X123896571Y-108497714D01*
X123896571Y-108164380D02*
X123848952Y-108212000D01*
X123896571Y-108259619D01*
X123944190Y-108212000D01*
X123896571Y-108164380D01*
X123896571Y-108259619D01*
X124229904Y-108497714D02*
X124610857Y-108497714D01*
X124372761Y-108164380D02*
X124372761Y-109021523D01*
X124420380Y-109116761D01*
X124515619Y-109164380D01*
X124610857Y-109164380D01*
X124944190Y-109164380D02*
X124944190Y-108497714D01*
X124944190Y-108688190D02*
X124991809Y-108592952D01*
X125039428Y-108545333D01*
X125134666Y-108497714D01*
X125229904Y-108497714D01*
X125991809Y-108497714D02*
X125991809Y-109164380D01*
X125753714Y-108116761D02*
X125515619Y-108831047D01*
X126134666Y-108831047D01*
%TO.C,itr3*%
X109164571Y-108664380D02*
X109164571Y-107997714D01*
X109164571Y-107664380D02*
X109116952Y-107712000D01*
X109164571Y-107759619D01*
X109212190Y-107712000D01*
X109164571Y-107664380D01*
X109164571Y-107759619D01*
X109497904Y-107997714D02*
X109878857Y-107997714D01*
X109640761Y-107664380D02*
X109640761Y-108521523D01*
X109688380Y-108616761D01*
X109783619Y-108664380D01*
X109878857Y-108664380D01*
X110212190Y-108664380D02*
X110212190Y-107997714D01*
X110212190Y-108188190D02*
X110259809Y-108092952D01*
X110307428Y-108045333D01*
X110402666Y-107997714D01*
X110497904Y-107997714D01*
X110736000Y-107664380D02*
X111355047Y-107664380D01*
X111021714Y-108045333D01*
X111164571Y-108045333D01*
X111259809Y-108092952D01*
X111307428Y-108140571D01*
X111355047Y-108235809D01*
X111355047Y-108473904D01*
X111307428Y-108569142D01*
X111259809Y-108616761D01*
X111164571Y-108664380D01*
X110878857Y-108664380D01*
X110783619Y-108616761D01*
X110736000Y-108569142D01*
%TO.C,itr2*%
X94432571Y-108664380D02*
X94432571Y-107997714D01*
X94432571Y-107664380D02*
X94384952Y-107712000D01*
X94432571Y-107759619D01*
X94480190Y-107712000D01*
X94432571Y-107664380D01*
X94432571Y-107759619D01*
X94765904Y-107997714D02*
X95146857Y-107997714D01*
X94908761Y-107664380D02*
X94908761Y-108521523D01*
X94956380Y-108616761D01*
X95051619Y-108664380D01*
X95146857Y-108664380D01*
X95480190Y-108664380D02*
X95480190Y-107997714D01*
X95480190Y-108188190D02*
X95527809Y-108092952D01*
X95575428Y-108045333D01*
X95670666Y-107997714D01*
X95765904Y-107997714D01*
X96051619Y-107759619D02*
X96099238Y-107712000D01*
X96194476Y-107664380D01*
X96432571Y-107664380D01*
X96527809Y-107712000D01*
X96575428Y-107759619D01*
X96623047Y-107854857D01*
X96623047Y-107950095D01*
X96575428Y-108092952D01*
X96004000Y-108664380D01*
X96623047Y-108664380D01*
%TO.C,itr1*%
X79700571Y-108664380D02*
X79700571Y-107997714D01*
X79700571Y-107664380D02*
X79652952Y-107712000D01*
X79700571Y-107759619D01*
X79748190Y-107712000D01*
X79700571Y-107664380D01*
X79700571Y-107759619D01*
X80033904Y-107997714D02*
X80414857Y-107997714D01*
X80176761Y-107664380D02*
X80176761Y-108521523D01*
X80224380Y-108616761D01*
X80319619Y-108664380D01*
X80414857Y-108664380D01*
X80748190Y-108664380D02*
X80748190Y-107997714D01*
X80748190Y-108188190D02*
X80795809Y-108092952D01*
X80843428Y-108045333D01*
X80938666Y-107997714D01*
X81033904Y-107997714D01*
X81891047Y-108664380D02*
X81319619Y-108664380D01*
X81605333Y-108664380D02*
X81605333Y-107664380D01*
X81510095Y-107807238D01*
X81414857Y-107902476D01*
X81319619Y-107950095D01*
D11*
%TO.C,itr8*%
X190500000Y-108712000D02*
G75*
G03*
X190500000Y-108712000I-6604000J0D01*
G01*
%TO.C,itr7*%
X175768000Y-108712000D02*
G75*
G03*
X175768000Y-108712000I-6604000J0D01*
G01*
%TO.C,itr6*%
X161036000Y-108712000D02*
G75*
G03*
X161036000Y-108712000I-6604000J0D01*
G01*
%TO.C,itr5*%
X146304000Y-108712000D02*
G75*
G03*
X146304000Y-108712000I-6604000J0D01*
G01*
%TO.C,itr4*%
X131572000Y-108712000D02*
G75*
G03*
X131572000Y-108712000I-6604000J0D01*
G01*
%TO.C,itr3*%
X116840000Y-108712000D02*
G75*
G03*
X116840000Y-108712000I-6604000J0D01*
G01*
%TO.C,itr2*%
X102108000Y-108712000D02*
G75*
G03*
X102108000Y-108712000I-6604000J0D01*
G01*
%TO.C,itr1*%
X87376000Y-108712000D02*
G75*
G03*
X87376000Y-108712000I-6604000J0D01*
G01*
%TD*%
%LPC*%
D12*
%TO.C,itr8*%
X187452000Y-106680000D03*
X185928000Y-105156000D03*
X183896000Y-104648000D03*
X181864000Y-105156000D03*
X180340000Y-106680000D03*
X179832000Y-108712000D03*
X180340000Y-110744000D03*
X181864000Y-112268000D03*
X183896000Y-112776000D03*
X185928000Y-112268000D03*
X187452000Y-110744000D03*
%TD*%
%TO.C,itr7*%
X172720000Y-106680000D03*
X171196000Y-105156000D03*
X169164000Y-104648000D03*
X167132000Y-105156000D03*
X165608000Y-106680000D03*
X165100000Y-108712000D03*
X165608000Y-110744000D03*
X167132000Y-112268000D03*
X169164000Y-112776000D03*
X171196000Y-112268000D03*
X172720000Y-110744000D03*
%TD*%
%TO.C,itr6*%
X157988000Y-106680000D03*
X156464000Y-105156000D03*
X154432000Y-104648000D03*
X152400000Y-105156000D03*
X150876000Y-106680000D03*
X150368000Y-108712000D03*
X150876000Y-110744000D03*
X152400000Y-112268000D03*
X154432000Y-112776000D03*
X156464000Y-112268000D03*
X157988000Y-110744000D03*
%TD*%
%TO.C,itr5*%
X143256000Y-106680000D03*
X141732000Y-105156000D03*
X139700000Y-104648000D03*
X137668000Y-105156000D03*
X136144000Y-106680000D03*
X135636000Y-108712000D03*
X136144000Y-110744000D03*
X137668000Y-112268000D03*
X139700000Y-112776000D03*
X141732000Y-112268000D03*
X143256000Y-110744000D03*
%TD*%
%TO.C,itr4*%
X128524000Y-106680000D03*
X127000000Y-105156000D03*
X124968000Y-104648000D03*
X122936000Y-105156000D03*
X121412000Y-106680000D03*
X120904000Y-108712000D03*
X121412000Y-110744000D03*
X122936000Y-112268000D03*
X124968000Y-112776000D03*
X127000000Y-112268000D03*
X128524000Y-110744000D03*
%TD*%
%TO.C,itr3*%
X113792000Y-106680000D03*
X112268000Y-105156000D03*
X110236000Y-104648000D03*
X108204000Y-105156000D03*
X106680000Y-106680000D03*
X106172000Y-108712000D03*
X106680000Y-110744000D03*
X108204000Y-112268000D03*
X110236000Y-112776000D03*
X112268000Y-112268000D03*
X113792000Y-110744000D03*
%TD*%
%TO.C,itr2*%
X99060000Y-106680000D03*
X97536000Y-105156000D03*
X95504000Y-104648000D03*
X93472000Y-105156000D03*
X91948000Y-106680000D03*
X91440000Y-108712000D03*
X91948000Y-110744000D03*
X93472000Y-112268000D03*
X95504000Y-112776000D03*
X97536000Y-112268000D03*
X99060000Y-110744000D03*
%TD*%
%TO.C,itr1*%
X84328000Y-106680000D03*
X82804000Y-105156000D03*
X80772000Y-104648000D03*
X78740000Y-105156000D03*
X77216000Y-106680000D03*
X76708000Y-108712000D03*
X77216000Y-110744000D03*
X78740000Y-112268000D03*
X80772000Y-112776000D03*
X82804000Y-112268000D03*
X84328000Y-110744000D03*
%TD*%
D13*
%TO.C,H2*%
X193971000Y-84836000D03*
X196596000Y-87461000D03*
X199221000Y-84836000D03*
X198452155Y-86692155D03*
X194739845Y-82979845D03*
X194739845Y-86692155D03*
D14*
X196596000Y-84836000D03*
D13*
X196596000Y-82211000D03*
X198452155Y-82979845D03*
%TD*%
%TO.C,H4*%
X69928155Y-130223845D03*
X70697000Y-132080000D03*
X65447000Y-132080000D03*
X66215845Y-133936155D03*
D14*
X68072000Y-132080000D03*
D13*
X66215845Y-130223845D03*
X68072000Y-134705000D03*
X69928155Y-133936155D03*
X68072000Y-129455000D03*
%TD*%
D14*
%TO.C,H1*%
X68072000Y-84836000D03*
D13*
X66215845Y-86692155D03*
X66215845Y-82979845D03*
X69928155Y-86692155D03*
X65447000Y-84836000D03*
X68072000Y-87461000D03*
X68072000Y-82211000D03*
X69928155Y-82979845D03*
X70697000Y-84836000D03*
%TD*%
%TO.C,H3*%
X198452155Y-133936155D03*
X194739845Y-130223845D03*
X194739845Y-133936155D03*
X199221000Y-132080000D03*
X196596000Y-129455000D03*
X198452155Y-130223845D03*
D14*
X196596000Y-132080000D03*
D13*
X196596000Y-134705000D03*
X193971000Y-132080000D03*
%TD*%
D15*
%TO.C,JT1*%
X132080000Y-130556000D03*
D16*
X134620000Y-130556000D03*
X137160000Y-130556000D03*
X139700000Y-130556000D03*
X142240000Y-130556000D03*
X144780000Y-130556000D03*
X147320000Y-130556000D03*
X149860000Y-130556000D03*
X152400000Y-130556000D03*
X154940000Y-130556000D03*
%TD*%
D15*
%TO.C,JT2*%
X188468000Y-86360000D03*
D16*
X185928000Y-86360000D03*
X183388000Y-86360000D03*
X180848000Y-86360000D03*
X178308000Y-86360000D03*
X175768000Y-86360000D03*
X173228000Y-86360000D03*
X170688000Y-86360000D03*
%TD*%
M02*
