M48
; DRILL file {KiCad (6.0.2)} date Fri Jun 24 18:37:43 2022
; FORMAT={-:-/ absolute / metric / decimal}
; #@! TF.CreationDate,2022-06-24T18:37:43+02:00
; #@! TF.GenerationSoftware,Kicad,Pcbnew,(6.0.2)
; #@! TF.FileFunction,Plated,1,2,PTH
FMAT,2
METRIC
; #@! TA.AperFunction,Plated,PTH,ViaDrill
T1C0.400
; #@! TA.AperFunction,Plated,PTH,ComponentDrill
T2C0.500
; #@! TA.AperFunction,Plated,PTH,ComponentDrill
T3C0.762
; #@! TA.AperFunction,Plated,PTH,ComponentDrill
T4C1.000
; #@! TA.AperFunction,Plated,PTH,ComponentDrill
T5C3.500
%
G90
G05
T1
X81.28Y-101.092
X83.312Y-100.076
X83.312Y-115.824
X84.836Y-99.06
X84.836Y-116.84
X96.012Y-101.092
X98.044Y-100.076
X98.044Y-115.824
X99.568Y-99.06
X99.568Y-116.84
X110.744Y-101.092
X112.776Y-100.076
X112.776Y-115.824
X114.3Y-99.06
X114.3Y-116.84
X125.476Y-101.092
X127.508Y-100.076
X127.508Y-115.824
X129.032Y-99.06
X129.032Y-116.84
X140.208Y-101.092
X142.24Y-100.076
X142.24Y-115.824
X143.764Y-99.06
X143.764Y-116.84
X151.384Y-122.428
X152.908Y-120.904
X154.94Y-101.092
X156.972Y-100.076
X156.972Y-115.824
X158.496Y-99.06
X158.496Y-116.84
X169.672Y-101.092
X171.704Y-100.076
X171.704Y-115.824
X173.228Y-99.06
X173.228Y-116.84
X174.244Y-112.268
X179.578Y-102.362
X180.848Y-101.092
X181.864Y-100.076
T2
X65.447Y-84.836
X65.447Y-132.08
X66.216Y-82.98
X66.216Y-86.692
X66.216Y-130.224
X66.216Y-133.936
X68.072Y-82.211
X68.072Y-87.461
X68.072Y-129.455
X68.072Y-134.705
X69.928Y-82.98
X69.928Y-86.692
X69.928Y-130.224
X69.928Y-133.936
X70.697Y-84.836
X70.697Y-132.08
X193.971Y-84.836
X193.971Y-132.08
X194.74Y-82.98
X194.74Y-86.692
X194.74Y-130.224
X194.74Y-133.936
X196.596Y-82.211
X196.596Y-87.461
X196.596Y-129.455
X196.596Y-134.705
X198.452Y-82.98
X198.452Y-86.692
X198.452Y-130.224
X198.452Y-133.936
X199.221Y-84.836
X199.221Y-132.08
T3
X76.708Y-108.712
X77.216Y-106.68
X77.216Y-110.744
X78.74Y-105.156
X78.74Y-112.268
X80.772Y-104.648
X80.772Y-112.776
X82.804Y-105.156
X82.804Y-112.268
X84.328Y-106.68
X84.328Y-110.744
X91.44Y-108.712
X91.948Y-106.68
X91.948Y-110.744
X93.472Y-105.156
X93.472Y-112.268
X95.504Y-104.648
X95.504Y-112.776
X97.536Y-105.156
X97.536Y-112.268
X99.06Y-106.68
X99.06Y-110.744
X106.172Y-108.712
X106.68Y-106.68
X106.68Y-110.744
X108.204Y-105.156
X108.204Y-112.268
X110.236Y-104.648
X110.236Y-112.776
X112.268Y-105.156
X112.268Y-112.268
X113.792Y-106.68
X113.792Y-110.744
X120.904Y-108.712
X121.412Y-106.68
X121.412Y-110.744
X122.936Y-105.156
X122.936Y-112.268
X124.968Y-104.648
X124.968Y-112.776
X127.0Y-105.156
X127.0Y-112.268
X128.524Y-106.68
X128.524Y-110.744
X135.636Y-108.712
X136.144Y-106.68
X136.144Y-110.744
X137.668Y-105.156
X137.668Y-112.268
X139.7Y-104.648
X139.7Y-112.776
X141.732Y-105.156
X141.732Y-112.268
X143.256Y-106.68
X143.256Y-110.744
X150.368Y-108.712
X150.876Y-106.68
X150.876Y-110.744
X152.4Y-105.156
X152.4Y-112.268
X154.432Y-104.648
X154.432Y-112.776
X156.464Y-105.156
X156.464Y-112.268
X157.988Y-106.68
X157.988Y-110.744
X165.1Y-108.712
X165.608Y-106.68
X165.608Y-110.744
X167.132Y-105.156
X167.132Y-112.268
X169.164Y-104.648
X169.164Y-112.776
X171.196Y-105.156
X171.196Y-112.268
X172.72Y-106.68
X172.72Y-110.744
X179.832Y-108.712
X180.34Y-106.68
X180.34Y-110.744
X181.864Y-105.156
X181.864Y-112.268
X183.896Y-104.648
X183.896Y-112.776
X185.928Y-105.156
X185.928Y-112.268
X187.452Y-106.68
X187.452Y-110.744
T4
X132.08Y-130.556
X134.62Y-130.556
X137.16Y-130.556
X139.7Y-130.556
X142.24Y-130.556
X144.78Y-130.556
X147.32Y-130.556
X149.86Y-130.556
X152.4Y-130.556
X154.94Y-130.556
X170.688Y-86.36
X173.228Y-86.36
X175.768Y-86.36
X178.308Y-86.36
X180.848Y-86.36
X183.388Y-86.36
X185.928Y-86.36
X188.468Y-86.36
T5
X68.072Y-84.836
X68.072Y-132.08
X196.596Y-84.836
X196.596Y-132.08
T0
M30
