%TF.GenerationSoftware,KiCad,Pcbnew,(6.0.2)*%
%TF.CreationDate,2022-06-24T18:37:41+02:00*%
%TF.ProjectId,divergence_meter_top,64697665-7267-4656-9e63-655f6d657465,rev?*%
%TF.SameCoordinates,Original*%
%TF.FileFunction,Copper,L2,Bot*%
%TF.FilePolarity,Positive*%
%FSLAX46Y46*%
G04 Gerber Fmt 4.6, Leading zero omitted, Abs format (unit mm)*
G04 Created by KiCad (PCBNEW (6.0.2)) date 2022-06-24 18:37:41*
%MOMM*%
%LPD*%
G01*
G04 APERTURE LIST*
%TA.AperFunction,ComponentPad*%
%ADD10C,1.524000*%
%TD*%
%TA.AperFunction,ComponentPad*%
%ADD11C,0.800000*%
%TD*%
%TA.AperFunction,ComponentPad*%
%ADD12C,7.000000*%
%TD*%
%TA.AperFunction,ComponentPad*%
%ADD13R,1.700000X1.700000*%
%TD*%
%TA.AperFunction,ComponentPad*%
%ADD14O,1.700000X1.700000*%
%TD*%
%TA.AperFunction,ViaPad*%
%ADD15C,0.800000*%
%TD*%
%TA.AperFunction,Conductor*%
%ADD16C,0.500000*%
%TD*%
G04 APERTURE END LIST*
D10*
%TO.P,itr8,1,B*%
%TO.N,Net-(JT2-Pad1)*%
X187452000Y-106680000D03*
%TO.P,itr8,2,A*%
%TO.N,Net-(JT2-Pad2)*%
X185928000Y-105156000D03*
%TO.P,itr8,3,G*%
%TO.N,Net-(JT2-Pad3)*%
X183896000Y-104648000D03*
%TO.P,itr8,4,F*%
%TO.N,Net-(JT2-Pad4)*%
X181864000Y-105156000D03*
%TO.P,itr8,5,E*%
%TO.N,Net-(JT2-Pad5)*%
X180340000Y-106680000D03*
%TO.P,itr8,6,D*%
%TO.N,Net-(JT2-Pad6)*%
X179832000Y-108712000D03*
%TO.P,itr8,7,Cath*%
%TO.N,GND1*%
X180340000Y-110744000D03*
%TO.P,itr8,8,Cath*%
%TO.N,+1V5*%
X181864000Y-112268000D03*
%TO.P,itr8,9,Grid*%
%TO.N,Net-(JT1-Pad8)*%
X183896000Y-112776000D03*
%TO.P,itr8,10,C*%
%TO.N,Net-(JT2-Pad7)*%
X185928000Y-112268000D03*
%TO.P,itr8,11,DP*%
%TO.N,Net-(JT2-Pad8)*%
X187452000Y-110744000D03*
%TD*%
%TO.P,itr7,1,B*%
%TO.N,Net-(JT2-Pad1)*%
X172720000Y-106680000D03*
%TO.P,itr7,2,A*%
%TO.N,Net-(JT2-Pad2)*%
X171196000Y-105156000D03*
%TO.P,itr7,3,G*%
%TO.N,Net-(JT2-Pad3)*%
X169164000Y-104648000D03*
%TO.P,itr7,4,F*%
%TO.N,Net-(JT2-Pad4)*%
X167132000Y-105156000D03*
%TO.P,itr7,5,E*%
%TO.N,Net-(JT2-Pad5)*%
X165608000Y-106680000D03*
%TO.P,itr7,6,D*%
%TO.N,Net-(JT2-Pad6)*%
X165100000Y-108712000D03*
%TO.P,itr7,7,Cath*%
%TO.N,GND1*%
X165608000Y-110744000D03*
%TO.P,itr7,8,Cath*%
%TO.N,+1V5*%
X167132000Y-112268000D03*
%TO.P,itr7,9,Grid*%
%TO.N,Net-(JT1-Pad7)*%
X169164000Y-112776000D03*
%TO.P,itr7,10,C*%
%TO.N,Net-(JT2-Pad7)*%
X171196000Y-112268000D03*
%TO.P,itr7,11,DP*%
%TO.N,Net-(JT2-Pad8)*%
X172720000Y-110744000D03*
%TD*%
%TO.P,itr6,1,B*%
%TO.N,Net-(JT2-Pad1)*%
X157988000Y-106680000D03*
%TO.P,itr6,2,A*%
%TO.N,Net-(JT2-Pad2)*%
X156464000Y-105156000D03*
%TO.P,itr6,3,G*%
%TO.N,Net-(JT2-Pad3)*%
X154432000Y-104648000D03*
%TO.P,itr6,4,F*%
%TO.N,Net-(JT2-Pad4)*%
X152400000Y-105156000D03*
%TO.P,itr6,5,E*%
%TO.N,Net-(JT2-Pad5)*%
X150876000Y-106680000D03*
%TO.P,itr6,6,D*%
%TO.N,Net-(JT2-Pad6)*%
X150368000Y-108712000D03*
%TO.P,itr6,7,Cath*%
%TO.N,GND1*%
X150876000Y-110744000D03*
%TO.P,itr6,8,Cath*%
%TO.N,+1V5*%
X152400000Y-112268000D03*
%TO.P,itr6,9,Grid*%
%TO.N,Net-(JT1-Pad6)*%
X154432000Y-112776000D03*
%TO.P,itr6,10,C*%
%TO.N,Net-(JT2-Pad7)*%
X156464000Y-112268000D03*
%TO.P,itr6,11,DP*%
%TO.N,Net-(JT2-Pad8)*%
X157988000Y-110744000D03*
%TD*%
%TO.P,itr5,1,B*%
%TO.N,Net-(JT2-Pad1)*%
X143256000Y-106680000D03*
%TO.P,itr5,2,A*%
%TO.N,Net-(JT2-Pad2)*%
X141732000Y-105156000D03*
%TO.P,itr5,3,G*%
%TO.N,Net-(JT2-Pad3)*%
X139700000Y-104648000D03*
%TO.P,itr5,4,F*%
%TO.N,Net-(JT2-Pad4)*%
X137668000Y-105156000D03*
%TO.P,itr5,5,E*%
%TO.N,Net-(JT2-Pad5)*%
X136144000Y-106680000D03*
%TO.P,itr5,6,D*%
%TO.N,Net-(JT2-Pad6)*%
X135636000Y-108712000D03*
%TO.P,itr5,7,Cath*%
%TO.N,GND1*%
X136144000Y-110744000D03*
%TO.P,itr5,8,Cath*%
%TO.N,+1V5*%
X137668000Y-112268000D03*
%TO.P,itr5,9,Grid*%
%TO.N,Net-(JT1-Pad5)*%
X139700000Y-112776000D03*
%TO.P,itr5,10,C*%
%TO.N,Net-(JT2-Pad7)*%
X141732000Y-112268000D03*
%TO.P,itr5,11,DP*%
%TO.N,Net-(JT2-Pad8)*%
X143256000Y-110744000D03*
%TD*%
%TO.P,itr4,1,B*%
%TO.N,Net-(JT2-Pad1)*%
X128524000Y-106680000D03*
%TO.P,itr4,2,A*%
%TO.N,Net-(JT2-Pad2)*%
X127000000Y-105156000D03*
%TO.P,itr4,3,G*%
%TO.N,Net-(JT2-Pad3)*%
X124968000Y-104648000D03*
%TO.P,itr4,4,F*%
%TO.N,Net-(JT2-Pad4)*%
X122936000Y-105156000D03*
%TO.P,itr4,5,E*%
%TO.N,Net-(JT2-Pad5)*%
X121412000Y-106680000D03*
%TO.P,itr4,6,D*%
%TO.N,Net-(JT2-Pad6)*%
X120904000Y-108712000D03*
%TO.P,itr4,7,Cath*%
%TO.N,GND1*%
X121412000Y-110744000D03*
%TO.P,itr4,8,Cath*%
%TO.N,+1V5*%
X122936000Y-112268000D03*
%TO.P,itr4,9,Grid*%
%TO.N,Net-(JT1-Pad4)*%
X124968000Y-112776000D03*
%TO.P,itr4,10,C*%
%TO.N,Net-(JT2-Pad7)*%
X127000000Y-112268000D03*
%TO.P,itr4,11,DP*%
%TO.N,Net-(JT2-Pad8)*%
X128524000Y-110744000D03*
%TD*%
%TO.P,itr3,1,B*%
%TO.N,Net-(JT2-Pad1)*%
X113792000Y-106680000D03*
%TO.P,itr3,2,A*%
%TO.N,Net-(JT2-Pad2)*%
X112268000Y-105156000D03*
%TO.P,itr3,3,G*%
%TO.N,Net-(JT2-Pad3)*%
X110236000Y-104648000D03*
%TO.P,itr3,4,F*%
%TO.N,Net-(JT2-Pad4)*%
X108204000Y-105156000D03*
%TO.P,itr3,5,E*%
%TO.N,Net-(JT2-Pad5)*%
X106680000Y-106680000D03*
%TO.P,itr3,6,D*%
%TO.N,Net-(JT2-Pad6)*%
X106172000Y-108712000D03*
%TO.P,itr3,7,Cath*%
%TO.N,GND1*%
X106680000Y-110744000D03*
%TO.P,itr3,8,Cath*%
%TO.N,+1V5*%
X108204000Y-112268000D03*
%TO.P,itr3,9,Grid*%
%TO.N,Net-(JT1-Pad3)*%
X110236000Y-112776000D03*
%TO.P,itr3,10,C*%
%TO.N,Net-(JT2-Pad7)*%
X112268000Y-112268000D03*
%TO.P,itr3,11,DP*%
%TO.N,Net-(JT2-Pad8)*%
X113792000Y-110744000D03*
%TD*%
%TO.P,itr2,1,B*%
%TO.N,Net-(JT2-Pad1)*%
X99060000Y-106680000D03*
%TO.P,itr2,2,A*%
%TO.N,Net-(JT2-Pad2)*%
X97536000Y-105156000D03*
%TO.P,itr2,3,G*%
%TO.N,Net-(JT2-Pad3)*%
X95504000Y-104648000D03*
%TO.P,itr2,4,F*%
%TO.N,Net-(JT2-Pad4)*%
X93472000Y-105156000D03*
%TO.P,itr2,5,E*%
%TO.N,Net-(JT2-Pad5)*%
X91948000Y-106680000D03*
%TO.P,itr2,6,D*%
%TO.N,Net-(JT2-Pad6)*%
X91440000Y-108712000D03*
%TO.P,itr2,7,Cath*%
%TO.N,GND1*%
X91948000Y-110744000D03*
%TO.P,itr2,8,Cath*%
%TO.N,+1V5*%
X93472000Y-112268000D03*
%TO.P,itr2,9,Grid*%
%TO.N,Net-(JT1-Pad2)*%
X95504000Y-112776000D03*
%TO.P,itr2,10,C*%
%TO.N,Net-(JT2-Pad7)*%
X97536000Y-112268000D03*
%TO.P,itr2,11,DP*%
%TO.N,Net-(JT2-Pad8)*%
X99060000Y-110744000D03*
%TD*%
%TO.P,itr1,1,B*%
%TO.N,Net-(JT2-Pad1)*%
X84328000Y-106680000D03*
%TO.P,itr1,2,A*%
%TO.N,Net-(JT2-Pad2)*%
X82804000Y-105156000D03*
%TO.P,itr1,3,G*%
%TO.N,Net-(JT2-Pad3)*%
X80772000Y-104648000D03*
%TO.P,itr1,4,F*%
%TO.N,Net-(JT2-Pad4)*%
X78740000Y-105156000D03*
%TO.P,itr1,5,E*%
%TO.N,Net-(JT2-Pad5)*%
X77216000Y-106680000D03*
%TO.P,itr1,6,D*%
%TO.N,Net-(JT2-Pad6)*%
X76708000Y-108712000D03*
%TO.P,itr1,7,Cath*%
%TO.N,GND1*%
X77216000Y-110744000D03*
%TO.P,itr1,8,Cath*%
%TO.N,+1V5*%
X78740000Y-112268000D03*
%TO.P,itr1,9,Grid*%
%TO.N,Net-(JT1-Pad1)*%
X80772000Y-112776000D03*
%TO.P,itr1,10,C*%
%TO.N,Net-(JT2-Pad7)*%
X82804000Y-112268000D03*
%TO.P,itr1,11,DP*%
%TO.N,Net-(JT2-Pad8)*%
X84328000Y-110744000D03*
%TD*%
D11*
%TO.P,H2,1,1*%
%TO.N,GND*%
X193971000Y-84836000D03*
X196596000Y-87461000D03*
X199221000Y-84836000D03*
X198452155Y-86692155D03*
X194739845Y-82979845D03*
X194739845Y-86692155D03*
D12*
X196596000Y-84836000D03*
D11*
X196596000Y-82211000D03*
X198452155Y-82979845D03*
%TD*%
%TO.P,H4,1,1*%
%TO.N,GND*%
X69928155Y-130223845D03*
X70697000Y-132080000D03*
X65447000Y-132080000D03*
X66215845Y-133936155D03*
D12*
X68072000Y-132080000D03*
D11*
X66215845Y-130223845D03*
X68072000Y-134705000D03*
X69928155Y-133936155D03*
X68072000Y-129455000D03*
%TD*%
D12*
%TO.P,H1,1,1*%
%TO.N,GND*%
X68072000Y-84836000D03*
D11*
X66215845Y-86692155D03*
X66215845Y-82979845D03*
X69928155Y-86692155D03*
X65447000Y-84836000D03*
X68072000Y-87461000D03*
X68072000Y-82211000D03*
X69928155Y-82979845D03*
X70697000Y-84836000D03*
%TD*%
%TO.P,H3,1,1*%
%TO.N,GND*%
X198452155Y-133936155D03*
X194739845Y-130223845D03*
X194739845Y-133936155D03*
X199221000Y-132080000D03*
X196596000Y-129455000D03*
X198452155Y-130223845D03*
D12*
X196596000Y-132080000D03*
D11*
X196596000Y-134705000D03*
X193971000Y-132080000D03*
%TD*%
D13*
%TO.P,JT1,1,Pin_1*%
%TO.N,Net-(JT1-Pad1)*%
X132080000Y-130556000D03*
D14*
%TO.P,JT1,2,Pin_2*%
%TO.N,Net-(JT1-Pad2)*%
X134620000Y-130556000D03*
%TO.P,JT1,3,Pin_3*%
%TO.N,Net-(JT1-Pad3)*%
X137160000Y-130556000D03*
%TO.P,JT1,4,Pin_4*%
%TO.N,Net-(JT1-Pad4)*%
X139700000Y-130556000D03*
%TO.P,JT1,5,Pin_5*%
%TO.N,Net-(JT1-Pad5)*%
X142240000Y-130556000D03*
%TO.P,JT1,6,Pin_6*%
%TO.N,Net-(JT1-Pad6)*%
X144780000Y-130556000D03*
%TO.P,JT1,7,Pin_7*%
%TO.N,Net-(JT1-Pad7)*%
X147320000Y-130556000D03*
%TO.P,JT1,8,Pin_8*%
%TO.N,Net-(JT1-Pad8)*%
X149860000Y-130556000D03*
%TO.P,JT1,9,Pin_9*%
%TO.N,GND1*%
X152400000Y-130556000D03*
%TO.P,JT1,10,Pin_10*%
%TO.N,+1V5*%
X154940000Y-130556000D03*
%TD*%
D13*
%TO.P,JT2,1,Pin_1*%
%TO.N,Net-(JT2-Pad1)*%
X188468000Y-86360000D03*
D14*
%TO.P,JT2,2,Pin_2*%
%TO.N,Net-(JT2-Pad2)*%
X185928000Y-86360000D03*
%TO.P,JT2,3,Pin_3*%
%TO.N,Net-(JT2-Pad3)*%
X183388000Y-86360000D03*
%TO.P,JT2,4,Pin_4*%
%TO.N,Net-(JT2-Pad4)*%
X180848000Y-86360000D03*
%TO.P,JT2,5,Pin_5*%
%TO.N,Net-(JT2-Pad5)*%
X178308000Y-86360000D03*
%TO.P,JT2,6,Pin_6*%
%TO.N,Net-(JT2-Pad6)*%
X175768000Y-86360000D03*
%TO.P,JT2,7,Pin_7*%
%TO.N,Net-(JT2-Pad7)*%
X173228000Y-86360000D03*
%TO.P,JT2,8,Pin_8*%
%TO.N,Net-(JT2-Pad8)*%
X170688000Y-86360000D03*
%TD*%
D15*
%TO.N,Net-(JT2-Pad1)*%
X99568000Y-99060000D03*
X84836000Y-99060000D03*
X114300000Y-99060000D03*
X143764000Y-99060000D03*
X129032000Y-99060000D03*
X173228000Y-99060000D03*
X158496000Y-99060000D03*
%TO.N,Net-(JT2-Pad2)*%
X171704000Y-100076000D03*
X112776000Y-100076000D03*
X181864000Y-100076000D03*
X98044000Y-100076000D03*
X127508000Y-100076000D03*
X142240000Y-100076000D03*
X156972000Y-100076000D03*
X83312000Y-100076000D03*
%TO.N,Net-(JT2-Pad3)*%
X81280000Y-101092000D03*
X154940000Y-101092000D03*
X140208000Y-101092000D03*
X110744000Y-101092000D03*
X96012000Y-101092000D03*
X180848000Y-101092000D03*
X169672000Y-101092000D03*
X125476000Y-101092000D03*
%TO.N,Net-(JT2-Pad4)*%
X179578000Y-102362000D03*
%TO.N,GND1*%
X151384000Y-122428000D03*
%TO.N,+1V5*%
X152908000Y-120904000D03*
%TO.N,Net-(JT2-Pad7)*%
X112776000Y-115824000D03*
X171704000Y-115824000D03*
X156972000Y-115824000D03*
X174244000Y-112268000D03*
X98044000Y-115824000D03*
X83312000Y-115824000D03*
X127508000Y-115824000D03*
X142240000Y-115824000D03*
%TO.N,Net-(JT2-Pad8)*%
X84836000Y-116840000D03*
X143764000Y-116840000D03*
X158496000Y-116840000D03*
X173228000Y-116840000D03*
X99568000Y-116840000D03*
X114300000Y-116840000D03*
X129032000Y-116840000D03*
%TD*%
D16*
%TO.N,Net-(JT2-Pad1)*%
X84836000Y-99060000D02*
X182372000Y-99060000D01*
X187452000Y-104140000D02*
X187452000Y-106680000D01*
X182372000Y-99060000D02*
X187452000Y-104140000D01*
X188468000Y-86360000D02*
X188468000Y-92964000D01*
X188468000Y-92964000D02*
X182372000Y-99060000D01*
%TO.N,Net-(JT2-Pad2)*%
X181864000Y-100076000D02*
X83312000Y-100076000D01*
X185928000Y-104078370D02*
X181925630Y-100076000D01*
X181925630Y-100076000D02*
X181864000Y-100076000D01*
X185928000Y-105156000D02*
X185928000Y-104078370D01*
%TO.N,Net-(JT2-Pad3)*%
X81280000Y-101092000D02*
X180848000Y-101092000D01*
X180848000Y-101092000D02*
X183896000Y-104140000D01*
X183896000Y-104140000D02*
X183896000Y-104648000D01*
%TO.N,Net-(JT2-Pad4)*%
X122936000Y-105156000D02*
X122936000Y-103124000D01*
X108204000Y-103124000D02*
X108966000Y-102362000D01*
X78740000Y-104140000D02*
X80518000Y-102362000D01*
X153162000Y-102362000D02*
X167894000Y-102362000D01*
X152400000Y-105156000D02*
X152400000Y-103124000D01*
X108966000Y-102362000D02*
X123698000Y-102362000D01*
X167132000Y-105156000D02*
X167132000Y-103124000D01*
X78740000Y-105156000D02*
X78740000Y-104140000D01*
X137668000Y-103124000D02*
X138430000Y-102362000D01*
X108204000Y-105156000D02*
X108204000Y-103124000D01*
X181864000Y-103124000D02*
X181102000Y-102362000D01*
X167132000Y-103124000D02*
X167894000Y-102362000D01*
X138430000Y-102362000D02*
X153162000Y-102362000D01*
X181864000Y-105156000D02*
X181864000Y-103124000D01*
X122936000Y-103124000D02*
X123698000Y-102362000D01*
X80518000Y-102362000D02*
X94234000Y-102362000D01*
X94234000Y-102362000D02*
X108966000Y-102362000D01*
X179578000Y-102362000D02*
X167894000Y-102362000D01*
X93472000Y-105156000D02*
X93472000Y-103124000D01*
X152400000Y-103124000D02*
X153162000Y-102362000D01*
X93472000Y-103124000D02*
X94234000Y-102362000D01*
X123698000Y-102362000D02*
X138430000Y-102362000D01*
X181102000Y-102362000D02*
X179578000Y-102362000D01*
X137668000Y-105156000D02*
X137668000Y-103124000D01*
%TO.N,Net-(JT2-Pad5)*%
X137355511Y-107891511D02*
X136144000Y-106680000D01*
X135128000Y-106680000D02*
X133916489Y-107891511D01*
X150876000Y-106680000D02*
X149860000Y-106680000D01*
X89720489Y-107891511D02*
X78427511Y-107891511D01*
X178112489Y-107891511D02*
X166819511Y-107891511D01*
X180340000Y-106680000D02*
X179324000Y-106680000D01*
X106680000Y-106680000D02*
X105664000Y-106680000D01*
X163380489Y-107891511D02*
X152087511Y-107891511D01*
X91948000Y-106680000D02*
X90932000Y-106680000D01*
X105664000Y-106680000D02*
X104452489Y-107891511D01*
X78427511Y-107891511D02*
X77216000Y-106680000D01*
X93159511Y-107891511D02*
X91948000Y-106680000D01*
X121412000Y-106680000D02*
X120396000Y-106680000D01*
X133916489Y-107891511D02*
X122623511Y-107891511D01*
X164592000Y-106680000D02*
X163380489Y-107891511D01*
X149860000Y-106680000D02*
X148648489Y-107891511D01*
X104452489Y-107891511D02*
X93159511Y-107891511D01*
X122623511Y-107891511D02*
X121412000Y-106680000D01*
X165608000Y-106680000D02*
X164592000Y-106680000D01*
X136144000Y-106680000D02*
X135128000Y-106680000D01*
X179324000Y-106680000D02*
X178112489Y-107891511D01*
X120396000Y-106680000D02*
X119184489Y-107891511D01*
X148648489Y-107891511D02*
X137355511Y-107891511D01*
X166819511Y-107891511D02*
X165608000Y-106680000D01*
X152087511Y-107891511D02*
X150876000Y-106680000D01*
X107891511Y-107891511D02*
X106680000Y-106680000D01*
X90932000Y-106680000D02*
X89720489Y-107891511D01*
X119184489Y-107891511D02*
X107891511Y-107891511D01*
%TO.N,Net-(JT2-Pad6)*%
X76708000Y-108712000D02*
X179832000Y-108712000D01*
%TO.N,GND1*%
X105664000Y-110744000D02*
X104452489Y-109532489D01*
X121412000Y-110744000D02*
X120396000Y-110744000D01*
X89720489Y-109532489D02*
X78427511Y-109532489D01*
X150876000Y-110744000D02*
X149860000Y-110744000D01*
X135128000Y-110744000D02*
X133916489Y-109532489D01*
X180340000Y-110744000D02*
X179324000Y-110744000D01*
X106680000Y-110744000D02*
X105664000Y-110744000D01*
X152400000Y-123444000D02*
X152400000Y-130556000D01*
X152087511Y-109532489D02*
X150876000Y-110744000D01*
X104452489Y-109532489D02*
X93159511Y-109532489D01*
X149860000Y-110744000D02*
X148648489Y-109532489D01*
X137355511Y-109532489D02*
X136144000Y-110744000D01*
X93159511Y-109532489D02*
X91948000Y-110744000D01*
X163380489Y-109532489D02*
X152087511Y-109532489D01*
X165608000Y-110744000D02*
X164592000Y-110744000D01*
X90932000Y-110744000D02*
X89720489Y-109532489D01*
X148648489Y-109532489D02*
X137355511Y-109532489D01*
X120396000Y-110744000D02*
X119184489Y-109532489D01*
X107891511Y-109532489D02*
X106680000Y-110744000D01*
X166819511Y-109532489D02*
X165608000Y-110744000D01*
X179324000Y-110744000D02*
X178112489Y-109532489D01*
X91948000Y-110744000D02*
X90932000Y-110744000D01*
X178112489Y-109532489D02*
X166819511Y-109532489D01*
X136144000Y-110744000D02*
X135128000Y-110744000D01*
X164592000Y-110744000D02*
X163380489Y-109532489D01*
X122623511Y-109532489D02*
X121412000Y-110744000D01*
X78427511Y-109532489D02*
X77216000Y-110744000D01*
X151384000Y-122428000D02*
X152400000Y-123444000D01*
X133916489Y-109532489D02*
X122623511Y-109532489D01*
X119184489Y-109532489D02*
X107891511Y-109532489D01*
%TO.N,+1V5*%
X154940000Y-122936000D02*
X154940000Y-130556000D01*
X123444000Y-114808000D02*
X108712000Y-114808000D01*
X108204000Y-114300000D02*
X108712000Y-114808000D01*
X108712000Y-114808000D02*
X93980000Y-114808000D01*
X138176000Y-114808000D02*
X123444000Y-114808000D01*
X137668000Y-112268000D02*
X137668000Y-114300000D01*
X167132000Y-112268000D02*
X167132000Y-114300000D01*
X152908000Y-114808000D02*
X138176000Y-114808000D01*
X80264000Y-114808000D02*
X78740000Y-113284000D01*
X93980000Y-114808000D02*
X80264000Y-114808000D01*
X167132000Y-114300000D02*
X167640000Y-114808000D01*
X181864000Y-112268000D02*
X181864000Y-113284000D01*
X122936000Y-112268000D02*
X122936000Y-114300000D01*
X181864000Y-113284000D02*
X180340000Y-114808000D01*
X122936000Y-114300000D02*
X123444000Y-114808000D01*
X108204000Y-112268000D02*
X108204000Y-114300000D01*
X180340000Y-114808000D02*
X167640000Y-114808000D01*
X152400000Y-112268000D02*
X152400000Y-114300000D01*
X152908000Y-120904000D02*
X154940000Y-122936000D01*
X78740000Y-113284000D02*
X78740000Y-112268000D01*
X93472000Y-112268000D02*
X93472000Y-114300000D01*
X137668000Y-114300000D02*
X138176000Y-114808000D01*
X167640000Y-114808000D02*
X152908000Y-114808000D01*
X152400000Y-114300000D02*
X152908000Y-114808000D01*
X93472000Y-114300000D02*
X93980000Y-114808000D01*
%TO.N,Net-(JT2-Pad7)*%
X171704000Y-115824000D02*
X182561336Y-115824000D01*
X83312000Y-115824000D02*
X171704000Y-115824000D01*
X182561336Y-115824000D02*
X185928000Y-112457336D01*
X185928000Y-112457336D02*
X185928000Y-112268000D01*
X171196000Y-112268000D02*
X174244000Y-112268000D01*
%TO.N,Net-(JT2-Pad8)*%
X183069336Y-116840000D02*
X187452000Y-112457336D01*
X84836000Y-116840000D02*
X183069336Y-116840000D01*
X187452000Y-112457336D02*
X187452000Y-110744000D01*
%TD*%
%TA.AperFunction,Conductor*%
%TO.N,GND*%
G36*
X66877942Y-80792002D02*
G01*
X66924435Y-80845658D01*
X66934539Y-80915932D01*
X66905045Y-80980512D01*
X66851258Y-81016991D01*
X66571681Y-81114350D01*
X66565968Y-81116658D01*
X66215667Y-81278519D01*
X66210213Y-81281371D01*
X65877376Y-81476646D01*
X65872228Y-81480015D01*
X65560025Y-81706843D01*
X65555247Y-81710684D01*
X65436711Y-81815926D01*
X65428334Y-81829314D01*
X65434084Y-81838874D01*
X68059188Y-84463978D01*
X68073132Y-84471592D01*
X68074965Y-84471461D01*
X68081580Y-84467210D01*
X70708463Y-81840327D01*
X70716077Y-81826383D01*
X70716055Y-81826072D01*
X70710204Y-81817406D01*
X70632143Y-81746127D01*
X70627416Y-81742217D01*
X70318419Y-81511059D01*
X70313313Y-81507614D01*
X69983235Y-81307711D01*
X69977822Y-81304784D01*
X69629808Y-81138044D01*
X69624141Y-81135662D01*
X69296471Y-81016401D01*
X69239299Y-80974307D01*
X69213961Y-80907986D01*
X69228502Y-80838494D01*
X69278304Y-80787895D01*
X69339565Y-80772000D01*
X195333821Y-80772000D01*
X195401942Y-80792002D01*
X195448435Y-80845658D01*
X195458539Y-80915932D01*
X195429045Y-80980512D01*
X195375258Y-81016991D01*
X195095681Y-81114350D01*
X195089968Y-81116658D01*
X194739667Y-81278519D01*
X194734213Y-81281371D01*
X194401376Y-81476646D01*
X194396228Y-81480015D01*
X194084025Y-81706843D01*
X194079247Y-81710684D01*
X193960711Y-81815926D01*
X193952334Y-81829314D01*
X193958084Y-81838874D01*
X196583188Y-84463978D01*
X196597132Y-84471592D01*
X196598965Y-84471461D01*
X196605580Y-84467210D01*
X199232463Y-81840327D01*
X199240077Y-81826383D01*
X199240055Y-81826072D01*
X199234204Y-81817406D01*
X199156143Y-81746127D01*
X199151416Y-81742217D01*
X198842419Y-81511059D01*
X198837313Y-81507614D01*
X198507235Y-81307711D01*
X198501822Y-81304784D01*
X198153808Y-81138044D01*
X198148141Y-81135662D01*
X197820471Y-81016401D01*
X197763299Y-80974307D01*
X197737961Y-80907986D01*
X197752502Y-80838494D01*
X197802304Y-80787895D01*
X197863565Y-80772000D01*
X200534000Y-80772000D01*
X200602121Y-80792002D01*
X200648614Y-80845658D01*
X200660000Y-80898000D01*
X200660000Y-83571374D01*
X200639998Y-83639495D01*
X200586342Y-83685988D01*
X200516068Y-83696092D01*
X200451488Y-83666598D01*
X200415301Y-83613641D01*
X200307082Y-83309727D01*
X200304739Y-83304043D01*
X200140434Y-82954877D01*
X200137545Y-82949443D01*
X199939955Y-82617983D01*
X199936547Y-82612853D01*
X199707547Y-82302244D01*
X199703667Y-82297487D01*
X199616318Y-82200475D01*
X199602797Y-82192145D01*
X199602720Y-82192146D01*
X199593434Y-82197776D01*
X196968022Y-84823188D01*
X196960408Y-84837132D01*
X196960539Y-84838965D01*
X196964790Y-84845580D01*
X199593364Y-87474154D01*
X199607308Y-87481768D01*
X199608323Y-87481696D01*
X199616054Y-87476593D01*
X199631567Y-87460302D01*
X199635595Y-87455637D01*
X199873168Y-87151558D01*
X199876722Y-87146518D01*
X200083486Y-86820712D01*
X200086529Y-86815356D01*
X200260520Y-86470910D01*
X200263016Y-86465306D01*
X200402568Y-86105518D01*
X200404511Y-86099678D01*
X200412641Y-86070560D01*
X200450225Y-86010327D01*
X200514407Y-85979976D01*
X200584810Y-85989142D01*
X200639080Y-86034915D01*
X200660000Y-86104443D01*
X200660000Y-130815374D01*
X200639998Y-130883495D01*
X200586342Y-130929988D01*
X200516068Y-130940092D01*
X200451488Y-130910598D01*
X200415301Y-130857641D01*
X200307082Y-130553727D01*
X200304739Y-130548043D01*
X200140434Y-130198877D01*
X200137545Y-130193443D01*
X199939955Y-129861983D01*
X199936547Y-129856853D01*
X199707547Y-129546244D01*
X199703667Y-129541487D01*
X199616318Y-129444475D01*
X199602797Y-129436145D01*
X199602720Y-129436146D01*
X199593434Y-129441776D01*
X196968022Y-132067188D01*
X196960408Y-132081132D01*
X196960539Y-132082965D01*
X196964790Y-132089580D01*
X199593364Y-134718154D01*
X199607308Y-134725768D01*
X199608323Y-134725696D01*
X199616054Y-134720593D01*
X199631567Y-134704302D01*
X199635595Y-134699637D01*
X199873168Y-134395558D01*
X199876722Y-134390518D01*
X200083486Y-134064712D01*
X200086529Y-134059356D01*
X200260520Y-133714910D01*
X200263016Y-133709306D01*
X200402568Y-133349518D01*
X200404511Y-133343678D01*
X200412641Y-133314560D01*
X200450225Y-133254327D01*
X200514407Y-133223976D01*
X200584810Y-133233142D01*
X200639080Y-133278915D01*
X200660000Y-133348443D01*
X200660000Y-136018000D01*
X200639998Y-136086121D01*
X200586342Y-136132614D01*
X200534000Y-136144000D01*
X197854895Y-136144000D01*
X197786774Y-136123998D01*
X197740281Y-136070342D01*
X197730177Y-136000068D01*
X197759671Y-135935488D01*
X197815123Y-135898442D01*
X198044215Y-135822234D01*
X198049949Y-135820010D01*
X198402497Y-135663046D01*
X198407966Y-135660283D01*
X198743516Y-135469664D01*
X198748690Y-135466380D01*
X199064034Y-135243929D01*
X199068872Y-135240149D01*
X199231240Y-135099998D01*
X199239655Y-135086958D01*
X199233716Y-135076926D01*
X196608812Y-132452022D01*
X196594868Y-132444408D01*
X196593035Y-132444539D01*
X196586420Y-132448790D01*
X193958547Y-135076663D01*
X193950933Y-135090607D01*
X193950988Y-135091386D01*
X193956342Y-135099436D01*
X193992960Y-135133821D01*
X193997638Y-135137803D01*
X194303386Y-135373260D01*
X194308429Y-135376765D01*
X194635694Y-135581262D01*
X194641051Y-135584256D01*
X194986709Y-135755843D01*
X194992349Y-135758307D01*
X195353094Y-135895341D01*
X195361794Y-135898168D01*
X195420399Y-135938242D01*
X195448035Y-136003639D01*
X195435927Y-136073596D01*
X195387920Y-136125901D01*
X195322856Y-136144000D01*
X69330895Y-136144000D01*
X69262774Y-136123998D01*
X69216281Y-136070342D01*
X69206177Y-136000068D01*
X69235671Y-135935488D01*
X69291123Y-135898442D01*
X69520215Y-135822234D01*
X69525949Y-135820010D01*
X69878497Y-135663046D01*
X69883966Y-135660283D01*
X70219516Y-135469664D01*
X70224690Y-135466380D01*
X70540034Y-135243929D01*
X70544872Y-135240149D01*
X70707240Y-135099998D01*
X70715655Y-135086958D01*
X70709716Y-135076926D01*
X68084812Y-132452022D01*
X68070868Y-132444408D01*
X68069035Y-132444539D01*
X68062420Y-132448790D01*
X65434547Y-135076663D01*
X65426933Y-135090607D01*
X65426988Y-135091386D01*
X65432342Y-135099436D01*
X65468960Y-135133821D01*
X65473638Y-135137803D01*
X65779386Y-135373260D01*
X65784429Y-135376765D01*
X66111694Y-135581262D01*
X66117051Y-135584256D01*
X66462709Y-135755843D01*
X66468349Y-135758307D01*
X66829094Y-135895341D01*
X66837794Y-135898168D01*
X66896399Y-135938242D01*
X66924035Y-136003639D01*
X66911927Y-136073596D01*
X66863920Y-136125901D01*
X66798856Y-136144000D01*
X64134000Y-136144000D01*
X64065879Y-136123998D01*
X64019386Y-136070342D01*
X64008000Y-136018000D01*
X64008000Y-133340261D01*
X64028002Y-133272140D01*
X64081658Y-133225647D01*
X64151932Y-133215543D01*
X64216512Y-133245037D01*
X64253278Y-133299656D01*
X64339968Y-133554306D01*
X64342235Y-133560031D01*
X64501643Y-133911444D01*
X64504465Y-133916934D01*
X64697407Y-134251119D01*
X64700737Y-134256287D01*
X64925375Y-134570059D01*
X64929197Y-134574881D01*
X65052033Y-134715195D01*
X65065247Y-134723593D01*
X65075043Y-134717747D01*
X67699978Y-132092812D01*
X67706356Y-132081132D01*
X68436408Y-132081132D01*
X68436539Y-132082965D01*
X68440790Y-132089580D01*
X71069364Y-134718154D01*
X71083308Y-134725768D01*
X71084323Y-134725696D01*
X71092054Y-134720593D01*
X71107567Y-134704302D01*
X71111595Y-134699637D01*
X71349168Y-134395558D01*
X71352722Y-134390518D01*
X71559486Y-134064712D01*
X71562529Y-134059356D01*
X71736520Y-133714910D01*
X71739016Y-133709306D01*
X71878568Y-133349518D01*
X71880509Y-133343684D01*
X71984288Y-132971988D01*
X71985644Y-132966017D01*
X72052660Y-132585959D01*
X72053427Y-132579886D01*
X72083119Y-132194000D01*
X72083296Y-132190085D01*
X72084806Y-132081974D01*
X72084738Y-132078030D01*
X72082245Y-132027061D01*
X192583665Y-132027061D01*
X192597132Y-132412706D01*
X192597647Y-132418838D01*
X192648685Y-132801347D01*
X192649792Y-132807383D01*
X192737913Y-133183090D01*
X192739608Y-133189000D01*
X192863968Y-133554306D01*
X192866235Y-133560031D01*
X193025643Y-133911444D01*
X193028465Y-133916934D01*
X193221407Y-134251119D01*
X193224737Y-134256287D01*
X193449375Y-134570059D01*
X193453197Y-134574881D01*
X193576033Y-134715195D01*
X193589247Y-134723593D01*
X193599043Y-134717747D01*
X196223978Y-132092812D01*
X196231592Y-132078868D01*
X196231461Y-132077035D01*
X196227210Y-132070420D01*
X193599902Y-129443112D01*
X193585958Y-129435498D01*
X193585412Y-129435537D01*
X193577055Y-129441136D01*
X193524077Y-129498347D01*
X193520132Y-129503049D01*
X193286821Y-129810426D01*
X193283343Y-129815504D01*
X193081141Y-130144179D01*
X193078176Y-130149572D01*
X192909014Y-130496406D01*
X192906588Y-130502064D01*
X192772076Y-130863758D01*
X192770218Y-130869615D01*
X192671640Y-131242718D01*
X192670365Y-131248718D01*
X192608667Y-131629648D01*
X192607980Y-131635776D01*
X192583751Y-132020886D01*
X192583665Y-132027061D01*
X72082245Y-132027061D01*
X72065832Y-131691489D01*
X72065231Y-131685365D01*
X72031086Y-131454134D01*
X130721500Y-131454134D01*
X130728255Y-131516316D01*
X130779385Y-131652705D01*
X130866739Y-131769261D01*
X130983295Y-131856615D01*
X131119684Y-131907745D01*
X131181866Y-131914500D01*
X132978134Y-131914500D01*
X133040316Y-131907745D01*
X133176705Y-131856615D01*
X133293261Y-131769261D01*
X133380615Y-131652705D01*
X133402799Y-131593529D01*
X133424598Y-131535382D01*
X133467240Y-131478618D01*
X133533802Y-131453918D01*
X133603150Y-131469126D01*
X133637817Y-131497114D01*
X133666250Y-131529938D01*
X133838126Y-131672632D01*
X134031000Y-131785338D01*
X134239692Y-131865030D01*
X134244760Y-131866061D01*
X134244763Y-131866062D01*
X134352017Y-131887883D01*
X134458597Y-131909567D01*
X134463772Y-131909757D01*
X134463774Y-131909757D01*
X134676673Y-131917564D01*
X134676677Y-131917564D01*
X134681837Y-131917753D01*
X134686957Y-131917097D01*
X134686959Y-131917097D01*
X134898288Y-131890025D01*
X134898289Y-131890025D01*
X134903416Y-131889368D01*
X134908366Y-131887883D01*
X135112429Y-131826661D01*
X135112434Y-131826659D01*
X135117384Y-131825174D01*
X135317994Y-131726896D01*
X135499860Y-131597173D01*
X135658096Y-131439489D01*
X135788453Y-131258077D01*
X135789776Y-131259028D01*
X135836645Y-131215857D01*
X135906580Y-131203625D01*
X135972026Y-131231144D01*
X135999875Y-131262994D01*
X136059987Y-131361088D01*
X136206250Y-131529938D01*
X136378126Y-131672632D01*
X136571000Y-131785338D01*
X136779692Y-131865030D01*
X136784760Y-131866061D01*
X136784763Y-131866062D01*
X136892017Y-131887883D01*
X136998597Y-131909567D01*
X137003772Y-131909757D01*
X137003774Y-131909757D01*
X137216673Y-131917564D01*
X137216677Y-131917564D01*
X137221837Y-131917753D01*
X137226957Y-131917097D01*
X137226959Y-131917097D01*
X137438288Y-131890025D01*
X137438289Y-131890025D01*
X137443416Y-131889368D01*
X137448366Y-131887883D01*
X137652429Y-131826661D01*
X137652434Y-131826659D01*
X137657384Y-131825174D01*
X137857994Y-131726896D01*
X138039860Y-131597173D01*
X138198096Y-131439489D01*
X138328453Y-131258077D01*
X138329776Y-131259028D01*
X138376645Y-131215857D01*
X138446580Y-131203625D01*
X138512026Y-131231144D01*
X138539875Y-131262994D01*
X138599987Y-131361088D01*
X138746250Y-131529938D01*
X138918126Y-131672632D01*
X139111000Y-131785338D01*
X139319692Y-131865030D01*
X139324760Y-131866061D01*
X139324763Y-131866062D01*
X139432017Y-131887883D01*
X139538597Y-131909567D01*
X139543772Y-131909757D01*
X139543774Y-131909757D01*
X139756673Y-131917564D01*
X139756677Y-131917564D01*
X139761837Y-131917753D01*
X139766957Y-131917097D01*
X139766959Y-131917097D01*
X139978288Y-131890025D01*
X139978289Y-131890025D01*
X139983416Y-131889368D01*
X139988366Y-131887883D01*
X140192429Y-131826661D01*
X140192434Y-131826659D01*
X140197384Y-131825174D01*
X140397994Y-131726896D01*
X140579860Y-131597173D01*
X140738096Y-131439489D01*
X140868453Y-131258077D01*
X140869776Y-131259028D01*
X140916645Y-131215857D01*
X140986580Y-131203625D01*
X141052026Y-131231144D01*
X141079875Y-131262994D01*
X141139987Y-131361088D01*
X141286250Y-131529938D01*
X141458126Y-131672632D01*
X141651000Y-131785338D01*
X141859692Y-131865030D01*
X141864760Y-131866061D01*
X141864763Y-131866062D01*
X141972017Y-131887883D01*
X142078597Y-131909567D01*
X142083772Y-131909757D01*
X142083774Y-131909757D01*
X142296673Y-131917564D01*
X142296677Y-131917564D01*
X142301837Y-131917753D01*
X142306957Y-131917097D01*
X142306959Y-131917097D01*
X142518288Y-131890025D01*
X142518289Y-131890025D01*
X142523416Y-131889368D01*
X142528366Y-131887883D01*
X142732429Y-131826661D01*
X142732434Y-131826659D01*
X142737384Y-131825174D01*
X142937994Y-131726896D01*
X143119860Y-131597173D01*
X143278096Y-131439489D01*
X143408453Y-131258077D01*
X143409776Y-131259028D01*
X143456645Y-131215857D01*
X143526580Y-131203625D01*
X143592026Y-131231144D01*
X143619875Y-131262994D01*
X143679987Y-131361088D01*
X143826250Y-131529938D01*
X143998126Y-131672632D01*
X144191000Y-131785338D01*
X144399692Y-131865030D01*
X144404760Y-131866061D01*
X144404763Y-131866062D01*
X144512017Y-131887883D01*
X144618597Y-131909567D01*
X144623772Y-131909757D01*
X144623774Y-131909757D01*
X144836673Y-131917564D01*
X144836677Y-131917564D01*
X144841837Y-131917753D01*
X144846957Y-131917097D01*
X144846959Y-131917097D01*
X145058288Y-131890025D01*
X145058289Y-131890025D01*
X145063416Y-131889368D01*
X145068366Y-131887883D01*
X145272429Y-131826661D01*
X145272434Y-131826659D01*
X145277384Y-131825174D01*
X145477994Y-131726896D01*
X145659860Y-131597173D01*
X145818096Y-131439489D01*
X145948453Y-131258077D01*
X145949776Y-131259028D01*
X145996645Y-131215857D01*
X146066580Y-131203625D01*
X146132026Y-131231144D01*
X146159875Y-131262994D01*
X146219987Y-131361088D01*
X146366250Y-131529938D01*
X146538126Y-131672632D01*
X146731000Y-131785338D01*
X146939692Y-131865030D01*
X146944760Y-131866061D01*
X146944763Y-131866062D01*
X147052017Y-131887883D01*
X147158597Y-131909567D01*
X147163772Y-131909757D01*
X147163774Y-131909757D01*
X147376673Y-131917564D01*
X147376677Y-131917564D01*
X147381837Y-131917753D01*
X147386957Y-131917097D01*
X147386959Y-131917097D01*
X147598288Y-131890025D01*
X147598289Y-131890025D01*
X147603416Y-131889368D01*
X147608366Y-131887883D01*
X147812429Y-131826661D01*
X147812434Y-131826659D01*
X147817384Y-131825174D01*
X148017994Y-131726896D01*
X148199860Y-131597173D01*
X148358096Y-131439489D01*
X148488453Y-131258077D01*
X148489776Y-131259028D01*
X148536645Y-131215857D01*
X148606580Y-131203625D01*
X148672026Y-131231144D01*
X148699875Y-131262994D01*
X148759987Y-131361088D01*
X148906250Y-131529938D01*
X149078126Y-131672632D01*
X149271000Y-131785338D01*
X149479692Y-131865030D01*
X149484760Y-131866061D01*
X149484763Y-131866062D01*
X149592017Y-131887883D01*
X149698597Y-131909567D01*
X149703772Y-131909757D01*
X149703774Y-131909757D01*
X149916673Y-131917564D01*
X149916677Y-131917564D01*
X149921837Y-131917753D01*
X149926957Y-131917097D01*
X149926959Y-131917097D01*
X150138288Y-131890025D01*
X150138289Y-131890025D01*
X150143416Y-131889368D01*
X150148366Y-131887883D01*
X150352429Y-131826661D01*
X150352434Y-131826659D01*
X150357384Y-131825174D01*
X150557994Y-131726896D01*
X150739860Y-131597173D01*
X150898096Y-131439489D01*
X151028453Y-131258077D01*
X151029776Y-131259028D01*
X151076645Y-131215857D01*
X151146580Y-131203625D01*
X151212026Y-131231144D01*
X151239875Y-131262994D01*
X151299987Y-131361088D01*
X151446250Y-131529938D01*
X151618126Y-131672632D01*
X151811000Y-131785338D01*
X152019692Y-131865030D01*
X152024760Y-131866061D01*
X152024763Y-131866062D01*
X152132017Y-131887883D01*
X152238597Y-131909567D01*
X152243772Y-131909757D01*
X152243774Y-131909757D01*
X152456673Y-131917564D01*
X152456677Y-131917564D01*
X152461837Y-131917753D01*
X152466957Y-131917097D01*
X152466959Y-131917097D01*
X152678288Y-131890025D01*
X152678289Y-131890025D01*
X152683416Y-131889368D01*
X152688366Y-131887883D01*
X152892429Y-131826661D01*
X152892434Y-131826659D01*
X152897384Y-131825174D01*
X153097994Y-131726896D01*
X153279860Y-131597173D01*
X153438096Y-131439489D01*
X153568453Y-131258077D01*
X153569776Y-131259028D01*
X153616645Y-131215857D01*
X153686580Y-131203625D01*
X153752026Y-131231144D01*
X153779875Y-131262994D01*
X153839987Y-131361088D01*
X153986250Y-131529938D01*
X154158126Y-131672632D01*
X154351000Y-131785338D01*
X154559692Y-131865030D01*
X154564760Y-131866061D01*
X154564763Y-131866062D01*
X154672017Y-131887883D01*
X154778597Y-131909567D01*
X154783772Y-131909757D01*
X154783774Y-131909757D01*
X154996673Y-131917564D01*
X154996677Y-131917564D01*
X155001837Y-131917753D01*
X155006957Y-131917097D01*
X155006959Y-131917097D01*
X155218288Y-131890025D01*
X155218289Y-131890025D01*
X155223416Y-131889368D01*
X155228366Y-131887883D01*
X155432429Y-131826661D01*
X155432434Y-131826659D01*
X155437384Y-131825174D01*
X155637994Y-131726896D01*
X155819860Y-131597173D01*
X155978096Y-131439489D01*
X156108453Y-131258077D01*
X156113079Y-131248718D01*
X156205136Y-131062453D01*
X156205137Y-131062451D01*
X156207430Y-131057811D01*
X156252394Y-130909819D01*
X156270865Y-130849023D01*
X156270865Y-130849021D01*
X156272370Y-130844069D01*
X156301529Y-130622590D01*
X156303156Y-130556000D01*
X156284852Y-130333361D01*
X156230431Y-130116702D01*
X156141354Y-129911840D01*
X156101906Y-129850862D01*
X156022822Y-129728617D01*
X156022820Y-129728614D01*
X156020014Y-129724277D01*
X155869670Y-129559051D01*
X155865615Y-129555848D01*
X155746407Y-129461703D01*
X155705345Y-129403785D01*
X155698500Y-129362821D01*
X155698500Y-129073314D01*
X193952334Y-129073314D01*
X193958084Y-129082874D01*
X196583188Y-131707978D01*
X196597132Y-131715592D01*
X196598965Y-131715461D01*
X196605580Y-131711210D01*
X199232463Y-129084327D01*
X199240077Y-129070383D01*
X199240055Y-129070072D01*
X199234204Y-129061406D01*
X199156143Y-128990127D01*
X199151416Y-128986217D01*
X198842419Y-128755059D01*
X198837313Y-128751614D01*
X198507235Y-128551711D01*
X198501822Y-128548784D01*
X198153808Y-128382044D01*
X198148141Y-128379662D01*
X197785526Y-128247682D01*
X197779638Y-128245860D01*
X197405876Y-128149893D01*
X197399854Y-128148657D01*
X197018485Y-128089618D01*
X197012397Y-128088978D01*
X196627085Y-128067436D01*
X196620933Y-128067393D01*
X196235387Y-128083552D01*
X196229261Y-128084109D01*
X195847123Y-128137815D01*
X195841070Y-128138970D01*
X195466000Y-128229709D01*
X195460103Y-128231445D01*
X195095681Y-128358350D01*
X195089968Y-128360658D01*
X194739667Y-128522519D01*
X194734213Y-128525371D01*
X194401376Y-128720646D01*
X194396228Y-128724015D01*
X194084025Y-128950843D01*
X194079247Y-128954684D01*
X193960711Y-129059926D01*
X193952334Y-129073314D01*
X155698500Y-129073314D01*
X155698500Y-123003070D01*
X155699933Y-122984120D01*
X155702099Y-122969885D01*
X155702099Y-122969881D01*
X155703199Y-122962651D01*
X155702508Y-122954148D01*
X155698915Y-122909982D01*
X155698500Y-122899767D01*
X155698500Y-122891707D01*
X155695209Y-122863480D01*
X155694778Y-122859121D01*
X155688860Y-122786364D01*
X155686605Y-122779403D01*
X155685418Y-122773463D01*
X155684029Y-122767588D01*
X155683182Y-122760319D01*
X155658264Y-122691670D01*
X155656847Y-122687542D01*
X155636607Y-122625064D01*
X155636606Y-122625062D01*
X155634351Y-122618101D01*
X155630555Y-122611846D01*
X155628049Y-122606372D01*
X155625330Y-122600942D01*
X155622833Y-122594063D01*
X155582814Y-122533024D01*
X155580467Y-122529305D01*
X155542595Y-122466893D01*
X155535197Y-122458516D01*
X155535224Y-122458492D01*
X155532571Y-122455500D01*
X155529868Y-122452267D01*
X155525856Y-122446148D01*
X155469617Y-122392872D01*
X155467175Y-122390494D01*
X153828125Y-120751444D01*
X153797387Y-120701285D01*
X153744569Y-120538729D01*
X153742527Y-120532444D01*
X153647040Y-120367056D01*
X153519253Y-120225134D01*
X153364752Y-120112882D01*
X153358724Y-120110198D01*
X153358722Y-120110197D01*
X153196319Y-120037891D01*
X153196318Y-120037891D01*
X153190288Y-120035206D01*
X153096888Y-120015353D01*
X153009944Y-119996872D01*
X153009939Y-119996872D01*
X153003487Y-119995500D01*
X152812513Y-119995500D01*
X152806061Y-119996872D01*
X152806056Y-119996872D01*
X152719112Y-120015353D01*
X152625712Y-120035206D01*
X152619682Y-120037891D01*
X152619681Y-120037891D01*
X152457278Y-120110197D01*
X152457276Y-120110198D01*
X152451248Y-120112882D01*
X152296747Y-120225134D01*
X152168960Y-120367056D01*
X152073473Y-120532444D01*
X152014458Y-120714072D01*
X151994496Y-120904000D01*
X152014458Y-121093928D01*
X152073473Y-121275556D01*
X152168960Y-121440944D01*
X152296747Y-121582866D01*
X152451248Y-121695118D01*
X152457276Y-121697802D01*
X152457278Y-121697803D01*
X152619681Y-121770109D01*
X152625712Y-121772794D01*
X152632167Y-121774166D01*
X152632176Y-121774169D01*
X152688772Y-121786199D01*
X152751669Y-121820350D01*
X154144595Y-123213276D01*
X154178621Y-123275588D01*
X154181500Y-123302371D01*
X154181500Y-129363655D01*
X154161498Y-129431776D01*
X154131153Y-129464415D01*
X154039100Y-129533530D01*
X154034965Y-129536635D01*
X154016605Y-129555848D01*
X153923729Y-129653037D01*
X153880629Y-129698138D01*
X153773201Y-129855621D01*
X153718293Y-129900621D01*
X153647768Y-129908792D01*
X153584021Y-129877538D01*
X153563324Y-129853054D01*
X153482822Y-129728617D01*
X153482820Y-129728614D01*
X153480014Y-129724277D01*
X153329670Y-129559051D01*
X153325615Y-129555848D01*
X153206407Y-129461703D01*
X153165345Y-129403785D01*
X153158500Y-129362821D01*
X153158500Y-123511070D01*
X153159933Y-123492120D01*
X153162099Y-123477885D01*
X153162099Y-123477881D01*
X153163199Y-123470651D01*
X153158915Y-123417982D01*
X153158500Y-123407767D01*
X153158500Y-123399707D01*
X153155211Y-123371493D01*
X153154778Y-123367118D01*
X153149454Y-123301661D01*
X153149453Y-123301658D01*
X153148860Y-123294363D01*
X153146604Y-123287399D01*
X153145413Y-123281440D01*
X153144029Y-123275585D01*
X153143182Y-123268319D01*
X153118265Y-123199673D01*
X153116848Y-123195545D01*
X153096607Y-123133064D01*
X153096606Y-123133062D01*
X153094351Y-123126101D01*
X153090555Y-123119846D01*
X153088049Y-123114372D01*
X153085330Y-123108942D01*
X153082833Y-123102063D01*
X153042814Y-123041024D01*
X153040467Y-123037305D01*
X153002595Y-122974893D01*
X152995197Y-122966516D01*
X152995224Y-122966492D01*
X152992571Y-122963500D01*
X152989868Y-122960267D01*
X152985856Y-122954148D01*
X152929617Y-122900872D01*
X152927175Y-122898494D01*
X152304125Y-122275444D01*
X152273387Y-122225285D01*
X152220569Y-122062729D01*
X152218527Y-122056444D01*
X152123040Y-121891056D01*
X152028627Y-121786199D01*
X151999675Y-121754045D01*
X151999674Y-121754044D01*
X151995253Y-121749134D01*
X151840752Y-121636882D01*
X151834724Y-121634198D01*
X151834722Y-121634197D01*
X151672319Y-121561891D01*
X151672318Y-121561891D01*
X151666288Y-121559206D01*
X151572887Y-121539353D01*
X151485944Y-121520872D01*
X151485939Y-121520872D01*
X151479487Y-121519500D01*
X151288513Y-121519500D01*
X151282061Y-121520872D01*
X151282056Y-121520872D01*
X151195113Y-121539353D01*
X151101712Y-121559206D01*
X151095682Y-121561891D01*
X151095681Y-121561891D01*
X150933278Y-121634197D01*
X150933276Y-121634198D01*
X150927248Y-121636882D01*
X150772747Y-121749134D01*
X150768326Y-121754044D01*
X150768325Y-121754045D01*
X150739374Y-121786199D01*
X150644960Y-121891056D01*
X150549473Y-122056444D01*
X150490458Y-122238072D01*
X150470496Y-122428000D01*
X150490458Y-122617928D01*
X150549473Y-122799556D01*
X150644960Y-122964944D01*
X150649378Y-122969851D01*
X150649379Y-122969852D01*
X150713463Y-123041024D01*
X150772747Y-123106866D01*
X150927248Y-123219118D01*
X150933276Y-123221802D01*
X150933278Y-123221803D01*
X151054082Y-123275588D01*
X151101712Y-123296794D01*
X151108167Y-123298166D01*
X151108176Y-123298169D01*
X151164772Y-123310199D01*
X151227669Y-123344350D01*
X151604595Y-123721276D01*
X151638621Y-123783588D01*
X151641500Y-123810371D01*
X151641500Y-129363655D01*
X151621498Y-129431776D01*
X151591153Y-129464415D01*
X151499100Y-129533530D01*
X151494965Y-129536635D01*
X151476605Y-129555848D01*
X151383729Y-129653037D01*
X151340629Y-129698138D01*
X151233201Y-129855621D01*
X151178293Y-129900621D01*
X151107768Y-129908792D01*
X151044021Y-129877538D01*
X151023324Y-129853054D01*
X150942822Y-129728617D01*
X150942820Y-129728614D01*
X150940014Y-129724277D01*
X150789670Y-129559051D01*
X150785619Y-129555852D01*
X150785615Y-129555848D01*
X150618414Y-129423800D01*
X150618410Y-129423798D01*
X150614359Y-129420598D01*
X150418789Y-129312638D01*
X150413920Y-129310914D01*
X150413916Y-129310912D01*
X150213087Y-129239795D01*
X150213083Y-129239794D01*
X150208212Y-129238069D01*
X150203119Y-129237162D01*
X150203116Y-129237161D01*
X149993373Y-129199800D01*
X149993367Y-129199799D01*
X149988284Y-129198894D01*
X149914452Y-129197992D01*
X149770081Y-129196228D01*
X149770079Y-129196228D01*
X149764911Y-129196165D01*
X149544091Y-129229955D01*
X149331756Y-129299357D01*
X149133607Y-129402507D01*
X149129474Y-129405610D01*
X149129471Y-129405612D01*
X148999697Y-129503049D01*
X148954965Y-129536635D01*
X148936605Y-129555848D01*
X148843729Y-129653037D01*
X148800629Y-129698138D01*
X148693201Y-129855621D01*
X148638293Y-129900621D01*
X148567768Y-129908792D01*
X148504021Y-129877538D01*
X148483324Y-129853054D01*
X148402822Y-129728617D01*
X148402820Y-129728614D01*
X148400014Y-129724277D01*
X148249670Y-129559051D01*
X148245619Y-129555852D01*
X148245615Y-129555848D01*
X148078414Y-129423800D01*
X148078410Y-129423798D01*
X148074359Y-129420598D01*
X147878789Y-129312638D01*
X147873920Y-129310914D01*
X147873916Y-129310912D01*
X147673087Y-129239795D01*
X147673083Y-129239794D01*
X147668212Y-129238069D01*
X147663119Y-129237162D01*
X147663116Y-129237161D01*
X147453373Y-129199800D01*
X147453367Y-129199799D01*
X147448284Y-129198894D01*
X147374452Y-129197992D01*
X147230081Y-129196228D01*
X147230079Y-129196228D01*
X147224911Y-129196165D01*
X147004091Y-129229955D01*
X146791756Y-129299357D01*
X146593607Y-129402507D01*
X146589474Y-129405610D01*
X146589471Y-129405612D01*
X146459697Y-129503049D01*
X146414965Y-129536635D01*
X146396605Y-129555848D01*
X146303729Y-129653037D01*
X146260629Y-129698138D01*
X146153201Y-129855621D01*
X146098293Y-129900621D01*
X146027768Y-129908792D01*
X145964021Y-129877538D01*
X145943324Y-129853054D01*
X145862822Y-129728617D01*
X145862820Y-129728614D01*
X145860014Y-129724277D01*
X145709670Y-129559051D01*
X145705619Y-129555852D01*
X145705615Y-129555848D01*
X145538414Y-129423800D01*
X145538410Y-129423798D01*
X145534359Y-129420598D01*
X145338789Y-129312638D01*
X145333920Y-129310914D01*
X145333916Y-129310912D01*
X145133087Y-129239795D01*
X145133083Y-129239794D01*
X145128212Y-129238069D01*
X145123119Y-129237162D01*
X145123116Y-129237161D01*
X144913373Y-129199800D01*
X144913367Y-129199799D01*
X144908284Y-129198894D01*
X144834452Y-129197992D01*
X144690081Y-129196228D01*
X144690079Y-129196228D01*
X144684911Y-129196165D01*
X144464091Y-129229955D01*
X144251756Y-129299357D01*
X144053607Y-129402507D01*
X144049474Y-129405610D01*
X144049471Y-129405612D01*
X143919697Y-129503049D01*
X143874965Y-129536635D01*
X143856605Y-129555848D01*
X143763729Y-129653037D01*
X143720629Y-129698138D01*
X143613201Y-129855621D01*
X143558293Y-129900621D01*
X143487768Y-129908792D01*
X143424021Y-129877538D01*
X143403324Y-129853054D01*
X143322822Y-129728617D01*
X143322820Y-129728614D01*
X143320014Y-129724277D01*
X143169670Y-129559051D01*
X143165619Y-129555852D01*
X143165615Y-129555848D01*
X142998414Y-129423800D01*
X142998410Y-129423798D01*
X142994359Y-129420598D01*
X142798789Y-129312638D01*
X142793920Y-129310914D01*
X142793916Y-129310912D01*
X142593087Y-129239795D01*
X142593083Y-129239794D01*
X142588212Y-129238069D01*
X142583119Y-129237162D01*
X142583116Y-129237161D01*
X142373373Y-129199800D01*
X142373367Y-129199799D01*
X142368284Y-129198894D01*
X142294452Y-129197992D01*
X142150081Y-129196228D01*
X142150079Y-129196228D01*
X142144911Y-129196165D01*
X141924091Y-129229955D01*
X141711756Y-129299357D01*
X141513607Y-129402507D01*
X141509474Y-129405610D01*
X141509471Y-129405612D01*
X141379697Y-129503049D01*
X141334965Y-129536635D01*
X141316605Y-129555848D01*
X141223729Y-129653037D01*
X141180629Y-129698138D01*
X141073201Y-129855621D01*
X141018293Y-129900621D01*
X140947768Y-129908792D01*
X140884021Y-129877538D01*
X140863324Y-129853054D01*
X140782822Y-129728617D01*
X140782820Y-129728614D01*
X140780014Y-129724277D01*
X140629670Y-129559051D01*
X140625619Y-129555852D01*
X140625615Y-129555848D01*
X140458414Y-129423800D01*
X140458410Y-129423798D01*
X140454359Y-129420598D01*
X140258789Y-129312638D01*
X140253920Y-129310914D01*
X140253916Y-129310912D01*
X140053087Y-129239795D01*
X140053083Y-129239794D01*
X140048212Y-129238069D01*
X140043119Y-129237162D01*
X140043116Y-129237161D01*
X139833373Y-129199800D01*
X139833367Y-129199799D01*
X139828284Y-129198894D01*
X139754452Y-129197992D01*
X139610081Y-129196228D01*
X139610079Y-129196228D01*
X139604911Y-129196165D01*
X139384091Y-129229955D01*
X139171756Y-129299357D01*
X138973607Y-129402507D01*
X138969474Y-129405610D01*
X138969471Y-129405612D01*
X138839697Y-129503049D01*
X138794965Y-129536635D01*
X138776605Y-129555848D01*
X138683729Y-129653037D01*
X138640629Y-129698138D01*
X138533201Y-129855621D01*
X138478293Y-129900621D01*
X138407768Y-129908792D01*
X138344021Y-129877538D01*
X138323324Y-129853054D01*
X138242822Y-129728617D01*
X138242820Y-129728614D01*
X138240014Y-129724277D01*
X138089670Y-129559051D01*
X138085619Y-129555852D01*
X138085615Y-129555848D01*
X137918414Y-129423800D01*
X137918410Y-129423798D01*
X137914359Y-129420598D01*
X137718789Y-129312638D01*
X137713920Y-129310914D01*
X137713916Y-129310912D01*
X137513087Y-129239795D01*
X137513083Y-129239794D01*
X137508212Y-129238069D01*
X137503119Y-129237162D01*
X137503116Y-129237161D01*
X137293373Y-129199800D01*
X137293367Y-129199799D01*
X137288284Y-129198894D01*
X137214452Y-129197992D01*
X137070081Y-129196228D01*
X137070079Y-129196228D01*
X137064911Y-129196165D01*
X136844091Y-129229955D01*
X136631756Y-129299357D01*
X136433607Y-129402507D01*
X136429474Y-129405610D01*
X136429471Y-129405612D01*
X136299697Y-129503049D01*
X136254965Y-129536635D01*
X136236605Y-129555848D01*
X136143729Y-129653037D01*
X136100629Y-129698138D01*
X135993201Y-129855621D01*
X135938293Y-129900621D01*
X135867768Y-129908792D01*
X135804021Y-129877538D01*
X135783324Y-129853054D01*
X135702822Y-129728617D01*
X135702820Y-129728614D01*
X135700014Y-129724277D01*
X135549670Y-129559051D01*
X135545619Y-129555852D01*
X135545615Y-129555848D01*
X135378414Y-129423800D01*
X135378410Y-129423798D01*
X135374359Y-129420598D01*
X135178789Y-129312638D01*
X135173920Y-129310914D01*
X135173916Y-129310912D01*
X134973087Y-129239795D01*
X134973083Y-129239794D01*
X134968212Y-129238069D01*
X134963119Y-129237162D01*
X134963116Y-129237161D01*
X134753373Y-129199800D01*
X134753367Y-129199799D01*
X134748284Y-129198894D01*
X134674452Y-129197992D01*
X134530081Y-129196228D01*
X134530079Y-129196228D01*
X134524911Y-129196165D01*
X134304091Y-129229955D01*
X134091756Y-129299357D01*
X133893607Y-129402507D01*
X133889474Y-129405610D01*
X133889471Y-129405612D01*
X133759697Y-129503049D01*
X133714965Y-129536635D01*
X133658537Y-129595684D01*
X133634283Y-129621064D01*
X133572759Y-129656494D01*
X133501846Y-129653037D01*
X133444060Y-129611791D01*
X133425207Y-129578243D01*
X133383767Y-129467703D01*
X133380615Y-129459295D01*
X133293261Y-129342739D01*
X133176705Y-129255385D01*
X133040316Y-129204255D01*
X132978134Y-129197500D01*
X131181866Y-129197500D01*
X131119684Y-129204255D01*
X130983295Y-129255385D01*
X130866739Y-129342739D01*
X130779385Y-129459295D01*
X130728255Y-129595684D01*
X130721500Y-129657866D01*
X130721500Y-131454134D01*
X72031086Y-131454134D01*
X72008862Y-131303631D01*
X72007662Y-131297569D01*
X71914312Y-130923165D01*
X71912527Y-130917250D01*
X71783082Y-130553727D01*
X71780739Y-130548043D01*
X71616434Y-130198877D01*
X71613545Y-130193443D01*
X71415955Y-129861983D01*
X71412547Y-129856853D01*
X71183547Y-129546244D01*
X71179667Y-129541487D01*
X71092318Y-129444475D01*
X71078797Y-129436145D01*
X71078720Y-129436146D01*
X71069434Y-129441776D01*
X68444022Y-132067188D01*
X68436408Y-132081132D01*
X67706356Y-132081132D01*
X67707592Y-132078868D01*
X67707461Y-132077035D01*
X67703210Y-132070420D01*
X65075902Y-129443112D01*
X65061958Y-129435498D01*
X65061412Y-129435537D01*
X65053055Y-129441136D01*
X65000077Y-129498347D01*
X64996132Y-129503049D01*
X64762821Y-129810426D01*
X64759343Y-129815504D01*
X64557141Y-130144179D01*
X64554176Y-130149572D01*
X64385014Y-130496406D01*
X64382588Y-130502064D01*
X64252098Y-130852943D01*
X64209605Y-130909819D01*
X64143109Y-130934693D01*
X64073720Y-130919668D01*
X64023470Y-130869514D01*
X64008000Y-130809023D01*
X64008000Y-129073314D01*
X65428334Y-129073314D01*
X65434084Y-129082874D01*
X68059188Y-131707978D01*
X68073132Y-131715592D01*
X68074965Y-131715461D01*
X68081580Y-131711210D01*
X70708463Y-129084327D01*
X70716077Y-129070383D01*
X70716055Y-129070072D01*
X70710204Y-129061406D01*
X70632143Y-128990127D01*
X70627416Y-128986217D01*
X70318419Y-128755059D01*
X70313313Y-128751614D01*
X69983235Y-128551711D01*
X69977822Y-128548784D01*
X69629808Y-128382044D01*
X69624141Y-128379662D01*
X69261526Y-128247682D01*
X69255638Y-128245860D01*
X68881876Y-128149893D01*
X68875854Y-128148657D01*
X68494485Y-128089618D01*
X68488397Y-128088978D01*
X68103085Y-128067436D01*
X68096933Y-128067393D01*
X67711387Y-128083552D01*
X67705261Y-128084109D01*
X67323123Y-128137815D01*
X67317070Y-128138970D01*
X66942000Y-128229709D01*
X66936103Y-128231445D01*
X66571681Y-128358350D01*
X66565968Y-128360658D01*
X66215667Y-128522519D01*
X66210213Y-128525371D01*
X65877376Y-128720646D01*
X65872228Y-128724015D01*
X65560025Y-128950843D01*
X65555247Y-128954684D01*
X65436711Y-129059926D01*
X65428334Y-129073314D01*
X64008000Y-129073314D01*
X64008000Y-108712000D01*
X75432647Y-108712000D01*
X75452022Y-108933463D01*
X75509560Y-109148196D01*
X75511882Y-109153177D01*
X75511883Y-109153178D01*
X75601186Y-109344689D01*
X75601189Y-109344694D01*
X75603512Y-109349676D01*
X75606668Y-109354183D01*
X75606669Y-109354185D01*
X75701380Y-109489446D01*
X75731023Y-109531781D01*
X75888219Y-109688977D01*
X75892727Y-109692134D01*
X75892730Y-109692136D01*
X75968495Y-109745187D01*
X76070323Y-109816488D01*
X76075308Y-109818813D01*
X76075314Y-109818816D01*
X76118272Y-109838847D01*
X76171558Y-109885763D01*
X76191019Y-109954041D01*
X76168236Y-110025312D01*
X76114672Y-110101810D01*
X76114669Y-110101815D01*
X76111512Y-110106324D01*
X76109189Y-110111306D01*
X76109186Y-110111311D01*
X76024058Y-110293868D01*
X76017560Y-110307804D01*
X75960022Y-110522537D01*
X75940647Y-110744000D01*
X75960022Y-110965463D01*
X76017560Y-111180196D01*
X76019882Y-111185177D01*
X76019883Y-111185178D01*
X76109186Y-111376689D01*
X76109189Y-111376694D01*
X76111512Y-111381676D01*
X76114668Y-111386183D01*
X76114669Y-111386185D01*
X76235864Y-111559269D01*
X76239023Y-111563781D01*
X76396219Y-111720977D01*
X76400727Y-111724134D01*
X76400730Y-111724136D01*
X76439123Y-111751019D01*
X76578323Y-111848488D01*
X76583305Y-111850811D01*
X76583310Y-111850814D01*
X76694643Y-111902729D01*
X76779804Y-111942440D01*
X76785112Y-111943862D01*
X76785114Y-111943863D01*
X76850949Y-111961503D01*
X76994537Y-111999978D01*
X77216000Y-112019353D01*
X77338897Y-112008601D01*
X77408501Y-112022590D01*
X77459494Y-112071990D01*
X77475399Y-112145103D01*
X77464647Y-112268000D01*
X77484022Y-112489463D01*
X77541560Y-112704196D01*
X77543882Y-112709177D01*
X77543883Y-112709178D01*
X77633186Y-112900689D01*
X77633189Y-112900694D01*
X77635512Y-112905676D01*
X77638668Y-112910183D01*
X77638669Y-112910185D01*
X77757019Y-113079206D01*
X77763023Y-113087781D01*
X77920219Y-113244977D01*
X77924729Y-113248135D01*
X77924735Y-113248140D01*
X77930038Y-113251853D01*
X77974367Y-113307310D01*
X77982920Y-113340475D01*
X77984789Y-113356506D01*
X77985222Y-113360882D01*
X77989111Y-113408689D01*
X77991140Y-113433637D01*
X77993396Y-113440601D01*
X77994587Y-113446560D01*
X77995971Y-113452415D01*
X77996818Y-113459681D01*
X78021735Y-113528327D01*
X78023152Y-113532455D01*
X78042206Y-113591270D01*
X78045649Y-113601899D01*
X78049445Y-113608154D01*
X78051951Y-113613628D01*
X78054670Y-113619058D01*
X78057167Y-113625937D01*
X78061180Y-113632057D01*
X78061180Y-113632058D01*
X78097186Y-113686976D01*
X78099523Y-113690680D01*
X78137405Y-113753107D01*
X78141121Y-113757315D01*
X78141122Y-113757316D01*
X78144803Y-113761484D01*
X78144776Y-113761508D01*
X78147429Y-113764500D01*
X78150132Y-113767733D01*
X78154144Y-113773852D01*
X78159456Y-113778884D01*
X78210383Y-113827128D01*
X78212825Y-113829506D01*
X79680230Y-115296911D01*
X79692616Y-115311323D01*
X79701149Y-115322918D01*
X79701154Y-115322923D01*
X79705492Y-115328818D01*
X79711070Y-115333557D01*
X79711073Y-115333560D01*
X79745768Y-115363035D01*
X79753284Y-115369965D01*
X79758979Y-115375660D01*
X79761861Y-115377940D01*
X79781251Y-115393281D01*
X79784655Y-115396072D01*
X79834703Y-115438591D01*
X79840285Y-115443333D01*
X79846801Y-115446661D01*
X79851838Y-115450020D01*
X79856977Y-115453194D01*
X79862716Y-115457734D01*
X79869349Y-115460834D01*
X79928837Y-115488636D01*
X79932791Y-115490569D01*
X79997808Y-115523769D01*
X80004924Y-115525510D01*
X80010554Y-115527604D01*
X80016321Y-115529523D01*
X80022950Y-115532621D01*
X80030110Y-115534110D01*
X80030112Y-115534111D01*
X80094396Y-115547482D01*
X80098680Y-115548452D01*
X80169610Y-115565808D01*
X80175212Y-115566156D01*
X80175215Y-115566156D01*
X80180764Y-115566500D01*
X80180762Y-115566536D01*
X80184752Y-115566775D01*
X80188950Y-115567150D01*
X80196115Y-115568640D01*
X80273520Y-115566546D01*
X80276928Y-115566500D01*
X82285623Y-115566500D01*
X82353744Y-115586502D01*
X82400237Y-115640158D01*
X82410933Y-115705670D01*
X82398496Y-115824000D01*
X82418458Y-116013928D01*
X82477473Y-116195556D01*
X82572960Y-116360944D01*
X82700747Y-116502866D01*
X82855248Y-116615118D01*
X82861276Y-116617802D01*
X82861278Y-116617803D01*
X82933756Y-116650072D01*
X83029712Y-116692794D01*
X83123113Y-116712647D01*
X83210056Y-116731128D01*
X83210061Y-116731128D01*
X83216513Y-116732500D01*
X83407487Y-116732500D01*
X83413939Y-116731128D01*
X83413944Y-116731128D01*
X83500887Y-116712647D01*
X83594288Y-116692794D01*
X83709037Y-116641705D01*
X83755469Y-116621032D01*
X83825836Y-116611598D01*
X83890133Y-116641705D01*
X83927947Y-116701793D01*
X83932028Y-116749309D01*
X83922496Y-116840000D01*
X83942458Y-117029928D01*
X84001473Y-117211556D01*
X84096960Y-117376944D01*
X84101378Y-117381851D01*
X84101379Y-117381852D01*
X84192286Y-117482814D01*
X84224747Y-117518866D01*
X84277025Y-117556848D01*
X84373904Y-117627235D01*
X84379248Y-117631118D01*
X84385276Y-117633802D01*
X84385278Y-117633803D01*
X84547681Y-117706109D01*
X84553712Y-117708794D01*
X84647113Y-117728647D01*
X84734056Y-117747128D01*
X84734061Y-117747128D01*
X84740513Y-117748500D01*
X84931487Y-117748500D01*
X84937939Y-117747128D01*
X84937944Y-117747128D01*
X85024887Y-117728647D01*
X85118288Y-117708794D01*
X85124319Y-117706109D01*
X85286722Y-117633803D01*
X85286724Y-117633802D01*
X85292752Y-117631118D01*
X85298091Y-117627239D01*
X85298098Y-117627235D01*
X85304528Y-117622563D01*
X85378587Y-117598500D01*
X99025413Y-117598500D01*
X99099472Y-117622563D01*
X99105902Y-117627235D01*
X99105909Y-117627239D01*
X99111248Y-117631118D01*
X99117276Y-117633802D01*
X99117278Y-117633803D01*
X99279681Y-117706109D01*
X99285712Y-117708794D01*
X99379113Y-117728647D01*
X99466056Y-117747128D01*
X99466061Y-117747128D01*
X99472513Y-117748500D01*
X99663487Y-117748500D01*
X99669939Y-117747128D01*
X99669944Y-117747128D01*
X99756887Y-117728647D01*
X99850288Y-117708794D01*
X99856319Y-117706109D01*
X100018722Y-117633803D01*
X100018724Y-117633802D01*
X100024752Y-117631118D01*
X100030091Y-117627239D01*
X100030098Y-117627235D01*
X100036528Y-117622563D01*
X100110587Y-117598500D01*
X113757413Y-117598500D01*
X113831472Y-117622563D01*
X113837902Y-117627235D01*
X113837909Y-117627239D01*
X113843248Y-117631118D01*
X113849276Y-117633802D01*
X113849278Y-117633803D01*
X114011681Y-117706109D01*
X114017712Y-117708794D01*
X114111113Y-117728647D01*
X114198056Y-117747128D01*
X114198061Y-117747128D01*
X114204513Y-117748500D01*
X114395487Y-117748500D01*
X114401939Y-117747128D01*
X114401944Y-117747128D01*
X114488887Y-117728647D01*
X114582288Y-117708794D01*
X114588319Y-117706109D01*
X114750722Y-117633803D01*
X114750724Y-117633802D01*
X114756752Y-117631118D01*
X114762091Y-117627239D01*
X114762098Y-117627235D01*
X114768528Y-117622563D01*
X114842587Y-117598500D01*
X128489413Y-117598500D01*
X128563472Y-117622563D01*
X128569902Y-117627235D01*
X128569909Y-117627239D01*
X128575248Y-117631118D01*
X128581276Y-117633802D01*
X128581278Y-117633803D01*
X128743681Y-117706109D01*
X128749712Y-117708794D01*
X128843113Y-117728647D01*
X128930056Y-117747128D01*
X128930061Y-117747128D01*
X128936513Y-117748500D01*
X129127487Y-117748500D01*
X129133939Y-117747128D01*
X129133944Y-117747128D01*
X129220887Y-117728647D01*
X129314288Y-117708794D01*
X129320319Y-117706109D01*
X129482722Y-117633803D01*
X129482724Y-117633802D01*
X129488752Y-117631118D01*
X129494091Y-117627239D01*
X129494098Y-117627235D01*
X129500528Y-117622563D01*
X129574587Y-117598500D01*
X143221413Y-117598500D01*
X143295472Y-117622563D01*
X143301902Y-117627235D01*
X143301909Y-117627239D01*
X143307248Y-117631118D01*
X143313276Y-117633802D01*
X143313278Y-117633803D01*
X143475681Y-117706109D01*
X143481712Y-117708794D01*
X143575113Y-117728647D01*
X143662056Y-117747128D01*
X143662061Y-117747128D01*
X143668513Y-117748500D01*
X143859487Y-117748500D01*
X143865939Y-117747128D01*
X143865944Y-117747128D01*
X143952887Y-117728647D01*
X144046288Y-117708794D01*
X144052319Y-117706109D01*
X144214722Y-117633803D01*
X144214724Y-117633802D01*
X144220752Y-117631118D01*
X144226091Y-117627239D01*
X144226098Y-117627235D01*
X144232528Y-117622563D01*
X144306587Y-117598500D01*
X157953413Y-117598500D01*
X158027472Y-117622563D01*
X158033902Y-117627235D01*
X158033909Y-117627239D01*
X158039248Y-117631118D01*
X158045276Y-117633802D01*
X158045278Y-117633803D01*
X158207681Y-117706109D01*
X158213712Y-117708794D01*
X158307113Y-117728647D01*
X158394056Y-117747128D01*
X158394061Y-117747128D01*
X158400513Y-117748500D01*
X158591487Y-117748500D01*
X158597939Y-117747128D01*
X158597944Y-117747128D01*
X158684887Y-117728647D01*
X158778288Y-117708794D01*
X158784319Y-117706109D01*
X158946722Y-117633803D01*
X158946724Y-117633802D01*
X158952752Y-117631118D01*
X158958091Y-117627239D01*
X158958098Y-117627235D01*
X158964528Y-117622563D01*
X159038587Y-117598500D01*
X172685413Y-117598500D01*
X172759472Y-117622563D01*
X172765902Y-117627235D01*
X172765909Y-117627239D01*
X172771248Y-117631118D01*
X172777276Y-117633802D01*
X172777278Y-117633803D01*
X172939681Y-117706109D01*
X172945712Y-117708794D01*
X173039113Y-117728647D01*
X173126056Y-117747128D01*
X173126061Y-117747128D01*
X173132513Y-117748500D01*
X173323487Y-117748500D01*
X173329939Y-117747128D01*
X173329944Y-117747128D01*
X173416887Y-117728647D01*
X173510288Y-117708794D01*
X173516319Y-117706109D01*
X173678722Y-117633803D01*
X173678724Y-117633802D01*
X173684752Y-117631118D01*
X173690091Y-117627239D01*
X173690098Y-117627235D01*
X173696528Y-117622563D01*
X173770587Y-117598500D01*
X183002266Y-117598500D01*
X183021216Y-117599933D01*
X183035451Y-117602099D01*
X183035455Y-117602099D01*
X183042685Y-117603199D01*
X183049977Y-117602606D01*
X183049980Y-117602606D01*
X183095354Y-117598915D01*
X183105569Y-117598500D01*
X183113629Y-117598500D01*
X183126919Y-117596951D01*
X183141843Y-117595211D01*
X183146218Y-117594778D01*
X183211675Y-117589454D01*
X183211678Y-117589453D01*
X183218973Y-117588860D01*
X183225937Y-117586604D01*
X183231896Y-117585413D01*
X183237751Y-117584029D01*
X183245017Y-117583182D01*
X183313663Y-117558265D01*
X183317791Y-117556848D01*
X183380272Y-117536607D01*
X183380274Y-117536606D01*
X183387235Y-117534351D01*
X183393490Y-117530555D01*
X183398964Y-117528049D01*
X183404394Y-117525330D01*
X183411273Y-117522833D01*
X183472312Y-117482814D01*
X183476016Y-117480477D01*
X183538443Y-117442595D01*
X183546820Y-117435197D01*
X183546844Y-117435224D01*
X183549836Y-117432571D01*
X183553069Y-117429868D01*
X183559188Y-117425856D01*
X183612464Y-117369617D01*
X183614842Y-117367175D01*
X187940911Y-113041106D01*
X187955323Y-113028720D01*
X187966918Y-113020187D01*
X187966923Y-113020182D01*
X187972818Y-113015844D01*
X187977557Y-113010266D01*
X187977560Y-113010263D01*
X188007035Y-112975568D01*
X188013965Y-112968052D01*
X188019660Y-112962357D01*
X188037281Y-112940085D01*
X188040072Y-112936681D01*
X188082591Y-112886633D01*
X188082592Y-112886631D01*
X188087333Y-112881051D01*
X188090661Y-112874535D01*
X188094028Y-112869486D01*
X188097195Y-112864357D01*
X188101734Y-112858620D01*
X188132655Y-112792461D01*
X188134561Y-112788561D01*
X188167769Y-112723528D01*
X188169508Y-112716419D01*
X188171604Y-112710785D01*
X188173523Y-112705015D01*
X188176622Y-112698386D01*
X188191491Y-112626901D01*
X188192461Y-112622618D01*
X188208473Y-112557180D01*
X188209808Y-112551726D01*
X188210500Y-112540572D01*
X188210535Y-112540574D01*
X188210775Y-112536602D01*
X188211152Y-112532381D01*
X188212641Y-112525221D01*
X188210546Y-112447794D01*
X188210500Y-112444386D01*
X188210500Y-111829478D01*
X188230502Y-111761357D01*
X188264229Y-111726265D01*
X188267270Y-111724136D01*
X188267272Y-111724134D01*
X188271781Y-111720977D01*
X188428977Y-111563781D01*
X188432137Y-111559269D01*
X188553331Y-111386185D01*
X188553332Y-111386183D01*
X188556488Y-111381676D01*
X188558811Y-111376694D01*
X188558814Y-111376689D01*
X188648117Y-111185178D01*
X188648118Y-111185177D01*
X188650440Y-111180196D01*
X188707978Y-110965463D01*
X188727353Y-110744000D01*
X188707978Y-110522537D01*
X188650440Y-110307804D01*
X188643942Y-110293868D01*
X188558814Y-110111311D01*
X188558811Y-110111306D01*
X188556488Y-110106324D01*
X188428977Y-109924219D01*
X188271781Y-109767023D01*
X188267273Y-109763866D01*
X188267270Y-109763864D01*
X188191505Y-109710813D01*
X188089677Y-109639512D01*
X188084695Y-109637189D01*
X188084690Y-109637186D01*
X187893178Y-109547883D01*
X187893177Y-109547882D01*
X187888196Y-109545560D01*
X187882888Y-109544138D01*
X187882886Y-109544137D01*
X187817051Y-109526497D01*
X187673463Y-109488022D01*
X187452000Y-109468647D01*
X187230537Y-109488022D01*
X187086949Y-109526497D01*
X187021114Y-109544137D01*
X187021112Y-109544138D01*
X187015804Y-109545560D01*
X187010823Y-109547882D01*
X187010822Y-109547883D01*
X186819311Y-109637186D01*
X186819306Y-109637189D01*
X186814324Y-109639512D01*
X186809817Y-109642668D01*
X186809815Y-109642669D01*
X186636730Y-109763864D01*
X186636727Y-109763866D01*
X186632219Y-109767023D01*
X186475023Y-109924219D01*
X186347512Y-110106324D01*
X186345189Y-110111306D01*
X186345186Y-110111311D01*
X186260058Y-110293868D01*
X186253560Y-110307804D01*
X186196022Y-110522537D01*
X186176647Y-110744000D01*
X186177126Y-110749474D01*
X186187399Y-110866896D01*
X186173410Y-110936501D01*
X186124010Y-110987494D01*
X186050897Y-111003399D01*
X185928000Y-110992647D01*
X185706537Y-111012022D01*
X185562949Y-111050497D01*
X185497114Y-111068137D01*
X185497112Y-111068138D01*
X185491804Y-111069560D01*
X185486823Y-111071882D01*
X185486822Y-111071883D01*
X185295311Y-111161186D01*
X185295306Y-111161189D01*
X185290324Y-111163512D01*
X185285817Y-111166668D01*
X185285815Y-111166669D01*
X185112730Y-111287864D01*
X185112727Y-111287866D01*
X185108219Y-111291023D01*
X184951023Y-111448219D01*
X184947866Y-111452727D01*
X184947864Y-111452730D01*
X184858831Y-111579883D01*
X184823512Y-111630324D01*
X184821189Y-111635306D01*
X184821186Y-111635311D01*
X184801153Y-111678273D01*
X184754236Y-111731558D01*
X184685958Y-111751019D01*
X184614687Y-111728236D01*
X184604320Y-111720977D01*
X184533677Y-111671512D01*
X184528695Y-111669189D01*
X184528690Y-111669186D01*
X184337178Y-111579883D01*
X184337177Y-111579882D01*
X184332196Y-111577560D01*
X184326888Y-111576138D01*
X184326886Y-111576137D01*
X184248472Y-111555126D01*
X184117463Y-111520022D01*
X183896000Y-111500647D01*
X183674537Y-111520022D01*
X183543528Y-111555126D01*
X183465114Y-111576137D01*
X183465112Y-111576138D01*
X183459804Y-111577560D01*
X183454823Y-111579882D01*
X183454822Y-111579883D01*
X183263311Y-111669186D01*
X183263306Y-111669189D01*
X183258324Y-111671512D01*
X183253816Y-111674669D01*
X183253810Y-111674672D01*
X183177312Y-111728236D01*
X183110038Y-111750924D01*
X183041178Y-111733639D01*
X182990847Y-111678273D01*
X182970814Y-111635311D01*
X182970811Y-111635306D01*
X182968488Y-111630324D01*
X182933169Y-111579883D01*
X182844136Y-111452730D01*
X182844134Y-111452727D01*
X182840977Y-111448219D01*
X182683781Y-111291023D01*
X182679273Y-111287866D01*
X182679270Y-111287864D01*
X182600789Y-111232911D01*
X182501677Y-111163512D01*
X182496695Y-111161189D01*
X182496690Y-111161186D01*
X182305178Y-111071883D01*
X182305177Y-111071882D01*
X182300196Y-111069560D01*
X182294888Y-111068138D01*
X182294886Y-111068137D01*
X182229051Y-111050497D01*
X182085463Y-111012022D01*
X181864000Y-110992647D01*
X181741103Y-111003399D01*
X181671499Y-110989410D01*
X181620506Y-110940010D01*
X181604601Y-110866896D01*
X181614874Y-110749474D01*
X181615353Y-110744000D01*
X181595978Y-110522537D01*
X181538440Y-110307804D01*
X181531942Y-110293868D01*
X181446814Y-110111311D01*
X181446811Y-110111306D01*
X181444488Y-110106324D01*
X181316977Y-109924219D01*
X181159781Y-109767023D01*
X181155273Y-109763866D01*
X181155270Y-109763864D01*
X181079505Y-109710813D01*
X180977677Y-109639512D01*
X180972689Y-109637186D01*
X180972686Y-109637184D01*
X180929728Y-109617153D01*
X180876442Y-109570237D01*
X180856981Y-109501959D01*
X180879764Y-109430688D01*
X180933328Y-109354190D01*
X180933331Y-109354184D01*
X180936488Y-109349676D01*
X180938811Y-109344694D01*
X180938814Y-109344689D01*
X181028117Y-109153178D01*
X181028118Y-109153177D01*
X181030440Y-109148196D01*
X181087978Y-108933463D01*
X181107353Y-108712000D01*
X181087978Y-108490537D01*
X181030440Y-108275804D01*
X181028117Y-108270822D01*
X180938814Y-108079311D01*
X180938811Y-108079306D01*
X180936488Y-108074324D01*
X180933331Y-108069815D01*
X180933328Y-108069810D01*
X180879764Y-107993312D01*
X180857076Y-107926038D01*
X180874361Y-107857178D01*
X180929728Y-107806847D01*
X180972686Y-107786816D01*
X180972692Y-107786813D01*
X180977677Y-107784488D01*
X181079505Y-107713187D01*
X181155270Y-107660136D01*
X181155273Y-107660134D01*
X181159781Y-107656977D01*
X181316977Y-107499781D01*
X181340658Y-107465962D01*
X181441331Y-107322185D01*
X181441332Y-107322183D01*
X181444488Y-107317676D01*
X181446811Y-107312694D01*
X181446814Y-107312689D01*
X181536117Y-107121178D01*
X181536118Y-107121177D01*
X181538440Y-107116196D01*
X181595978Y-106901463D01*
X181615353Y-106680000D01*
X181604601Y-106557103D01*
X181618590Y-106487499D01*
X181667990Y-106436506D01*
X181741103Y-106420601D01*
X181864000Y-106431353D01*
X182085463Y-106411978D01*
X182229051Y-106373503D01*
X182294886Y-106355863D01*
X182294888Y-106355862D01*
X182300196Y-106354440D01*
X182305178Y-106352117D01*
X182496690Y-106262814D01*
X182496695Y-106262811D01*
X182501677Y-106260488D01*
X182603505Y-106189187D01*
X182679270Y-106136136D01*
X182679273Y-106136134D01*
X182683781Y-106132977D01*
X182840977Y-105975781D01*
X182869822Y-105934587D01*
X182965331Y-105798185D01*
X182965332Y-105798183D01*
X182968488Y-105793676D01*
X182970811Y-105788694D01*
X182970814Y-105788689D01*
X182990847Y-105745727D01*
X183037764Y-105692442D01*
X183106042Y-105672981D01*
X183177313Y-105695764D01*
X183258323Y-105752488D01*
X183263305Y-105754811D01*
X183263310Y-105754814D01*
X183454822Y-105844117D01*
X183459804Y-105846440D01*
X183465112Y-105847862D01*
X183465114Y-105847863D01*
X183528063Y-105864730D01*
X183674537Y-105903978D01*
X183896000Y-105923353D01*
X184117463Y-105903978D01*
X184263937Y-105864730D01*
X184326886Y-105847863D01*
X184326888Y-105847862D01*
X184332196Y-105846440D01*
X184337178Y-105844117D01*
X184528690Y-105754814D01*
X184528695Y-105754811D01*
X184533677Y-105752488D01*
X184614687Y-105695764D01*
X184681961Y-105673076D01*
X184750822Y-105690361D01*
X184801153Y-105745727D01*
X184821186Y-105788689D01*
X184821189Y-105788694D01*
X184823512Y-105793676D01*
X184826668Y-105798183D01*
X184826669Y-105798185D01*
X184922179Y-105934587D01*
X184951023Y-105975781D01*
X185108219Y-106132977D01*
X185112727Y-106136134D01*
X185112730Y-106136136D01*
X185188495Y-106189187D01*
X185290323Y-106260488D01*
X185295305Y-106262811D01*
X185295310Y-106262814D01*
X185486822Y-106352117D01*
X185491804Y-106354440D01*
X185497112Y-106355862D01*
X185497114Y-106355863D01*
X185562949Y-106373503D01*
X185706537Y-106411978D01*
X185928000Y-106431353D01*
X186050897Y-106420601D01*
X186120501Y-106434590D01*
X186171494Y-106483990D01*
X186187399Y-106557103D01*
X186176647Y-106680000D01*
X186196022Y-106901463D01*
X186253560Y-107116196D01*
X186255882Y-107121177D01*
X186255883Y-107121178D01*
X186345186Y-107312689D01*
X186345189Y-107312694D01*
X186347512Y-107317676D01*
X186350668Y-107322183D01*
X186350669Y-107322185D01*
X186451343Y-107465962D01*
X186475023Y-107499781D01*
X186632219Y-107656977D01*
X186636727Y-107660134D01*
X186636730Y-107660136D01*
X186712495Y-107713187D01*
X186814323Y-107784488D01*
X186819305Y-107786811D01*
X186819310Y-107786814D01*
X187010822Y-107876117D01*
X187015804Y-107878440D01*
X187021112Y-107879862D01*
X187021114Y-107879863D01*
X187084063Y-107896730D01*
X187230537Y-107935978D01*
X187452000Y-107955353D01*
X187673463Y-107935978D01*
X187819937Y-107896730D01*
X187882886Y-107879863D01*
X187882888Y-107879862D01*
X187888196Y-107878440D01*
X187893178Y-107876117D01*
X188084690Y-107786814D01*
X188084695Y-107786811D01*
X188089677Y-107784488D01*
X188191505Y-107713187D01*
X188267270Y-107660136D01*
X188267273Y-107660134D01*
X188271781Y-107656977D01*
X188428977Y-107499781D01*
X188452658Y-107465962D01*
X188553331Y-107322185D01*
X188553332Y-107322183D01*
X188556488Y-107317676D01*
X188558811Y-107312694D01*
X188558814Y-107312689D01*
X188648117Y-107121178D01*
X188648118Y-107121177D01*
X188650440Y-107116196D01*
X188707978Y-106901463D01*
X188727353Y-106680000D01*
X188707978Y-106458537D01*
X188650440Y-106243804D01*
X188608016Y-106152825D01*
X188558814Y-106047311D01*
X188558811Y-106047306D01*
X188556488Y-106042324D01*
X188524869Y-105997167D01*
X188432136Y-105864730D01*
X188432134Y-105864727D01*
X188428977Y-105860219D01*
X188271781Y-105703023D01*
X188264229Y-105697735D01*
X188263203Y-105696452D01*
X188263057Y-105696329D01*
X188263082Y-105696300D01*
X188219901Y-105642278D01*
X188210500Y-105594522D01*
X188210500Y-104207070D01*
X188211933Y-104188120D01*
X188214099Y-104173885D01*
X188214099Y-104173881D01*
X188215199Y-104166651D01*
X188210915Y-104113982D01*
X188210500Y-104103767D01*
X188210500Y-104095707D01*
X188207209Y-104067480D01*
X188206778Y-104063121D01*
X188206091Y-104054672D01*
X188200860Y-103990364D01*
X188198605Y-103983403D01*
X188197418Y-103977463D01*
X188196029Y-103971588D01*
X188195182Y-103964319D01*
X188170264Y-103895670D01*
X188168847Y-103891542D01*
X188148607Y-103829064D01*
X188148606Y-103829062D01*
X188146351Y-103822101D01*
X188142555Y-103815846D01*
X188140049Y-103810372D01*
X188137330Y-103804942D01*
X188134833Y-103798063D01*
X188094814Y-103737024D01*
X188092467Y-103733305D01*
X188078752Y-103710703D01*
X188054595Y-103670893D01*
X188047197Y-103662516D01*
X188047224Y-103662492D01*
X188044571Y-103659500D01*
X188041868Y-103656267D01*
X188037856Y-103650148D01*
X187981617Y-103596872D01*
X187979175Y-103594494D01*
X183533776Y-99149095D01*
X183499750Y-99086783D01*
X183504815Y-99015968D01*
X183533776Y-98970905D01*
X188956911Y-93547770D01*
X188971323Y-93535384D01*
X188982918Y-93526851D01*
X188982923Y-93526846D01*
X188988818Y-93522508D01*
X188993557Y-93516930D01*
X188993560Y-93516927D01*
X189023035Y-93482232D01*
X189029965Y-93474716D01*
X189035660Y-93469021D01*
X189053281Y-93446749D01*
X189056072Y-93443345D01*
X189098591Y-93393297D01*
X189098592Y-93393295D01*
X189103333Y-93387715D01*
X189106661Y-93381199D01*
X189110028Y-93376150D01*
X189113195Y-93371021D01*
X189117734Y-93365284D01*
X189148655Y-93299125D01*
X189150561Y-93295225D01*
X189183769Y-93230192D01*
X189185508Y-93223083D01*
X189187604Y-93217449D01*
X189189523Y-93211679D01*
X189192622Y-93205050D01*
X189207491Y-93133565D01*
X189208461Y-93129282D01*
X189224473Y-93063844D01*
X189225808Y-93058390D01*
X189226500Y-93047236D01*
X189226535Y-93047238D01*
X189226775Y-93043266D01*
X189227152Y-93039045D01*
X189228641Y-93031885D01*
X189226546Y-92954458D01*
X189226500Y-92951050D01*
X189226500Y-87846607D01*
X193950933Y-87846607D01*
X193950988Y-87847386D01*
X193956342Y-87855436D01*
X193992960Y-87889821D01*
X193997638Y-87893803D01*
X194303386Y-88129260D01*
X194308429Y-88132765D01*
X194635694Y-88337262D01*
X194641051Y-88340256D01*
X194986709Y-88511843D01*
X194992349Y-88514307D01*
X195353076Y-88651334D01*
X195358948Y-88653242D01*
X195731344Y-88754420D01*
X195737321Y-88755734D01*
X196117843Y-88820095D01*
X196123929Y-88820820D01*
X196508896Y-88847740D01*
X196515032Y-88847868D01*
X196900787Y-88837093D01*
X196906918Y-88836621D01*
X197289755Y-88788257D01*
X197295828Y-88787187D01*
X197672135Y-88701692D01*
X197678050Y-88700040D01*
X198044215Y-88578234D01*
X198049949Y-88576010D01*
X198402497Y-88419046D01*
X198407966Y-88416283D01*
X198743516Y-88225664D01*
X198748690Y-88222380D01*
X199064034Y-87999929D01*
X199068872Y-87996149D01*
X199231240Y-87855998D01*
X199239655Y-87842958D01*
X199233716Y-87832926D01*
X196608812Y-85208022D01*
X196594868Y-85200408D01*
X196593035Y-85200539D01*
X196586420Y-85204790D01*
X193958547Y-87832663D01*
X193950933Y-87846607D01*
X189226500Y-87846607D01*
X189226500Y-87844500D01*
X189246502Y-87776379D01*
X189300158Y-87729886D01*
X189352500Y-87718500D01*
X189366134Y-87718500D01*
X189428316Y-87711745D01*
X189564705Y-87660615D01*
X189681261Y-87573261D01*
X189768615Y-87456705D01*
X189819745Y-87320316D01*
X189826500Y-87258134D01*
X189826500Y-85461866D01*
X189819745Y-85399684D01*
X189768615Y-85263295D01*
X189681261Y-85146739D01*
X189564705Y-85059385D01*
X189428316Y-85008255D01*
X189366134Y-85001500D01*
X187569866Y-85001500D01*
X187507684Y-85008255D01*
X187371295Y-85059385D01*
X187254739Y-85146739D01*
X187167385Y-85263295D01*
X187164233Y-85271703D01*
X187122919Y-85381907D01*
X187080277Y-85438671D01*
X187013716Y-85463371D01*
X186944367Y-85448163D01*
X186911743Y-85422476D01*
X186861151Y-85366875D01*
X186861142Y-85366866D01*
X186857670Y-85363051D01*
X186853619Y-85359852D01*
X186853615Y-85359848D01*
X186686414Y-85227800D01*
X186686410Y-85227798D01*
X186682359Y-85224598D01*
X186486789Y-85116638D01*
X186481920Y-85114914D01*
X186481916Y-85114912D01*
X186281087Y-85043795D01*
X186281083Y-85043794D01*
X186276212Y-85042069D01*
X186271119Y-85041162D01*
X186271116Y-85041161D01*
X186061373Y-85003800D01*
X186061367Y-85003799D01*
X186056284Y-85002894D01*
X185982452Y-85001992D01*
X185838081Y-85000228D01*
X185838079Y-85000228D01*
X185832911Y-85000165D01*
X185612091Y-85033955D01*
X185399756Y-85103357D01*
X185201607Y-85206507D01*
X185197474Y-85209610D01*
X185197471Y-85209612D01*
X185029290Y-85335886D01*
X185022965Y-85340635D01*
X184983525Y-85381907D01*
X184929280Y-85438671D01*
X184868629Y-85502138D01*
X184761201Y-85659621D01*
X184706293Y-85704621D01*
X184635768Y-85712792D01*
X184572021Y-85681538D01*
X184551324Y-85657054D01*
X184470822Y-85532617D01*
X184470820Y-85532614D01*
X184468014Y-85528277D01*
X184317670Y-85363051D01*
X184313619Y-85359852D01*
X184313615Y-85359848D01*
X184146414Y-85227800D01*
X184146410Y-85227798D01*
X184142359Y-85224598D01*
X183946789Y-85116638D01*
X183941920Y-85114914D01*
X183941916Y-85114912D01*
X183741087Y-85043795D01*
X183741083Y-85043794D01*
X183736212Y-85042069D01*
X183731119Y-85041162D01*
X183731116Y-85041161D01*
X183521373Y-85003800D01*
X183521367Y-85003799D01*
X183516284Y-85002894D01*
X183442452Y-85001992D01*
X183298081Y-85000228D01*
X183298079Y-85000228D01*
X183292911Y-85000165D01*
X183072091Y-85033955D01*
X182859756Y-85103357D01*
X182661607Y-85206507D01*
X182657474Y-85209610D01*
X182657471Y-85209612D01*
X182489290Y-85335886D01*
X182482965Y-85340635D01*
X182443525Y-85381907D01*
X182389280Y-85438671D01*
X182328629Y-85502138D01*
X182221201Y-85659621D01*
X182166293Y-85704621D01*
X182095768Y-85712792D01*
X182032021Y-85681538D01*
X182011324Y-85657054D01*
X181930822Y-85532617D01*
X181930820Y-85532614D01*
X181928014Y-85528277D01*
X181777670Y-85363051D01*
X181773619Y-85359852D01*
X181773615Y-85359848D01*
X181606414Y-85227800D01*
X181606410Y-85227798D01*
X181602359Y-85224598D01*
X181406789Y-85116638D01*
X181401920Y-85114914D01*
X181401916Y-85114912D01*
X181201087Y-85043795D01*
X181201083Y-85043794D01*
X181196212Y-85042069D01*
X181191119Y-85041162D01*
X181191116Y-85041161D01*
X180981373Y-85003800D01*
X180981367Y-85003799D01*
X180976284Y-85002894D01*
X180902452Y-85001992D01*
X180758081Y-85000228D01*
X180758079Y-85000228D01*
X180752911Y-85000165D01*
X180532091Y-85033955D01*
X180319756Y-85103357D01*
X180121607Y-85206507D01*
X180117474Y-85209610D01*
X180117471Y-85209612D01*
X179949290Y-85335886D01*
X179942965Y-85340635D01*
X179903525Y-85381907D01*
X179849280Y-85438671D01*
X179788629Y-85502138D01*
X179681201Y-85659621D01*
X179626293Y-85704621D01*
X179555768Y-85712792D01*
X179492021Y-85681538D01*
X179471324Y-85657054D01*
X179390822Y-85532617D01*
X179390820Y-85532614D01*
X179388014Y-85528277D01*
X179237670Y-85363051D01*
X179233619Y-85359852D01*
X179233615Y-85359848D01*
X179066414Y-85227800D01*
X179066410Y-85227798D01*
X179062359Y-85224598D01*
X178866789Y-85116638D01*
X178861920Y-85114914D01*
X178861916Y-85114912D01*
X178661087Y-85043795D01*
X178661083Y-85043794D01*
X178656212Y-85042069D01*
X178651119Y-85041162D01*
X178651116Y-85041161D01*
X178441373Y-85003800D01*
X178441367Y-85003799D01*
X178436284Y-85002894D01*
X178362452Y-85001992D01*
X178218081Y-85000228D01*
X178218079Y-85000228D01*
X178212911Y-85000165D01*
X177992091Y-85033955D01*
X177779756Y-85103357D01*
X177581607Y-85206507D01*
X177577474Y-85209610D01*
X177577471Y-85209612D01*
X177409290Y-85335886D01*
X177402965Y-85340635D01*
X177363525Y-85381907D01*
X177309280Y-85438671D01*
X177248629Y-85502138D01*
X177141201Y-85659621D01*
X177086293Y-85704621D01*
X177015768Y-85712792D01*
X176952021Y-85681538D01*
X176931324Y-85657054D01*
X176850822Y-85532617D01*
X176850820Y-85532614D01*
X176848014Y-85528277D01*
X176697670Y-85363051D01*
X176693619Y-85359852D01*
X176693615Y-85359848D01*
X176526414Y-85227800D01*
X176526410Y-85227798D01*
X176522359Y-85224598D01*
X176326789Y-85116638D01*
X176321920Y-85114914D01*
X176321916Y-85114912D01*
X176121087Y-85043795D01*
X176121083Y-85043794D01*
X176116212Y-85042069D01*
X176111119Y-85041162D01*
X176111116Y-85041161D01*
X175901373Y-85003800D01*
X175901367Y-85003799D01*
X175896284Y-85002894D01*
X175822452Y-85001992D01*
X175678081Y-85000228D01*
X175678079Y-85000228D01*
X175672911Y-85000165D01*
X175452091Y-85033955D01*
X175239756Y-85103357D01*
X175041607Y-85206507D01*
X175037474Y-85209610D01*
X175037471Y-85209612D01*
X174869290Y-85335886D01*
X174862965Y-85340635D01*
X174823525Y-85381907D01*
X174769280Y-85438671D01*
X174708629Y-85502138D01*
X174601201Y-85659621D01*
X174546293Y-85704621D01*
X174475768Y-85712792D01*
X174412021Y-85681538D01*
X174391324Y-85657054D01*
X174310822Y-85532617D01*
X174310820Y-85532614D01*
X174308014Y-85528277D01*
X174157670Y-85363051D01*
X174153619Y-85359852D01*
X174153615Y-85359848D01*
X173986414Y-85227800D01*
X173986410Y-85227798D01*
X173982359Y-85224598D01*
X173786789Y-85116638D01*
X173781920Y-85114914D01*
X173781916Y-85114912D01*
X173581087Y-85043795D01*
X173581083Y-85043794D01*
X173576212Y-85042069D01*
X173571119Y-85041162D01*
X173571116Y-85041161D01*
X173361373Y-85003800D01*
X173361367Y-85003799D01*
X173356284Y-85002894D01*
X173282452Y-85001992D01*
X173138081Y-85000228D01*
X173138079Y-85000228D01*
X173132911Y-85000165D01*
X172912091Y-85033955D01*
X172699756Y-85103357D01*
X172501607Y-85206507D01*
X172497474Y-85209610D01*
X172497471Y-85209612D01*
X172329290Y-85335886D01*
X172322965Y-85340635D01*
X172283525Y-85381907D01*
X172229280Y-85438671D01*
X172168629Y-85502138D01*
X172061201Y-85659621D01*
X172006293Y-85704621D01*
X171935768Y-85712792D01*
X171872021Y-85681538D01*
X171851324Y-85657054D01*
X171770822Y-85532617D01*
X171770820Y-85532614D01*
X171768014Y-85528277D01*
X171617670Y-85363051D01*
X171613619Y-85359852D01*
X171613615Y-85359848D01*
X171446414Y-85227800D01*
X171446410Y-85227798D01*
X171442359Y-85224598D01*
X171246789Y-85116638D01*
X171241920Y-85114914D01*
X171241916Y-85114912D01*
X171041087Y-85043795D01*
X171041083Y-85043794D01*
X171036212Y-85042069D01*
X171031119Y-85041162D01*
X171031116Y-85041161D01*
X170821373Y-85003800D01*
X170821367Y-85003799D01*
X170816284Y-85002894D01*
X170742452Y-85001992D01*
X170598081Y-85000228D01*
X170598079Y-85000228D01*
X170592911Y-85000165D01*
X170372091Y-85033955D01*
X170159756Y-85103357D01*
X169961607Y-85206507D01*
X169957474Y-85209610D01*
X169957471Y-85209612D01*
X169789290Y-85335886D01*
X169782965Y-85340635D01*
X169743525Y-85381907D01*
X169689280Y-85438671D01*
X169628629Y-85502138D01*
X169502743Y-85686680D01*
X169408688Y-85889305D01*
X169348989Y-86104570D01*
X169325251Y-86326695D01*
X169338110Y-86549715D01*
X169339247Y-86554761D01*
X169339248Y-86554767D01*
X169363304Y-86661508D01*
X169387222Y-86767639D01*
X169471266Y-86974616D01*
X169508685Y-87035678D01*
X169585291Y-87160688D01*
X169587987Y-87165088D01*
X169734250Y-87333938D01*
X169906126Y-87476632D01*
X170099000Y-87589338D01*
X170307692Y-87669030D01*
X170312760Y-87670061D01*
X170312763Y-87670062D01*
X170420017Y-87691883D01*
X170526597Y-87713567D01*
X170531772Y-87713757D01*
X170531774Y-87713757D01*
X170744673Y-87721564D01*
X170744677Y-87721564D01*
X170749837Y-87721753D01*
X170754957Y-87721097D01*
X170754959Y-87721097D01*
X170966288Y-87694025D01*
X170966289Y-87694025D01*
X170971416Y-87693368D01*
X170976366Y-87691883D01*
X171180429Y-87630661D01*
X171180434Y-87630659D01*
X171185384Y-87629174D01*
X171385994Y-87530896D01*
X171567860Y-87401173D01*
X171726096Y-87243489D01*
X171785594Y-87160689D01*
X171856453Y-87062077D01*
X171857776Y-87063028D01*
X171904645Y-87019857D01*
X171974580Y-87007625D01*
X172040026Y-87035144D01*
X172067875Y-87066994D01*
X172127987Y-87165088D01*
X172274250Y-87333938D01*
X172446126Y-87476632D01*
X172639000Y-87589338D01*
X172847692Y-87669030D01*
X172852760Y-87670061D01*
X172852763Y-87670062D01*
X172960017Y-87691883D01*
X173066597Y-87713567D01*
X173071772Y-87713757D01*
X173071774Y-87713757D01*
X173284673Y-87721564D01*
X173284677Y-87721564D01*
X173289837Y-87721753D01*
X173294957Y-87721097D01*
X173294959Y-87721097D01*
X173506288Y-87694025D01*
X173506289Y-87694025D01*
X173511416Y-87693368D01*
X173516366Y-87691883D01*
X173720429Y-87630661D01*
X173720434Y-87630659D01*
X173725384Y-87629174D01*
X173925994Y-87530896D01*
X174107860Y-87401173D01*
X174266096Y-87243489D01*
X174325594Y-87160689D01*
X174396453Y-87062077D01*
X174397776Y-87063028D01*
X174444645Y-87019857D01*
X174514580Y-87007625D01*
X174580026Y-87035144D01*
X174607875Y-87066994D01*
X174667987Y-87165088D01*
X174814250Y-87333938D01*
X174986126Y-87476632D01*
X175179000Y-87589338D01*
X175387692Y-87669030D01*
X175392760Y-87670061D01*
X175392763Y-87670062D01*
X175500017Y-87691883D01*
X175606597Y-87713567D01*
X175611772Y-87713757D01*
X175611774Y-87713757D01*
X175824673Y-87721564D01*
X175824677Y-87721564D01*
X175829837Y-87721753D01*
X175834957Y-87721097D01*
X175834959Y-87721097D01*
X176046288Y-87694025D01*
X176046289Y-87694025D01*
X176051416Y-87693368D01*
X176056366Y-87691883D01*
X176260429Y-87630661D01*
X176260434Y-87630659D01*
X176265384Y-87629174D01*
X176465994Y-87530896D01*
X176647860Y-87401173D01*
X176806096Y-87243489D01*
X176865594Y-87160689D01*
X176936453Y-87062077D01*
X176937776Y-87063028D01*
X176984645Y-87019857D01*
X177054580Y-87007625D01*
X177120026Y-87035144D01*
X177147875Y-87066994D01*
X177207987Y-87165088D01*
X177354250Y-87333938D01*
X177526126Y-87476632D01*
X177719000Y-87589338D01*
X177927692Y-87669030D01*
X177932760Y-87670061D01*
X177932763Y-87670062D01*
X178040017Y-87691883D01*
X178146597Y-87713567D01*
X178151772Y-87713757D01*
X178151774Y-87713757D01*
X178364673Y-87721564D01*
X178364677Y-87721564D01*
X178369837Y-87721753D01*
X178374957Y-87721097D01*
X178374959Y-87721097D01*
X178586288Y-87694025D01*
X178586289Y-87694025D01*
X178591416Y-87693368D01*
X178596366Y-87691883D01*
X178800429Y-87630661D01*
X178800434Y-87630659D01*
X178805384Y-87629174D01*
X179005994Y-87530896D01*
X179187860Y-87401173D01*
X179346096Y-87243489D01*
X179405594Y-87160689D01*
X179476453Y-87062077D01*
X179477776Y-87063028D01*
X179524645Y-87019857D01*
X179594580Y-87007625D01*
X179660026Y-87035144D01*
X179687875Y-87066994D01*
X179747987Y-87165088D01*
X179894250Y-87333938D01*
X180066126Y-87476632D01*
X180259000Y-87589338D01*
X180467692Y-87669030D01*
X180472760Y-87670061D01*
X180472763Y-87670062D01*
X180580017Y-87691883D01*
X180686597Y-87713567D01*
X180691772Y-87713757D01*
X180691774Y-87713757D01*
X180904673Y-87721564D01*
X180904677Y-87721564D01*
X180909837Y-87721753D01*
X180914957Y-87721097D01*
X180914959Y-87721097D01*
X181126288Y-87694025D01*
X181126289Y-87694025D01*
X181131416Y-87693368D01*
X181136366Y-87691883D01*
X181340429Y-87630661D01*
X181340434Y-87630659D01*
X181345384Y-87629174D01*
X181545994Y-87530896D01*
X181727860Y-87401173D01*
X181886096Y-87243489D01*
X181945594Y-87160689D01*
X182016453Y-87062077D01*
X182017776Y-87063028D01*
X182064645Y-87019857D01*
X182134580Y-87007625D01*
X182200026Y-87035144D01*
X182227875Y-87066994D01*
X182287987Y-87165088D01*
X182434250Y-87333938D01*
X182606126Y-87476632D01*
X182799000Y-87589338D01*
X183007692Y-87669030D01*
X183012760Y-87670061D01*
X183012763Y-87670062D01*
X183120017Y-87691883D01*
X183226597Y-87713567D01*
X183231772Y-87713757D01*
X183231774Y-87713757D01*
X183444673Y-87721564D01*
X183444677Y-87721564D01*
X183449837Y-87721753D01*
X183454957Y-87721097D01*
X183454959Y-87721097D01*
X183666288Y-87694025D01*
X183666289Y-87694025D01*
X183671416Y-87693368D01*
X183676366Y-87691883D01*
X183880429Y-87630661D01*
X183880434Y-87630659D01*
X183885384Y-87629174D01*
X184085994Y-87530896D01*
X184267860Y-87401173D01*
X184426096Y-87243489D01*
X184485594Y-87160689D01*
X184556453Y-87062077D01*
X184557776Y-87063028D01*
X184604645Y-87019857D01*
X184674580Y-87007625D01*
X184740026Y-87035144D01*
X184767875Y-87066994D01*
X184827987Y-87165088D01*
X184974250Y-87333938D01*
X185146126Y-87476632D01*
X185339000Y-87589338D01*
X185547692Y-87669030D01*
X185552760Y-87670061D01*
X185552763Y-87670062D01*
X185660017Y-87691883D01*
X185766597Y-87713567D01*
X185771772Y-87713757D01*
X185771774Y-87713757D01*
X185984673Y-87721564D01*
X185984677Y-87721564D01*
X185989837Y-87721753D01*
X185994957Y-87721097D01*
X185994959Y-87721097D01*
X186206288Y-87694025D01*
X186206289Y-87694025D01*
X186211416Y-87693368D01*
X186216366Y-87691883D01*
X186420429Y-87630661D01*
X186420434Y-87630659D01*
X186425384Y-87629174D01*
X186625994Y-87530896D01*
X186807860Y-87401173D01*
X186916091Y-87293319D01*
X186978462Y-87259404D01*
X187049268Y-87264592D01*
X187106030Y-87307238D01*
X187123012Y-87338341D01*
X187167385Y-87456705D01*
X187254739Y-87573261D01*
X187371295Y-87660615D01*
X187507684Y-87711745D01*
X187569866Y-87718500D01*
X187583500Y-87718500D01*
X187651621Y-87738502D01*
X187698114Y-87792158D01*
X187709500Y-87844500D01*
X187709500Y-92597629D01*
X187689498Y-92665750D01*
X187672595Y-92686724D01*
X182094724Y-98264595D01*
X182032412Y-98298621D01*
X182005629Y-98301500D01*
X173770587Y-98301500D01*
X173696528Y-98277437D01*
X173690098Y-98272765D01*
X173690091Y-98272761D01*
X173684752Y-98268882D01*
X173678724Y-98266198D01*
X173678722Y-98266197D01*
X173516319Y-98193891D01*
X173516318Y-98193891D01*
X173510288Y-98191206D01*
X173416888Y-98171353D01*
X173329944Y-98152872D01*
X173329939Y-98152872D01*
X173323487Y-98151500D01*
X173132513Y-98151500D01*
X173126061Y-98152872D01*
X173126056Y-98152872D01*
X173039112Y-98171353D01*
X172945712Y-98191206D01*
X172939682Y-98193891D01*
X172939681Y-98193891D01*
X172777278Y-98266197D01*
X172777276Y-98266198D01*
X172771248Y-98268882D01*
X172765909Y-98272761D01*
X172765902Y-98272765D01*
X172759472Y-98277437D01*
X172685413Y-98301500D01*
X159038587Y-98301500D01*
X158964528Y-98277437D01*
X158958098Y-98272765D01*
X158958091Y-98272761D01*
X158952752Y-98268882D01*
X158946724Y-98266198D01*
X158946722Y-98266197D01*
X158784319Y-98193891D01*
X158784318Y-98193891D01*
X158778288Y-98191206D01*
X158684888Y-98171353D01*
X158597944Y-98152872D01*
X158597939Y-98152872D01*
X158591487Y-98151500D01*
X158400513Y-98151500D01*
X158394061Y-98152872D01*
X158394056Y-98152872D01*
X158307112Y-98171353D01*
X158213712Y-98191206D01*
X158207682Y-98193891D01*
X158207681Y-98193891D01*
X158045278Y-98266197D01*
X158045276Y-98266198D01*
X158039248Y-98268882D01*
X158033909Y-98272761D01*
X158033902Y-98272765D01*
X158027472Y-98277437D01*
X157953413Y-98301500D01*
X144306587Y-98301500D01*
X144232528Y-98277437D01*
X144226098Y-98272765D01*
X144226091Y-98272761D01*
X144220752Y-98268882D01*
X144214724Y-98266198D01*
X144214722Y-98266197D01*
X144052319Y-98193891D01*
X144052318Y-98193891D01*
X144046288Y-98191206D01*
X143952888Y-98171353D01*
X143865944Y-98152872D01*
X143865939Y-98152872D01*
X143859487Y-98151500D01*
X143668513Y-98151500D01*
X143662061Y-98152872D01*
X143662056Y-98152872D01*
X143575112Y-98171353D01*
X143481712Y-98191206D01*
X143475682Y-98193891D01*
X143475681Y-98193891D01*
X143313278Y-98266197D01*
X143313276Y-98266198D01*
X143307248Y-98268882D01*
X143301909Y-98272761D01*
X143301902Y-98272765D01*
X143295472Y-98277437D01*
X143221413Y-98301500D01*
X129574587Y-98301500D01*
X129500528Y-98277437D01*
X129494098Y-98272765D01*
X129494091Y-98272761D01*
X129488752Y-98268882D01*
X129482724Y-98266198D01*
X129482722Y-98266197D01*
X129320319Y-98193891D01*
X129320318Y-98193891D01*
X129314288Y-98191206D01*
X129220888Y-98171353D01*
X129133944Y-98152872D01*
X129133939Y-98152872D01*
X129127487Y-98151500D01*
X128936513Y-98151500D01*
X128930061Y-98152872D01*
X128930056Y-98152872D01*
X128843112Y-98171353D01*
X128749712Y-98191206D01*
X128743682Y-98193891D01*
X128743681Y-98193891D01*
X128581278Y-98266197D01*
X128581276Y-98266198D01*
X128575248Y-98268882D01*
X128569909Y-98272761D01*
X128569902Y-98272765D01*
X128563472Y-98277437D01*
X128489413Y-98301500D01*
X114842587Y-98301500D01*
X114768528Y-98277437D01*
X114762098Y-98272765D01*
X114762091Y-98272761D01*
X114756752Y-98268882D01*
X114750724Y-98266198D01*
X114750722Y-98266197D01*
X114588319Y-98193891D01*
X114588318Y-98193891D01*
X114582288Y-98191206D01*
X114488888Y-98171353D01*
X114401944Y-98152872D01*
X114401939Y-98152872D01*
X114395487Y-98151500D01*
X114204513Y-98151500D01*
X114198061Y-98152872D01*
X114198056Y-98152872D01*
X114111112Y-98171353D01*
X114017712Y-98191206D01*
X114011682Y-98193891D01*
X114011681Y-98193891D01*
X113849278Y-98266197D01*
X113849276Y-98266198D01*
X113843248Y-98268882D01*
X113837909Y-98272761D01*
X113837902Y-98272765D01*
X113831472Y-98277437D01*
X113757413Y-98301500D01*
X100110587Y-98301500D01*
X100036528Y-98277437D01*
X100030098Y-98272765D01*
X100030091Y-98272761D01*
X100024752Y-98268882D01*
X100018724Y-98266198D01*
X100018722Y-98266197D01*
X99856319Y-98193891D01*
X99856318Y-98193891D01*
X99850288Y-98191206D01*
X99756888Y-98171353D01*
X99669944Y-98152872D01*
X99669939Y-98152872D01*
X99663487Y-98151500D01*
X99472513Y-98151500D01*
X99466061Y-98152872D01*
X99466056Y-98152872D01*
X99379112Y-98171353D01*
X99285712Y-98191206D01*
X99279682Y-98193891D01*
X99279681Y-98193891D01*
X99117278Y-98266197D01*
X99117276Y-98266198D01*
X99111248Y-98268882D01*
X99105909Y-98272761D01*
X99105902Y-98272765D01*
X99099472Y-98277437D01*
X99025413Y-98301500D01*
X85378587Y-98301500D01*
X85304528Y-98277437D01*
X85298098Y-98272765D01*
X85298091Y-98272761D01*
X85292752Y-98268882D01*
X85286724Y-98266198D01*
X85286722Y-98266197D01*
X85124319Y-98193891D01*
X85124318Y-98193891D01*
X85118288Y-98191206D01*
X85024888Y-98171353D01*
X84937944Y-98152872D01*
X84937939Y-98152872D01*
X84931487Y-98151500D01*
X84740513Y-98151500D01*
X84734061Y-98152872D01*
X84734056Y-98152872D01*
X84647112Y-98171353D01*
X84553712Y-98191206D01*
X84547682Y-98193891D01*
X84547681Y-98193891D01*
X84385278Y-98266197D01*
X84385276Y-98266198D01*
X84379248Y-98268882D01*
X84373907Y-98272762D01*
X84373906Y-98272763D01*
X84367473Y-98277437D01*
X84224747Y-98381134D01*
X84096960Y-98523056D01*
X84001473Y-98688444D01*
X83942458Y-98870072D01*
X83922496Y-99060000D01*
X83923186Y-99066564D01*
X83932028Y-99150690D01*
X83919256Y-99220529D01*
X83870754Y-99272376D01*
X83801921Y-99289770D01*
X83755469Y-99278968D01*
X83600319Y-99209891D01*
X83600318Y-99209891D01*
X83594288Y-99207206D01*
X83500888Y-99187353D01*
X83413944Y-99168872D01*
X83413939Y-99168872D01*
X83407487Y-99167500D01*
X83216513Y-99167500D01*
X83210061Y-99168872D01*
X83210056Y-99168872D01*
X83123113Y-99187353D01*
X83029712Y-99207206D01*
X83023682Y-99209891D01*
X83023681Y-99209891D01*
X82861278Y-99282197D01*
X82861276Y-99282198D01*
X82855248Y-99284882D01*
X82700747Y-99397134D01*
X82572960Y-99539056D01*
X82477473Y-99704444D01*
X82418458Y-99886072D01*
X82398496Y-100076000D01*
X82399186Y-100082564D01*
X82410933Y-100194329D01*
X82398161Y-100264168D01*
X82349659Y-100316014D01*
X82285623Y-100333500D01*
X81822587Y-100333500D01*
X81748528Y-100309437D01*
X81742098Y-100304765D01*
X81742091Y-100304761D01*
X81736752Y-100300882D01*
X81730724Y-100298198D01*
X81730722Y-100298197D01*
X81568319Y-100225891D01*
X81568318Y-100225891D01*
X81562288Y-100223206D01*
X81468888Y-100203353D01*
X81381944Y-100184872D01*
X81381939Y-100184872D01*
X81375487Y-100183500D01*
X81184513Y-100183500D01*
X81178061Y-100184872D01*
X81178056Y-100184872D01*
X81091112Y-100203353D01*
X80997712Y-100223206D01*
X80991682Y-100225891D01*
X80991681Y-100225891D01*
X80829278Y-100298197D01*
X80829276Y-100298198D01*
X80823248Y-100300882D01*
X80817907Y-100304762D01*
X80817906Y-100304763D01*
X80778353Y-100333500D01*
X80668747Y-100413134D01*
X80540960Y-100555056D01*
X80445473Y-100720444D01*
X80386458Y-100902072D01*
X80366496Y-101092000D01*
X80386458Y-101281928D01*
X80442959Y-101455819D01*
X80444987Y-101526785D01*
X80408324Y-101587583D01*
X80352109Y-101617375D01*
X80349589Y-101617971D01*
X80342319Y-101618818D01*
X80273670Y-101643736D01*
X80269542Y-101645153D01*
X80207064Y-101665393D01*
X80207062Y-101665394D01*
X80200101Y-101667649D01*
X80193846Y-101671445D01*
X80188372Y-101673951D01*
X80182942Y-101676670D01*
X80176063Y-101679167D01*
X80169943Y-101683180D01*
X80169942Y-101683180D01*
X80115024Y-101719186D01*
X80111320Y-101721523D01*
X80048893Y-101759405D01*
X80040516Y-101766803D01*
X80040492Y-101766776D01*
X80037500Y-101769429D01*
X80034267Y-101772132D01*
X80028148Y-101776144D01*
X80023116Y-101781456D01*
X79974872Y-101832383D01*
X79972494Y-101834825D01*
X78251089Y-103556230D01*
X78236677Y-103568616D01*
X78225082Y-103577149D01*
X78225077Y-103577154D01*
X78219182Y-103581492D01*
X78214443Y-103587070D01*
X78214440Y-103587073D01*
X78184965Y-103621768D01*
X78178035Y-103629284D01*
X78172340Y-103634979D01*
X78170060Y-103637861D01*
X78154719Y-103657251D01*
X78151928Y-103660655D01*
X78139155Y-103675690D01*
X78104667Y-103716285D01*
X78101339Y-103722801D01*
X78097972Y-103727850D01*
X78094805Y-103732979D01*
X78090266Y-103738716D01*
X78059345Y-103804875D01*
X78057442Y-103808769D01*
X78024231Y-103873808D01*
X78022492Y-103880916D01*
X78020393Y-103886559D01*
X78018476Y-103892322D01*
X78015378Y-103898950D01*
X78013888Y-103906112D01*
X78013888Y-103906113D01*
X78000514Y-103970412D01*
X77999544Y-103974696D01*
X77982192Y-104045610D01*
X77981500Y-104056764D01*
X77981464Y-104056762D01*
X77981225Y-104060758D01*
X77980851Y-104064946D01*
X77979360Y-104072115D01*
X77979558Y-104079430D01*
X77979243Y-104082957D01*
X77953262Y-104149029D01*
X77928874Y-104172243D01*
X77928944Y-104172327D01*
X77927610Y-104173446D01*
X77926021Y-104174959D01*
X77924731Y-104175862D01*
X77924719Y-104175872D01*
X77920219Y-104179023D01*
X77763023Y-104336219D01*
X77635512Y-104518324D01*
X77633189Y-104523306D01*
X77633186Y-104523311D01*
X77543883Y-104714822D01*
X77541560Y-104719804D01*
X77484022Y-104934537D01*
X77464647Y-105156000D01*
X77465126Y-105161474D01*
X77475399Y-105278896D01*
X77461410Y-105348501D01*
X77412010Y-105399494D01*
X77338897Y-105415399D01*
X77216000Y-105404647D01*
X76994537Y-105424022D01*
X76850949Y-105462497D01*
X76785114Y-105480137D01*
X76785112Y-105480138D01*
X76779804Y-105481560D01*
X76774823Y-105483882D01*
X76774822Y-105483883D01*
X76583311Y-105573186D01*
X76583306Y-105573189D01*
X76578324Y-105575512D01*
X76573817Y-105578668D01*
X76573815Y-105578669D01*
X76400730Y-105699864D01*
X76400727Y-105699866D01*
X76396219Y-105703023D01*
X76239023Y-105860219D01*
X76235866Y-105864727D01*
X76235864Y-105864730D01*
X76143131Y-105997167D01*
X76111512Y-106042324D01*
X76109189Y-106047306D01*
X76109186Y-106047311D01*
X76059984Y-106152825D01*
X76017560Y-106243804D01*
X75960022Y-106458537D01*
X75940647Y-106680000D01*
X75960022Y-106901463D01*
X76017560Y-107116196D01*
X76019882Y-107121177D01*
X76019883Y-107121178D01*
X76109186Y-107312689D01*
X76109189Y-107312694D01*
X76111512Y-107317676D01*
X76114669Y-107322184D01*
X76114672Y-107322190D01*
X76168236Y-107398688D01*
X76190924Y-107465962D01*
X76173639Y-107534822D01*
X76118273Y-107585153D01*
X76075311Y-107605186D01*
X76075306Y-107605189D01*
X76070324Y-107607512D01*
X76065817Y-107610668D01*
X76065815Y-107610669D01*
X75892730Y-107731864D01*
X75892727Y-107731866D01*
X75888219Y-107735023D01*
X75731023Y-107892219D01*
X75727866Y-107896727D01*
X75727864Y-107896730D01*
X75686816Y-107955353D01*
X75603512Y-108074324D01*
X75601189Y-108079306D01*
X75601186Y-108079311D01*
X75511883Y-108270822D01*
X75509560Y-108275804D01*
X75452022Y-108490537D01*
X75432647Y-108712000D01*
X64008000Y-108712000D01*
X64008000Y-87846607D01*
X65426933Y-87846607D01*
X65426988Y-87847386D01*
X65432342Y-87855436D01*
X65468960Y-87889821D01*
X65473638Y-87893803D01*
X65779386Y-88129260D01*
X65784429Y-88132765D01*
X66111694Y-88337262D01*
X66117051Y-88340256D01*
X66462709Y-88511843D01*
X66468349Y-88514307D01*
X66829076Y-88651334D01*
X66834948Y-88653242D01*
X67207344Y-88754420D01*
X67213321Y-88755734D01*
X67593843Y-88820095D01*
X67599929Y-88820820D01*
X67984896Y-88847740D01*
X67991032Y-88847868D01*
X68376787Y-88837093D01*
X68382918Y-88836621D01*
X68765755Y-88788257D01*
X68771828Y-88787187D01*
X69148135Y-88701692D01*
X69154050Y-88700040D01*
X69520215Y-88578234D01*
X69525949Y-88576010D01*
X69878497Y-88419046D01*
X69883966Y-88416283D01*
X70219516Y-88225664D01*
X70224690Y-88222380D01*
X70540034Y-87999929D01*
X70544872Y-87996149D01*
X70707240Y-87855998D01*
X70715655Y-87842958D01*
X70709716Y-87832926D01*
X68084812Y-85208022D01*
X68070868Y-85200408D01*
X68069035Y-85200539D01*
X68062420Y-85204790D01*
X65434547Y-87832663D01*
X65426933Y-87846607D01*
X64008000Y-87846607D01*
X64008000Y-86096261D01*
X64028002Y-86028140D01*
X64081658Y-85981647D01*
X64151932Y-85971543D01*
X64216512Y-86001037D01*
X64253278Y-86055656D01*
X64339968Y-86310306D01*
X64342235Y-86316031D01*
X64501643Y-86667444D01*
X64504465Y-86672934D01*
X64697407Y-87007119D01*
X64700737Y-87012287D01*
X64925375Y-87326059D01*
X64929197Y-87330881D01*
X65052033Y-87471195D01*
X65065247Y-87479593D01*
X65075043Y-87473747D01*
X67699978Y-84848812D01*
X67706356Y-84837132D01*
X68436408Y-84837132D01*
X68436539Y-84838965D01*
X68440790Y-84845580D01*
X71069364Y-87474154D01*
X71083308Y-87481768D01*
X71084323Y-87481696D01*
X71092054Y-87476593D01*
X71107567Y-87460302D01*
X71111595Y-87455637D01*
X71349168Y-87151558D01*
X71352722Y-87146518D01*
X71559486Y-86820712D01*
X71562529Y-86815356D01*
X71736520Y-86470910D01*
X71739016Y-86465306D01*
X71878568Y-86105518D01*
X71880509Y-86099684D01*
X71984288Y-85727988D01*
X71985644Y-85722017D01*
X72052660Y-85341959D01*
X72053427Y-85335886D01*
X72083119Y-84950000D01*
X72083296Y-84946085D01*
X72084806Y-84837974D01*
X72084738Y-84834030D01*
X72082245Y-84783061D01*
X192583665Y-84783061D01*
X192597132Y-85168706D01*
X192597647Y-85174838D01*
X192648685Y-85557347D01*
X192649792Y-85563383D01*
X192737913Y-85939090D01*
X192739608Y-85945000D01*
X192863968Y-86310306D01*
X192866235Y-86316031D01*
X193025643Y-86667444D01*
X193028465Y-86672934D01*
X193221407Y-87007119D01*
X193224737Y-87012287D01*
X193449375Y-87326059D01*
X193453197Y-87330881D01*
X193576033Y-87471195D01*
X193589247Y-87479593D01*
X193599043Y-87473747D01*
X196223978Y-84848812D01*
X196231592Y-84834868D01*
X196231461Y-84833035D01*
X196227210Y-84826420D01*
X193599902Y-82199112D01*
X193585958Y-82191498D01*
X193585412Y-82191537D01*
X193577055Y-82197136D01*
X193524077Y-82254347D01*
X193520132Y-82259049D01*
X193286821Y-82566426D01*
X193283343Y-82571504D01*
X193081141Y-82900179D01*
X193078176Y-82905572D01*
X192909014Y-83252406D01*
X192906588Y-83258064D01*
X192772076Y-83619758D01*
X192770218Y-83625615D01*
X192671640Y-83998718D01*
X192670365Y-84004718D01*
X192608667Y-84385648D01*
X192607980Y-84391776D01*
X192583751Y-84776886D01*
X192583665Y-84783061D01*
X72082245Y-84783061D01*
X72065832Y-84447489D01*
X72065231Y-84441365D01*
X72008862Y-84059631D01*
X72007662Y-84053569D01*
X71914312Y-83679165D01*
X71912527Y-83673250D01*
X71783082Y-83309727D01*
X71780739Y-83304043D01*
X71616434Y-82954877D01*
X71613545Y-82949443D01*
X71415955Y-82617983D01*
X71412547Y-82612853D01*
X71183547Y-82302244D01*
X71179667Y-82297487D01*
X71092318Y-82200475D01*
X71078797Y-82192145D01*
X71078720Y-82192146D01*
X71069434Y-82197776D01*
X68444022Y-84823188D01*
X68436408Y-84837132D01*
X67706356Y-84837132D01*
X67707592Y-84834868D01*
X67707461Y-84833035D01*
X67703210Y-84826420D01*
X65075902Y-82199112D01*
X65061958Y-82191498D01*
X65061412Y-82191537D01*
X65053055Y-82197136D01*
X65000077Y-82254347D01*
X64996132Y-82259049D01*
X64762821Y-82566426D01*
X64759343Y-82571504D01*
X64557141Y-82900179D01*
X64554176Y-82905572D01*
X64385014Y-83252406D01*
X64382588Y-83258064D01*
X64252098Y-83608943D01*
X64209605Y-83665819D01*
X64143109Y-83690693D01*
X64073720Y-83675668D01*
X64023470Y-83625514D01*
X64008000Y-83565023D01*
X64008000Y-80898000D01*
X64028002Y-80829879D01*
X64081658Y-80783386D01*
X64134000Y-80772000D01*
X66809821Y-80772000D01*
X66877942Y-80792002D01*
G37*
%TD.AperFunction*%
%TD*%
M02*
