%TF.GenerationSoftware,KiCad,Pcbnew,(6.0.2)*%
%TF.CreationDate,2022-06-24T18:37:41+02:00*%
%TF.ProjectId,divergence_meter_top,64697665-7267-4656-9e63-655f6d657465,rev?*%
%TF.SameCoordinates,Original*%
%TF.FileFunction,Legend,Bot*%
%TF.FilePolarity,Positive*%
%FSLAX46Y46*%
G04 Gerber Fmt 4.6, Leading zero omitted, Abs format (unit mm)*
G04 Created by KiCad (PCBNEW (6.0.2)) date 2022-06-24 18:37:41*
%MOMM*%
%LPD*%
G01*
G04 APERTURE LIST*
%ADD10C,0.300000*%
%ADD11C,0.150000*%
%ADD12C,0.120000*%
%ADD13C,1.524000*%
%ADD14C,0.800000*%
%ADD15C,7.000000*%
%ADD16R,1.700000X1.700000*%
%ADD17O,1.700000X1.700000*%
G04 APERTURE END LIST*
D10*
X189324000Y-89249523D02*
X187038285Y-89249523D01*
X188181142Y-93249523D02*
X188181142Y-89249523D01*
X185133523Y-93249523D02*
X185514476Y-93059047D01*
X185704952Y-92868571D01*
X185895428Y-92487619D01*
X185895428Y-91344761D01*
X185704952Y-90963809D01*
X185514476Y-90773333D01*
X185133523Y-90582857D01*
X184562095Y-90582857D01*
X184181142Y-90773333D01*
X183990666Y-90963809D01*
X183800190Y-91344761D01*
X183800190Y-92487619D01*
X183990666Y-92868571D01*
X184181142Y-93059047D01*
X184562095Y-93249523D01*
X185133523Y-93249523D01*
X181514476Y-93249523D02*
X181895428Y-93059047D01*
X182085904Y-92868571D01*
X182276380Y-92487619D01*
X182276380Y-91344761D01*
X182085904Y-90963809D01*
X181895428Y-90773333D01*
X181514476Y-90582857D01*
X180943047Y-90582857D01*
X180562095Y-90773333D01*
X180371619Y-90963809D01*
X180181142Y-91344761D01*
X180181142Y-92487619D01*
X180371619Y-92868571D01*
X180562095Y-93059047D01*
X180943047Y-93249523D01*
X181514476Y-93249523D01*
X178466857Y-93249523D02*
X178466857Y-89249523D01*
X176752571Y-93249523D02*
X176752571Y-91154285D01*
X176943047Y-90773333D01*
X177324000Y-90582857D01*
X177895428Y-90582857D01*
X178276380Y-90773333D01*
X178466857Y-90963809D01*
X174847809Y-93249523D02*
X174847809Y-89249523D01*
X174466857Y-91725714D02*
X173324000Y-93249523D01*
X173324000Y-90582857D02*
X174847809Y-92106666D01*
X169895428Y-93249523D02*
X169895428Y-91154285D01*
X170085904Y-90773333D01*
X170466857Y-90582857D01*
X171228761Y-90582857D01*
X171609714Y-90773333D01*
X169895428Y-93059047D02*
X170276380Y-93249523D01*
X171228761Y-93249523D01*
X171609714Y-93059047D01*
X171800190Y-92678095D01*
X171800190Y-92297142D01*
X171609714Y-91916190D01*
X171228761Y-91725714D01*
X170276380Y-91725714D01*
X169895428Y-91535238D01*
D11*
%TO.C,H2*%
X193801904Y-88844380D02*
X193801904Y-87844380D01*
X193801904Y-88320571D02*
X193230476Y-88320571D01*
X193230476Y-88844380D02*
X193230476Y-87844380D01*
X192801904Y-87939619D02*
X192754285Y-87892000D01*
X192659047Y-87844380D01*
X192420952Y-87844380D01*
X192325714Y-87892000D01*
X192278095Y-87939619D01*
X192230476Y-88034857D01*
X192230476Y-88130095D01*
X192278095Y-88272952D01*
X192849523Y-88844380D01*
X192230476Y-88844380D01*
%TO.C,H4*%
X72389904Y-128976380D02*
X72389904Y-127976380D01*
X72389904Y-128452571D02*
X71818476Y-128452571D01*
X71818476Y-128976380D02*
X71818476Y-127976380D01*
X70913714Y-128309714D02*
X70913714Y-128976380D01*
X71151809Y-127928761D02*
X71389904Y-128643047D01*
X70770857Y-128643047D01*
%TO.C,H1*%
X72389904Y-88844380D02*
X72389904Y-87844380D01*
X72389904Y-88320571D02*
X71818476Y-88320571D01*
X71818476Y-88844380D02*
X71818476Y-87844380D01*
X70818476Y-88844380D02*
X71389904Y-88844380D01*
X71104190Y-88844380D02*
X71104190Y-87844380D01*
X71199428Y-87987238D01*
X71294666Y-88082476D01*
X71389904Y-88130095D01*
%TO.C,H3*%
X193801904Y-128976380D02*
X193801904Y-127976380D01*
X193801904Y-128452571D02*
X193230476Y-128452571D01*
X193230476Y-128976380D02*
X193230476Y-127976380D01*
X192849523Y-127976380D02*
X192230476Y-127976380D01*
X192563809Y-128357333D01*
X192420952Y-128357333D01*
X192325714Y-128404952D01*
X192278095Y-128452571D01*
X192230476Y-128547809D01*
X192230476Y-128785904D01*
X192278095Y-128881142D01*
X192325714Y-128928761D01*
X192420952Y-128976380D01*
X192706666Y-128976380D01*
X192801904Y-128928761D01*
X192849523Y-128881142D01*
%TO.C,JT1*%
X129202380Y-129841714D02*
X129916666Y-129841714D01*
X130059523Y-129794095D01*
X130154761Y-129698857D01*
X130202380Y-129556000D01*
X130202380Y-129460761D01*
X129202380Y-130175047D02*
X129202380Y-130746476D01*
X130202380Y-130460761D02*
X129202380Y-130460761D01*
X130202380Y-131603619D02*
X130202380Y-131032190D01*
X130202380Y-131317904D02*
X129202380Y-131317904D01*
X129345238Y-131222666D01*
X129440476Y-131127428D01*
X129488095Y-131032190D01*
%TO.C,JT2*%
X190250380Y-85645714D02*
X190964666Y-85645714D01*
X191107523Y-85598095D01*
X191202761Y-85502857D01*
X191250380Y-85360000D01*
X191250380Y-85264761D01*
X190250380Y-85979047D02*
X190250380Y-86550476D01*
X191250380Y-86264761D02*
X190250380Y-86264761D01*
X190345619Y-86836190D02*
X190298000Y-86883809D01*
X190250380Y-86979047D01*
X190250380Y-87217142D01*
X190298000Y-87312380D01*
X190345619Y-87360000D01*
X190440857Y-87407619D01*
X190536095Y-87407619D01*
X190678952Y-87360000D01*
X191250380Y-86788571D01*
X191250380Y-87407619D01*
D12*
%TO.C,JT1*%
X130750000Y-129226000D02*
X130750000Y-130556000D01*
X133350000Y-131886000D02*
X156270000Y-131886000D01*
X156270000Y-129226000D02*
X156270000Y-131886000D01*
X133350000Y-129226000D02*
X156270000Y-129226000D01*
X132080000Y-129226000D02*
X130750000Y-129226000D01*
X133350000Y-129226000D02*
X133350000Y-131886000D01*
%TO.C,JT2*%
X187198000Y-87690000D02*
X187198000Y-85030000D01*
X187198000Y-85030000D02*
X169358000Y-85030000D01*
X187198000Y-87690000D02*
X169358000Y-87690000D01*
X169358000Y-87690000D02*
X169358000Y-85030000D01*
X189798000Y-87690000D02*
X189798000Y-86360000D01*
X188468000Y-87690000D02*
X189798000Y-87690000D01*
%TD*%
%LPC*%
D13*
%TO.C,itr8*%
X187452000Y-106680000D03*
X185928000Y-105156000D03*
X183896000Y-104648000D03*
X181864000Y-105156000D03*
X180340000Y-106680000D03*
X179832000Y-108712000D03*
X180340000Y-110744000D03*
X181864000Y-112268000D03*
X183896000Y-112776000D03*
X185928000Y-112268000D03*
X187452000Y-110744000D03*
%TD*%
%TO.C,itr7*%
X172720000Y-106680000D03*
X171196000Y-105156000D03*
X169164000Y-104648000D03*
X167132000Y-105156000D03*
X165608000Y-106680000D03*
X165100000Y-108712000D03*
X165608000Y-110744000D03*
X167132000Y-112268000D03*
X169164000Y-112776000D03*
X171196000Y-112268000D03*
X172720000Y-110744000D03*
%TD*%
%TO.C,itr6*%
X157988000Y-106680000D03*
X156464000Y-105156000D03*
X154432000Y-104648000D03*
X152400000Y-105156000D03*
X150876000Y-106680000D03*
X150368000Y-108712000D03*
X150876000Y-110744000D03*
X152400000Y-112268000D03*
X154432000Y-112776000D03*
X156464000Y-112268000D03*
X157988000Y-110744000D03*
%TD*%
%TO.C,itr5*%
X143256000Y-106680000D03*
X141732000Y-105156000D03*
X139700000Y-104648000D03*
X137668000Y-105156000D03*
X136144000Y-106680000D03*
X135636000Y-108712000D03*
X136144000Y-110744000D03*
X137668000Y-112268000D03*
X139700000Y-112776000D03*
X141732000Y-112268000D03*
X143256000Y-110744000D03*
%TD*%
%TO.C,itr4*%
X128524000Y-106680000D03*
X127000000Y-105156000D03*
X124968000Y-104648000D03*
X122936000Y-105156000D03*
X121412000Y-106680000D03*
X120904000Y-108712000D03*
X121412000Y-110744000D03*
X122936000Y-112268000D03*
X124968000Y-112776000D03*
X127000000Y-112268000D03*
X128524000Y-110744000D03*
%TD*%
%TO.C,itr3*%
X113792000Y-106680000D03*
X112268000Y-105156000D03*
X110236000Y-104648000D03*
X108204000Y-105156000D03*
X106680000Y-106680000D03*
X106172000Y-108712000D03*
X106680000Y-110744000D03*
X108204000Y-112268000D03*
X110236000Y-112776000D03*
X112268000Y-112268000D03*
X113792000Y-110744000D03*
%TD*%
%TO.C,itr2*%
X99060000Y-106680000D03*
X97536000Y-105156000D03*
X95504000Y-104648000D03*
X93472000Y-105156000D03*
X91948000Y-106680000D03*
X91440000Y-108712000D03*
X91948000Y-110744000D03*
X93472000Y-112268000D03*
X95504000Y-112776000D03*
X97536000Y-112268000D03*
X99060000Y-110744000D03*
%TD*%
%TO.C,itr1*%
X84328000Y-106680000D03*
X82804000Y-105156000D03*
X80772000Y-104648000D03*
X78740000Y-105156000D03*
X77216000Y-106680000D03*
X76708000Y-108712000D03*
X77216000Y-110744000D03*
X78740000Y-112268000D03*
X80772000Y-112776000D03*
X82804000Y-112268000D03*
X84328000Y-110744000D03*
%TD*%
D14*
%TO.C,H2*%
X193971000Y-84836000D03*
X196596000Y-87461000D03*
X199221000Y-84836000D03*
X198452155Y-86692155D03*
X194739845Y-82979845D03*
X194739845Y-86692155D03*
D15*
X196596000Y-84836000D03*
D14*
X196596000Y-82211000D03*
X198452155Y-82979845D03*
%TD*%
%TO.C,H4*%
X69928155Y-130223845D03*
X70697000Y-132080000D03*
X65447000Y-132080000D03*
X66215845Y-133936155D03*
D15*
X68072000Y-132080000D03*
D14*
X66215845Y-130223845D03*
X68072000Y-134705000D03*
X69928155Y-133936155D03*
X68072000Y-129455000D03*
%TD*%
D15*
%TO.C,H1*%
X68072000Y-84836000D03*
D14*
X66215845Y-86692155D03*
X66215845Y-82979845D03*
X69928155Y-86692155D03*
X65447000Y-84836000D03*
X68072000Y-87461000D03*
X68072000Y-82211000D03*
X69928155Y-82979845D03*
X70697000Y-84836000D03*
%TD*%
%TO.C,H3*%
X198452155Y-133936155D03*
X194739845Y-130223845D03*
X194739845Y-133936155D03*
X199221000Y-132080000D03*
X196596000Y-129455000D03*
X198452155Y-130223845D03*
D15*
X196596000Y-132080000D03*
D14*
X196596000Y-134705000D03*
X193971000Y-132080000D03*
%TD*%
D16*
%TO.C,JT1*%
X132080000Y-130556000D03*
D17*
X134620000Y-130556000D03*
X137160000Y-130556000D03*
X139700000Y-130556000D03*
X142240000Y-130556000D03*
X144780000Y-130556000D03*
X147320000Y-130556000D03*
X149860000Y-130556000D03*
X152400000Y-130556000D03*
X154940000Y-130556000D03*
%TD*%
D16*
%TO.C,JT2*%
X188468000Y-86360000D03*
D17*
X185928000Y-86360000D03*
X183388000Y-86360000D03*
X180848000Y-86360000D03*
X178308000Y-86360000D03*
X175768000Y-86360000D03*
X173228000Y-86360000D03*
X170688000Y-86360000D03*
%TD*%
M02*
