%TF.GenerationSoftware,KiCad,Pcbnew,(6.0.2)*%
%TF.CreationDate,2022-05-27T21:50:11+02:00*%
%TF.ProjectId,divergence_meter_top,64697665-7267-4656-9e63-655f6d657465,rev?*%
%TF.SameCoordinates,Original*%
%TF.FileFunction,Soldermask,Bot*%
%TF.FilePolarity,Negative*%
%FSLAX46Y46*%
G04 Gerber Fmt 4.6, Leading zero omitted, Abs format (unit mm)*
G04 Created by KiCad (PCBNEW (6.0.2)) date 2022-05-27 21:50:11*
%MOMM*%
%LPD*%
G01*
G04 APERTURE LIST*
%ADD10C,1.524000*%
%ADD11R,1.700000X1.700000*%
%ADD12O,1.700000X1.700000*%
G04 APERTURE END LIST*
D10*
%TO.C,itr7*%
X188976000Y-105918000D03*
X187452000Y-104394000D03*
X185420000Y-103886000D03*
X183388000Y-104394000D03*
X181864000Y-105918000D03*
X181356000Y-107950000D03*
X181864000Y-109982000D03*
X183388000Y-111506000D03*
X185420000Y-112014000D03*
X187452000Y-111506000D03*
X188976000Y-109982000D03*
%TD*%
%TO.C,itr6*%
X175006000Y-105918000D03*
X173482000Y-104394000D03*
X171450000Y-103886000D03*
X169418000Y-104394000D03*
X167894000Y-105918000D03*
X167386000Y-107950000D03*
X167894000Y-109982000D03*
X169418000Y-111506000D03*
X171450000Y-112014000D03*
X173482000Y-111506000D03*
X175006000Y-109982000D03*
%TD*%
%TO.C,itr2*%
X119126000Y-105918000D03*
X117602000Y-104394000D03*
X115570000Y-103886000D03*
X113538000Y-104394000D03*
X112014000Y-105918000D03*
X111506000Y-107950000D03*
X112014000Y-109982000D03*
X113538000Y-111506000D03*
X115570000Y-112014000D03*
X117602000Y-111506000D03*
X119126000Y-109982000D03*
%TD*%
%TO.C,itr3*%
X132842000Y-105918000D03*
X131318000Y-104394000D03*
X129286000Y-103886000D03*
X127254000Y-104394000D03*
X125730000Y-105918000D03*
X125222000Y-107950000D03*
X125730000Y-109982000D03*
X127254000Y-111506000D03*
X129286000Y-112014000D03*
X131318000Y-111506000D03*
X132842000Y-109982000D03*
%TD*%
%TO.C,itr8*%
X202946000Y-105918000D03*
X201422000Y-104394000D03*
X199390000Y-103886000D03*
X197358000Y-104394000D03*
X195834000Y-105918000D03*
X195326000Y-107950000D03*
X195834000Y-109982000D03*
X197358000Y-111506000D03*
X199390000Y-112014000D03*
X201422000Y-111506000D03*
X202946000Y-109982000D03*
%TD*%
%TO.C,itr4*%
X147066000Y-105918000D03*
X145542000Y-104394000D03*
X143510000Y-103886000D03*
X141478000Y-104394000D03*
X139954000Y-105918000D03*
X139446000Y-107950000D03*
X139954000Y-109982000D03*
X141478000Y-111506000D03*
X143510000Y-112014000D03*
X145542000Y-111506000D03*
X147066000Y-109982000D03*
%TD*%
%TO.C,itr1*%
X105156000Y-105918000D03*
X103632000Y-104394000D03*
X101600000Y-103886000D03*
X99568000Y-104394000D03*
X98044000Y-105918000D03*
X97536000Y-107950000D03*
X98044000Y-109982000D03*
X99568000Y-111506000D03*
X101600000Y-112014000D03*
X103632000Y-111506000D03*
X105156000Y-109982000D03*
%TD*%
%TO.C,itr5*%
X161036000Y-105918000D03*
X159512000Y-104394000D03*
X157480000Y-103886000D03*
X155448000Y-104394000D03*
X153924000Y-105918000D03*
X153416000Y-107950000D03*
X153924000Y-109982000D03*
X155448000Y-111506000D03*
X157480000Y-112014000D03*
X159512000Y-111506000D03*
X161036000Y-109982000D03*
%TD*%
D11*
%TO.C,JP1*%
X100330000Y-116840000D03*
D12*
X97790000Y-116840000D03*
%TD*%
D11*
%TO.C,JG1*%
X142240000Y-120650000D03*
D12*
X144780000Y-120650000D03*
X147320000Y-120650000D03*
X149860000Y-120650000D03*
X152400000Y-120650000D03*
X154940000Y-120650000D03*
X157480000Y-120650000D03*
X160020000Y-120650000D03*
%TD*%
D11*
%TO.C,JS1*%
X142240000Y-95250000D03*
D12*
X144780000Y-95250000D03*
X147320000Y-95250000D03*
X149860000Y-95250000D03*
X152400000Y-95250000D03*
X154940000Y-95250000D03*
X157480000Y-95250000D03*
X160020000Y-95250000D03*
%TD*%
M02*
