M48
; DRILL file {KiCad (6.0.2)} date Fri May 27 21:51:30 2022
; FORMAT={-:-/ absolute / metric / decimal}
; #@! TF.CreationDate,2022-05-27T21:51:30+02:00
; #@! TF.GenerationSoftware,Kicad,Pcbnew,(6.0.2)
; #@! TF.FileFunction,Plated,1,2,PTH
FMAT,2
METRIC
; #@! TA.AperFunction,Plated,PTH,ViaDrill
T1C0.400
; #@! TA.AperFunction,Plated,PTH,ComponentDrill
T2C0.762
; #@! TA.AperFunction,Plated,PTH,ComponentDrill
T3C1.000
%
G90
G05
T1
X100.33Y-101.6
X101.6Y-100.33
X104.14Y-99.06
X104.14Y-115.57
X105.41Y-116.84
X106.68Y-97.79
X113.03Y-114.3
X114.3Y-101.6
X115.57Y-100.33
X118.11Y-99.06
X118.11Y-115.57
X119.38Y-97.79
X119.38Y-116.84
X127.0Y-101.6
X127.0Y-114.3
X129.54Y-100.33
X130.81Y-99.06
X132.08Y-115.57
X133.35Y-97.79
X133.35Y-116.84
X140.97Y-101.6
X140.97Y-114.3
X143.51Y-100.33
X144.78Y-99.06
X146.05Y-97.79
X146.05Y-115.57
X147.32Y-116.84
X148.59Y-100.33
X149.86Y-101.6
X153.67Y-102.87
X154.94Y-101.6
X154.94Y-114.3
X157.48Y-100.33
X158.75Y-99.06
X158.75Y-115.57
X160.02Y-97.79
X160.02Y-116.84
X162.56Y-102.87
X163.83Y-102.87
X168.91Y-101.6
X168.91Y-114.3
X171.45Y-100.33
X172.72Y-99.06
X172.72Y-115.57
X173.99Y-97.79
X173.99Y-116.84
X182.88Y-101.6
X182.88Y-114.3
X185.42Y-100.33
X186.69Y-99.06
X186.69Y-115.57
X187.96Y-97.79
X187.96Y-116.84
T2
X97.536Y-107.95
X98.044Y-105.918
X98.044Y-109.982
X99.568Y-104.394
X99.568Y-111.506
X101.6Y-103.886
X101.6Y-112.014
X103.632Y-104.394
X103.632Y-111.506
X105.156Y-105.918
X105.156Y-109.982
X111.506Y-107.95
X112.014Y-105.918
X112.014Y-109.982
X113.538Y-104.394
X113.538Y-111.506
X115.57Y-103.886
X115.57Y-112.014
X117.602Y-104.394
X117.602Y-111.506
X119.126Y-105.918
X119.126Y-109.982
X125.222Y-107.95
X125.73Y-105.918
X125.73Y-109.982
X127.254Y-104.394
X127.254Y-111.506
X129.286Y-103.886
X129.286Y-112.014
X131.318Y-104.394
X131.318Y-111.506
X132.842Y-105.918
X132.842Y-109.982
X139.446Y-107.95
X139.954Y-105.918
X139.954Y-109.982
X141.478Y-104.394
X141.478Y-111.506
X143.51Y-103.886
X143.51Y-112.014
X145.542Y-104.394
X145.542Y-111.506
X147.066Y-105.918
X147.066Y-109.982
X153.416Y-107.95
X153.924Y-105.918
X153.924Y-109.982
X155.448Y-104.394
X155.448Y-111.506
X157.48Y-103.886
X157.48Y-112.014
X159.512Y-104.394
X159.512Y-111.506
X161.036Y-105.918
X161.036Y-109.982
X167.386Y-107.95
X167.894Y-105.918
X167.894Y-109.982
X169.418Y-104.394
X169.418Y-111.506
X171.45Y-103.886
X171.45Y-112.014
X173.482Y-104.394
X173.482Y-111.506
X175.006Y-105.918
X175.006Y-109.982
X181.356Y-107.95
X181.864Y-105.918
X181.864Y-109.982
X183.388Y-104.394
X183.388Y-111.506
X185.42Y-103.886
X185.42Y-112.014
X187.452Y-104.394
X187.452Y-111.506
X188.976Y-105.918
X188.976Y-109.982
X195.326Y-107.95
X195.834Y-105.918
X195.834Y-109.982
X197.358Y-104.394
X197.358Y-111.506
X199.39Y-103.886
X199.39Y-112.014
X201.422Y-104.394
X201.422Y-111.506
X202.946Y-105.918
X202.946Y-109.982
T3
X97.79Y-116.84
X100.33Y-116.84
X142.24Y-95.25
X142.24Y-120.65
X144.78Y-95.25
X144.78Y-120.65
X147.32Y-95.25
X147.32Y-120.65
X149.86Y-95.25
X149.86Y-120.65
X152.4Y-95.25
X152.4Y-120.65
X154.94Y-95.25
X154.94Y-120.65
X157.48Y-95.25
X157.48Y-120.65
X160.02Y-95.25
X160.02Y-120.65
T0
M30
