%TF.GenerationSoftware,KiCad,Pcbnew,(6.0.2)*%
%TF.CreationDate,2022-05-27T21:50:11+02:00*%
%TF.ProjectId,divergence_meter_top,64697665-7267-4656-9e63-655f6d657465,rev?*%
%TF.SameCoordinates,Original*%
%TF.FileFunction,Copper,L1,Top*%
%TF.FilePolarity,Positive*%
%FSLAX46Y46*%
G04 Gerber Fmt 4.6, Leading zero omitted, Abs format (unit mm)*
G04 Created by KiCad (PCBNEW (6.0.2)) date 2022-05-27 21:50:11*
%MOMM*%
%LPD*%
G01*
G04 APERTURE LIST*
%TA.AperFunction,ComponentPad*%
%ADD10C,1.524000*%
%TD*%
%TA.AperFunction,ComponentPad*%
%ADD11R,1.700000X1.700000*%
%TD*%
%TA.AperFunction,ComponentPad*%
%ADD12O,1.700000X1.700000*%
%TD*%
%TA.AperFunction,ViaPad*%
%ADD13C,0.800000*%
%TD*%
%TA.AperFunction,Conductor*%
%ADD14C,0.500000*%
%TD*%
%TA.AperFunction,Conductor*%
%ADD15C,0.750000*%
%TD*%
G04 APERTURE END LIST*
D10*
%TO.P,itr7,1,B*%
%TO.N,Net-(JS1-Pad1)*%
X188976000Y-105918000D03*
%TO.P,itr7,2,A*%
%TO.N,Net-(JS1-Pad2)*%
X187452000Y-104394000D03*
%TO.P,itr7,3,G*%
%TO.N,Net-(JS1-Pad3)*%
X185420000Y-103886000D03*
%TO.P,itr7,4,F*%
%TO.N,Net-(JS1-Pad4)*%
X183388000Y-104394000D03*
%TO.P,itr7,5,E*%
%TO.N,Net-(JS1-Pad5)*%
X181864000Y-105918000D03*
%TO.P,itr7,6,D*%
%TO.N,Net-(JS1-Pad6)*%
X181356000Y-107950000D03*
%TO.P,itr7,7,Cath*%
%TO.N,Net-(JP1-Pad2)*%
X181864000Y-109982000D03*
%TO.P,itr7,8,Cath*%
%TO.N,Net-(JP1-Pad1)*%
X183388000Y-111506000D03*
%TO.P,itr7,9,Grid*%
%TO.N,Net-(JG1-Pad7)*%
X185420000Y-112014000D03*
%TO.P,itr7,10,C*%
%TO.N,Net-(JS1-Pad7)*%
X187452000Y-111506000D03*
%TO.P,itr7,11,DP*%
%TO.N,Net-(JS1-Pad8)*%
X188976000Y-109982000D03*
%TD*%
%TO.P,itr6,1,B*%
%TO.N,Net-(JS1-Pad1)*%
X175006000Y-105918000D03*
%TO.P,itr6,2,A*%
%TO.N,Net-(JS1-Pad2)*%
X173482000Y-104394000D03*
%TO.P,itr6,3,G*%
%TO.N,Net-(JS1-Pad3)*%
X171450000Y-103886000D03*
%TO.P,itr6,4,F*%
%TO.N,Net-(JS1-Pad4)*%
X169418000Y-104394000D03*
%TO.P,itr6,5,E*%
%TO.N,Net-(JS1-Pad5)*%
X167894000Y-105918000D03*
%TO.P,itr6,6,D*%
%TO.N,Net-(JS1-Pad6)*%
X167386000Y-107950000D03*
%TO.P,itr6,7,Cath*%
%TO.N,Net-(JP1-Pad2)*%
X167894000Y-109982000D03*
%TO.P,itr6,8,Cath*%
%TO.N,Net-(JP1-Pad1)*%
X169418000Y-111506000D03*
%TO.P,itr6,9,Grid*%
%TO.N,Net-(JG1-Pad6)*%
X171450000Y-112014000D03*
%TO.P,itr6,10,C*%
%TO.N,Net-(JS1-Pad7)*%
X173482000Y-111506000D03*
%TO.P,itr6,11,DP*%
%TO.N,Net-(JS1-Pad8)*%
X175006000Y-109982000D03*
%TD*%
%TO.P,itr2,1,B*%
%TO.N,Net-(JS1-Pad1)*%
X119126000Y-105918000D03*
%TO.P,itr2,2,A*%
%TO.N,Net-(JS1-Pad2)*%
X117602000Y-104394000D03*
%TO.P,itr2,3,G*%
%TO.N,Net-(JS1-Pad3)*%
X115570000Y-103886000D03*
%TO.P,itr2,4,F*%
%TO.N,Net-(JS1-Pad4)*%
X113538000Y-104394000D03*
%TO.P,itr2,5,E*%
%TO.N,Net-(JS1-Pad5)*%
X112014000Y-105918000D03*
%TO.P,itr2,6,D*%
%TO.N,Net-(JS1-Pad6)*%
X111506000Y-107950000D03*
%TO.P,itr2,7,Cath*%
%TO.N,Net-(JP1-Pad2)*%
X112014000Y-109982000D03*
%TO.P,itr2,8,Cath*%
%TO.N,Net-(JP1-Pad1)*%
X113538000Y-111506000D03*
%TO.P,itr2,9,Grid*%
%TO.N,Net-(JG1-Pad2)*%
X115570000Y-112014000D03*
%TO.P,itr2,10,C*%
%TO.N,Net-(JS1-Pad7)*%
X117602000Y-111506000D03*
%TO.P,itr2,11,DP*%
%TO.N,Net-(JS1-Pad8)*%
X119126000Y-109982000D03*
%TD*%
%TO.P,itr3,1,B*%
%TO.N,Net-(JS1-Pad1)*%
X132842000Y-105918000D03*
%TO.P,itr3,2,A*%
%TO.N,Net-(JS1-Pad2)*%
X131318000Y-104394000D03*
%TO.P,itr3,3,G*%
%TO.N,Net-(JS1-Pad3)*%
X129286000Y-103886000D03*
%TO.P,itr3,4,F*%
%TO.N,Net-(JS1-Pad4)*%
X127254000Y-104394000D03*
%TO.P,itr3,5,E*%
%TO.N,Net-(JS1-Pad5)*%
X125730000Y-105918000D03*
%TO.P,itr3,6,D*%
%TO.N,Net-(JS1-Pad6)*%
X125222000Y-107950000D03*
%TO.P,itr3,7,Cath*%
%TO.N,Net-(JP1-Pad2)*%
X125730000Y-109982000D03*
%TO.P,itr3,8,Cath*%
%TO.N,Net-(JP1-Pad1)*%
X127254000Y-111506000D03*
%TO.P,itr3,9,Grid*%
%TO.N,Net-(JG1-Pad3)*%
X129286000Y-112014000D03*
%TO.P,itr3,10,C*%
%TO.N,Net-(JS1-Pad7)*%
X131318000Y-111506000D03*
%TO.P,itr3,11,DP*%
%TO.N,Net-(JS1-Pad8)*%
X132842000Y-109982000D03*
%TD*%
%TO.P,itr8,1,B*%
%TO.N,Net-(JS1-Pad1)*%
X202946000Y-105918000D03*
%TO.P,itr8,2,A*%
%TO.N,Net-(JS1-Pad2)*%
X201422000Y-104394000D03*
%TO.P,itr8,3,G*%
%TO.N,Net-(JS1-Pad3)*%
X199390000Y-103886000D03*
%TO.P,itr8,4,F*%
%TO.N,Net-(JS1-Pad4)*%
X197358000Y-104394000D03*
%TO.P,itr8,5,E*%
%TO.N,Net-(JS1-Pad5)*%
X195834000Y-105918000D03*
%TO.P,itr8,6,D*%
%TO.N,Net-(JS1-Pad6)*%
X195326000Y-107950000D03*
%TO.P,itr8,7,Cath*%
%TO.N,Net-(JP1-Pad2)*%
X195834000Y-109982000D03*
%TO.P,itr8,8,Cath*%
%TO.N,Net-(JP1-Pad1)*%
X197358000Y-111506000D03*
%TO.P,itr8,9,Grid*%
%TO.N,Net-(JG1-Pad8)*%
X199390000Y-112014000D03*
%TO.P,itr8,10,C*%
%TO.N,Net-(JS1-Pad7)*%
X201422000Y-111506000D03*
%TO.P,itr8,11,DP*%
%TO.N,Net-(JS1-Pad8)*%
X202946000Y-109982000D03*
%TD*%
%TO.P,itr4,1,B*%
%TO.N,Net-(JS1-Pad1)*%
X147066000Y-105918000D03*
%TO.P,itr4,2,A*%
%TO.N,Net-(JS1-Pad2)*%
X145542000Y-104394000D03*
%TO.P,itr4,3,G*%
%TO.N,Net-(JS1-Pad3)*%
X143510000Y-103886000D03*
%TO.P,itr4,4,F*%
%TO.N,Net-(JS1-Pad4)*%
X141478000Y-104394000D03*
%TO.P,itr4,5,E*%
%TO.N,Net-(JS1-Pad5)*%
X139954000Y-105918000D03*
%TO.P,itr4,6,D*%
%TO.N,Net-(JS1-Pad6)*%
X139446000Y-107950000D03*
%TO.P,itr4,7,Cath*%
%TO.N,Net-(JP1-Pad2)*%
X139954000Y-109982000D03*
%TO.P,itr4,8,Cath*%
%TO.N,Net-(JP1-Pad1)*%
X141478000Y-111506000D03*
%TO.P,itr4,9,Grid*%
%TO.N,Net-(JG1-Pad4)*%
X143510000Y-112014000D03*
%TO.P,itr4,10,C*%
%TO.N,Net-(JS1-Pad7)*%
X145542000Y-111506000D03*
%TO.P,itr4,11,DP*%
%TO.N,Net-(JS1-Pad8)*%
X147066000Y-109982000D03*
%TD*%
%TO.P,itr1,1,B*%
%TO.N,Net-(JS1-Pad1)*%
X105156000Y-105918000D03*
%TO.P,itr1,2,A*%
%TO.N,Net-(JS1-Pad2)*%
X103632000Y-104394000D03*
%TO.P,itr1,3,G*%
%TO.N,Net-(JS1-Pad3)*%
X101600000Y-103886000D03*
%TO.P,itr1,4,F*%
%TO.N,Net-(JS1-Pad4)*%
X99568000Y-104394000D03*
%TO.P,itr1,5,E*%
%TO.N,Net-(JS1-Pad5)*%
X98044000Y-105918000D03*
%TO.P,itr1,6,D*%
%TO.N,Net-(JS1-Pad6)*%
X97536000Y-107950000D03*
%TO.P,itr1,7,Cath*%
%TO.N,Net-(JP1-Pad2)*%
X98044000Y-109982000D03*
%TO.P,itr1,8,Cath*%
%TO.N,Net-(JP1-Pad1)*%
X99568000Y-111506000D03*
%TO.P,itr1,9,Grid*%
%TO.N,Net-(JG1-Pad1)*%
X101600000Y-112014000D03*
%TO.P,itr1,10,C*%
%TO.N,Net-(JS1-Pad7)*%
X103632000Y-111506000D03*
%TO.P,itr1,11,DP*%
%TO.N,Net-(JS1-Pad8)*%
X105156000Y-109982000D03*
%TD*%
%TO.P,itr5,1,B*%
%TO.N,Net-(JS1-Pad1)*%
X161036000Y-105918000D03*
%TO.P,itr5,2,A*%
%TO.N,Net-(JS1-Pad2)*%
X159512000Y-104394000D03*
%TO.P,itr5,3,G*%
%TO.N,Net-(JS1-Pad3)*%
X157480000Y-103886000D03*
%TO.P,itr5,4,F*%
%TO.N,Net-(JS1-Pad4)*%
X155448000Y-104394000D03*
%TO.P,itr5,5,E*%
%TO.N,Net-(JS1-Pad5)*%
X153924000Y-105918000D03*
%TO.P,itr5,6,D*%
%TO.N,Net-(JS1-Pad6)*%
X153416000Y-107950000D03*
%TO.P,itr5,7,Cath*%
%TO.N,Net-(JP1-Pad2)*%
X153924000Y-109982000D03*
%TO.P,itr5,8,Cath*%
%TO.N,Net-(JP1-Pad1)*%
X155448000Y-111506000D03*
%TO.P,itr5,9,Grid*%
%TO.N,Net-(JG1-Pad5)*%
X157480000Y-112014000D03*
%TO.P,itr5,10,C*%
%TO.N,Net-(JS1-Pad7)*%
X159512000Y-111506000D03*
%TO.P,itr5,11,DP*%
%TO.N,Net-(JS1-Pad8)*%
X161036000Y-109982000D03*
%TD*%
D11*
%TO.P,JP1,1,Pin_1*%
%TO.N,Net-(JP1-Pad1)*%
X100330000Y-116840000D03*
D12*
%TO.P,JP1,2,Pin_2*%
%TO.N,Net-(JP1-Pad2)*%
X97790000Y-116840000D03*
%TD*%
D11*
%TO.P,JG1,1,Pin_1*%
%TO.N,Net-(JG1-Pad1)*%
X142240000Y-120650000D03*
D12*
%TO.P,JG1,2,Pin_2*%
%TO.N,Net-(JG1-Pad2)*%
X144780000Y-120650000D03*
%TO.P,JG1,3,Pin_3*%
%TO.N,Net-(JG1-Pad3)*%
X147320000Y-120650000D03*
%TO.P,JG1,4,Pin_4*%
%TO.N,Net-(JG1-Pad4)*%
X149860000Y-120650000D03*
%TO.P,JG1,5,Pin_5*%
%TO.N,Net-(JG1-Pad5)*%
X152400000Y-120650000D03*
%TO.P,JG1,6,Pin_6*%
%TO.N,Net-(JG1-Pad6)*%
X154940000Y-120650000D03*
%TO.P,JG1,7,Pin_7*%
%TO.N,Net-(JG1-Pad7)*%
X157480000Y-120650000D03*
%TO.P,JG1,8,Pin_8*%
%TO.N,Net-(JG1-Pad8)*%
X160020000Y-120650000D03*
%TD*%
D11*
%TO.P,JS1,1,Pin_1*%
%TO.N,Net-(JS1-Pad1)*%
X142240000Y-95250000D03*
D12*
%TO.P,JS1,2,Pin_2*%
%TO.N,Net-(JS1-Pad2)*%
X144780000Y-95250000D03*
%TO.P,JS1,3,Pin_3*%
%TO.N,Net-(JS1-Pad3)*%
X147320000Y-95250000D03*
%TO.P,JS1,4,Pin_4*%
%TO.N,Net-(JS1-Pad4)*%
X149860000Y-95250000D03*
%TO.P,JS1,5,Pin_5*%
%TO.N,Net-(JS1-Pad5)*%
X152400000Y-95250000D03*
%TO.P,JS1,6,Pin_6*%
%TO.N,Net-(JS1-Pad6)*%
X154940000Y-95250000D03*
%TO.P,JS1,7,Pin_7*%
%TO.N,Net-(JS1-Pad7)*%
X157480000Y-95250000D03*
%TO.P,JS1,8,Pin_8*%
%TO.N,Net-(JS1-Pad8)*%
X160020000Y-95250000D03*
%TD*%
D13*
%TO.N,Net-(JS1-Pad1)*%
X133350000Y-97790000D03*
X119380000Y-97790000D03*
X173990000Y-97790000D03*
X187960000Y-97790000D03*
X146050000Y-97790000D03*
X160020000Y-97790000D03*
X106680000Y-97790000D03*
%TO.N,Net-(JS1-Pad2)*%
X144780000Y-99060000D03*
X130810000Y-99060000D03*
X104140000Y-99060000D03*
X172720000Y-99060000D03*
X118110000Y-99060000D03*
X158750000Y-99060000D03*
X186690000Y-99060000D03*
%TO.N,Net-(JS1-Pad3)*%
X115570000Y-100330000D03*
X143510000Y-100330000D03*
X101600000Y-100330000D03*
X171450000Y-100330000D03*
X148590000Y-100330000D03*
X129540000Y-100330000D03*
X157480000Y-100330000D03*
X185420000Y-100330000D03*
%TO.N,Net-(JS1-Pad4)*%
X149860000Y-101600000D03*
X154940000Y-101600000D03*
X182880000Y-101600000D03*
X168910000Y-101600000D03*
X100330000Y-101600000D03*
X114300000Y-101600000D03*
X140970000Y-101600000D03*
X127000000Y-101600000D03*
%TO.N,Net-(JS1-Pad6)*%
X153670000Y-102870000D03*
%TO.N,Net-(JP1-Pad1)*%
X140970000Y-114300000D03*
X168910000Y-114300000D03*
X182880000Y-114300000D03*
X113030000Y-114300000D03*
X127000000Y-114300000D03*
X154940000Y-114300000D03*
%TO.N,Net-(JS1-Pad7)*%
X146050000Y-115570000D03*
X172720000Y-115570000D03*
X163830000Y-102870000D03*
X104140000Y-115570000D03*
X132080000Y-115570000D03*
X158750000Y-115570000D03*
X186690000Y-115570000D03*
X118110000Y-115570000D03*
%TO.N,Net-(JS1-Pad8)*%
X147320000Y-116840000D03*
X187960000Y-116840000D03*
X173990000Y-116840000D03*
X133350000Y-116840000D03*
X105410000Y-116840000D03*
X119380000Y-116840000D03*
X162560000Y-102870000D03*
X160020000Y-116840000D03*
%TD*%
D14*
%TO.N,Net-(JS1-Pad1)*%
X132842000Y-105918000D02*
X132842000Y-98298000D01*
X105156000Y-105918000D02*
X105156000Y-98806000D01*
X119126000Y-105918000D02*
X119126000Y-98044000D01*
X175006000Y-98806000D02*
X173990000Y-97790000D01*
X119126000Y-98044000D02*
X119380000Y-97790000D01*
X175006000Y-105918000D02*
X175006000Y-98806000D01*
X147066000Y-105918000D02*
X147066000Y-98806000D01*
X188976000Y-98806000D02*
X187960000Y-97790000D01*
X106172000Y-97790000D02*
X106680000Y-97790000D01*
X105156000Y-98806000D02*
X106172000Y-97790000D01*
X161036000Y-105918000D02*
X161036000Y-98806000D01*
X161036000Y-98806000D02*
X160020000Y-97790000D01*
X147066000Y-98806000D02*
X146050000Y-97790000D01*
X188976000Y-105918000D02*
X188976000Y-98806000D01*
X132842000Y-98298000D02*
X133350000Y-97790000D01*
%TO.N,Net-(JS1-Pad2)*%
X131318000Y-104394000D02*
X131318000Y-99568000D01*
X103632000Y-99822000D02*
X103632000Y-99568000D01*
X187452000Y-99822000D02*
X186690000Y-99060000D01*
X173482000Y-99822000D02*
X172720000Y-99060000D01*
X159512000Y-104394000D02*
X159512000Y-99822000D01*
X103632000Y-104394000D02*
X103632000Y-99822000D01*
X117602000Y-99568000D02*
X118110000Y-99060000D01*
X131318000Y-99568000D02*
X130810000Y-99060000D01*
X145542000Y-104394000D02*
X145542000Y-99822000D01*
X103632000Y-99568000D02*
X104140000Y-99060000D01*
X117602000Y-99822000D02*
X117602000Y-99568000D01*
X117602000Y-104394000D02*
X117602000Y-99822000D01*
X159512000Y-99822000D02*
X158750000Y-99060000D01*
X187452000Y-104394000D02*
X187452000Y-99822000D01*
X173482000Y-104394000D02*
X173482000Y-99822000D01*
D15*
X144780000Y-95250000D02*
X144780000Y-99060000D01*
D14*
X145542000Y-99822000D02*
X144780000Y-99060000D01*
%TO.N,Net-(JS1-Pad3)*%
X185420000Y-103886000D02*
X185420000Y-100330000D01*
X143510000Y-103886000D02*
X143510000Y-100330000D01*
X115570000Y-103886000D02*
X115570000Y-100330000D01*
X101600000Y-103886000D02*
X101600000Y-100330000D01*
X129286000Y-100584000D02*
X129540000Y-100330000D01*
D15*
X148590000Y-97790000D02*
X148590000Y-100330000D01*
X147320000Y-95250000D02*
X147320000Y-96520000D01*
X147320000Y-96520000D02*
X148590000Y-97790000D01*
D14*
X171450000Y-103886000D02*
X171450000Y-100330000D01*
X157480000Y-103886000D02*
X157480000Y-100330000D01*
X129286000Y-103886000D02*
X129286000Y-100584000D01*
%TO.N,Net-(JS1-Pad4)*%
X169418000Y-102108000D02*
X168910000Y-101600000D01*
X183388000Y-104394000D02*
X183388000Y-102108000D01*
X127254000Y-104394000D02*
X127254000Y-101854000D01*
X183388000Y-102108000D02*
X182880000Y-101600000D01*
D15*
X149860000Y-95250000D02*
X149860000Y-101600000D01*
D14*
X155448000Y-104394000D02*
X155448000Y-102108000D01*
X113538000Y-102362000D02*
X114300000Y-101600000D01*
X155448000Y-102108000D02*
X154940000Y-101600000D01*
X99568000Y-102362000D02*
X100330000Y-101600000D01*
X99568000Y-104394000D02*
X99568000Y-102362000D01*
X113538000Y-104394000D02*
X113538000Y-102362000D01*
X141478000Y-104394000D02*
X141478000Y-102108000D01*
X169418000Y-104394000D02*
X169418000Y-102108000D01*
X141478000Y-102108000D02*
X140970000Y-101600000D01*
%TO.N,Net-(JS1-Pad5)*%
X98044000Y-105918000D02*
X99255511Y-107129511D01*
X195072000Y-105918000D02*
X195834000Y-105918000D01*
X183075511Y-107129511D02*
X193860489Y-107129511D01*
X155135511Y-107129511D02*
X165920489Y-107129511D01*
X141165511Y-107129511D02*
X151950489Y-107129511D01*
X153162000Y-105918000D02*
X153924000Y-105918000D01*
D15*
X152400000Y-95250000D02*
X152400000Y-104394000D01*
D14*
X125730000Y-105918000D02*
X126941511Y-107129511D01*
X139192000Y-105918000D02*
X139954000Y-105918000D01*
X181102000Y-105918000D02*
X181864000Y-105918000D01*
X181864000Y-105918000D02*
X183075511Y-107129511D01*
X193860489Y-107129511D02*
X195072000Y-105918000D01*
X110040489Y-107129511D02*
X111252000Y-105918000D01*
X167132000Y-105918000D02*
X167894000Y-105918000D01*
X179890489Y-107129511D02*
X181102000Y-105918000D01*
X113225511Y-107129511D02*
X124010489Y-107129511D01*
X169105511Y-107129511D02*
X179890489Y-107129511D01*
X99255511Y-107129511D02*
X110040489Y-107129511D01*
X153924000Y-105918000D02*
X155135511Y-107129511D01*
X124010489Y-107129511D02*
X125222000Y-105918000D01*
X126941511Y-107129511D02*
X137980489Y-107129511D01*
X137980489Y-107129511D02*
X139192000Y-105918000D01*
X167894000Y-105918000D02*
X169105511Y-107129511D01*
D15*
X152400000Y-104394000D02*
X153924000Y-105918000D01*
D14*
X165920489Y-107129511D02*
X167132000Y-105918000D01*
X151950489Y-107129511D02*
X153162000Y-105918000D01*
X111252000Y-105918000D02*
X112014000Y-105918000D01*
X139954000Y-105918000D02*
X141165511Y-107129511D01*
X125222000Y-105918000D02*
X125730000Y-105918000D01*
X112014000Y-105918000D02*
X113225511Y-107129511D01*
D15*
%TO.N,Net-(JS1-Pad6)*%
X154940000Y-99060000D02*
X153670000Y-100330000D01*
D14*
X97536000Y-107950000D02*
X195326000Y-107950000D01*
D15*
X153670000Y-100330000D02*
X153670000Y-102870000D01*
X154940000Y-95250000D02*
X154940000Y-99060000D01*
D14*
%TO.N,Net-(JP1-Pad2)*%
X155135511Y-108770489D02*
X165920489Y-108770489D01*
X111252000Y-109982000D02*
X112014000Y-109982000D01*
X113225511Y-108770489D02*
X124010489Y-108770489D01*
X99255511Y-108770489D02*
X110040489Y-108770489D01*
X98044000Y-109982000D02*
X99255511Y-108770489D01*
X167894000Y-109982000D02*
X169105511Y-108770489D01*
X165920489Y-108770489D02*
X167132000Y-109982000D01*
X137980489Y-108770489D02*
X139192000Y-109982000D01*
X151950489Y-108770489D02*
X153162000Y-109982000D01*
X124010489Y-108770489D02*
X125222000Y-109982000D01*
X110040489Y-108770489D02*
X111252000Y-109982000D01*
X181102000Y-109982000D02*
X181864000Y-109982000D01*
X181864000Y-109982000D02*
X183075511Y-108770489D01*
X97790000Y-110236000D02*
X98044000Y-109982000D01*
X179890489Y-108770489D02*
X181102000Y-109982000D01*
X126941511Y-108770489D02*
X137980489Y-108770489D01*
X167132000Y-109982000D02*
X167894000Y-109982000D01*
X169105511Y-108770489D02*
X179890489Y-108770489D01*
X153924000Y-109982000D02*
X155135511Y-108770489D01*
X97790000Y-116840000D02*
X97790000Y-110236000D01*
X125730000Y-109982000D02*
X126941511Y-108770489D01*
X195072000Y-109982000D02*
X195834000Y-109982000D01*
X141165511Y-108770489D02*
X151950489Y-108770489D01*
X153162000Y-109982000D02*
X153924000Y-109982000D01*
X139192000Y-109982000D02*
X139954000Y-109982000D01*
X183075511Y-108770489D02*
X193860489Y-108770489D01*
X139954000Y-109982000D02*
X141165511Y-108770489D01*
X112014000Y-109982000D02*
X113225511Y-108770489D01*
X125222000Y-109982000D02*
X125730000Y-109982000D01*
X193860489Y-108770489D02*
X195072000Y-109982000D01*
%TO.N,Net-(JP1-Pad1)*%
X141478000Y-111506000D02*
X141478000Y-113792000D01*
X169418000Y-113792000D02*
X168910000Y-114300000D01*
X113538000Y-113792000D02*
X113030000Y-114300000D01*
X127254000Y-114046000D02*
X127000000Y-114300000D01*
X183388000Y-113792000D02*
X182880000Y-114300000D01*
X113538000Y-111506000D02*
X113538000Y-113792000D01*
X155448000Y-111506000D02*
X155448000Y-113792000D01*
X155448000Y-113792000D02*
X154940000Y-114300000D01*
X127254000Y-111506000D02*
X127254000Y-114046000D01*
X141478000Y-113792000D02*
X140970000Y-114300000D01*
X169418000Y-111506000D02*
X169418000Y-113792000D01*
X183388000Y-111506000D02*
X183388000Y-113792000D01*
%TO.N,Net-(JG1-Pad1)*%
X142240000Y-120650000D02*
X107950000Y-120650000D01*
X101600000Y-112014000D02*
X101600000Y-114300000D01*
X101600000Y-114300000D02*
X107950000Y-120650000D01*
%TO.N,Net-(JS1-Pad7)*%
X117602000Y-115062000D02*
X118110000Y-115570000D01*
X103632000Y-115062000D02*
X104140000Y-115570000D01*
D15*
X160020000Y-93825489D02*
X161135489Y-93825489D01*
D14*
X103632000Y-111506000D02*
X103632000Y-115062000D01*
X187452000Y-111506000D02*
X187452000Y-114808000D01*
X131318000Y-114808000D02*
X132080000Y-115570000D01*
D15*
X158904511Y-93825489D02*
X160020000Y-93825489D01*
D14*
X173482000Y-114808000D02*
X172720000Y-115570000D01*
X117602000Y-111506000D02*
X117602000Y-115062000D01*
X159512000Y-114808000D02*
X158750000Y-115570000D01*
X145542000Y-111506000D02*
X145542000Y-115062000D01*
X159512000Y-111506000D02*
X159512000Y-114808000D01*
X187452000Y-114808000D02*
X186690000Y-115570000D01*
X173482000Y-111506000D02*
X173482000Y-114808000D01*
X145542000Y-115062000D02*
X146050000Y-115570000D01*
D15*
X163830000Y-96520000D02*
X163830000Y-102870000D01*
X161135489Y-93825489D02*
X163830000Y-96520000D01*
X157480000Y-95250000D02*
X158904511Y-93825489D01*
D14*
X131318000Y-111506000D02*
X131318000Y-114808000D01*
D15*
%TO.N,Net-(JS1-Pad8)*%
X160020000Y-95250000D02*
X162560000Y-97790000D01*
D14*
X188976000Y-115824000D02*
X187960000Y-116840000D01*
X161036000Y-109982000D02*
X161036000Y-115824000D01*
X161036000Y-115824000D02*
X160020000Y-116840000D01*
X147066000Y-109982000D02*
X147066000Y-116586000D01*
X188976000Y-109982000D02*
X188976000Y-115824000D01*
X105156000Y-116586000D02*
X105410000Y-116840000D01*
X132842000Y-109982000D02*
X133350000Y-110490000D01*
X119126000Y-116586000D02*
X119380000Y-116840000D01*
X175006000Y-115824000D02*
X173990000Y-116840000D01*
X133350000Y-110490000D02*
X133350000Y-116840000D01*
X147066000Y-116586000D02*
X147320000Y-116840000D01*
X105156000Y-109982000D02*
X105156000Y-116586000D01*
D15*
X162560000Y-97790000D02*
X162560000Y-102870000D01*
D14*
X119126000Y-109982000D02*
X119126000Y-116586000D01*
X175006000Y-109982000D02*
X175006000Y-115824000D01*
%TO.N,Net-(JG1-Pad8)*%
X190754000Y-120650000D02*
X199390000Y-112014000D01*
X160020000Y-120650000D02*
X190754000Y-120650000D01*
%TO.N,Net-(JG1-Pad2)*%
X115570000Y-114300000D02*
X115570000Y-112014000D01*
X120620489Y-119350489D02*
X115570000Y-114300000D01*
X120620489Y-119350489D02*
X143480489Y-119350489D01*
X143480489Y-119350489D02*
X144780000Y-120650000D01*
%TO.N,Net-(JG1-Pad7)*%
X180369511Y-119350489D02*
X185420000Y-114300000D01*
X158779511Y-119350489D02*
X180310489Y-119350489D01*
X157480000Y-120650000D02*
X158779511Y-119350489D01*
X180310489Y-119350489D02*
X180340000Y-119380000D01*
X185420000Y-114300000D02*
X185420000Y-112014000D01*
%TO.N,Net-(JG1-Pad3)*%
X133350000Y-118110000D02*
X144780000Y-118110000D01*
X129286000Y-114046000D02*
X133350000Y-118110000D01*
X129286000Y-112014000D02*
X129286000Y-114046000D01*
X144780000Y-118110000D02*
X147320000Y-120650000D01*
%TO.N,Net-(JG1-Pad6)*%
X157480000Y-118110000D02*
X165100000Y-118110000D01*
X167640000Y-118110000D02*
X171450000Y-114300000D01*
X154940000Y-120650000D02*
X157480000Y-118110000D01*
X165100000Y-118110000D02*
X167640000Y-118110000D01*
X171450000Y-114300000D02*
X171450000Y-112014000D01*
%TO.N,Net-(JG1-Pad4)*%
X149860000Y-120650000D02*
X143510000Y-114300000D01*
X143510000Y-112014000D02*
X143510000Y-114300000D01*
%TO.N,Net-(JG1-Pad5)*%
X157480000Y-115570000D02*
X157480000Y-112014000D01*
X152400000Y-120650000D02*
X157480000Y-115570000D01*
%TD*%
M02*
