%FSLAX45Y45*%
G04 Gerber Fmt 4.5, Leading zero omitted, Abs format (unit mm)*
G04 Created by KiCad (PCBNEW (6.0.2)) date 2022-05-27 21:51:48*
%MOMM*%
%LPD*%
G01*
G04 APERTURE LIST*
%TA.AperFunction,Profile*%
%ADD10C,0.100000*%
%TD*%
%ADD11C,0.200000*%
G04 APERTURE END LIST*
D10*
X9017000Y-8890000D02*
X21082000Y-8890000D01*
X21082000Y-8890000D02*
X21082000Y-12700000D01*
X21082000Y-12700000D02*
X9017000Y-12700000D01*
X9017000Y-12700000D02*
X9017000Y-8890000D01*
D11*
X9269619Y-13015476D02*
X9269619Y-12815476D01*
X9317238Y-12815476D01*
X9345810Y-12825000D01*
X9364857Y-12844048D01*
X9374381Y-12863095D01*
X9383905Y-12901190D01*
X9383905Y-12929762D01*
X9374381Y-12967857D01*
X9364857Y-12986905D01*
X9345810Y-13005952D01*
X9317238Y-13015476D01*
X9269619Y-13015476D01*
X9469619Y-13015476D02*
X9469619Y-12882143D01*
X9469619Y-12920238D02*
X9479143Y-12901190D01*
X9488667Y-12891667D01*
X9507714Y-12882143D01*
X9526762Y-12882143D01*
X9593429Y-13015476D02*
X9593429Y-12882143D01*
X9593429Y-12815476D02*
X9583905Y-12825000D01*
X9593429Y-12834524D01*
X9602952Y-12825000D01*
X9593429Y-12815476D01*
X9593429Y-12834524D01*
X9717238Y-13015476D02*
X9698190Y-13005952D01*
X9688667Y-12986905D01*
X9688667Y-12815476D01*
X9822000Y-13015476D02*
X9802952Y-13005952D01*
X9793429Y-12986905D01*
X9793429Y-12815476D01*
X10050571Y-13015476D02*
X10050571Y-12815476D01*
X10117238Y-12958333D01*
X10183905Y-12815476D01*
X10183905Y-13015476D01*
X10364857Y-13015476D02*
X10364857Y-12910714D01*
X10355333Y-12891667D01*
X10336286Y-12882143D01*
X10298190Y-12882143D01*
X10279143Y-12891667D01*
X10364857Y-13005952D02*
X10345810Y-13015476D01*
X10298190Y-13015476D01*
X10279143Y-13005952D01*
X10269619Y-12986905D01*
X10269619Y-12967857D01*
X10279143Y-12948809D01*
X10298190Y-12939286D01*
X10345810Y-12939286D01*
X10364857Y-12929762D01*
X10460095Y-12882143D02*
X10460095Y-13082143D01*
X10460095Y-12891667D02*
X10479143Y-12882143D01*
X10517238Y-12882143D01*
X10536286Y-12891667D01*
X10545810Y-12901190D01*
X10555333Y-12920238D01*
X10555333Y-12977381D01*
X10545810Y-12996428D01*
X10536286Y-13005952D01*
X10517238Y-13015476D01*
X10479143Y-13015476D01*
X10460095Y-13005952D01*
X10641048Y-12996428D02*
X10650571Y-13005952D01*
X10641048Y-13015476D01*
X10631524Y-13005952D01*
X10641048Y-12996428D01*
X10641048Y-13015476D01*
X10641048Y-12891667D02*
X10650571Y-12901190D01*
X10641048Y-12910714D01*
X10631524Y-12901190D01*
X10641048Y-12891667D01*
X10641048Y-12910714D01*
M02*
