%TF.GenerationSoftware,KiCad,Pcbnew,(6.0.2)*%
%TF.CreationDate,2022-05-27T21:50:11+02:00*%
%TF.ProjectId,divergence_meter_top,64697665-7267-4656-9e63-655f6d657465,rev?*%
%TF.SameCoordinates,Original*%
%TF.FileFunction,Legend,Bot*%
%TF.FilePolarity,Positive*%
%FSLAX46Y46*%
G04 Gerber Fmt 4.6, Leading zero omitted, Abs format (unit mm)*
G04 Created by KiCad (PCBNEW (6.0.2)) date 2022-05-27 21:50:11*
%MOMM*%
%LPD*%
G01*
G04 APERTURE LIST*
%ADD10C,0.450000*%
%ADD11C,0.150000*%
%ADD12C,0.120000*%
%ADD13C,1.524000*%
%ADD14R,1.700000X1.700000*%
%ADD15O,1.700000X1.700000*%
G04 APERTURE END LIST*
D10*
X179862857Y-119308571D02*
X180005714Y-119165714D01*
X180291428Y-119022857D01*
X180577142Y-119022857D01*
X180862857Y-119165714D01*
X181005714Y-119308571D01*
X181148571Y-119594285D01*
X181148571Y-119880000D01*
X181005714Y-120165714D01*
X180862857Y-120308571D01*
X180577142Y-120451428D01*
X180291428Y-120451428D01*
X180005714Y-120308571D01*
X179862857Y-120165714D01*
X179862857Y-119022857D02*
X179862857Y-120165714D01*
X179720000Y-120308571D01*
X179577142Y-120308571D01*
X179291428Y-120165714D01*
X179148571Y-119880000D01*
X179148571Y-119165714D01*
X179434285Y-118737142D01*
X179862857Y-118451428D01*
X180434285Y-118308571D01*
X181005714Y-118451428D01*
X181434285Y-118737142D01*
X181720000Y-119165714D01*
X181862857Y-119737142D01*
X181720000Y-120308571D01*
X181434285Y-120737142D01*
X181005714Y-121022857D01*
X180434285Y-121165714D01*
X179862857Y-121022857D01*
X179434285Y-120737142D01*
X178291428Y-117737142D02*
X176577142Y-117737142D01*
X177434285Y-120737142D02*
X177434285Y-117737142D01*
X175148571Y-120737142D02*
X175434285Y-120594285D01*
X175577142Y-120451428D01*
X175720000Y-120165714D01*
X175720000Y-119308571D01*
X175577142Y-119022857D01*
X175434285Y-118880000D01*
X175148571Y-118737142D01*
X174720000Y-118737142D01*
X174434285Y-118880000D01*
X174291428Y-119022857D01*
X174148571Y-119308571D01*
X174148571Y-120165714D01*
X174291428Y-120451428D01*
X174434285Y-120594285D01*
X174720000Y-120737142D01*
X175148571Y-120737142D01*
X172434285Y-120737142D02*
X172720000Y-120594285D01*
X172862857Y-120451428D01*
X173005714Y-120165714D01*
X173005714Y-119308571D01*
X172862857Y-119022857D01*
X172720000Y-118880000D01*
X172434285Y-118737142D01*
X172005714Y-118737142D01*
X171720000Y-118880000D01*
X171577142Y-119022857D01*
X171434285Y-119308571D01*
X171434285Y-120165714D01*
X171577142Y-120451428D01*
X171720000Y-120594285D01*
X172005714Y-120737142D01*
X172434285Y-120737142D01*
X170148571Y-120737142D02*
X170148571Y-117737142D01*
X168862857Y-120737142D02*
X168862857Y-119165714D01*
X169005714Y-118880000D01*
X169291428Y-118737142D01*
X169720000Y-118737142D01*
X170005714Y-118880000D01*
X170148571Y-119022857D01*
X167434285Y-120737142D02*
X167434285Y-117737142D01*
X167148571Y-119594285D02*
X166291428Y-120737142D01*
X166291428Y-118737142D02*
X167434285Y-119880000D01*
X163720000Y-120737142D02*
X163720000Y-119165714D01*
X163862857Y-118880000D01*
X164148571Y-118737142D01*
X164720000Y-118737142D01*
X165005714Y-118880000D01*
X163720000Y-120594285D02*
X164005714Y-120737142D01*
X164720000Y-120737142D01*
X165005714Y-120594285D01*
X165148571Y-120308571D01*
X165148571Y-120022857D01*
X165005714Y-119737142D01*
X164720000Y-119594285D01*
X164005714Y-119594285D01*
X163720000Y-119451428D01*
D11*
%TO.C,JP1*%
X102112380Y-116006666D02*
X102826666Y-116006666D01*
X102969523Y-115959047D01*
X103064761Y-115863809D01*
X103112380Y-115720952D01*
X103112380Y-115625714D01*
X103112380Y-116482857D02*
X102112380Y-116482857D01*
X102112380Y-116863809D01*
X102160000Y-116959047D01*
X102207619Y-117006666D01*
X102302857Y-117054285D01*
X102445714Y-117054285D01*
X102540952Y-117006666D01*
X102588571Y-116959047D01*
X102636190Y-116863809D01*
X102636190Y-116482857D01*
X103112380Y-118006666D02*
X103112380Y-117435238D01*
X103112380Y-117720952D02*
X102112380Y-117720952D01*
X102255238Y-117625714D01*
X102350476Y-117530476D01*
X102398095Y-117435238D01*
%TO.C,JG1*%
X139362380Y-119816666D02*
X140076666Y-119816666D01*
X140219523Y-119769047D01*
X140314761Y-119673809D01*
X140362380Y-119530952D01*
X140362380Y-119435714D01*
X139410000Y-120816666D02*
X139362380Y-120721428D01*
X139362380Y-120578571D01*
X139410000Y-120435714D01*
X139505238Y-120340476D01*
X139600476Y-120292857D01*
X139790952Y-120245238D01*
X139933809Y-120245238D01*
X140124285Y-120292857D01*
X140219523Y-120340476D01*
X140314761Y-120435714D01*
X140362380Y-120578571D01*
X140362380Y-120673809D01*
X140314761Y-120816666D01*
X140267142Y-120864285D01*
X139933809Y-120864285D01*
X139933809Y-120673809D01*
X140362380Y-121816666D02*
X140362380Y-121245238D01*
X140362380Y-121530952D02*
X139362380Y-121530952D01*
X139505238Y-121435714D01*
X139600476Y-121340476D01*
X139648095Y-121245238D01*
%TO.C,JS1*%
X139362380Y-94440476D02*
X140076666Y-94440476D01*
X140219523Y-94392857D01*
X140314761Y-94297619D01*
X140362380Y-94154761D01*
X140362380Y-94059523D01*
X140314761Y-94869047D02*
X140362380Y-95011904D01*
X140362380Y-95250000D01*
X140314761Y-95345238D01*
X140267142Y-95392857D01*
X140171904Y-95440476D01*
X140076666Y-95440476D01*
X139981428Y-95392857D01*
X139933809Y-95345238D01*
X139886190Y-95250000D01*
X139838571Y-95059523D01*
X139790952Y-94964285D01*
X139743333Y-94916666D01*
X139648095Y-94869047D01*
X139552857Y-94869047D01*
X139457619Y-94916666D01*
X139410000Y-94964285D01*
X139362380Y-95059523D01*
X139362380Y-95297619D01*
X139410000Y-95440476D01*
X140362380Y-96392857D02*
X140362380Y-95821428D01*
X140362380Y-96107142D02*
X139362380Y-96107142D01*
X139505238Y-96011904D01*
X139600476Y-95916666D01*
X139648095Y-95821428D01*
D12*
%TO.C,JP1*%
X101660000Y-118170000D02*
X101660000Y-116840000D01*
X99060000Y-115510000D02*
X96460000Y-115510000D01*
X99060000Y-118170000D02*
X96460000Y-118170000D01*
X99060000Y-118170000D02*
X99060000Y-115510000D01*
X96460000Y-118170000D02*
X96460000Y-115510000D01*
X100330000Y-118170000D02*
X101660000Y-118170000D01*
%TO.C,JG1*%
X161350000Y-119320000D02*
X161350000Y-121980000D01*
X140910000Y-119320000D02*
X140910000Y-120650000D01*
X143510000Y-119320000D02*
X143510000Y-121980000D01*
X143510000Y-121980000D02*
X161350000Y-121980000D01*
X143510000Y-119320000D02*
X161350000Y-119320000D01*
X142240000Y-119320000D02*
X140910000Y-119320000D01*
%TO.C,JS1*%
X143510000Y-93920000D02*
X143510000Y-96580000D01*
X143510000Y-96580000D02*
X161350000Y-96580000D01*
X143510000Y-93920000D02*
X161350000Y-93920000D01*
X161350000Y-93920000D02*
X161350000Y-96580000D01*
X140910000Y-93920000D02*
X140910000Y-95250000D01*
X142240000Y-93920000D02*
X140910000Y-93920000D01*
%TD*%
%LPC*%
D13*
%TO.C,itr7*%
X188976000Y-105918000D03*
X187452000Y-104394000D03*
X185420000Y-103886000D03*
X183388000Y-104394000D03*
X181864000Y-105918000D03*
X181356000Y-107950000D03*
X181864000Y-109982000D03*
X183388000Y-111506000D03*
X185420000Y-112014000D03*
X187452000Y-111506000D03*
X188976000Y-109982000D03*
%TD*%
%TO.C,itr6*%
X175006000Y-105918000D03*
X173482000Y-104394000D03*
X171450000Y-103886000D03*
X169418000Y-104394000D03*
X167894000Y-105918000D03*
X167386000Y-107950000D03*
X167894000Y-109982000D03*
X169418000Y-111506000D03*
X171450000Y-112014000D03*
X173482000Y-111506000D03*
X175006000Y-109982000D03*
%TD*%
%TO.C,itr2*%
X119126000Y-105918000D03*
X117602000Y-104394000D03*
X115570000Y-103886000D03*
X113538000Y-104394000D03*
X112014000Y-105918000D03*
X111506000Y-107950000D03*
X112014000Y-109982000D03*
X113538000Y-111506000D03*
X115570000Y-112014000D03*
X117602000Y-111506000D03*
X119126000Y-109982000D03*
%TD*%
%TO.C,itr3*%
X132842000Y-105918000D03*
X131318000Y-104394000D03*
X129286000Y-103886000D03*
X127254000Y-104394000D03*
X125730000Y-105918000D03*
X125222000Y-107950000D03*
X125730000Y-109982000D03*
X127254000Y-111506000D03*
X129286000Y-112014000D03*
X131318000Y-111506000D03*
X132842000Y-109982000D03*
%TD*%
%TO.C,itr8*%
X202946000Y-105918000D03*
X201422000Y-104394000D03*
X199390000Y-103886000D03*
X197358000Y-104394000D03*
X195834000Y-105918000D03*
X195326000Y-107950000D03*
X195834000Y-109982000D03*
X197358000Y-111506000D03*
X199390000Y-112014000D03*
X201422000Y-111506000D03*
X202946000Y-109982000D03*
%TD*%
%TO.C,itr4*%
X147066000Y-105918000D03*
X145542000Y-104394000D03*
X143510000Y-103886000D03*
X141478000Y-104394000D03*
X139954000Y-105918000D03*
X139446000Y-107950000D03*
X139954000Y-109982000D03*
X141478000Y-111506000D03*
X143510000Y-112014000D03*
X145542000Y-111506000D03*
X147066000Y-109982000D03*
%TD*%
%TO.C,itr1*%
X105156000Y-105918000D03*
X103632000Y-104394000D03*
X101600000Y-103886000D03*
X99568000Y-104394000D03*
X98044000Y-105918000D03*
X97536000Y-107950000D03*
X98044000Y-109982000D03*
X99568000Y-111506000D03*
X101600000Y-112014000D03*
X103632000Y-111506000D03*
X105156000Y-109982000D03*
%TD*%
%TO.C,itr5*%
X161036000Y-105918000D03*
X159512000Y-104394000D03*
X157480000Y-103886000D03*
X155448000Y-104394000D03*
X153924000Y-105918000D03*
X153416000Y-107950000D03*
X153924000Y-109982000D03*
X155448000Y-111506000D03*
X157480000Y-112014000D03*
X159512000Y-111506000D03*
X161036000Y-109982000D03*
%TD*%
D14*
%TO.C,JP1*%
X100330000Y-116840000D03*
D15*
X97790000Y-116840000D03*
%TD*%
D14*
%TO.C,JG1*%
X142240000Y-120650000D03*
D15*
X144780000Y-120650000D03*
X147320000Y-120650000D03*
X149860000Y-120650000D03*
X152400000Y-120650000D03*
X154940000Y-120650000D03*
X157480000Y-120650000D03*
X160020000Y-120650000D03*
%TD*%
D14*
%TO.C,JS1*%
X142240000Y-95250000D03*
D15*
X144780000Y-95250000D03*
X147320000Y-95250000D03*
X149860000Y-95250000D03*
X152400000Y-95250000D03*
X154940000Y-95250000D03*
X157480000Y-95250000D03*
X160020000Y-95250000D03*
%TD*%
M02*
