%TF.GenerationSoftware,KiCad,Pcbnew,(6.0.2)*%
%TF.CreationDate,2022-05-27T21:50:11+02:00*%
%TF.ProjectId,divergence_meter_top,64697665-7267-4656-9e63-655f6d657465,rev?*%
%TF.SameCoordinates,Original*%
%TF.FileFunction,Legend,Top*%
%TF.FilePolarity,Positive*%
%FSLAX46Y46*%
G04 Gerber Fmt 4.6, Leading zero omitted, Abs format (unit mm)*
G04 Created by KiCad (PCBNEW (6.0.2)) date 2022-05-27 21:50:11*
%MOMM*%
%LPD*%
G01*
G04 APERTURE LIST*
%ADD10C,0.150000*%
%ADD11C,0.120000*%
%ADD12C,1.524000*%
%ADD13R,1.700000X1.700000*%
%ADD14O,1.700000X1.700000*%
G04 APERTURE END LIST*
D10*
%TO.C,itr7*%
X184348571Y-107902380D02*
X184348571Y-107235714D01*
X184348571Y-106902380D02*
X184300952Y-106950000D01*
X184348571Y-106997619D01*
X184396190Y-106950000D01*
X184348571Y-106902380D01*
X184348571Y-106997619D01*
X184681904Y-107235714D02*
X185062857Y-107235714D01*
X184824761Y-106902380D02*
X184824761Y-107759523D01*
X184872380Y-107854761D01*
X184967619Y-107902380D01*
X185062857Y-107902380D01*
X185396190Y-107902380D02*
X185396190Y-107235714D01*
X185396190Y-107426190D02*
X185443809Y-107330952D01*
X185491428Y-107283333D01*
X185586666Y-107235714D01*
X185681904Y-107235714D01*
X185920000Y-106902380D02*
X186586666Y-106902380D01*
X186158095Y-107902380D01*
%TO.C,itr6*%
X170378571Y-107902380D02*
X170378571Y-107235714D01*
X170378571Y-106902380D02*
X170330952Y-106950000D01*
X170378571Y-106997619D01*
X170426190Y-106950000D01*
X170378571Y-106902380D01*
X170378571Y-106997619D01*
X170711904Y-107235714D02*
X171092857Y-107235714D01*
X170854761Y-106902380D02*
X170854761Y-107759523D01*
X170902380Y-107854761D01*
X170997619Y-107902380D01*
X171092857Y-107902380D01*
X171426190Y-107902380D02*
X171426190Y-107235714D01*
X171426190Y-107426190D02*
X171473809Y-107330952D01*
X171521428Y-107283333D01*
X171616666Y-107235714D01*
X171711904Y-107235714D01*
X172473809Y-106902380D02*
X172283333Y-106902380D01*
X172188095Y-106950000D01*
X172140476Y-106997619D01*
X172045238Y-107140476D01*
X171997619Y-107330952D01*
X171997619Y-107711904D01*
X172045238Y-107807142D01*
X172092857Y-107854761D01*
X172188095Y-107902380D01*
X172378571Y-107902380D01*
X172473809Y-107854761D01*
X172521428Y-107807142D01*
X172569047Y-107711904D01*
X172569047Y-107473809D01*
X172521428Y-107378571D01*
X172473809Y-107330952D01*
X172378571Y-107283333D01*
X172188095Y-107283333D01*
X172092857Y-107330952D01*
X172045238Y-107378571D01*
X171997619Y-107473809D01*
%TO.C,itr2*%
X114498571Y-107902380D02*
X114498571Y-107235714D01*
X114498571Y-106902380D02*
X114450952Y-106950000D01*
X114498571Y-106997619D01*
X114546190Y-106950000D01*
X114498571Y-106902380D01*
X114498571Y-106997619D01*
X114831904Y-107235714D02*
X115212857Y-107235714D01*
X114974761Y-106902380D02*
X114974761Y-107759523D01*
X115022380Y-107854761D01*
X115117619Y-107902380D01*
X115212857Y-107902380D01*
X115546190Y-107902380D02*
X115546190Y-107235714D01*
X115546190Y-107426190D02*
X115593809Y-107330952D01*
X115641428Y-107283333D01*
X115736666Y-107235714D01*
X115831904Y-107235714D01*
X116117619Y-106997619D02*
X116165238Y-106950000D01*
X116260476Y-106902380D01*
X116498571Y-106902380D01*
X116593809Y-106950000D01*
X116641428Y-106997619D01*
X116689047Y-107092857D01*
X116689047Y-107188095D01*
X116641428Y-107330952D01*
X116070000Y-107902380D01*
X116689047Y-107902380D01*
%TO.C,itr3*%
X128214571Y-107902380D02*
X128214571Y-107235714D01*
X128214571Y-106902380D02*
X128166952Y-106950000D01*
X128214571Y-106997619D01*
X128262190Y-106950000D01*
X128214571Y-106902380D01*
X128214571Y-106997619D01*
X128547904Y-107235714D02*
X128928857Y-107235714D01*
X128690761Y-106902380D02*
X128690761Y-107759523D01*
X128738380Y-107854761D01*
X128833619Y-107902380D01*
X128928857Y-107902380D01*
X129262190Y-107902380D02*
X129262190Y-107235714D01*
X129262190Y-107426190D02*
X129309809Y-107330952D01*
X129357428Y-107283333D01*
X129452666Y-107235714D01*
X129547904Y-107235714D01*
X129786000Y-106902380D02*
X130405047Y-106902380D01*
X130071714Y-107283333D01*
X130214571Y-107283333D01*
X130309809Y-107330952D01*
X130357428Y-107378571D01*
X130405047Y-107473809D01*
X130405047Y-107711904D01*
X130357428Y-107807142D01*
X130309809Y-107854761D01*
X130214571Y-107902380D01*
X129928857Y-107902380D01*
X129833619Y-107854761D01*
X129786000Y-107807142D01*
%TO.C,itr8*%
X198318571Y-107902380D02*
X198318571Y-107235714D01*
X198318571Y-106902380D02*
X198270952Y-106950000D01*
X198318571Y-106997619D01*
X198366190Y-106950000D01*
X198318571Y-106902380D01*
X198318571Y-106997619D01*
X198651904Y-107235714D02*
X199032857Y-107235714D01*
X198794761Y-106902380D02*
X198794761Y-107759523D01*
X198842380Y-107854761D01*
X198937619Y-107902380D01*
X199032857Y-107902380D01*
X199366190Y-107902380D02*
X199366190Y-107235714D01*
X199366190Y-107426190D02*
X199413809Y-107330952D01*
X199461428Y-107283333D01*
X199556666Y-107235714D01*
X199651904Y-107235714D01*
X200128095Y-107330952D02*
X200032857Y-107283333D01*
X199985238Y-107235714D01*
X199937619Y-107140476D01*
X199937619Y-107092857D01*
X199985238Y-106997619D01*
X200032857Y-106950000D01*
X200128095Y-106902380D01*
X200318571Y-106902380D01*
X200413809Y-106950000D01*
X200461428Y-106997619D01*
X200509047Y-107092857D01*
X200509047Y-107140476D01*
X200461428Y-107235714D01*
X200413809Y-107283333D01*
X200318571Y-107330952D01*
X200128095Y-107330952D01*
X200032857Y-107378571D01*
X199985238Y-107426190D01*
X199937619Y-107521428D01*
X199937619Y-107711904D01*
X199985238Y-107807142D01*
X200032857Y-107854761D01*
X200128095Y-107902380D01*
X200318571Y-107902380D01*
X200413809Y-107854761D01*
X200461428Y-107807142D01*
X200509047Y-107711904D01*
X200509047Y-107521428D01*
X200461428Y-107426190D01*
X200413809Y-107378571D01*
X200318571Y-107330952D01*
%TO.C,itr4*%
X142438571Y-108402380D02*
X142438571Y-107735714D01*
X142438571Y-107402380D02*
X142390952Y-107450000D01*
X142438571Y-107497619D01*
X142486190Y-107450000D01*
X142438571Y-107402380D01*
X142438571Y-107497619D01*
X142771904Y-107735714D02*
X143152857Y-107735714D01*
X142914761Y-107402380D02*
X142914761Y-108259523D01*
X142962380Y-108354761D01*
X143057619Y-108402380D01*
X143152857Y-108402380D01*
X143486190Y-108402380D02*
X143486190Y-107735714D01*
X143486190Y-107926190D02*
X143533809Y-107830952D01*
X143581428Y-107783333D01*
X143676666Y-107735714D01*
X143771904Y-107735714D01*
X144533809Y-107735714D02*
X144533809Y-108402380D01*
X144295714Y-107354761D02*
X144057619Y-108069047D01*
X144676666Y-108069047D01*
%TO.C,itr1*%
X100528571Y-107902380D02*
X100528571Y-107235714D01*
X100528571Y-106902380D02*
X100480952Y-106950000D01*
X100528571Y-106997619D01*
X100576190Y-106950000D01*
X100528571Y-106902380D01*
X100528571Y-106997619D01*
X100861904Y-107235714D02*
X101242857Y-107235714D01*
X101004761Y-106902380D02*
X101004761Y-107759523D01*
X101052380Y-107854761D01*
X101147619Y-107902380D01*
X101242857Y-107902380D01*
X101576190Y-107902380D02*
X101576190Y-107235714D01*
X101576190Y-107426190D02*
X101623809Y-107330952D01*
X101671428Y-107283333D01*
X101766666Y-107235714D01*
X101861904Y-107235714D01*
X102719047Y-107902380D02*
X102147619Y-107902380D01*
X102433333Y-107902380D02*
X102433333Y-106902380D01*
X102338095Y-107045238D01*
X102242857Y-107140476D01*
X102147619Y-107188095D01*
%TO.C,itr5*%
X156408571Y-107902380D02*
X156408571Y-107235714D01*
X156408571Y-106902380D02*
X156360952Y-106950000D01*
X156408571Y-106997619D01*
X156456190Y-106950000D01*
X156408571Y-106902380D01*
X156408571Y-106997619D01*
X156741904Y-107235714D02*
X157122857Y-107235714D01*
X156884761Y-106902380D02*
X156884761Y-107759523D01*
X156932380Y-107854761D01*
X157027619Y-107902380D01*
X157122857Y-107902380D01*
X157456190Y-107902380D02*
X157456190Y-107235714D01*
X157456190Y-107426190D02*
X157503809Y-107330952D01*
X157551428Y-107283333D01*
X157646666Y-107235714D01*
X157741904Y-107235714D01*
X158551428Y-106902380D02*
X158075238Y-106902380D01*
X158027619Y-107378571D01*
X158075238Y-107330952D01*
X158170476Y-107283333D01*
X158408571Y-107283333D01*
X158503809Y-107330952D01*
X158551428Y-107378571D01*
X158599047Y-107473809D01*
X158599047Y-107711904D01*
X158551428Y-107807142D01*
X158503809Y-107854761D01*
X158408571Y-107902380D01*
X158170476Y-107902380D01*
X158075238Y-107854761D01*
X158027619Y-107807142D01*
D11*
%TO.C,itr7*%
X189484000Y-107950000D02*
G75*
G03*
X189484000Y-107950000I-4064000J0D01*
G01*
X192024000Y-107950000D02*
G75*
G03*
X192024000Y-107950000I-6604000J0D01*
G01*
%TO.C,itr6*%
X178054000Y-107950000D02*
G75*
G03*
X178054000Y-107950000I-6604000J0D01*
G01*
X175514000Y-107950000D02*
G75*
G03*
X175514000Y-107950000I-4064000J0D01*
G01*
%TO.C,itr2*%
X119634000Y-107950000D02*
G75*
G03*
X119634000Y-107950000I-4064000J0D01*
G01*
X122174000Y-107950000D02*
G75*
G03*
X122174000Y-107950000I-6604000J0D01*
G01*
%TO.C,itr3*%
X135890000Y-107950000D02*
G75*
G03*
X135890000Y-107950000I-6604000J0D01*
G01*
X133350000Y-107950000D02*
G75*
G03*
X133350000Y-107950000I-4064000J0D01*
G01*
%TO.C,itr8*%
X203454000Y-107950000D02*
G75*
G03*
X203454000Y-107950000I-4064000J0D01*
G01*
X205994000Y-107950000D02*
G75*
G03*
X205994000Y-107950000I-6604000J0D01*
G01*
%TO.C,itr4*%
X147574000Y-107950000D02*
G75*
G03*
X147574000Y-107950000I-4064000J0D01*
G01*
X150114000Y-107950000D02*
G75*
G03*
X150114000Y-107950000I-6604000J0D01*
G01*
%TO.C,itr1*%
X108204000Y-107950000D02*
G75*
G03*
X108204000Y-107950000I-6604000J0D01*
G01*
X105664000Y-107950000D02*
G75*
G03*
X105664000Y-107950000I-4064000J0D01*
G01*
%TO.C,itr5*%
X161544000Y-107950000D02*
G75*
G03*
X161544000Y-107950000I-4064000J0D01*
G01*
X164084000Y-107950000D02*
G75*
G03*
X164084000Y-107950000I-6604000J0D01*
G01*
%TD*%
%LPC*%
D12*
%TO.C,itr7*%
X188976000Y-105918000D03*
X187452000Y-104394000D03*
X185420000Y-103886000D03*
X183388000Y-104394000D03*
X181864000Y-105918000D03*
X181356000Y-107950000D03*
X181864000Y-109982000D03*
X183388000Y-111506000D03*
X185420000Y-112014000D03*
X187452000Y-111506000D03*
X188976000Y-109982000D03*
%TD*%
%TO.C,itr6*%
X175006000Y-105918000D03*
X173482000Y-104394000D03*
X171450000Y-103886000D03*
X169418000Y-104394000D03*
X167894000Y-105918000D03*
X167386000Y-107950000D03*
X167894000Y-109982000D03*
X169418000Y-111506000D03*
X171450000Y-112014000D03*
X173482000Y-111506000D03*
X175006000Y-109982000D03*
%TD*%
%TO.C,itr2*%
X119126000Y-105918000D03*
X117602000Y-104394000D03*
X115570000Y-103886000D03*
X113538000Y-104394000D03*
X112014000Y-105918000D03*
X111506000Y-107950000D03*
X112014000Y-109982000D03*
X113538000Y-111506000D03*
X115570000Y-112014000D03*
X117602000Y-111506000D03*
X119126000Y-109982000D03*
%TD*%
%TO.C,itr3*%
X132842000Y-105918000D03*
X131318000Y-104394000D03*
X129286000Y-103886000D03*
X127254000Y-104394000D03*
X125730000Y-105918000D03*
X125222000Y-107950000D03*
X125730000Y-109982000D03*
X127254000Y-111506000D03*
X129286000Y-112014000D03*
X131318000Y-111506000D03*
X132842000Y-109982000D03*
%TD*%
%TO.C,itr8*%
X202946000Y-105918000D03*
X201422000Y-104394000D03*
X199390000Y-103886000D03*
X197358000Y-104394000D03*
X195834000Y-105918000D03*
X195326000Y-107950000D03*
X195834000Y-109982000D03*
X197358000Y-111506000D03*
X199390000Y-112014000D03*
X201422000Y-111506000D03*
X202946000Y-109982000D03*
%TD*%
%TO.C,itr4*%
X147066000Y-105918000D03*
X145542000Y-104394000D03*
X143510000Y-103886000D03*
X141478000Y-104394000D03*
X139954000Y-105918000D03*
X139446000Y-107950000D03*
X139954000Y-109982000D03*
X141478000Y-111506000D03*
X143510000Y-112014000D03*
X145542000Y-111506000D03*
X147066000Y-109982000D03*
%TD*%
%TO.C,itr1*%
X105156000Y-105918000D03*
X103632000Y-104394000D03*
X101600000Y-103886000D03*
X99568000Y-104394000D03*
X98044000Y-105918000D03*
X97536000Y-107950000D03*
X98044000Y-109982000D03*
X99568000Y-111506000D03*
X101600000Y-112014000D03*
X103632000Y-111506000D03*
X105156000Y-109982000D03*
%TD*%
%TO.C,itr5*%
X161036000Y-105918000D03*
X159512000Y-104394000D03*
X157480000Y-103886000D03*
X155448000Y-104394000D03*
X153924000Y-105918000D03*
X153416000Y-107950000D03*
X153924000Y-109982000D03*
X155448000Y-111506000D03*
X157480000Y-112014000D03*
X159512000Y-111506000D03*
X161036000Y-109982000D03*
%TD*%
D13*
%TO.C,JP1*%
X100330000Y-116840000D03*
D14*
X97790000Y-116840000D03*
%TD*%
D13*
%TO.C,JG1*%
X142240000Y-120650000D03*
D14*
X144780000Y-120650000D03*
X147320000Y-120650000D03*
X149860000Y-120650000D03*
X152400000Y-120650000D03*
X154940000Y-120650000D03*
X157480000Y-120650000D03*
X160020000Y-120650000D03*
%TD*%
D13*
%TO.C,JS1*%
X142240000Y-95250000D03*
D14*
X144780000Y-95250000D03*
X147320000Y-95250000D03*
X149860000Y-95250000D03*
X152400000Y-95250000D03*
X154940000Y-95250000D03*
X157480000Y-95250000D03*
X160020000Y-95250000D03*
%TD*%
M02*
