G04 #@! TF.GenerationSoftware,KiCad,Pcbnew,(6.0.2)*
G04 #@! TF.CreationDate,2022-06-24T18:07:30+02:00*
G04 #@! TF.ProjectId,divergence_meter_logic,64697665-7267-4656-9e63-655f6d657465,rev?*
G04 #@! TF.SameCoordinates,Original*
G04 #@! TF.FileFunction,Soldermask,Top*
G04 #@! TF.FilePolarity,Negative*
%FSLAX46Y46*%
G04 Gerber Fmt 4.6, Leading zero omitted, Abs format (unit mm)*
G04 Created by KiCad (PCBNEW (6.0.2)) date 2022-06-24 18:07:30*
%MOMM*%
%LPD*%
G01*
G04 APERTURE LIST*
G04 Aperture macros list*
%AMFreePoly0*
4,1,22,0.550000,-0.750000,0.000000,-0.750000,0.000000,-0.745033,-0.079941,-0.743568,-0.215256,-0.701293,-0.333266,-0.622738,-0.424486,-0.514219,-0.481581,-0.384460,-0.499164,-0.250000,-0.500000,-0.250000,-0.500000,0.250000,-0.499164,0.250000,-0.499963,0.256109,-0.478152,0.396186,-0.417904,0.524511,-0.324060,0.630769,-0.204165,0.706417,-0.067858,0.745374,0.000000,0.744959,0.000000,0.750000,
0.550000,0.750000,0.550000,-0.750000,0.550000,-0.750000,$1*%
%AMFreePoly1*
4,1,20,0.000000,0.744959,0.073905,0.744508,0.209726,0.703889,0.328688,0.626782,0.421226,0.519385,0.479903,0.390333,0.500000,0.250000,0.500000,-0.250000,0.499851,-0.262216,0.476331,-0.402017,0.414519,-0.529596,0.319384,-0.634700,0.198574,-0.708877,0.061801,-0.746166,0.000000,-0.745033,0.000000,-0.750000,-0.550000,-0.750000,-0.550000,0.750000,0.000000,0.750000,0.000000,0.744959,
0.000000,0.744959,$1*%
G04 Aperture macros list end*
%ADD10R,1.600000X1.600000*%
%ADD11O,1.600000X1.600000*%
%ADD12R,1.130000X1.130000*%
%ADD13C,1.130000*%
%ADD14C,2.000000*%
%ADD15C,0.800000*%
%ADD16C,7.000000*%
%ADD17C,1.400000*%
%ADD18O,1.400000X1.400000*%
%ADD19R,1.060000X1.060000*%
%ADD20C,1.060000*%
%ADD21R,1.050000X1.500000*%
%ADD22O,1.050000X1.500000*%
%ADD23FreePoly0,270.000000*%
%ADD24R,1.500000X1.000000*%
%ADD25FreePoly1,270.000000*%
%ADD26R,1.700000X1.700000*%
%ADD27O,1.700000X1.700000*%
G04 APERTURE END LIST*
D10*
X169291000Y-100584000D03*
D11*
X166751000Y-100584000D03*
D10*
X160655000Y-87122000D03*
D11*
X158115000Y-87122000D03*
D12*
X178910000Y-61722000D03*
D13*
X178910000Y-64262000D03*
X178910000Y-66802000D03*
X178910000Y-69342000D03*
X178910000Y-71882000D03*
X178910000Y-74422000D03*
X178910000Y-76962000D03*
X178910000Y-79502000D03*
X186850000Y-79502000D03*
X186850000Y-76962000D03*
X186850000Y-74422000D03*
X186850000Y-71882000D03*
X186850000Y-69342000D03*
X186850000Y-66802000D03*
X186850000Y-64262000D03*
X186850000Y-61722000D03*
D10*
X207264000Y-86868000D03*
D11*
X209804000Y-86868000D03*
D14*
X131774000Y-107986000D03*
X125274000Y-107986000D03*
X131774000Y-112486000D03*
X125274000Y-112486000D03*
D10*
X200660000Y-86868000D03*
D11*
X203200000Y-86868000D03*
D15*
X222836155Y-65356155D03*
X220980000Y-60875000D03*
X222836155Y-61643845D03*
X219123845Y-61643845D03*
X219123845Y-65356155D03*
X223605000Y-63500000D03*
X220980000Y-66125000D03*
X218355000Y-63500000D03*
D16*
X220980000Y-63500000D03*
D17*
X207772000Y-80391000D03*
D18*
X205232000Y-80391000D03*
D17*
X209804000Y-94107000D03*
D18*
X207264000Y-94107000D03*
D19*
X193040000Y-109914000D03*
D20*
X195580000Y-109914000D03*
X198120000Y-109914000D03*
X200660000Y-109914000D03*
X203200000Y-109914000D03*
X205740000Y-109914000D03*
X208280000Y-109914000D03*
X210820000Y-109914000D03*
X213360000Y-109914000D03*
X213360000Y-101414000D03*
X210820000Y-101414000D03*
X208280000Y-101414000D03*
X205740000Y-101414000D03*
X203200000Y-101414000D03*
X200660000Y-101414000D03*
X198120000Y-101414000D03*
X195580000Y-101414000D03*
X193040000Y-101414000D03*
D10*
X173863000Y-87122000D03*
D11*
X171323000Y-87122000D03*
D10*
X198628000Y-73152000D03*
D11*
X201168000Y-73152000D03*
D15*
X94312155Y-65356155D03*
X89831000Y-63500000D03*
X90599845Y-65356155D03*
X92456000Y-66125000D03*
X94312155Y-61643845D03*
D16*
X92456000Y-63500000D03*
D15*
X92456000Y-60875000D03*
X90599845Y-61643845D03*
X95081000Y-63500000D03*
D21*
X207264000Y-90932000D03*
D22*
X208534000Y-90932000D03*
X209804000Y-90932000D03*
D21*
X173863000Y-83058000D03*
D22*
X172593000Y-83058000D03*
X171323000Y-83058000D03*
D21*
X194056000Y-90932000D03*
D22*
X195326000Y-90932000D03*
X196596000Y-90932000D03*
D17*
X166751000Y-93345000D03*
D18*
X169291000Y-93345000D03*
D21*
X149225000Y-96520000D03*
D22*
X147955000Y-96520000D03*
X146685000Y-96520000D03*
D12*
X186850000Y-102362000D03*
D13*
X186850000Y-99822000D03*
X186850000Y-97282000D03*
X186850000Y-94742000D03*
X186850000Y-92202000D03*
X186850000Y-89662000D03*
X186850000Y-87122000D03*
X186850000Y-84582000D03*
X178910000Y-84582000D03*
X178910000Y-87122000D03*
X178910000Y-89662000D03*
X178910000Y-92202000D03*
X178910000Y-94742000D03*
X178910000Y-97282000D03*
X178910000Y-99822000D03*
X178910000Y-102362000D03*
D21*
X211836000Y-77216000D03*
D22*
X213106000Y-77216000D03*
X214376000Y-77216000D03*
D21*
X167005000Y-83058000D03*
D22*
X165735000Y-83058000D03*
X164465000Y-83058000D03*
D17*
X157911000Y-79883000D03*
D18*
X160451000Y-79883000D03*
D21*
X162687000Y-96520000D03*
D22*
X161417000Y-96520000D03*
X160147000Y-96520000D03*
D21*
X200660000Y-90932000D03*
D22*
X201930000Y-90932000D03*
X203200000Y-90932000D03*
D17*
X203200000Y-94107000D03*
D18*
X200660000Y-94107000D03*
D14*
X143458000Y-107986000D03*
X136958000Y-107986000D03*
X143458000Y-112486000D03*
X136958000Y-112486000D03*
D10*
X213868000Y-86868000D03*
D11*
X216408000Y-86868000D03*
D21*
X160401000Y-83058000D03*
D22*
X159131000Y-83058000D03*
X157861000Y-83058000D03*
D21*
X153797000Y-83058000D03*
D22*
X152527000Y-83058000D03*
X151257000Y-83058000D03*
D21*
X205232000Y-77216000D03*
D22*
X206502000Y-77216000D03*
X207772000Y-77216000D03*
D17*
X214376000Y-80391000D03*
D18*
X211836000Y-80391000D03*
D14*
X96230000Y-98246000D03*
X96230000Y-91746000D03*
X91730000Y-91746000D03*
X91730000Y-98246000D03*
D21*
X169291000Y-96520000D03*
D22*
X168021000Y-96520000D03*
X166751000Y-96520000D03*
D19*
X168656000Y-63314000D03*
D20*
X166116000Y-63314000D03*
X163576000Y-63314000D03*
X161036000Y-63314000D03*
X158496000Y-63314000D03*
X155956000Y-63314000D03*
X153416000Y-63314000D03*
X150876000Y-63314000D03*
X148336000Y-63314000D03*
X148336000Y-71814000D03*
X150876000Y-71814000D03*
X153416000Y-71814000D03*
X155956000Y-71814000D03*
X158496000Y-71814000D03*
X161036000Y-71814000D03*
X163576000Y-71814000D03*
X166116000Y-71814000D03*
X168656000Y-71814000D03*
D10*
X149479000Y-100584000D03*
D11*
X146939000Y-100584000D03*
D21*
X198628000Y-77216000D03*
D22*
X199898000Y-77216000D03*
X201168000Y-77216000D03*
D23*
X93980000Y-71852000D03*
D24*
X93980000Y-73152000D03*
D25*
X93980000Y-74452000D03*
D10*
X192024000Y-73152000D03*
D11*
X194564000Y-73152000D03*
D17*
X160147000Y-93345000D03*
D18*
X162687000Y-93345000D03*
D17*
X153543000Y-93345000D03*
D18*
X156083000Y-93345000D03*
D17*
X171323000Y-79883000D03*
D18*
X173863000Y-79883000D03*
D17*
X164719000Y-79883000D03*
D18*
X167259000Y-79883000D03*
D10*
X141224000Y-101600000D03*
D11*
X141224000Y-99060000D03*
X141224000Y-96520000D03*
X141224000Y-93980000D03*
X141224000Y-91440000D03*
X141224000Y-88900000D03*
X141224000Y-86360000D03*
X141224000Y-83820000D03*
X141224000Y-81280000D03*
X141224000Y-78740000D03*
X141224000Y-76200000D03*
X141224000Y-73660000D03*
X141224000Y-71120000D03*
X141224000Y-68580000D03*
X141224000Y-66040000D03*
X125984000Y-66040000D03*
X125984000Y-68580000D03*
X125984000Y-71120000D03*
X125984000Y-73660000D03*
X125984000Y-76200000D03*
X125984000Y-78740000D03*
X125984000Y-81280000D03*
X125984000Y-83820000D03*
X125984000Y-86360000D03*
X125984000Y-88900000D03*
X125984000Y-91440000D03*
X125984000Y-93980000D03*
X125984000Y-96520000D03*
X125984000Y-99060000D03*
X125984000Y-101600000D03*
D17*
X194564000Y-80391000D03*
D18*
X192024000Y-80391000D03*
D10*
X154051000Y-87122000D03*
D11*
X151511000Y-87122000D03*
D17*
X146939000Y-93345000D03*
D18*
X149479000Y-93345000D03*
D10*
X194154315Y-86868000D03*
D11*
X196694315Y-86868000D03*
D15*
X94312155Y-112600155D03*
X92456000Y-113369000D03*
X90599845Y-112600155D03*
X95081000Y-110744000D03*
X89831000Y-110744000D03*
X94312155Y-108887845D03*
X92456000Y-108119000D03*
X90599845Y-108887845D03*
D16*
X92456000Y-110744000D03*
D22*
X194564000Y-77216000D03*
X193294000Y-77216000D03*
D21*
X192024000Y-77216000D03*
D10*
X211836000Y-73152000D03*
D11*
X214376000Y-73152000D03*
D26*
X117577000Y-112168000D03*
D27*
X115037000Y-112168000D03*
X112497000Y-112168000D03*
X109957000Y-112168000D03*
X107417000Y-112168000D03*
X104877000Y-112168000D03*
D10*
X167259000Y-87122000D03*
D11*
X164719000Y-87122000D03*
D14*
X96230000Y-86054000D03*
X96230000Y-79554000D03*
X91730000Y-79554000D03*
X91730000Y-86054000D03*
D26*
X156464000Y-109220000D03*
D27*
X159004000Y-109220000D03*
X161544000Y-109220000D03*
X164084000Y-109220000D03*
X166624000Y-109220000D03*
X169164000Y-109220000D03*
X171704000Y-109220000D03*
X174244000Y-109220000D03*
X176784000Y-109220000D03*
X179324000Y-109220000D03*
D10*
X156083000Y-100584000D03*
D11*
X153543000Y-100584000D03*
D21*
X156083000Y-96520000D03*
D22*
X154813000Y-96520000D03*
X153543000Y-96520000D03*
D17*
X201168000Y-80391000D03*
D18*
X198628000Y-80391000D03*
D17*
X216408000Y-94107000D03*
D18*
X213868000Y-94107000D03*
D10*
X162687000Y-100584000D03*
D11*
X160147000Y-100584000D03*
D10*
X205232000Y-73152000D03*
D11*
X207772000Y-73152000D03*
D21*
X213868000Y-90932000D03*
D22*
X215138000Y-90932000D03*
X216408000Y-90932000D03*
D26*
X212852000Y-65024000D03*
D27*
X210312000Y-65024000D03*
X207772000Y-65024000D03*
X205232000Y-65024000D03*
X202692000Y-65024000D03*
X200152000Y-65024000D03*
X197612000Y-65024000D03*
X195072000Y-65024000D03*
D17*
X151511000Y-79883000D03*
D18*
X154051000Y-79883000D03*
D17*
X196596000Y-94107000D03*
D18*
X194056000Y-94107000D03*
D16*
X220980000Y-110744000D03*
D15*
X223605000Y-110744000D03*
X219123845Y-112600155D03*
X220980000Y-108119000D03*
X222836155Y-112600155D03*
X220980000Y-113369000D03*
X218355000Y-110744000D03*
X222836155Y-108887845D03*
X219123845Y-108887845D03*
D26*
X118872000Y-70684000D03*
D27*
X116332000Y-70684000D03*
X113792000Y-70684000D03*
X111252000Y-70684000D03*
X108712000Y-70684000D03*
X106172000Y-70684000D03*
X103632000Y-70684000D03*
M02*
