M48
; DRILL file {KiCad (6.0.2)} date Fri Jun 24 18:07:35 2022
; FORMAT={-:-/ absolute / metric / decimal}
; #@! TF.CreationDate,2022-06-24T18:07:35+02:00
; #@! TF.GenerationSoftware,Kicad,Pcbnew,(6.0.2)
; #@! TF.FileFunction,Plated,1,2,PTH
FMAT,2
METRIC
; #@! TA.AperFunction,Plated,PTH,ViaDrill
T1C0.400
; #@! TA.AperFunction,Plated,PTH,ComponentDrill
T2C0.500
; #@! TA.AperFunction,Plated,PTH,ComponentDrill
T3C0.660
; #@! TA.AperFunction,Plated,PTH,ComponentDrill
T4C0.700
; #@! TA.AperFunction,Plated,PTH,ComponentDrill
T5C0.730
; #@! TA.AperFunction,Plated,PTH,ComponentDrill
T6C0.750
; #@! TA.AperFunction,Plated,PTH,ComponentDrill
T7C0.800
; #@! TA.AperFunction,Plated,PTH,ComponentDrill
T8C1.000
; #@! TA.AperFunction,Plated,PTH,ComponentDrill
T9C1.100
; #@! TA.AperFunction,Plated,PTH,ComponentDrill
T10C3.500
%
G90
G05
T1
X92.456Y-68.58
X92.456Y-105.664
X97.536Y-63.5
X97.536Y-110.744
X117.856Y-96.52
X119.38Y-96.52
X120.904Y-98.044
X122.936Y-105.664
X125.476Y-105.664
X129.032Y-97.536
X136.144Y-102.108
X190.5Y-62.992
X215.9Y-110.744
X216.408Y-60.96
X220.98Y-68.58
X220.98Y-105.664
T2
X89.831Y-63.5
X89.831Y-110.744
X90.6Y-61.644
X90.6Y-65.356
X90.6Y-108.888
X90.6Y-112.6
X92.456Y-60.875
X92.456Y-66.125
X92.456Y-108.119
X92.456Y-113.369
X94.312Y-61.644
X94.312Y-65.356
X94.312Y-108.888
X94.312Y-112.6
X95.081Y-63.5
X95.081Y-110.744
X218.355Y-63.5
X218.355Y-110.744
X219.124Y-61.644
X219.124Y-65.356
X219.124Y-108.888
X219.124Y-112.6
X220.98Y-60.875
X220.98Y-66.125
X220.98Y-108.119
X220.98Y-113.369
X222.836Y-61.644
X222.836Y-65.356
X222.836Y-108.888
X222.836Y-112.6
X223.605Y-63.5
X223.605Y-110.744
T3
X148.336Y-63.314
X148.336Y-71.814
X150.876Y-63.314
X150.876Y-71.814
X153.416Y-63.314
X153.416Y-71.814
X155.956Y-63.314
X155.956Y-71.814
X158.496Y-63.314
X158.496Y-71.814
X161.036Y-63.314
X161.036Y-71.814
X163.576Y-63.314
X163.576Y-71.814
X166.116Y-63.314
X166.116Y-71.814
X168.656Y-63.314
X168.656Y-71.814
X193.04Y-101.414
X193.04Y-109.914
X195.58Y-101.414
X195.58Y-109.914
X198.12Y-101.414
X198.12Y-109.914
X200.66Y-101.414
X200.66Y-109.914
X203.2Y-101.414
X203.2Y-109.914
X205.74Y-101.414
X205.74Y-109.914
X208.28Y-101.414
X208.28Y-109.914
X210.82Y-101.414
X210.82Y-109.914
X213.36Y-101.414
X213.36Y-109.914
T4
X146.939Y-93.345
X149.479Y-93.345
X151.511Y-79.883
X153.543Y-93.345
X154.051Y-79.883
X156.083Y-93.345
X157.911Y-79.883
X160.147Y-93.345
X160.451Y-79.883
X162.687Y-93.345
X164.719Y-79.883
X166.751Y-93.345
X167.259Y-79.883
X169.291Y-93.345
X171.323Y-79.883
X173.863Y-79.883
X192.024Y-80.391
X194.056Y-94.107
X194.564Y-80.391
X196.596Y-94.107
X198.628Y-80.391
X200.66Y-94.107
X201.168Y-80.391
X203.2Y-94.107
X205.232Y-80.391
X207.264Y-94.107
X207.772Y-80.391
X209.804Y-94.107
X211.836Y-80.391
X213.868Y-94.107
X214.376Y-80.391
X216.408Y-94.107
T5
X178.91Y-61.722
X178.91Y-64.262
X178.91Y-66.802
X178.91Y-69.342
X178.91Y-71.882
X178.91Y-74.422
X178.91Y-76.962
X178.91Y-79.502
X178.91Y-84.582
X178.91Y-87.122
X178.91Y-89.662
X178.91Y-92.202
X178.91Y-94.742
X178.91Y-97.282
X178.91Y-99.822
X178.91Y-102.362
X186.85Y-61.722
X186.85Y-64.262
X186.85Y-66.802
X186.85Y-69.342
X186.85Y-71.882
X186.85Y-74.422
X186.85Y-76.962
X186.85Y-79.502
X186.85Y-84.582
X186.85Y-87.122
X186.85Y-89.662
X186.85Y-92.202
X186.85Y-94.742
X186.85Y-97.282
X186.85Y-99.822
X186.85Y-102.362
T6
X146.685Y-96.52
X147.955Y-96.52
X149.225Y-96.52
X151.257Y-83.058
X152.527Y-83.058
X153.543Y-96.52
X153.797Y-83.058
X154.813Y-96.52
X156.083Y-96.52
X157.861Y-83.058
X159.131Y-83.058
X160.147Y-96.52
X160.401Y-83.058
X161.417Y-96.52
X162.687Y-96.52
X164.465Y-83.058
X165.735Y-83.058
X166.751Y-96.52
X167.005Y-83.058
X168.021Y-96.52
X169.291Y-96.52
X171.323Y-83.058
X172.593Y-83.058
X173.863Y-83.058
X192.024Y-77.216
X193.294Y-77.216
X194.056Y-90.932
X194.564Y-77.216
X195.326Y-90.932
X196.596Y-90.932
X198.628Y-77.216
X199.898Y-77.216
X200.66Y-90.932
X201.168Y-77.216
X201.93Y-90.932
X203.2Y-90.932
X205.232Y-77.216
X206.502Y-77.216
X207.264Y-90.932
X207.772Y-77.216
X208.534Y-90.932
X209.804Y-90.932
X211.836Y-77.216
X213.106Y-77.216
X213.868Y-90.932
X214.376Y-77.216
X215.138Y-90.932
X216.408Y-90.932
T7
X146.939Y-100.584
X149.479Y-100.584
X151.511Y-87.122
X153.543Y-100.584
X154.051Y-87.122
X156.083Y-100.584
X158.115Y-87.122
X160.147Y-100.584
X160.655Y-87.122
X162.687Y-100.584
X164.719Y-87.122
X166.751Y-100.584
X167.259Y-87.122
X169.291Y-100.584
X171.323Y-87.122
X173.863Y-87.122
X192.024Y-73.152
X194.154Y-86.868
X194.564Y-73.152
X196.694Y-86.868
X198.628Y-73.152
X200.66Y-86.868
X201.168Y-73.152
X203.2Y-86.868
X205.232Y-73.152
X207.264Y-86.868
X207.772Y-73.152
X209.804Y-86.868
X211.836Y-73.152
X213.868Y-86.868
X214.376Y-73.152
X216.408Y-86.868
T8
X103.632Y-70.684
X104.877Y-112.168
X106.172Y-70.684
X107.417Y-112.168
X108.712Y-70.684
X109.957Y-112.168
X111.252Y-70.684
X112.497Y-112.168
X113.792Y-70.684
X115.037Y-112.168
X116.332Y-70.684
X117.577Y-112.168
X118.872Y-70.684
X125.984Y-66.04
X125.984Y-68.58
X125.984Y-71.12
X125.984Y-73.66
X125.984Y-76.2
X125.984Y-78.74
X125.984Y-81.28
X125.984Y-83.82
X125.984Y-86.36
X125.984Y-88.9
X125.984Y-91.44
X125.984Y-93.98
X125.984Y-96.52
X125.984Y-99.06
X125.984Y-101.6
X141.224Y-66.04
X141.224Y-68.58
X141.224Y-71.12
X141.224Y-73.66
X141.224Y-76.2
X141.224Y-78.74
X141.224Y-81.28
X141.224Y-83.82
X141.224Y-86.36
X141.224Y-88.9
X141.224Y-91.44
X141.224Y-93.98
X141.224Y-96.52
X141.224Y-99.06
X141.224Y-101.6
X156.464Y-109.22
X159.004Y-109.22
X161.544Y-109.22
X164.084Y-109.22
X166.624Y-109.22
X169.164Y-109.22
X171.704Y-109.22
X174.244Y-109.22
X176.784Y-109.22
X179.324Y-109.22
X195.072Y-65.024
X197.612Y-65.024
X200.152Y-65.024
X202.692Y-65.024
X205.232Y-65.024
X207.772Y-65.024
X210.312Y-65.024
X212.852Y-65.024
T9
X91.73Y-79.554
X91.73Y-86.054
X91.73Y-91.746
X91.73Y-98.246
X96.23Y-79.554
X96.23Y-86.054
X96.23Y-91.746
X96.23Y-98.246
X125.274Y-107.986
X125.274Y-112.486
X131.774Y-107.986
X131.774Y-112.486
X136.958Y-107.986
X136.958Y-112.486
X143.458Y-107.986
X143.458Y-112.486
T10
X92.456Y-63.5
X92.456Y-110.744
X220.98Y-63.5
X220.98Y-110.744
T0
M30
