G04 #@! TF.GenerationSoftware,KiCad,Pcbnew,(6.0.2)*
G04 #@! TF.CreationDate,2022-06-24T18:07:30+02:00*
G04 #@! TF.ProjectId,divergence_meter_logic,64697665-7267-4656-9e63-655f6d657465,rev?*
G04 #@! TF.SameCoordinates,Original*
G04 #@! TF.FileFunction,Legend,Top*
G04 #@! TF.FilePolarity,Positive*
%FSLAX46Y46*%
G04 Gerber Fmt 4.6, Leading zero omitted, Abs format (unit mm)*
G04 Created by KiCad (PCBNEW (6.0.2)) date 2022-06-24 18:07:30*
%MOMM*%
%LPD*%
G01*
G04 APERTURE LIST*
G04 Aperture macros list*
%AMFreePoly0*
4,1,22,0.550000,-0.750000,0.000000,-0.750000,0.000000,-0.745033,-0.079941,-0.743568,-0.215256,-0.701293,-0.333266,-0.622738,-0.424486,-0.514219,-0.481581,-0.384460,-0.499164,-0.250000,-0.500000,-0.250000,-0.500000,0.250000,-0.499164,0.250000,-0.499963,0.256109,-0.478152,0.396186,-0.417904,0.524511,-0.324060,0.630769,-0.204165,0.706417,-0.067858,0.745374,0.000000,0.744959,0.000000,0.750000,
0.550000,0.750000,0.550000,-0.750000,0.550000,-0.750000,$1*%
%AMFreePoly1*
4,1,20,0.000000,0.744959,0.073905,0.744508,0.209726,0.703889,0.328688,0.626782,0.421226,0.519385,0.479903,0.390333,0.500000,0.250000,0.500000,-0.250000,0.499851,-0.262216,0.476331,-0.402017,0.414519,-0.529596,0.319384,-0.634700,0.198574,-0.708877,0.061801,-0.746166,0.000000,-0.745033,0.000000,-0.750000,-0.550000,-0.750000,-0.550000,0.750000,0.000000,0.750000,0.000000,0.744959,
0.000000,0.744959,$1*%
G04 Aperture macros list end*
%ADD10C,0.150000*%
%ADD11C,0.254000*%
%ADD12C,0.120000*%
%ADD13C,0.200000*%
%ADD14R,1.130000X1.130000*%
%ADD15C,1.130000*%
%ADD16R,1.060000X1.060000*%
%ADD17C,1.060000*%
%ADD18R,1.600000X1.600000*%
%ADD19O,1.600000X1.600000*%
%ADD20C,2.000000*%
%ADD21C,0.800000*%
%ADD22C,7.000000*%
%ADD23C,1.400000*%
%ADD24O,1.400000X1.400000*%
%ADD25R,1.050000X1.500000*%
%ADD26O,1.050000X1.500000*%
%ADD27FreePoly0,270.000000*%
%ADD28R,1.500000X1.000000*%
%ADD29FreePoly1,270.000000*%
%ADD30R,1.700000X1.700000*%
%ADD31O,1.700000X1.700000*%
G04 APERTURE END LIST*
D10*
X99568000Y-101164000D02*
X122936000Y-101164000D01*
X122936000Y-101164000D02*
X122936000Y-61032000D01*
X122936000Y-61032000D02*
X99568000Y-61032000D01*
X99568000Y-61032000D02*
X99568000Y-101164000D01*
X167282904Y-103362751D02*
X167282904Y-102362751D01*
X167521000Y-102362751D01*
X167663857Y-102410371D01*
X167759095Y-102505609D01*
X167806714Y-102600847D01*
X167854333Y-102791323D01*
X167854333Y-102934180D01*
X167806714Y-103124656D01*
X167759095Y-103219894D01*
X167663857Y-103315132D01*
X167521000Y-103362751D01*
X167282904Y-103362751D01*
X168187666Y-102362751D02*
X168854333Y-102362751D01*
X168425761Y-103362751D01*
X170829095Y-101036380D02*
X170829095Y-100036380D01*
X171400523Y-101036380D02*
X170971952Y-100464952D01*
X171400523Y-100036380D02*
X170829095Y-100607809D01*
X158773904Y-89860380D02*
X158773904Y-88860380D01*
X159012000Y-88860380D01*
X159154857Y-88908000D01*
X159250095Y-89003238D01*
X159297714Y-89098476D01*
X159345333Y-89288952D01*
X159345333Y-89431809D01*
X159297714Y-89622285D01*
X159250095Y-89717523D01*
X159154857Y-89812761D01*
X159012000Y-89860380D01*
X158773904Y-89860380D01*
X160202476Y-89193714D02*
X160202476Y-89860380D01*
X159964380Y-88812761D02*
X159726285Y-89527047D01*
X160345333Y-89527047D01*
X162193095Y-87574380D02*
X162193095Y-86574380D01*
X162764523Y-87574380D02*
X162335952Y-87002952D01*
X162764523Y-86574380D02*
X162193095Y-87145809D01*
D11*
X181277380Y-69916523D02*
X181277380Y-70944619D01*
X181337857Y-71065571D01*
X181398333Y-71126047D01*
X181519285Y-71186523D01*
X181761190Y-71186523D01*
X181882142Y-71126047D01*
X181942619Y-71065571D01*
X182003095Y-70944619D01*
X182003095Y-69916523D01*
X183333571Y-71186523D02*
X182910238Y-70581761D01*
X182607857Y-71186523D02*
X182607857Y-69916523D01*
X183091666Y-69916523D01*
X183212619Y-69977000D01*
X183273095Y-70037476D01*
X183333571Y-70158428D01*
X183333571Y-70339857D01*
X183273095Y-70460809D01*
X183212619Y-70521285D01*
X183091666Y-70581761D01*
X182607857Y-70581761D01*
X184543095Y-71186523D02*
X183817380Y-71186523D01*
X184180238Y-71186523D02*
X184180238Y-69916523D01*
X184059285Y-70097952D01*
X183938333Y-70218904D01*
X183817380Y-70279380D01*
D10*
X207065714Y-85288380D02*
X207065714Y-84288380D01*
X207303809Y-84288380D01*
X207446666Y-84336000D01*
X207541904Y-84431238D01*
X207589523Y-84526476D01*
X207637142Y-84716952D01*
X207637142Y-84859809D01*
X207589523Y-85050285D01*
X207541904Y-85145523D01*
X207446666Y-85240761D01*
X207303809Y-85288380D01*
X207065714Y-85288380D01*
X208589523Y-85288380D02*
X208018095Y-85288380D01*
X208303809Y-85288380D02*
X208303809Y-84288380D01*
X208208571Y-84431238D01*
X208113333Y-84526476D01*
X208018095Y-84574095D01*
X209541904Y-85288380D02*
X208970476Y-85288380D01*
X209256190Y-85288380D02*
X209256190Y-84288380D01*
X209160952Y-84431238D01*
X209065714Y-84526476D01*
X208970476Y-84574095D01*
X205202095Y-87320380D02*
X205202095Y-86320380D01*
X205773523Y-87320380D02*
X205344952Y-86748952D01*
X205773523Y-86320380D02*
X205202095Y-86891809D01*
X127190666Y-110640761D02*
X127333523Y-110688380D01*
X127571619Y-110688380D01*
X127666857Y-110640761D01*
X127714476Y-110593142D01*
X127762095Y-110497904D01*
X127762095Y-110402666D01*
X127714476Y-110307428D01*
X127666857Y-110259809D01*
X127571619Y-110212190D01*
X127381142Y-110164571D01*
X127285904Y-110116952D01*
X127238285Y-110069333D01*
X127190666Y-109974095D01*
X127190666Y-109878857D01*
X127238285Y-109783619D01*
X127285904Y-109736000D01*
X127381142Y-109688380D01*
X127619238Y-109688380D01*
X127762095Y-109736000D01*
X128095428Y-109688380D02*
X128333523Y-110688380D01*
X128524000Y-109974095D01*
X128714476Y-110688380D01*
X128952571Y-109688380D01*
X129857333Y-110688380D02*
X129285904Y-110688380D01*
X129571619Y-110688380D02*
X129571619Y-109688380D01*
X129476380Y-109831238D01*
X129381142Y-109926476D01*
X129285904Y-109974095D01*
X200969714Y-85288380D02*
X200969714Y-84288380D01*
X201207809Y-84288380D01*
X201350666Y-84336000D01*
X201445904Y-84431238D01*
X201493523Y-84526476D01*
X201541142Y-84716952D01*
X201541142Y-84859809D01*
X201493523Y-85050285D01*
X201445904Y-85145523D01*
X201350666Y-85240761D01*
X201207809Y-85288380D01*
X200969714Y-85288380D01*
X202493523Y-85288380D02*
X201922095Y-85288380D01*
X202207809Y-85288380D02*
X202207809Y-84288380D01*
X202112571Y-84431238D01*
X202017333Y-84526476D01*
X201922095Y-84574095D01*
X202826857Y-84288380D02*
X203445904Y-84288380D01*
X203112571Y-84669333D01*
X203255428Y-84669333D01*
X203350666Y-84716952D01*
X203398285Y-84764571D01*
X203445904Y-84859809D01*
X203445904Y-85097904D01*
X203398285Y-85193142D01*
X203350666Y-85240761D01*
X203255428Y-85288380D01*
X202969714Y-85288380D01*
X202874476Y-85240761D01*
X202826857Y-85193142D01*
X198598095Y-87320380D02*
X198598095Y-86320380D01*
X199169523Y-87320380D02*
X198740952Y-86748952D01*
X199169523Y-86320380D02*
X198598095Y-86891809D01*
X216662095Y-67508380D02*
X216662095Y-66508380D01*
X216662095Y-66984571D02*
X217233523Y-66984571D01*
X217233523Y-67508380D02*
X217233523Y-66508380D01*
X217662095Y-66603619D02*
X217709714Y-66556000D01*
X217804952Y-66508380D01*
X218043047Y-66508380D01*
X218138285Y-66556000D01*
X218185904Y-66603619D01*
X218233523Y-66698857D01*
X218233523Y-66794095D01*
X218185904Y-66936952D01*
X217614476Y-67508380D01*
X218233523Y-67508380D01*
X205859142Y-82763380D02*
X205525809Y-82287190D01*
X205287714Y-82763380D02*
X205287714Y-81763380D01*
X205668666Y-81763380D01*
X205763904Y-81811000D01*
X205811523Y-81858619D01*
X205859142Y-81953857D01*
X205859142Y-82096714D01*
X205811523Y-82191952D01*
X205763904Y-82239571D01*
X205668666Y-82287190D01*
X205287714Y-82287190D01*
X206811523Y-82763380D02*
X206240095Y-82763380D01*
X206525809Y-82763380D02*
X206525809Y-81763380D01*
X206430571Y-81906238D01*
X206335333Y-82001476D01*
X206240095Y-82049095D01*
X207192476Y-81858619D02*
X207240095Y-81811000D01*
X207335333Y-81763380D01*
X207573428Y-81763380D01*
X207668666Y-81811000D01*
X207716285Y-81858619D01*
X207763904Y-81953857D01*
X207763904Y-82049095D01*
X207716285Y-82191952D01*
X207144857Y-82763380D01*
X207763904Y-82763380D01*
X207891142Y-96479380D02*
X207557809Y-96003190D01*
X207319714Y-96479380D02*
X207319714Y-95479380D01*
X207700666Y-95479380D01*
X207795904Y-95527000D01*
X207843523Y-95574619D01*
X207891142Y-95669857D01*
X207891142Y-95812714D01*
X207843523Y-95907952D01*
X207795904Y-95955571D01*
X207700666Y-96003190D01*
X207319714Y-96003190D01*
X208843523Y-96479380D02*
X208272095Y-96479380D01*
X208557809Y-96479380D02*
X208557809Y-95479380D01*
X208462571Y-95622238D01*
X208367333Y-95717476D01*
X208272095Y-95765095D01*
X209795904Y-96479380D02*
X209224476Y-96479380D01*
X209510190Y-96479380D02*
X209510190Y-95479380D01*
X209414952Y-95622238D01*
X209319714Y-95717476D01*
X209224476Y-95765095D01*
D11*
X202504523Y-107115428D02*
X203532619Y-107115428D01*
X203653571Y-107054952D01*
X203714047Y-106994476D01*
X203774523Y-106873523D01*
X203774523Y-106631619D01*
X203714047Y-106510666D01*
X203653571Y-106450190D01*
X203532619Y-106389714D01*
X202504523Y-106389714D01*
X202504523Y-105966380D02*
X202504523Y-105240666D01*
X203774523Y-105603523D02*
X202504523Y-105603523D01*
X202625476Y-104877809D02*
X202565000Y-104817333D01*
X202504523Y-104696380D01*
X202504523Y-104394000D01*
X202565000Y-104273047D01*
X202625476Y-104212571D01*
X202746428Y-104152095D01*
X202867380Y-104152095D01*
X203048809Y-104212571D01*
X203774523Y-104938285D01*
X203774523Y-104152095D01*
D10*
X171981904Y-89860380D02*
X171981904Y-88860380D01*
X172220000Y-88860380D01*
X172362857Y-88908000D01*
X172458095Y-89003238D01*
X172505714Y-89098476D01*
X172553333Y-89288952D01*
X172553333Y-89431809D01*
X172505714Y-89622285D01*
X172458095Y-89717523D01*
X172362857Y-89812761D01*
X172220000Y-89860380D01*
X171981904Y-89860380D01*
X173124761Y-89288952D02*
X173029523Y-89241333D01*
X172981904Y-89193714D01*
X172934285Y-89098476D01*
X172934285Y-89050857D01*
X172981904Y-88955619D01*
X173029523Y-88908000D01*
X173124761Y-88860380D01*
X173315238Y-88860380D01*
X173410476Y-88908000D01*
X173458095Y-88955619D01*
X173505714Y-89050857D01*
X173505714Y-89098476D01*
X173458095Y-89193714D01*
X173410476Y-89241333D01*
X173315238Y-89288952D01*
X173124761Y-89288952D01*
X173029523Y-89336571D01*
X172981904Y-89384190D01*
X172934285Y-89479428D01*
X172934285Y-89669904D01*
X172981904Y-89765142D01*
X173029523Y-89812761D01*
X173124761Y-89860380D01*
X173315238Y-89860380D01*
X173410476Y-89812761D01*
X173458095Y-89765142D01*
X173505714Y-89669904D01*
X173505714Y-89479428D01*
X173458095Y-89384190D01*
X173410476Y-89336571D01*
X173315238Y-89288952D01*
X175401095Y-87574380D02*
X175401095Y-86574380D01*
X175972523Y-87574380D02*
X175543952Y-87002952D01*
X175972523Y-86574380D02*
X175401095Y-87145809D01*
X198683714Y-71278009D02*
X198683714Y-70278009D01*
X198921809Y-70278009D01*
X199064666Y-70325629D01*
X199159904Y-70420867D01*
X199207523Y-70516105D01*
X199255142Y-70706581D01*
X199255142Y-70849438D01*
X199207523Y-71039914D01*
X199159904Y-71135152D01*
X199064666Y-71230390D01*
X198921809Y-71278009D01*
X198683714Y-71278009D01*
X200207523Y-71278009D02*
X199636095Y-71278009D01*
X199921809Y-71278009D02*
X199921809Y-70278009D01*
X199826571Y-70420867D01*
X199731333Y-70516105D01*
X199636095Y-70563724D01*
X201064666Y-70611343D02*
X201064666Y-71278009D01*
X200826571Y-70230390D02*
X200588476Y-70944676D01*
X201207523Y-70944676D01*
X196566095Y-73604380D02*
X196566095Y-72604380D01*
X197137523Y-73604380D02*
X196708952Y-73032952D01*
X197137523Y-72604380D02*
X196566095Y-73175809D01*
X95250095Y-67508380D02*
X95250095Y-66508380D01*
X95250095Y-66984571D02*
X95821523Y-66984571D01*
X95821523Y-67508380D02*
X95821523Y-66508380D01*
X96821523Y-67508380D02*
X96250095Y-67508380D01*
X96535809Y-67508380D02*
X96535809Y-66508380D01*
X96440571Y-66651238D01*
X96345333Y-66746476D01*
X96250095Y-66794095D01*
X207708571Y-89955619D02*
X207613333Y-89908000D01*
X207518095Y-89812761D01*
X207375238Y-89669904D01*
X207280000Y-89622285D01*
X207184761Y-89622285D01*
X207232380Y-89860380D02*
X207137142Y-89812761D01*
X207041904Y-89717523D01*
X206994285Y-89527047D01*
X206994285Y-89193714D01*
X207041904Y-89003238D01*
X207137142Y-88908000D01*
X207232380Y-88860380D01*
X207422857Y-88860380D01*
X207518095Y-88908000D01*
X207613333Y-89003238D01*
X207660952Y-89193714D01*
X207660952Y-89527047D01*
X207613333Y-89717523D01*
X207518095Y-89812761D01*
X207422857Y-89860380D01*
X207232380Y-89860380D01*
X208613333Y-89860380D02*
X208041904Y-89860380D01*
X208327619Y-89860380D02*
X208327619Y-88860380D01*
X208232380Y-89003238D01*
X208137142Y-89098476D01*
X208041904Y-89146095D01*
X209565714Y-89860380D02*
X208994285Y-89860380D01*
X209280000Y-89860380D02*
X209280000Y-88860380D01*
X209184761Y-89003238D01*
X209089523Y-89098476D01*
X208994285Y-89146095D01*
X169068761Y-85891619D02*
X168973523Y-85844000D01*
X168878285Y-85748761D01*
X168735428Y-85605904D01*
X168640190Y-85558285D01*
X168544952Y-85558285D01*
X168592571Y-85796380D02*
X168497333Y-85748761D01*
X168402095Y-85653523D01*
X168354476Y-85463047D01*
X168354476Y-85129714D01*
X168402095Y-84939238D01*
X168497333Y-84844000D01*
X168592571Y-84796380D01*
X168783047Y-84796380D01*
X168878285Y-84844000D01*
X168973523Y-84939238D01*
X169021142Y-85129714D01*
X169021142Y-85463047D01*
X168973523Y-85653523D01*
X168878285Y-85748761D01*
X168783047Y-85796380D01*
X168592571Y-85796380D01*
X169592571Y-85224952D02*
X169497333Y-85177333D01*
X169449714Y-85129714D01*
X169402095Y-85034476D01*
X169402095Y-84986857D01*
X169449714Y-84891619D01*
X169497333Y-84844000D01*
X169592571Y-84796380D01*
X169783047Y-84796380D01*
X169878285Y-84844000D01*
X169925904Y-84891619D01*
X169973523Y-84986857D01*
X169973523Y-85034476D01*
X169925904Y-85129714D01*
X169878285Y-85177333D01*
X169783047Y-85224952D01*
X169592571Y-85224952D01*
X169497333Y-85272571D01*
X169449714Y-85320190D01*
X169402095Y-85415428D01*
X169402095Y-85605904D01*
X169449714Y-85701142D01*
X169497333Y-85748761D01*
X169592571Y-85796380D01*
X169783047Y-85796380D01*
X169878285Y-85748761D01*
X169925904Y-85701142D01*
X169973523Y-85605904D01*
X169973523Y-85415428D01*
X169925904Y-85320190D01*
X169878285Y-85272571D01*
X169783047Y-85224952D01*
X194500571Y-89955619D02*
X194405333Y-89908000D01*
X194310095Y-89812761D01*
X194167238Y-89669904D01*
X194072000Y-89622285D01*
X193976761Y-89622285D01*
X194024380Y-89860380D02*
X193929142Y-89812761D01*
X193833904Y-89717523D01*
X193786285Y-89527047D01*
X193786285Y-89193714D01*
X193833904Y-89003238D01*
X193929142Y-88908000D01*
X194024380Y-88860380D01*
X194214857Y-88860380D01*
X194310095Y-88908000D01*
X194405333Y-89003238D01*
X194452952Y-89193714D01*
X194452952Y-89527047D01*
X194405333Y-89717523D01*
X194310095Y-89812761D01*
X194214857Y-89860380D01*
X194024380Y-89860380D01*
X195405333Y-89860380D02*
X194833904Y-89860380D01*
X195119619Y-89860380D02*
X195119619Y-88860380D01*
X195024380Y-89003238D01*
X194929142Y-89098476D01*
X194833904Y-89146095D01*
X196310095Y-88860380D02*
X195833904Y-88860380D01*
X195786285Y-89336571D01*
X195833904Y-89288952D01*
X195929142Y-89241333D01*
X196167238Y-89241333D01*
X196262476Y-89288952D01*
X196310095Y-89336571D01*
X196357714Y-89431809D01*
X196357714Y-89669904D01*
X196310095Y-89765142D01*
X196262476Y-89812761D01*
X196167238Y-89860380D01*
X195929142Y-89860380D01*
X195833904Y-89812761D01*
X195786285Y-89765142D01*
X167854333Y-91877380D02*
X167521000Y-91401190D01*
X167282904Y-91877380D02*
X167282904Y-90877380D01*
X167663857Y-90877380D01*
X167759095Y-90925000D01*
X167806714Y-90972619D01*
X167854333Y-91067857D01*
X167854333Y-91210714D01*
X167806714Y-91305952D01*
X167759095Y-91353571D01*
X167663857Y-91401190D01*
X167282904Y-91401190D01*
X168187666Y-90877380D02*
X168854333Y-90877380D01*
X168425761Y-91877380D01*
X151288761Y-99099619D02*
X151193523Y-99052000D01*
X151098285Y-98956761D01*
X150955428Y-98813904D01*
X150860190Y-98766285D01*
X150764952Y-98766285D01*
X150812571Y-99004380D02*
X150717333Y-98956761D01*
X150622095Y-98861523D01*
X150574476Y-98671047D01*
X150574476Y-98337714D01*
X150622095Y-98147238D01*
X150717333Y-98052000D01*
X150812571Y-98004380D01*
X151003047Y-98004380D01*
X151098285Y-98052000D01*
X151193523Y-98147238D01*
X151241142Y-98337714D01*
X151241142Y-98671047D01*
X151193523Y-98861523D01*
X151098285Y-98956761D01*
X151003047Y-99004380D01*
X150812571Y-99004380D01*
X152193523Y-99004380D02*
X151622095Y-99004380D01*
X151907809Y-99004380D02*
X151907809Y-98004380D01*
X151812571Y-98147238D01*
X151717333Y-98242476D01*
X151622095Y-98290095D01*
D11*
X181277380Y-92776523D02*
X181277380Y-93804619D01*
X181337857Y-93925571D01*
X181398333Y-93986047D01*
X181519285Y-94046523D01*
X181761190Y-94046523D01*
X181882142Y-93986047D01*
X181942619Y-93925571D01*
X182003095Y-93804619D01*
X182003095Y-92776523D01*
X183333571Y-94046523D02*
X182910238Y-93441761D01*
X182607857Y-94046523D02*
X182607857Y-92776523D01*
X183091666Y-92776523D01*
X183212619Y-92837000D01*
X183273095Y-92897476D01*
X183333571Y-93018428D01*
X183333571Y-93199857D01*
X183273095Y-93320809D01*
X183212619Y-93381285D01*
X183091666Y-93441761D01*
X182607857Y-93441761D01*
X183817380Y-92897476D02*
X183877857Y-92837000D01*
X183998809Y-92776523D01*
X184301190Y-92776523D01*
X184422142Y-92837000D01*
X184482619Y-92897476D01*
X184543095Y-93018428D01*
X184543095Y-93139380D01*
X184482619Y-93320809D01*
X183756904Y-94046523D01*
X184543095Y-94046523D01*
D10*
X212280571Y-76239619D02*
X212185333Y-76192000D01*
X212090095Y-76096761D01*
X211947238Y-75953904D01*
X211852000Y-75906285D01*
X211756761Y-75906285D01*
X211804380Y-76144380D02*
X211709142Y-76096761D01*
X211613904Y-76001523D01*
X211566285Y-75811047D01*
X211566285Y-75477714D01*
X211613904Y-75287238D01*
X211709142Y-75192000D01*
X211804380Y-75144380D01*
X211994857Y-75144380D01*
X212090095Y-75192000D01*
X212185333Y-75287238D01*
X212232952Y-75477714D01*
X212232952Y-75811047D01*
X212185333Y-76001523D01*
X212090095Y-76096761D01*
X211994857Y-76144380D01*
X211804380Y-76144380D01*
X213185333Y-76144380D02*
X212613904Y-76144380D01*
X212899619Y-76144380D02*
X212899619Y-75144380D01*
X212804380Y-75287238D01*
X212709142Y-75382476D01*
X212613904Y-75430095D01*
X213804380Y-75144380D02*
X213899619Y-75144380D01*
X213994857Y-75192000D01*
X214042476Y-75239619D01*
X214090095Y-75334857D01*
X214137714Y-75525333D01*
X214137714Y-75763428D01*
X214090095Y-75953904D01*
X214042476Y-76049142D01*
X213994857Y-76096761D01*
X213899619Y-76144380D01*
X213804380Y-76144380D01*
X213709142Y-76096761D01*
X213661523Y-76049142D01*
X213613904Y-75953904D01*
X213566285Y-75763428D01*
X213566285Y-75525333D01*
X213613904Y-75334857D01*
X213661523Y-75239619D01*
X213709142Y-75192000D01*
X213804380Y-75144380D01*
X162464761Y-85891619D02*
X162369523Y-85844000D01*
X162274285Y-85748761D01*
X162131428Y-85605904D01*
X162036190Y-85558285D01*
X161940952Y-85558285D01*
X161988571Y-85796380D02*
X161893333Y-85748761D01*
X161798095Y-85653523D01*
X161750476Y-85463047D01*
X161750476Y-85129714D01*
X161798095Y-84939238D01*
X161893333Y-84844000D01*
X161988571Y-84796380D01*
X162179047Y-84796380D01*
X162274285Y-84844000D01*
X162369523Y-84939238D01*
X162417142Y-85129714D01*
X162417142Y-85463047D01*
X162369523Y-85653523D01*
X162274285Y-85748761D01*
X162179047Y-85796380D01*
X161988571Y-85796380D01*
X163274285Y-84796380D02*
X163083809Y-84796380D01*
X162988571Y-84844000D01*
X162940952Y-84891619D01*
X162845714Y-85034476D01*
X162798095Y-85224952D01*
X162798095Y-85605904D01*
X162845714Y-85701142D01*
X162893333Y-85748761D01*
X162988571Y-85796380D01*
X163179047Y-85796380D01*
X163274285Y-85748761D01*
X163321904Y-85701142D01*
X163369523Y-85605904D01*
X163369523Y-85367809D01*
X163321904Y-85272571D01*
X163274285Y-85224952D01*
X163179047Y-85177333D01*
X162988571Y-85177333D01*
X162893333Y-85224952D01*
X162845714Y-85272571D01*
X162798095Y-85367809D01*
X159014333Y-78415380D02*
X158681000Y-77939190D01*
X158442904Y-78415380D02*
X158442904Y-77415380D01*
X158823857Y-77415380D01*
X158919095Y-77463000D01*
X158966714Y-77510619D01*
X159014333Y-77605857D01*
X159014333Y-77748714D01*
X158966714Y-77843952D01*
X158919095Y-77891571D01*
X158823857Y-77939190D01*
X158442904Y-77939190D01*
X159871476Y-77748714D02*
X159871476Y-78415380D01*
X159633380Y-77367761D02*
X159395285Y-78082047D01*
X160014333Y-78082047D01*
X164496761Y-99099619D02*
X164401523Y-99052000D01*
X164306285Y-98956761D01*
X164163428Y-98813904D01*
X164068190Y-98766285D01*
X163972952Y-98766285D01*
X164020571Y-99004380D02*
X163925333Y-98956761D01*
X163830095Y-98861523D01*
X163782476Y-98671047D01*
X163782476Y-98337714D01*
X163830095Y-98147238D01*
X163925333Y-98052000D01*
X164020571Y-98004380D01*
X164211047Y-98004380D01*
X164306285Y-98052000D01*
X164401523Y-98147238D01*
X164449142Y-98337714D01*
X164449142Y-98671047D01*
X164401523Y-98861523D01*
X164306285Y-98956761D01*
X164211047Y-99004380D01*
X164020571Y-99004380D01*
X165353904Y-98004380D02*
X164877714Y-98004380D01*
X164830095Y-98480571D01*
X164877714Y-98432952D01*
X164972952Y-98385333D01*
X165211047Y-98385333D01*
X165306285Y-98432952D01*
X165353904Y-98480571D01*
X165401523Y-98575809D01*
X165401523Y-98813904D01*
X165353904Y-98909142D01*
X165306285Y-98956761D01*
X165211047Y-99004380D01*
X164972952Y-99004380D01*
X164877714Y-98956761D01*
X164830095Y-98909142D01*
X201104571Y-89955619D02*
X201009333Y-89908000D01*
X200914095Y-89812761D01*
X200771238Y-89669904D01*
X200676000Y-89622285D01*
X200580761Y-89622285D01*
X200628380Y-89860380D02*
X200533142Y-89812761D01*
X200437904Y-89717523D01*
X200390285Y-89527047D01*
X200390285Y-89193714D01*
X200437904Y-89003238D01*
X200533142Y-88908000D01*
X200628380Y-88860380D01*
X200818857Y-88860380D01*
X200914095Y-88908000D01*
X201009333Y-89003238D01*
X201056952Y-89193714D01*
X201056952Y-89527047D01*
X201009333Y-89717523D01*
X200914095Y-89812761D01*
X200818857Y-89860380D01*
X200628380Y-89860380D01*
X202009333Y-89860380D02*
X201437904Y-89860380D01*
X201723619Y-89860380D02*
X201723619Y-88860380D01*
X201628380Y-89003238D01*
X201533142Y-89098476D01*
X201437904Y-89146095D01*
X202342666Y-88860380D02*
X202961714Y-88860380D01*
X202628380Y-89241333D01*
X202771238Y-89241333D01*
X202866476Y-89288952D01*
X202914095Y-89336571D01*
X202961714Y-89431809D01*
X202961714Y-89669904D01*
X202914095Y-89765142D01*
X202866476Y-89812761D01*
X202771238Y-89860380D01*
X202485523Y-89860380D01*
X202390285Y-89812761D01*
X202342666Y-89765142D01*
X201287142Y-96479380D02*
X200953809Y-96003190D01*
X200715714Y-96479380D02*
X200715714Y-95479380D01*
X201096666Y-95479380D01*
X201191904Y-95527000D01*
X201239523Y-95574619D01*
X201287142Y-95669857D01*
X201287142Y-95812714D01*
X201239523Y-95907952D01*
X201191904Y-95955571D01*
X201096666Y-96003190D01*
X200715714Y-96003190D01*
X202239523Y-96479380D02*
X201668095Y-96479380D01*
X201953809Y-96479380D02*
X201953809Y-95479380D01*
X201858571Y-95622238D01*
X201763333Y-95717476D01*
X201668095Y-95765095D01*
X202572857Y-95479380D02*
X203191904Y-95479380D01*
X202858571Y-95860333D01*
X203001428Y-95860333D01*
X203096666Y-95907952D01*
X203144285Y-95955571D01*
X203191904Y-96050809D01*
X203191904Y-96288904D01*
X203144285Y-96384142D01*
X203096666Y-96431761D01*
X203001428Y-96479380D01*
X202715714Y-96479380D01*
X202620476Y-96431761D01*
X202572857Y-96384142D01*
X138874666Y-110640761D02*
X139017523Y-110688380D01*
X139255619Y-110688380D01*
X139350857Y-110640761D01*
X139398476Y-110593142D01*
X139446095Y-110497904D01*
X139446095Y-110402666D01*
X139398476Y-110307428D01*
X139350857Y-110259809D01*
X139255619Y-110212190D01*
X139065142Y-110164571D01*
X138969904Y-110116952D01*
X138922285Y-110069333D01*
X138874666Y-109974095D01*
X138874666Y-109878857D01*
X138922285Y-109783619D01*
X138969904Y-109736000D01*
X139065142Y-109688380D01*
X139303238Y-109688380D01*
X139446095Y-109736000D01*
X139779428Y-109688380D02*
X140017523Y-110688380D01*
X140208000Y-109974095D01*
X140398476Y-110688380D01*
X140636571Y-109688380D01*
X140969904Y-109783619D02*
X141017523Y-109736000D01*
X141112761Y-109688380D01*
X141350857Y-109688380D01*
X141446095Y-109736000D01*
X141493714Y-109783619D01*
X141541333Y-109878857D01*
X141541333Y-109974095D01*
X141493714Y-110116952D01*
X140922285Y-110688380D01*
X141541333Y-110688380D01*
X214145904Y-85288380D02*
X214145904Y-84288380D01*
X214384000Y-84288380D01*
X214526857Y-84336000D01*
X214622095Y-84431238D01*
X214669714Y-84526476D01*
X214717333Y-84716952D01*
X214717333Y-84859809D01*
X214669714Y-85050285D01*
X214622095Y-85145523D01*
X214526857Y-85240761D01*
X214384000Y-85288380D01*
X214145904Y-85288380D01*
X215193523Y-85288380D02*
X215384000Y-85288380D01*
X215479238Y-85240761D01*
X215526857Y-85193142D01*
X215622095Y-85050285D01*
X215669714Y-84859809D01*
X215669714Y-84478857D01*
X215622095Y-84383619D01*
X215574476Y-84336000D01*
X215479238Y-84288380D01*
X215288761Y-84288380D01*
X215193523Y-84336000D01*
X215145904Y-84383619D01*
X215098285Y-84478857D01*
X215098285Y-84716952D01*
X215145904Y-84812190D01*
X215193523Y-84859809D01*
X215288761Y-84907428D01*
X215479238Y-84907428D01*
X215574476Y-84859809D01*
X215622095Y-84812190D01*
X215669714Y-84716952D01*
X211806095Y-87320380D02*
X211806095Y-86320380D01*
X212377523Y-87320380D02*
X211948952Y-86748952D01*
X212377523Y-86320380D02*
X211806095Y-86891809D01*
X155860761Y-85891619D02*
X155765523Y-85844000D01*
X155670285Y-85748761D01*
X155527428Y-85605904D01*
X155432190Y-85558285D01*
X155336952Y-85558285D01*
X155384571Y-85796380D02*
X155289333Y-85748761D01*
X155194095Y-85653523D01*
X155146476Y-85463047D01*
X155146476Y-85129714D01*
X155194095Y-84939238D01*
X155289333Y-84844000D01*
X155384571Y-84796380D01*
X155575047Y-84796380D01*
X155670285Y-84844000D01*
X155765523Y-84939238D01*
X155813142Y-85129714D01*
X155813142Y-85463047D01*
X155765523Y-85653523D01*
X155670285Y-85748761D01*
X155575047Y-85796380D01*
X155384571Y-85796380D01*
X156670285Y-85129714D02*
X156670285Y-85796380D01*
X156432190Y-84748761D02*
X156194095Y-85463047D01*
X156813142Y-85463047D01*
X149256761Y-85891619D02*
X149161523Y-85844000D01*
X149066285Y-85748761D01*
X148923428Y-85605904D01*
X148828190Y-85558285D01*
X148732952Y-85558285D01*
X148780571Y-85796380D02*
X148685333Y-85748761D01*
X148590095Y-85653523D01*
X148542476Y-85463047D01*
X148542476Y-85129714D01*
X148590095Y-84939238D01*
X148685333Y-84844000D01*
X148780571Y-84796380D01*
X148971047Y-84796380D01*
X149066285Y-84844000D01*
X149161523Y-84939238D01*
X149209142Y-85129714D01*
X149209142Y-85463047D01*
X149161523Y-85653523D01*
X149066285Y-85748761D01*
X148971047Y-85796380D01*
X148780571Y-85796380D01*
X149590095Y-84891619D02*
X149637714Y-84844000D01*
X149732952Y-84796380D01*
X149971047Y-84796380D01*
X150066285Y-84844000D01*
X150113904Y-84891619D01*
X150161523Y-84986857D01*
X150161523Y-85082095D01*
X150113904Y-85224952D01*
X149542476Y-85796380D01*
X150161523Y-85796380D01*
X205676571Y-76239619D02*
X205581333Y-76192000D01*
X205486095Y-76096761D01*
X205343238Y-75953904D01*
X205248000Y-75906285D01*
X205152761Y-75906285D01*
X205200380Y-76144380D02*
X205105142Y-76096761D01*
X205009904Y-76001523D01*
X204962285Y-75811047D01*
X204962285Y-75477714D01*
X205009904Y-75287238D01*
X205105142Y-75192000D01*
X205200380Y-75144380D01*
X205390857Y-75144380D01*
X205486095Y-75192000D01*
X205581333Y-75287238D01*
X205628952Y-75477714D01*
X205628952Y-75811047D01*
X205581333Y-76001523D01*
X205486095Y-76096761D01*
X205390857Y-76144380D01*
X205200380Y-76144380D01*
X206581333Y-76144380D02*
X206009904Y-76144380D01*
X206295619Y-76144380D02*
X206295619Y-75144380D01*
X206200380Y-75287238D01*
X206105142Y-75382476D01*
X206009904Y-75430095D01*
X206962285Y-75239619D02*
X207009904Y-75192000D01*
X207105142Y-75144380D01*
X207343238Y-75144380D01*
X207438476Y-75192000D01*
X207486095Y-75239619D01*
X207533714Y-75334857D01*
X207533714Y-75430095D01*
X207486095Y-75572952D01*
X206914666Y-76144380D01*
X207533714Y-76144380D01*
X212463142Y-82763380D02*
X212129809Y-82287190D01*
X211891714Y-82763380D02*
X211891714Y-81763380D01*
X212272666Y-81763380D01*
X212367904Y-81811000D01*
X212415523Y-81858619D01*
X212463142Y-81953857D01*
X212463142Y-82096714D01*
X212415523Y-82191952D01*
X212367904Y-82239571D01*
X212272666Y-82287190D01*
X211891714Y-82287190D01*
X213415523Y-82763380D02*
X212844095Y-82763380D01*
X213129809Y-82763380D02*
X213129809Y-81763380D01*
X213034571Y-81906238D01*
X212939333Y-82001476D01*
X212844095Y-82049095D01*
X214034571Y-81763380D02*
X214129809Y-81763380D01*
X214225047Y-81811000D01*
X214272666Y-81858619D01*
X214320285Y-81953857D01*
X214367904Y-82144333D01*
X214367904Y-82382428D01*
X214320285Y-82572904D01*
X214272666Y-82668142D01*
X214225047Y-82715761D01*
X214129809Y-82763380D01*
X214034571Y-82763380D01*
X213939333Y-82715761D01*
X213891714Y-82668142D01*
X213844095Y-82572904D01*
X213796476Y-82382428D01*
X213796476Y-82144333D01*
X213844095Y-81953857D01*
X213891714Y-81858619D01*
X213939333Y-81811000D01*
X214034571Y-81763380D01*
X94384761Y-96829333D02*
X94432380Y-96686476D01*
X94432380Y-96448380D01*
X94384761Y-96353142D01*
X94337142Y-96305523D01*
X94241904Y-96257904D01*
X94146666Y-96257904D01*
X94051428Y-96305523D01*
X94003809Y-96353142D01*
X93956190Y-96448380D01*
X93908571Y-96638857D01*
X93860952Y-96734095D01*
X93813333Y-96781714D01*
X93718095Y-96829333D01*
X93622857Y-96829333D01*
X93527619Y-96781714D01*
X93480000Y-96734095D01*
X93432380Y-96638857D01*
X93432380Y-96400761D01*
X93480000Y-96257904D01*
X93432380Y-95924571D02*
X94432380Y-95686476D01*
X93718095Y-95496000D01*
X94432380Y-95305523D01*
X93432380Y-95067428D01*
X94432380Y-94115047D02*
X93956190Y-94448380D01*
X94432380Y-94686476D02*
X93432380Y-94686476D01*
X93432380Y-94305523D01*
X93480000Y-94210285D01*
X93527619Y-94162666D01*
X93622857Y-94115047D01*
X93765714Y-94115047D01*
X93860952Y-94162666D01*
X93908571Y-94210285D01*
X93956190Y-94305523D01*
X93956190Y-94686476D01*
X94432380Y-93162666D02*
X94432380Y-93734095D01*
X94432380Y-93448380D02*
X93432380Y-93448380D01*
X93575238Y-93543619D01*
X93670476Y-93638857D01*
X93718095Y-93734095D01*
X171100761Y-99099619D02*
X171005523Y-99052000D01*
X170910285Y-98956761D01*
X170767428Y-98813904D01*
X170672190Y-98766285D01*
X170576952Y-98766285D01*
X170624571Y-99004380D02*
X170529333Y-98956761D01*
X170434095Y-98861523D01*
X170386476Y-98671047D01*
X170386476Y-98337714D01*
X170434095Y-98147238D01*
X170529333Y-98052000D01*
X170624571Y-98004380D01*
X170815047Y-98004380D01*
X170910285Y-98052000D01*
X171005523Y-98147238D01*
X171053142Y-98337714D01*
X171053142Y-98671047D01*
X171005523Y-98861523D01*
X170910285Y-98956761D01*
X170815047Y-99004380D01*
X170624571Y-99004380D01*
X171386476Y-98004380D02*
X172053142Y-98004380D01*
X171624571Y-99004380D01*
D11*
X157800523Y-69015428D02*
X158828619Y-69015428D01*
X158949571Y-68954952D01*
X159010047Y-68894476D01*
X159070523Y-68773523D01*
X159070523Y-68531619D01*
X159010047Y-68410666D01*
X158949571Y-68350190D01*
X158828619Y-68289714D01*
X157800523Y-68289714D01*
X157800523Y-67866380D02*
X157800523Y-67140666D01*
X159070523Y-67503523D02*
X157800523Y-67503523D01*
X159070523Y-66052095D02*
X159070523Y-66777809D01*
X159070523Y-66414952D02*
X157800523Y-66414952D01*
X157981952Y-66535904D01*
X158102904Y-66656857D01*
X158163380Y-66777809D01*
D10*
X147470904Y-103362751D02*
X147470904Y-102362751D01*
X147709000Y-102362751D01*
X147851857Y-102410371D01*
X147947095Y-102505609D01*
X147994714Y-102600847D01*
X148042333Y-102791323D01*
X148042333Y-102934180D01*
X147994714Y-103124656D01*
X147947095Y-103219894D01*
X147851857Y-103315132D01*
X147709000Y-103362751D01*
X147470904Y-103362751D01*
X148994714Y-103362751D02*
X148423285Y-103362751D01*
X148709000Y-103362751D02*
X148709000Y-102362751D01*
X148613761Y-102505609D01*
X148518523Y-102600847D01*
X148423285Y-102648466D01*
X151017095Y-101036380D02*
X151017095Y-100036380D01*
X151588523Y-101036380D02*
X151159952Y-100464952D01*
X151588523Y-100036380D02*
X151017095Y-100607809D01*
X199072571Y-76239619D02*
X198977333Y-76192000D01*
X198882095Y-76096761D01*
X198739238Y-75953904D01*
X198644000Y-75906285D01*
X198548761Y-75906285D01*
X198596380Y-76144380D02*
X198501142Y-76096761D01*
X198405904Y-76001523D01*
X198358285Y-75811047D01*
X198358285Y-75477714D01*
X198405904Y-75287238D01*
X198501142Y-75192000D01*
X198596380Y-75144380D01*
X198786857Y-75144380D01*
X198882095Y-75192000D01*
X198977333Y-75287238D01*
X199024952Y-75477714D01*
X199024952Y-75811047D01*
X198977333Y-76001523D01*
X198882095Y-76096761D01*
X198786857Y-76144380D01*
X198596380Y-76144380D01*
X199977333Y-76144380D02*
X199405904Y-76144380D01*
X199691619Y-76144380D02*
X199691619Y-75144380D01*
X199596380Y-75287238D01*
X199501142Y-75382476D01*
X199405904Y-75430095D01*
X200834476Y-75477714D02*
X200834476Y-76144380D01*
X200596380Y-75096761D02*
X200358285Y-75811047D01*
X200977333Y-75811047D01*
X95232380Y-73985333D02*
X95946666Y-73985333D01*
X96089523Y-74032952D01*
X96184761Y-74128190D01*
X96232380Y-74271047D01*
X96232380Y-74366285D01*
X96232380Y-73509142D02*
X95232380Y-73509142D01*
X95232380Y-73128190D01*
X95280000Y-73032952D01*
X95327619Y-72985333D01*
X95422857Y-72937714D01*
X95565714Y-72937714D01*
X95660952Y-72985333D01*
X95708571Y-73032952D01*
X95756190Y-73128190D01*
X95756190Y-73509142D01*
X96232380Y-71985333D02*
X96232380Y-72556761D01*
X96232380Y-72271047D02*
X95232380Y-72271047D01*
X95375238Y-72366285D01*
X95470476Y-72461523D01*
X95518095Y-72556761D01*
X94432380Y-70266285D02*
X94432380Y-70837714D01*
X94432380Y-70552000D02*
X93432380Y-70552000D01*
X93575238Y-70647238D01*
X93670476Y-70742476D01*
X93718095Y-70837714D01*
X93432380Y-76085333D02*
X93432380Y-75466285D01*
X93813333Y-75799619D01*
X93813333Y-75656761D01*
X93860952Y-75561523D01*
X93908571Y-75513904D01*
X94003809Y-75466285D01*
X94241904Y-75466285D01*
X94337142Y-75513904D01*
X94384761Y-75561523D01*
X94432380Y-75656761D01*
X94432380Y-75942476D01*
X94384761Y-76037714D01*
X94337142Y-76085333D01*
X192079714Y-71278009D02*
X192079714Y-70278009D01*
X192317809Y-70278009D01*
X192460666Y-70325629D01*
X192555904Y-70420867D01*
X192603523Y-70516105D01*
X192651142Y-70706581D01*
X192651142Y-70849438D01*
X192603523Y-71039914D01*
X192555904Y-71135152D01*
X192460666Y-71230390D01*
X192317809Y-71278009D01*
X192079714Y-71278009D01*
X193603523Y-71278009D02*
X193032095Y-71278009D01*
X193317809Y-71278009D02*
X193317809Y-70278009D01*
X193222571Y-70420867D01*
X193127333Y-70516105D01*
X193032095Y-70563724D01*
X194460666Y-70278009D02*
X194270190Y-70278009D01*
X194174952Y-70325629D01*
X194127333Y-70373248D01*
X194032095Y-70516105D01*
X193984476Y-70706581D01*
X193984476Y-71087533D01*
X194032095Y-71182771D01*
X194079714Y-71230390D01*
X194174952Y-71278009D01*
X194365428Y-71278009D01*
X194460666Y-71230390D01*
X194508285Y-71182771D01*
X194555904Y-71087533D01*
X194555904Y-70849438D01*
X194508285Y-70754200D01*
X194460666Y-70706581D01*
X194365428Y-70658962D01*
X194174952Y-70658962D01*
X194079714Y-70706581D01*
X194032095Y-70754200D01*
X193984476Y-70849438D01*
X189962095Y-73604380D02*
X189962095Y-72604380D01*
X190533523Y-73604380D02*
X190104952Y-73032952D01*
X190533523Y-72604380D02*
X189962095Y-73175809D01*
X161250333Y-91877380D02*
X160917000Y-91401190D01*
X160678904Y-91877380D02*
X160678904Y-90877380D01*
X161059857Y-90877380D01*
X161155095Y-90925000D01*
X161202714Y-90972619D01*
X161250333Y-91067857D01*
X161250333Y-91210714D01*
X161202714Y-91305952D01*
X161155095Y-91353571D01*
X161059857Y-91401190D01*
X160678904Y-91401190D01*
X162155095Y-90877380D02*
X161678904Y-90877380D01*
X161631285Y-91353571D01*
X161678904Y-91305952D01*
X161774142Y-91258333D01*
X162012238Y-91258333D01*
X162107476Y-91305952D01*
X162155095Y-91353571D01*
X162202714Y-91448809D01*
X162202714Y-91686904D01*
X162155095Y-91782142D01*
X162107476Y-91829761D01*
X162012238Y-91877380D01*
X161774142Y-91877380D01*
X161678904Y-91829761D01*
X161631285Y-91782142D01*
X154646333Y-91877380D02*
X154313000Y-91401190D01*
X154074904Y-91877380D02*
X154074904Y-90877380D01*
X154455857Y-90877380D01*
X154551095Y-90925000D01*
X154598714Y-90972619D01*
X154646333Y-91067857D01*
X154646333Y-91210714D01*
X154598714Y-91305952D01*
X154551095Y-91353571D01*
X154455857Y-91401190D01*
X154074904Y-91401190D01*
X154979666Y-90877380D02*
X155598714Y-90877380D01*
X155265380Y-91258333D01*
X155408238Y-91258333D01*
X155503476Y-91305952D01*
X155551095Y-91353571D01*
X155598714Y-91448809D01*
X155598714Y-91686904D01*
X155551095Y-91782142D01*
X155503476Y-91829761D01*
X155408238Y-91877380D01*
X155122523Y-91877380D01*
X155027285Y-91829761D01*
X154979666Y-91782142D01*
X172426333Y-78415380D02*
X172093000Y-77939190D01*
X171854904Y-78415380D02*
X171854904Y-77415380D01*
X172235857Y-77415380D01*
X172331095Y-77463000D01*
X172378714Y-77510619D01*
X172426333Y-77605857D01*
X172426333Y-77748714D01*
X172378714Y-77843952D01*
X172331095Y-77891571D01*
X172235857Y-77939190D01*
X171854904Y-77939190D01*
X172997761Y-77843952D02*
X172902523Y-77796333D01*
X172854904Y-77748714D01*
X172807285Y-77653476D01*
X172807285Y-77605857D01*
X172854904Y-77510619D01*
X172902523Y-77463000D01*
X172997761Y-77415380D01*
X173188238Y-77415380D01*
X173283476Y-77463000D01*
X173331095Y-77510619D01*
X173378714Y-77605857D01*
X173378714Y-77653476D01*
X173331095Y-77748714D01*
X173283476Y-77796333D01*
X173188238Y-77843952D01*
X172997761Y-77843952D01*
X172902523Y-77891571D01*
X172854904Y-77939190D01*
X172807285Y-78034428D01*
X172807285Y-78224904D01*
X172854904Y-78320142D01*
X172902523Y-78367761D01*
X172997761Y-78415380D01*
X173188238Y-78415380D01*
X173283476Y-78367761D01*
X173331095Y-78320142D01*
X173378714Y-78224904D01*
X173378714Y-78034428D01*
X173331095Y-77939190D01*
X173283476Y-77891571D01*
X173188238Y-77843952D01*
X165822333Y-78415380D02*
X165489000Y-77939190D01*
X165250904Y-78415380D02*
X165250904Y-77415380D01*
X165631857Y-77415380D01*
X165727095Y-77463000D01*
X165774714Y-77510619D01*
X165822333Y-77605857D01*
X165822333Y-77748714D01*
X165774714Y-77843952D01*
X165727095Y-77891571D01*
X165631857Y-77939190D01*
X165250904Y-77939190D01*
X166679476Y-77415380D02*
X166489000Y-77415380D01*
X166393761Y-77463000D01*
X166346142Y-77510619D01*
X166250904Y-77653476D01*
X166203285Y-77843952D01*
X166203285Y-78224904D01*
X166250904Y-78320142D01*
X166298523Y-78367761D01*
X166393761Y-78415380D01*
X166584238Y-78415380D01*
X166679476Y-78367761D01*
X166727095Y-78320142D01*
X166774714Y-78224904D01*
X166774714Y-77986809D01*
X166727095Y-77891571D01*
X166679476Y-77843952D01*
X166584238Y-77796333D01*
X166393761Y-77796333D01*
X166298523Y-77843952D01*
X166250904Y-77891571D01*
X166203285Y-77986809D01*
X132889714Y-104306666D02*
X133365904Y-104306666D01*
X132794476Y-104592380D02*
X133127809Y-103592380D01*
X133461142Y-104592380D01*
X134318285Y-104592380D02*
X133746857Y-104592380D01*
X134032571Y-104592380D02*
X134032571Y-103592380D01*
X133937333Y-103735238D01*
X133842095Y-103830476D01*
X133746857Y-103878095D01*
X192651142Y-82763380D02*
X192317809Y-82287190D01*
X192079714Y-82763380D02*
X192079714Y-81763380D01*
X192460666Y-81763380D01*
X192555904Y-81811000D01*
X192603523Y-81858619D01*
X192651142Y-81953857D01*
X192651142Y-82096714D01*
X192603523Y-82191952D01*
X192555904Y-82239571D01*
X192460666Y-82287190D01*
X192079714Y-82287190D01*
X193603523Y-82763380D02*
X193032095Y-82763380D01*
X193317809Y-82763380D02*
X193317809Y-81763380D01*
X193222571Y-81906238D01*
X193127333Y-82001476D01*
X193032095Y-82049095D01*
X194460666Y-81763380D02*
X194270190Y-81763380D01*
X194174952Y-81811000D01*
X194127333Y-81858619D01*
X194032095Y-82001476D01*
X193984476Y-82191952D01*
X193984476Y-82572904D01*
X194032095Y-82668142D01*
X194079714Y-82715761D01*
X194174952Y-82763380D01*
X194365428Y-82763380D01*
X194460666Y-82715761D01*
X194508285Y-82668142D01*
X194555904Y-82572904D01*
X194555904Y-82334809D01*
X194508285Y-82239571D01*
X194460666Y-82191952D01*
X194365428Y-82144333D01*
X194174952Y-82144333D01*
X194079714Y-82191952D01*
X194032095Y-82239571D01*
X193984476Y-82334809D01*
X152169904Y-89860380D02*
X152169904Y-88860380D01*
X152408000Y-88860380D01*
X152550857Y-88908000D01*
X152646095Y-89003238D01*
X152693714Y-89098476D01*
X152741333Y-89288952D01*
X152741333Y-89431809D01*
X152693714Y-89622285D01*
X152646095Y-89717523D01*
X152550857Y-89812761D01*
X152408000Y-89860380D01*
X152169904Y-89860380D01*
X153122285Y-88955619D02*
X153169904Y-88908000D01*
X153265142Y-88860380D01*
X153503238Y-88860380D01*
X153598476Y-88908000D01*
X153646095Y-88955619D01*
X153693714Y-89050857D01*
X153693714Y-89146095D01*
X153646095Y-89288952D01*
X153074666Y-89860380D01*
X153693714Y-89860380D01*
X155589095Y-87574380D02*
X155589095Y-86574380D01*
X156160523Y-87574380D02*
X155731952Y-87002952D01*
X156160523Y-86574380D02*
X155589095Y-87145809D01*
X148042333Y-91877380D02*
X147709000Y-91401190D01*
X147470904Y-91877380D02*
X147470904Y-90877380D01*
X147851857Y-90877380D01*
X147947095Y-90925000D01*
X147994714Y-90972619D01*
X148042333Y-91067857D01*
X148042333Y-91210714D01*
X147994714Y-91305952D01*
X147947095Y-91353571D01*
X147851857Y-91401190D01*
X147470904Y-91401190D01*
X148994714Y-91877380D02*
X148423285Y-91877380D01*
X148709000Y-91877380D02*
X148709000Y-90877380D01*
X148613761Y-91020238D01*
X148518523Y-91115476D01*
X148423285Y-91163095D01*
X194365714Y-85288380D02*
X194365714Y-84288380D01*
X194603809Y-84288380D01*
X194746666Y-84336000D01*
X194841904Y-84431238D01*
X194889523Y-84526476D01*
X194937142Y-84716952D01*
X194937142Y-84859809D01*
X194889523Y-85050285D01*
X194841904Y-85145523D01*
X194746666Y-85240761D01*
X194603809Y-85288380D01*
X194365714Y-85288380D01*
X195889523Y-85288380D02*
X195318095Y-85288380D01*
X195603809Y-85288380D02*
X195603809Y-84288380D01*
X195508571Y-84431238D01*
X195413333Y-84526476D01*
X195318095Y-84574095D01*
X196794285Y-84288380D02*
X196318095Y-84288380D01*
X196270476Y-84764571D01*
X196318095Y-84716952D01*
X196413333Y-84669333D01*
X196651428Y-84669333D01*
X196746666Y-84716952D01*
X196794285Y-84764571D01*
X196841904Y-84859809D01*
X196841904Y-85097904D01*
X196794285Y-85193142D01*
X196746666Y-85240761D01*
X196651428Y-85288380D01*
X196413333Y-85288380D01*
X196318095Y-85240761D01*
X196270476Y-85193142D01*
X192092410Y-87320380D02*
X192092410Y-86320380D01*
X192663838Y-87320380D02*
X192235267Y-86748952D01*
X192663838Y-86320380D02*
X192092410Y-86891809D01*
X94742095Y-107132380D02*
X94742095Y-106132380D01*
X94742095Y-106608571D02*
X95313523Y-106608571D01*
X95313523Y-107132380D02*
X95313523Y-106132380D01*
X96218285Y-106465714D02*
X96218285Y-107132380D01*
X95980190Y-106084761D02*
X95742095Y-106799047D01*
X96361142Y-106799047D01*
X192468571Y-76239619D02*
X192373333Y-76192000D01*
X192278095Y-76096761D01*
X192135238Y-75953904D01*
X192040000Y-75906285D01*
X191944761Y-75906285D01*
X191992380Y-76144380D02*
X191897142Y-76096761D01*
X191801904Y-76001523D01*
X191754285Y-75811047D01*
X191754285Y-75477714D01*
X191801904Y-75287238D01*
X191897142Y-75192000D01*
X191992380Y-75144380D01*
X192182857Y-75144380D01*
X192278095Y-75192000D01*
X192373333Y-75287238D01*
X192420952Y-75477714D01*
X192420952Y-75811047D01*
X192373333Y-76001523D01*
X192278095Y-76096761D01*
X192182857Y-76144380D01*
X191992380Y-76144380D01*
X193373333Y-76144380D02*
X192801904Y-76144380D01*
X193087619Y-76144380D02*
X193087619Y-75144380D01*
X192992380Y-75287238D01*
X192897142Y-75382476D01*
X192801904Y-75430095D01*
X194230476Y-75144380D02*
X194040000Y-75144380D01*
X193944761Y-75192000D01*
X193897142Y-75239619D01*
X193801904Y-75382476D01*
X193754285Y-75572952D01*
X193754285Y-75953904D01*
X193801904Y-76049142D01*
X193849523Y-76096761D01*
X193944761Y-76144380D01*
X194135238Y-76144380D01*
X194230476Y-76096761D01*
X194278095Y-76049142D01*
X194325714Y-75953904D01*
X194325714Y-75715809D01*
X194278095Y-75620571D01*
X194230476Y-75572952D01*
X194135238Y-75525333D01*
X193944761Y-75525333D01*
X193849523Y-75572952D01*
X193801904Y-75620571D01*
X193754285Y-75715809D01*
X211891714Y-71278009D02*
X211891714Y-70278009D01*
X212129809Y-70278009D01*
X212272666Y-70325629D01*
X212367904Y-70420867D01*
X212415523Y-70516105D01*
X212463142Y-70706581D01*
X212463142Y-70849438D01*
X212415523Y-71039914D01*
X212367904Y-71135152D01*
X212272666Y-71230390D01*
X212129809Y-71278009D01*
X211891714Y-71278009D01*
X213415523Y-71278009D02*
X212844095Y-71278009D01*
X213129809Y-71278009D02*
X213129809Y-70278009D01*
X213034571Y-70420867D01*
X212939333Y-70516105D01*
X212844095Y-70563724D01*
X214034571Y-70278009D02*
X214129809Y-70278009D01*
X214225047Y-70325629D01*
X214272666Y-70373248D01*
X214320285Y-70468486D01*
X214367904Y-70658962D01*
X214367904Y-70897057D01*
X214320285Y-71087533D01*
X214272666Y-71182771D01*
X214225047Y-71230390D01*
X214129809Y-71278009D01*
X214034571Y-71278009D01*
X213939333Y-71230390D01*
X213891714Y-71182771D01*
X213844095Y-71087533D01*
X213796476Y-70897057D01*
X213796476Y-70658962D01*
X213844095Y-70468486D01*
X213891714Y-70373248D01*
X213939333Y-70325629D01*
X214034571Y-70278009D01*
X209774095Y-73604380D02*
X209774095Y-72604380D01*
X210345523Y-73604380D02*
X209916952Y-73032952D01*
X210345523Y-72604380D02*
X209774095Y-73175809D01*
X119799380Y-109502285D02*
X120513666Y-109502285D01*
X120656523Y-109549904D01*
X120751761Y-109645142D01*
X120799380Y-109788000D01*
X120799380Y-109883238D01*
X120799380Y-108454666D02*
X120323190Y-108788000D01*
X120799380Y-109026095D02*
X119799380Y-109026095D01*
X119799380Y-108645142D01*
X119847000Y-108549904D01*
X119894619Y-108502285D01*
X119989857Y-108454666D01*
X120132714Y-108454666D01*
X120227952Y-108502285D01*
X120275571Y-108549904D01*
X120323190Y-108645142D01*
X120323190Y-109026095D01*
X119799380Y-108168952D02*
X119799380Y-107597523D01*
X120799380Y-107883238D02*
X119799380Y-107883238D01*
X120704142Y-106692761D02*
X120751761Y-106740380D01*
X120799380Y-106883238D01*
X120799380Y-106978476D01*
X120751761Y-107121333D01*
X120656523Y-107216571D01*
X120561285Y-107264190D01*
X120370809Y-107311809D01*
X120227952Y-107311809D01*
X120037476Y-107264190D01*
X119942238Y-107216571D01*
X119847000Y-107121333D01*
X119799380Y-106978476D01*
X119799380Y-106883238D01*
X119847000Y-106740380D01*
X119894619Y-106692761D01*
X120799380Y-105740380D02*
X120799380Y-106311809D01*
X120799380Y-106026095D02*
X119799380Y-106026095D01*
X119942238Y-106121333D01*
X120037476Y-106216571D01*
X120085095Y-106311809D01*
X165377904Y-89860380D02*
X165377904Y-88860380D01*
X165616000Y-88860380D01*
X165758857Y-88908000D01*
X165854095Y-89003238D01*
X165901714Y-89098476D01*
X165949333Y-89288952D01*
X165949333Y-89431809D01*
X165901714Y-89622285D01*
X165854095Y-89717523D01*
X165758857Y-89812761D01*
X165616000Y-89860380D01*
X165377904Y-89860380D01*
X166806476Y-88860380D02*
X166616000Y-88860380D01*
X166520761Y-88908000D01*
X166473142Y-88955619D01*
X166377904Y-89098476D01*
X166330285Y-89288952D01*
X166330285Y-89669904D01*
X166377904Y-89765142D01*
X166425523Y-89812761D01*
X166520761Y-89860380D01*
X166711238Y-89860380D01*
X166806476Y-89812761D01*
X166854095Y-89765142D01*
X166901714Y-89669904D01*
X166901714Y-89431809D01*
X166854095Y-89336571D01*
X166806476Y-89288952D01*
X166711238Y-89241333D01*
X166520761Y-89241333D01*
X166425523Y-89288952D01*
X166377904Y-89336571D01*
X166330285Y-89431809D01*
X168797095Y-87574380D02*
X168797095Y-86574380D01*
X169368523Y-87574380D02*
X168939952Y-87002952D01*
X169368523Y-86574380D02*
X168797095Y-87145809D01*
X94384761Y-84137333D02*
X94432380Y-83994476D01*
X94432380Y-83756380D01*
X94384761Y-83661142D01*
X94337142Y-83613523D01*
X94241904Y-83565904D01*
X94146666Y-83565904D01*
X94051428Y-83613523D01*
X94003809Y-83661142D01*
X93956190Y-83756380D01*
X93908571Y-83946857D01*
X93860952Y-84042095D01*
X93813333Y-84089714D01*
X93718095Y-84137333D01*
X93622857Y-84137333D01*
X93527619Y-84089714D01*
X93480000Y-84042095D01*
X93432380Y-83946857D01*
X93432380Y-83708761D01*
X93480000Y-83565904D01*
X93432380Y-83232571D02*
X94432380Y-82994476D01*
X93718095Y-82804000D01*
X94432380Y-82613523D01*
X93432380Y-82375428D01*
X93432380Y-82089714D02*
X93432380Y-81470666D01*
X93813333Y-81804000D01*
X93813333Y-81661142D01*
X93860952Y-81565904D01*
X93908571Y-81518285D01*
X94003809Y-81470666D01*
X94241904Y-81470666D01*
X94337142Y-81518285D01*
X94384761Y-81565904D01*
X94432380Y-81661142D01*
X94432380Y-81946857D01*
X94384761Y-82042095D01*
X94337142Y-82089714D01*
X153146380Y-109958095D02*
X153860666Y-109958095D01*
X154003523Y-110005714D01*
X154098761Y-110100952D01*
X154146380Y-110243809D01*
X154146380Y-110339047D01*
X154146380Y-109005714D02*
X154146380Y-109481904D01*
X153146380Y-109481904D01*
X154146380Y-108148571D02*
X154146380Y-108720000D01*
X154146380Y-108434285D02*
X153146380Y-108434285D01*
X153289238Y-108529523D01*
X153384476Y-108624761D01*
X153432095Y-108720000D01*
X154074904Y-103362751D02*
X154074904Y-102362751D01*
X154313000Y-102362751D01*
X154455857Y-102410371D01*
X154551095Y-102505609D01*
X154598714Y-102600847D01*
X154646333Y-102791323D01*
X154646333Y-102934180D01*
X154598714Y-103124656D01*
X154551095Y-103219894D01*
X154455857Y-103315132D01*
X154313000Y-103362751D01*
X154074904Y-103362751D01*
X154979666Y-102362751D02*
X155598714Y-102362751D01*
X155265380Y-102743704D01*
X155408238Y-102743704D01*
X155503476Y-102791323D01*
X155551095Y-102838942D01*
X155598714Y-102934180D01*
X155598714Y-103172275D01*
X155551095Y-103267513D01*
X155503476Y-103315132D01*
X155408238Y-103362751D01*
X155122523Y-103362751D01*
X155027285Y-103315132D01*
X154979666Y-103267513D01*
X157621095Y-101036380D02*
X157621095Y-100036380D01*
X158192523Y-101036380D02*
X157763952Y-100464952D01*
X158192523Y-100036380D02*
X157621095Y-100607809D01*
X157892761Y-99099619D02*
X157797523Y-99052000D01*
X157702285Y-98956761D01*
X157559428Y-98813904D01*
X157464190Y-98766285D01*
X157368952Y-98766285D01*
X157416571Y-99004380D02*
X157321333Y-98956761D01*
X157226095Y-98861523D01*
X157178476Y-98671047D01*
X157178476Y-98337714D01*
X157226095Y-98147238D01*
X157321333Y-98052000D01*
X157416571Y-98004380D01*
X157607047Y-98004380D01*
X157702285Y-98052000D01*
X157797523Y-98147238D01*
X157845142Y-98337714D01*
X157845142Y-98671047D01*
X157797523Y-98861523D01*
X157702285Y-98956761D01*
X157607047Y-99004380D01*
X157416571Y-99004380D01*
X158178476Y-98004380D02*
X158797523Y-98004380D01*
X158464190Y-98385333D01*
X158607047Y-98385333D01*
X158702285Y-98432952D01*
X158749904Y-98480571D01*
X158797523Y-98575809D01*
X158797523Y-98813904D01*
X158749904Y-98909142D01*
X158702285Y-98956761D01*
X158607047Y-99004380D01*
X158321333Y-99004380D01*
X158226095Y-98956761D01*
X158178476Y-98909142D01*
X199255142Y-82763380D02*
X198921809Y-82287190D01*
X198683714Y-82763380D02*
X198683714Y-81763380D01*
X199064666Y-81763380D01*
X199159904Y-81811000D01*
X199207523Y-81858619D01*
X199255142Y-81953857D01*
X199255142Y-82096714D01*
X199207523Y-82191952D01*
X199159904Y-82239571D01*
X199064666Y-82287190D01*
X198683714Y-82287190D01*
X200207523Y-82763380D02*
X199636095Y-82763380D01*
X199921809Y-82763380D02*
X199921809Y-81763380D01*
X199826571Y-81906238D01*
X199731333Y-82001476D01*
X199636095Y-82049095D01*
X201064666Y-82096714D02*
X201064666Y-82763380D01*
X200826571Y-81715761D02*
X200588476Y-82430047D01*
X201207523Y-82430047D01*
X214971333Y-96479380D02*
X214638000Y-96003190D01*
X214399904Y-96479380D02*
X214399904Y-95479380D01*
X214780857Y-95479380D01*
X214876095Y-95527000D01*
X214923714Y-95574619D01*
X214971333Y-95669857D01*
X214971333Y-95812714D01*
X214923714Y-95907952D01*
X214876095Y-95955571D01*
X214780857Y-96003190D01*
X214399904Y-96003190D01*
X215447523Y-96479380D02*
X215638000Y-96479380D01*
X215733238Y-96431761D01*
X215780857Y-96384142D01*
X215876095Y-96241285D01*
X215923714Y-96050809D01*
X215923714Y-95669857D01*
X215876095Y-95574619D01*
X215828476Y-95527000D01*
X215733238Y-95479380D01*
X215542761Y-95479380D01*
X215447523Y-95527000D01*
X215399904Y-95574619D01*
X215352285Y-95669857D01*
X215352285Y-95907952D01*
X215399904Y-96003190D01*
X215447523Y-96050809D01*
X215542761Y-96098428D01*
X215733238Y-96098428D01*
X215828476Y-96050809D01*
X215876095Y-96003190D01*
X215923714Y-95907952D01*
X160678904Y-103362751D02*
X160678904Y-102362751D01*
X160917000Y-102362751D01*
X161059857Y-102410371D01*
X161155095Y-102505609D01*
X161202714Y-102600847D01*
X161250333Y-102791323D01*
X161250333Y-102934180D01*
X161202714Y-103124656D01*
X161155095Y-103219894D01*
X161059857Y-103315132D01*
X160917000Y-103362751D01*
X160678904Y-103362751D01*
X162155095Y-102362751D02*
X161678904Y-102362751D01*
X161631285Y-102838942D01*
X161678904Y-102791323D01*
X161774142Y-102743704D01*
X162012238Y-102743704D01*
X162107476Y-102791323D01*
X162155095Y-102838942D01*
X162202714Y-102934180D01*
X162202714Y-103172275D01*
X162155095Y-103267513D01*
X162107476Y-103315132D01*
X162012238Y-103362751D01*
X161774142Y-103362751D01*
X161678904Y-103315132D01*
X161631285Y-103267513D01*
X164225095Y-101036380D02*
X164225095Y-100036380D01*
X164796523Y-101036380D02*
X164367952Y-100464952D01*
X164796523Y-100036380D02*
X164225095Y-100607809D01*
X205287714Y-71278009D02*
X205287714Y-70278009D01*
X205525809Y-70278009D01*
X205668666Y-70325629D01*
X205763904Y-70420867D01*
X205811523Y-70516105D01*
X205859142Y-70706581D01*
X205859142Y-70849438D01*
X205811523Y-71039914D01*
X205763904Y-71135152D01*
X205668666Y-71230390D01*
X205525809Y-71278009D01*
X205287714Y-71278009D01*
X206811523Y-71278009D02*
X206240095Y-71278009D01*
X206525809Y-71278009D02*
X206525809Y-70278009D01*
X206430571Y-70420867D01*
X206335333Y-70516105D01*
X206240095Y-70563724D01*
X207192476Y-70373248D02*
X207240095Y-70325629D01*
X207335333Y-70278009D01*
X207573428Y-70278009D01*
X207668666Y-70325629D01*
X207716285Y-70373248D01*
X207763904Y-70468486D01*
X207763904Y-70563724D01*
X207716285Y-70706581D01*
X207144857Y-71278009D01*
X207763904Y-71278009D01*
X203170095Y-73604380D02*
X203170095Y-72604380D01*
X203741523Y-73604380D02*
X203312952Y-73032952D01*
X203741523Y-72604380D02*
X203170095Y-73175809D01*
X214788761Y-89955619D02*
X214693523Y-89908000D01*
X214598285Y-89812761D01*
X214455428Y-89669904D01*
X214360190Y-89622285D01*
X214264952Y-89622285D01*
X214312571Y-89860380D02*
X214217333Y-89812761D01*
X214122095Y-89717523D01*
X214074476Y-89527047D01*
X214074476Y-89193714D01*
X214122095Y-89003238D01*
X214217333Y-88908000D01*
X214312571Y-88860380D01*
X214503047Y-88860380D01*
X214598285Y-88908000D01*
X214693523Y-89003238D01*
X214741142Y-89193714D01*
X214741142Y-89527047D01*
X214693523Y-89717523D01*
X214598285Y-89812761D01*
X214503047Y-89860380D01*
X214312571Y-89860380D01*
X215217333Y-89860380D02*
X215407809Y-89860380D01*
X215503047Y-89812761D01*
X215550666Y-89765142D01*
X215645904Y-89622285D01*
X215693523Y-89431809D01*
X215693523Y-89050857D01*
X215645904Y-88955619D01*
X215598285Y-88908000D01*
X215503047Y-88860380D01*
X215312571Y-88860380D01*
X215217333Y-88908000D01*
X215169714Y-88955619D01*
X215122095Y-89050857D01*
X215122095Y-89288952D01*
X215169714Y-89384190D01*
X215217333Y-89431809D01*
X215312571Y-89479428D01*
X215503047Y-89479428D01*
X215598285Y-89431809D01*
X215645904Y-89384190D01*
X215693523Y-89288952D01*
X215074380Y-65762095D02*
X215788666Y-65762095D01*
X215931523Y-65809714D01*
X216026761Y-65904952D01*
X216074380Y-66047809D01*
X216074380Y-66143047D01*
X216074380Y-64809714D02*
X216074380Y-65285904D01*
X215074380Y-65285904D01*
X215169619Y-64524000D02*
X215122000Y-64476380D01*
X215074380Y-64381142D01*
X215074380Y-64143047D01*
X215122000Y-64047809D01*
X215169619Y-64000190D01*
X215264857Y-63952571D01*
X215360095Y-63952571D01*
X215502952Y-64000190D01*
X216074380Y-64571619D01*
X216074380Y-63952571D01*
X152614333Y-78415380D02*
X152281000Y-77939190D01*
X152042904Y-78415380D02*
X152042904Y-77415380D01*
X152423857Y-77415380D01*
X152519095Y-77463000D01*
X152566714Y-77510619D01*
X152614333Y-77605857D01*
X152614333Y-77748714D01*
X152566714Y-77843952D01*
X152519095Y-77891571D01*
X152423857Y-77939190D01*
X152042904Y-77939190D01*
X152995285Y-77510619D02*
X153042904Y-77463000D01*
X153138142Y-77415380D01*
X153376238Y-77415380D01*
X153471476Y-77463000D01*
X153519095Y-77510619D01*
X153566714Y-77605857D01*
X153566714Y-77701095D01*
X153519095Y-77843952D01*
X152947666Y-78415380D01*
X153566714Y-78415380D01*
X194683142Y-96479380D02*
X194349809Y-96003190D01*
X194111714Y-96479380D02*
X194111714Y-95479380D01*
X194492666Y-95479380D01*
X194587904Y-95527000D01*
X194635523Y-95574619D01*
X194683142Y-95669857D01*
X194683142Y-95812714D01*
X194635523Y-95907952D01*
X194587904Y-95955571D01*
X194492666Y-96003190D01*
X194111714Y-96003190D01*
X195635523Y-96479380D02*
X195064095Y-96479380D01*
X195349809Y-96479380D02*
X195349809Y-95479380D01*
X195254571Y-95622238D01*
X195159333Y-95717476D01*
X195064095Y-95765095D01*
X196540285Y-95479380D02*
X196064095Y-95479380D01*
X196016476Y-95955571D01*
X196064095Y-95907952D01*
X196159333Y-95860333D01*
X196397428Y-95860333D01*
X196492666Y-95907952D01*
X196540285Y-95955571D01*
X196587904Y-96050809D01*
X196587904Y-96288904D01*
X196540285Y-96384142D01*
X196492666Y-96431761D01*
X196397428Y-96479380D01*
X196159333Y-96479380D01*
X196064095Y-96431761D01*
X196016476Y-96384142D01*
X216662095Y-107640380D02*
X216662095Y-106640380D01*
X216662095Y-107116571D02*
X217233523Y-107116571D01*
X217233523Y-107640380D02*
X217233523Y-106640380D01*
X217614476Y-106640380D02*
X218233523Y-106640380D01*
X217900190Y-107021333D01*
X218043047Y-107021333D01*
X218138285Y-107068952D01*
X218185904Y-107116571D01*
X218233523Y-107211809D01*
X218233523Y-107449904D01*
X218185904Y-107545142D01*
X218138285Y-107592761D01*
X218043047Y-107640380D01*
X217757333Y-107640380D01*
X217662095Y-107592761D01*
X217614476Y-107545142D01*
D12*
X168077371Y-100584000D02*
X168191000Y-100584000D01*
X168077371Y-100584000D02*
G75*
G03*
X168077371Y-100584000I-1326371J0D01*
G01*
X159441371Y-87122000D02*
X159555000Y-87122000D01*
X159441371Y-87122000D02*
G75*
G03*
X159441371Y-87122000I-1326371J0D01*
G01*
D13*
X178345000Y-60767000D02*
X186180000Y-60767000D01*
X179580000Y-80457000D02*
X186180000Y-80457000D01*
D12*
X208477629Y-86868000D02*
X208364000Y-86868000D01*
X211130371Y-86868000D02*
G75*
G03*
X211130371Y-86868000I-1326371J0D01*
G01*
X130774000Y-106986000D02*
X126274000Y-106986000D01*
X125024000Y-109486000D02*
X125024000Y-110986000D01*
X132024000Y-110986000D02*
X132024000Y-109486000D01*
X126274000Y-113486000D02*
X130774000Y-113486000D01*
X201873629Y-86868000D02*
X201760000Y-86868000D01*
X204526371Y-86868000D02*
G75*
G03*
X204526371Y-86868000I-1326371J0D01*
G01*
X206852000Y-80391000D02*
X206232000Y-80391000D01*
X208692000Y-80391000D02*
G75*
G03*
X208692000Y-80391000I-920000J0D01*
G01*
X208884000Y-94107000D02*
X208264000Y-94107000D01*
X210724000Y-94107000D02*
G75*
G03*
X210724000Y-94107000I-920000J0D01*
G01*
D13*
X214820000Y-109214000D02*
X214820000Y-102114000D01*
X191580000Y-110444000D02*
X191580000Y-102114000D01*
D12*
X172649371Y-87122000D02*
X172763000Y-87122000D01*
X172649371Y-87122000D02*
G75*
G03*
X172649371Y-87122000I-1326371J0D01*
G01*
X199841629Y-73152000D02*
X199728000Y-73152000D01*
X202494371Y-73152000D02*
G75*
G03*
X202494371Y-73152000I-1326371J0D01*
G01*
X206734000Y-92782000D02*
X210334000Y-92782000D01*
X208534000Y-88331999D02*
G75*
G03*
X206695522Y-92770478I0J-2600001D01*
G01*
X210372478Y-92770478D02*
G75*
G03*
X208534000Y-88332000I-1838478J1838478D01*
G01*
X174393000Y-81208000D02*
X170793000Y-81208000D01*
X172593000Y-85658001D02*
G75*
G03*
X174431478Y-81219522I0J2600001D01*
G01*
X170754522Y-81219522D02*
G75*
G03*
X172593000Y-85658000I1838478J-1838478D01*
G01*
X193526000Y-92782000D02*
X197126000Y-92782000D01*
X195326000Y-88331999D02*
G75*
G03*
X193487522Y-92770478I0J-2600001D01*
G01*
X197164478Y-92770478D02*
G75*
G03*
X195326000Y-88332000I-1838478J1838478D01*
G01*
X167671000Y-93345000D02*
X168291000Y-93345000D01*
X167671000Y-93345000D02*
G75*
G03*
X167671000Y-93345000I-920000J0D01*
G01*
X149755000Y-94670000D02*
X146155000Y-94670000D01*
X146116522Y-94681522D02*
G75*
G03*
X147955000Y-99120000I1838478J-1838478D01*
G01*
X147955000Y-99120001D02*
G75*
G03*
X149793478Y-94681522I0J2600001D01*
G01*
D13*
X186180000Y-83627000D02*
X179580000Y-83627000D01*
X187415000Y-103317000D02*
X179580000Y-103317000D01*
D12*
X211306000Y-79066000D02*
X214906000Y-79066000D01*
X213106000Y-74615999D02*
G75*
G03*
X211267522Y-79054478I0J-2600001D01*
G01*
X214944478Y-79054478D02*
G75*
G03*
X213106000Y-74616000I-1838478J1838478D01*
G01*
X167535000Y-81208000D02*
X163935000Y-81208000D01*
X163896522Y-81219522D02*
G75*
G03*
X165735000Y-85658000I1838478J-1838478D01*
G01*
X165735000Y-85658001D02*
G75*
G03*
X167573478Y-81219522I0J2600001D01*
G01*
X158831000Y-79883000D02*
X159451000Y-79883000D01*
X158831000Y-79883000D02*
G75*
G03*
X158831000Y-79883000I-920000J0D01*
G01*
X163217000Y-94670000D02*
X159617000Y-94670000D01*
X161417000Y-99120001D02*
G75*
G03*
X163255478Y-94681522I0J2600001D01*
G01*
X159578522Y-94681522D02*
G75*
G03*
X161417000Y-99120000I1838478J-1838478D01*
G01*
X200130000Y-92782000D02*
X203730000Y-92782000D01*
X203768478Y-92770478D02*
G75*
G03*
X201930000Y-88332000I-1838478J1838478D01*
G01*
X201930000Y-88331999D02*
G75*
G03*
X200091522Y-92770478I0J-2600001D01*
G01*
X202280000Y-94107000D02*
X201660000Y-94107000D01*
X204120000Y-94107000D02*
G75*
G03*
X204120000Y-94107000I-920000J0D01*
G01*
X142458000Y-106986000D02*
X137958000Y-106986000D01*
X136708000Y-109486000D02*
X136708000Y-110986000D01*
X137958000Y-113486000D02*
X142458000Y-113486000D01*
X143708000Y-110986000D02*
X143708000Y-109486000D01*
X215081629Y-86868000D02*
X214968000Y-86868000D01*
X217734371Y-86868000D02*
G75*
G03*
X217734371Y-86868000I-1326371J0D01*
G01*
X160931000Y-81208000D02*
X157331000Y-81208000D01*
X159131000Y-85658001D02*
G75*
G03*
X160969478Y-81219522I0J2600001D01*
G01*
X157292522Y-81219522D02*
G75*
G03*
X159131000Y-85658000I1838478J-1838478D01*
G01*
X154327000Y-81208000D02*
X150727000Y-81208000D01*
X150688522Y-81219522D02*
G75*
G03*
X152527000Y-85658000I1838478J-1838478D01*
G01*
X152527000Y-85658001D02*
G75*
G03*
X154365478Y-81219522I0J2600001D01*
G01*
X204702000Y-79066000D02*
X208302000Y-79066000D01*
X206502000Y-74615999D02*
G75*
G03*
X204663522Y-79054478I0J-2600001D01*
G01*
X208340478Y-79054478D02*
G75*
G03*
X206502000Y-74616000I-1838478J1838478D01*
G01*
X213456000Y-80391000D02*
X212836000Y-80391000D01*
X215296000Y-80391000D02*
G75*
G03*
X215296000Y-80391000I-920000J0D01*
G01*
X94730000Y-91496000D02*
X93230000Y-91496000D01*
X93230000Y-98496000D02*
X94730000Y-98496000D01*
X97230000Y-97246000D02*
X97230000Y-92746000D01*
X90730000Y-92746000D02*
X90730000Y-97246000D01*
X169821000Y-94670000D02*
X166221000Y-94670000D01*
X168021000Y-99120001D02*
G75*
G03*
X169859478Y-94681522I0J2600001D01*
G01*
X166182522Y-94681522D02*
G75*
G03*
X168021000Y-99120000I1838478J-1838478D01*
G01*
D13*
X146876000Y-64014000D02*
X146876000Y-71114000D01*
X170116000Y-62784000D02*
X170116000Y-71114000D01*
D12*
X148265371Y-100584000D02*
X148379000Y-100584000D01*
X148265371Y-100584000D02*
G75*
G03*
X148265371Y-100584000I-1326371J0D01*
G01*
X198098000Y-79066000D02*
X201698000Y-79066000D01*
X201736478Y-79054478D02*
G75*
G03*
X199898000Y-74616000I-1838478J1838478D01*
G01*
X199898000Y-74615999D02*
G75*
G03*
X198059522Y-79054478I0J-2600001D01*
G01*
X93680000Y-71102000D02*
X94280000Y-71102000D01*
X94980000Y-71752000D02*
X94980000Y-74552000D01*
X94280000Y-75202000D02*
X93680000Y-75202000D01*
X92980000Y-74552000D02*
X92980000Y-71752000D01*
X93680000Y-71102000D02*
G75*
G03*
X92980000Y-71802000I-1J-699999D01*
G01*
X94980000Y-71802000D02*
G75*
G03*
X94280000Y-71102000I-699999J1D01*
G01*
X92980000Y-74502000D02*
G75*
G03*
X93680000Y-75202000I699999J-1D01*
G01*
X94280000Y-75202000D02*
G75*
G03*
X94980000Y-74502000I1J699999D01*
G01*
X193237629Y-73152000D02*
X193124000Y-73152000D01*
X195890371Y-73152000D02*
G75*
G03*
X195890371Y-73152000I-1326371J0D01*
G01*
X161067000Y-93345000D02*
X161687000Y-93345000D01*
X161067000Y-93345000D02*
G75*
G03*
X161067000Y-93345000I-920000J0D01*
G01*
X154463000Y-93345000D02*
X155083000Y-93345000D01*
X154463000Y-93345000D02*
G75*
G03*
X154463000Y-93345000I-920000J0D01*
G01*
X172243000Y-79883000D02*
X172863000Y-79883000D01*
X172243000Y-79883000D02*
G75*
G03*
X172243000Y-79883000I-920000J0D01*
G01*
X165639000Y-79883000D02*
X166259000Y-79883000D01*
X165639000Y-79883000D02*
G75*
G03*
X165639000Y-79883000I-920000J0D01*
G01*
X139954000Y-100330000D02*
X139954000Y-102870000D01*
X139954000Y-102870000D02*
X142624000Y-102870000D01*
X139954000Y-64770000D02*
X142624000Y-64770000D01*
X127254000Y-64770000D02*
X124584000Y-64770000D01*
X142624000Y-100330000D02*
X142624000Y-62100000D01*
X127254000Y-102870000D02*
X127254000Y-64770000D01*
X124584000Y-62100000D02*
X124584000Y-105540000D01*
X139954000Y-100330000D02*
X139954000Y-64770000D01*
X142624000Y-62100000D02*
X124584000Y-62100000D01*
X124584000Y-105540000D02*
X142624000Y-105540000D01*
X139954000Y-100330000D02*
X142624000Y-100330000D01*
X127254000Y-102870000D02*
X124584000Y-102870000D01*
X142624000Y-105540000D02*
X142624000Y-102870000D01*
X193644000Y-80391000D02*
X193024000Y-80391000D01*
X195484000Y-80391000D02*
G75*
G03*
X195484000Y-80391000I-920000J0D01*
G01*
X152837371Y-87122000D02*
X152951000Y-87122000D01*
X152837371Y-87122000D02*
G75*
G03*
X152837371Y-87122000I-1326371J0D01*
G01*
X147859000Y-93345000D02*
X148479000Y-93345000D01*
X147859000Y-93345000D02*
G75*
G03*
X147859000Y-93345000I-920000J0D01*
G01*
X195367944Y-86868000D02*
X195254315Y-86868000D01*
X198020686Y-86868000D02*
G75*
G03*
X198020686Y-86868000I-1326371J0D01*
G01*
X193294000Y-74615999D02*
G75*
G03*
X191455522Y-79054478I0J-2600001D01*
G01*
X195132478Y-79054478D02*
G75*
G03*
X193294000Y-74616000I-1838478J1838478D01*
G01*
X191494000Y-79066000D02*
X195094000Y-79066000D01*
X213049629Y-73152000D02*
X212936000Y-73152000D01*
X215702371Y-73152000D02*
G75*
G03*
X215702371Y-73152000I-1326371J0D01*
G01*
X103547000Y-102078000D02*
X103547000Y-110708000D01*
X117487955Y-102078000D02*
X117487955Y-110708000D01*
X118314620Y-102078000D02*
X118314620Y-110708000D01*
X118907000Y-113278000D02*
X117577000Y-113278000D01*
X118550810Y-102078000D02*
X118550810Y-110708000D01*
X114677000Y-110708000D02*
X114677000Y-111118000D01*
X118907000Y-112168000D02*
X118907000Y-113278000D01*
X117842240Y-102078000D02*
X117842240Y-110708000D01*
X118668905Y-102078000D02*
X118668905Y-110708000D01*
X116897480Y-102078000D02*
X116897480Y-110708000D01*
X117937000Y-110708000D02*
X117937000Y-111058000D01*
X117724145Y-102078000D02*
X117724145Y-110708000D01*
X116543195Y-102078000D02*
X116543195Y-110708000D01*
X118787000Y-102078000D02*
X118787000Y-110708000D01*
X116425100Y-102078000D02*
X116425100Y-110708000D01*
X107057000Y-110708000D02*
X107057000Y-111118000D01*
X110317000Y-110708000D02*
X110317000Y-111118000D01*
X118907000Y-110708000D02*
X103547000Y-110708000D01*
X116779385Y-102078000D02*
X116779385Y-110708000D01*
X117960335Y-102078000D02*
X117960335Y-110708000D01*
X117606050Y-102078000D02*
X117606050Y-110708000D01*
X104517000Y-110708000D02*
X104517000Y-111118000D01*
X117369860Y-102078000D02*
X117369860Y-110708000D01*
X116661290Y-102078000D02*
X116661290Y-110708000D01*
X106147000Y-102078000D02*
X106147000Y-110708000D01*
X117217000Y-110708000D02*
X117217000Y-111058000D01*
X108687000Y-102078000D02*
X108687000Y-110708000D01*
X117251765Y-102078000D02*
X117251765Y-110708000D01*
X112137000Y-110708000D02*
X112137000Y-111118000D01*
X118432715Y-102078000D02*
X118432715Y-110708000D01*
X116307000Y-102078000D02*
X116307000Y-110708000D01*
X118907000Y-102078000D02*
X103547000Y-102078000D01*
X113767000Y-102078000D02*
X113767000Y-110708000D01*
X115397000Y-110708000D02*
X115397000Y-111118000D01*
X111227000Y-102078000D02*
X111227000Y-110708000D01*
X118907000Y-102078000D02*
X118907000Y-110708000D01*
X109597000Y-110708000D02*
X109597000Y-111118000D01*
X112857000Y-110708000D02*
X112857000Y-111118000D01*
X105237000Y-110708000D02*
X105237000Y-111118000D01*
X117015575Y-102078000D02*
X117015575Y-110708000D01*
X107777000Y-110708000D02*
X107777000Y-111118000D01*
X118078430Y-102078000D02*
X118078430Y-110708000D01*
X118196525Y-102078000D02*
X118196525Y-110708000D01*
X117133670Y-102078000D02*
X117133670Y-110708000D01*
X166045371Y-87122000D02*
X166159000Y-87122000D01*
X166045371Y-87122000D02*
G75*
G03*
X166045371Y-87122000I-1326371J0D01*
G01*
X94730000Y-79304000D02*
X93230000Y-79304000D01*
X90730000Y-80554000D02*
X90730000Y-85054000D01*
X97230000Y-85054000D02*
X97230000Y-80554000D01*
X93230000Y-86304000D02*
X94730000Y-86304000D01*
X180654000Y-110550000D02*
X180654000Y-107890000D01*
X157734000Y-110550000D02*
X157734000Y-107890000D01*
X157734000Y-110550000D02*
X180654000Y-110550000D01*
X157734000Y-107890000D02*
X180654000Y-107890000D01*
X155134000Y-107890000D02*
X156464000Y-107890000D01*
X155134000Y-109220000D02*
X155134000Y-107890000D01*
X154869371Y-100584000D02*
X154983000Y-100584000D01*
X154869371Y-100584000D02*
G75*
G03*
X154869371Y-100584000I-1326371J0D01*
G01*
X156613000Y-94670000D02*
X153013000Y-94670000D01*
X152974522Y-94681522D02*
G75*
G03*
X154813000Y-99120000I1838478J-1838478D01*
G01*
X154813000Y-99120001D02*
G75*
G03*
X156651478Y-94681522I0J2600001D01*
G01*
X200248000Y-80391000D02*
X199628000Y-80391000D01*
X202088000Y-80391000D02*
G75*
G03*
X202088000Y-80391000I-920000J0D01*
G01*
X215488000Y-94107000D02*
X214868000Y-94107000D01*
X217328000Y-94107000D02*
G75*
G03*
X217328000Y-94107000I-920000J0D01*
G01*
X161473371Y-100584000D02*
X161587000Y-100584000D01*
X161473371Y-100584000D02*
G75*
G03*
X161473371Y-100584000I-1326371J0D01*
G01*
X206445629Y-73152000D02*
X206332000Y-73152000D01*
X209098371Y-73152000D02*
G75*
G03*
X209098371Y-73152000I-1326371J0D01*
G01*
X213338000Y-92782000D02*
X216938000Y-92782000D01*
X216976478Y-92770478D02*
G75*
G03*
X215138000Y-88332000I-1838478J1838478D01*
G01*
X215138000Y-88331999D02*
G75*
G03*
X213299522Y-92770478I0J-2600001D01*
G01*
X193742000Y-63694000D02*
X193742000Y-66354000D01*
X214182000Y-66354000D02*
X212852000Y-66354000D01*
X211582000Y-63694000D02*
X193742000Y-63694000D01*
X211582000Y-66354000D02*
X193742000Y-66354000D01*
X214182000Y-65024000D02*
X214182000Y-66354000D01*
X211582000Y-63694000D02*
X211582000Y-66354000D01*
X152431000Y-79883000D02*
X153051000Y-79883000D01*
X152431000Y-79883000D02*
G75*
G03*
X152431000Y-79883000I-920000J0D01*
G01*
X195676000Y-94107000D02*
X195056000Y-94107000D01*
X197516000Y-94107000D02*
G75*
G03*
X197516000Y-94107000I-920000J0D01*
G01*
D14*
X178910000Y-61722000D03*
D15*
X178910000Y-64262000D03*
X178910000Y-66802000D03*
X178910000Y-69342000D03*
X178910000Y-71882000D03*
X178910000Y-74422000D03*
X178910000Y-76962000D03*
X178910000Y-79502000D03*
X186850000Y-79502000D03*
X186850000Y-76962000D03*
X186850000Y-74422000D03*
X186850000Y-71882000D03*
X186850000Y-69342000D03*
X186850000Y-66802000D03*
X186850000Y-64262000D03*
X186850000Y-61722000D03*
D16*
X193040000Y-109914000D03*
D17*
X195580000Y-109914000D03*
X198120000Y-109914000D03*
X200660000Y-109914000D03*
X203200000Y-109914000D03*
X205740000Y-109914000D03*
X208280000Y-109914000D03*
X210820000Y-109914000D03*
X213360000Y-109914000D03*
X213360000Y-101414000D03*
X210820000Y-101414000D03*
X208280000Y-101414000D03*
X205740000Y-101414000D03*
X203200000Y-101414000D03*
X200660000Y-101414000D03*
X198120000Y-101414000D03*
X195580000Y-101414000D03*
X193040000Y-101414000D03*
D14*
X186850000Y-102362000D03*
D15*
X186850000Y-99822000D03*
X186850000Y-97282000D03*
X186850000Y-94742000D03*
X186850000Y-92202000D03*
X186850000Y-89662000D03*
X186850000Y-87122000D03*
X186850000Y-84582000D03*
X178910000Y-84582000D03*
X178910000Y-87122000D03*
X178910000Y-89662000D03*
X178910000Y-92202000D03*
X178910000Y-94742000D03*
X178910000Y-97282000D03*
X178910000Y-99822000D03*
X178910000Y-102362000D03*
D16*
X168656000Y-63314000D03*
D17*
X166116000Y-63314000D03*
X163576000Y-63314000D03*
X161036000Y-63314000D03*
X158496000Y-63314000D03*
X155956000Y-63314000D03*
X153416000Y-63314000D03*
X150876000Y-63314000D03*
X148336000Y-63314000D03*
X148336000Y-71814000D03*
X150876000Y-71814000D03*
X153416000Y-71814000D03*
X155956000Y-71814000D03*
X158496000Y-71814000D03*
X161036000Y-71814000D03*
X163576000Y-71814000D03*
X166116000Y-71814000D03*
X168656000Y-71814000D03*
%LPC*%
D18*
X169291000Y-100584000D03*
D19*
X166751000Y-100584000D03*
D18*
X160655000Y-87122000D03*
D19*
X158115000Y-87122000D03*
D14*
X178910000Y-61722000D03*
D15*
X178910000Y-64262000D03*
X178910000Y-66802000D03*
X178910000Y-69342000D03*
X178910000Y-71882000D03*
X178910000Y-74422000D03*
X178910000Y-76962000D03*
X178910000Y-79502000D03*
X186850000Y-79502000D03*
X186850000Y-76962000D03*
X186850000Y-74422000D03*
X186850000Y-71882000D03*
X186850000Y-69342000D03*
X186850000Y-66802000D03*
X186850000Y-64262000D03*
X186850000Y-61722000D03*
D18*
X207264000Y-86868000D03*
D19*
X209804000Y-86868000D03*
D20*
X131774000Y-107986000D03*
X125274000Y-107986000D03*
X131774000Y-112486000D03*
X125274000Y-112486000D03*
D18*
X200660000Y-86868000D03*
D19*
X203200000Y-86868000D03*
D21*
X222836155Y-65356155D03*
X220980000Y-60875000D03*
X222836155Y-61643845D03*
X219123845Y-61643845D03*
X219123845Y-65356155D03*
X223605000Y-63500000D03*
X220980000Y-66125000D03*
X218355000Y-63500000D03*
D22*
X220980000Y-63500000D03*
D23*
X207772000Y-80391000D03*
D24*
X205232000Y-80391000D03*
D23*
X209804000Y-94107000D03*
D24*
X207264000Y-94107000D03*
D16*
X193040000Y-109914000D03*
D17*
X195580000Y-109914000D03*
X198120000Y-109914000D03*
X200660000Y-109914000D03*
X203200000Y-109914000D03*
X205740000Y-109914000D03*
X208280000Y-109914000D03*
X210820000Y-109914000D03*
X213360000Y-109914000D03*
X213360000Y-101414000D03*
X210820000Y-101414000D03*
X208280000Y-101414000D03*
X205740000Y-101414000D03*
X203200000Y-101414000D03*
X200660000Y-101414000D03*
X198120000Y-101414000D03*
X195580000Y-101414000D03*
X193040000Y-101414000D03*
D18*
X173863000Y-87122000D03*
D19*
X171323000Y-87122000D03*
D18*
X198628000Y-73152000D03*
D19*
X201168000Y-73152000D03*
D21*
X94312155Y-65356155D03*
X89831000Y-63500000D03*
X90599845Y-65356155D03*
X92456000Y-66125000D03*
X94312155Y-61643845D03*
D22*
X92456000Y-63500000D03*
D21*
X92456000Y-60875000D03*
X90599845Y-61643845D03*
X95081000Y-63500000D03*
D25*
X207264000Y-90932000D03*
D26*
X208534000Y-90932000D03*
X209804000Y-90932000D03*
D25*
X173863000Y-83058000D03*
D26*
X172593000Y-83058000D03*
X171323000Y-83058000D03*
D25*
X194056000Y-90932000D03*
D26*
X195326000Y-90932000D03*
X196596000Y-90932000D03*
D23*
X166751000Y-93345000D03*
D24*
X169291000Y-93345000D03*
D25*
X149225000Y-96520000D03*
D26*
X147955000Y-96520000D03*
X146685000Y-96520000D03*
D14*
X186850000Y-102362000D03*
D15*
X186850000Y-99822000D03*
X186850000Y-97282000D03*
X186850000Y-94742000D03*
X186850000Y-92202000D03*
X186850000Y-89662000D03*
X186850000Y-87122000D03*
X186850000Y-84582000D03*
X178910000Y-84582000D03*
X178910000Y-87122000D03*
X178910000Y-89662000D03*
X178910000Y-92202000D03*
X178910000Y-94742000D03*
X178910000Y-97282000D03*
X178910000Y-99822000D03*
X178910000Y-102362000D03*
D25*
X211836000Y-77216000D03*
D26*
X213106000Y-77216000D03*
X214376000Y-77216000D03*
D25*
X167005000Y-83058000D03*
D26*
X165735000Y-83058000D03*
X164465000Y-83058000D03*
D23*
X157911000Y-79883000D03*
D24*
X160451000Y-79883000D03*
D25*
X162687000Y-96520000D03*
D26*
X161417000Y-96520000D03*
X160147000Y-96520000D03*
D25*
X200660000Y-90932000D03*
D26*
X201930000Y-90932000D03*
X203200000Y-90932000D03*
D23*
X203200000Y-94107000D03*
D24*
X200660000Y-94107000D03*
D20*
X143458000Y-107986000D03*
X136958000Y-107986000D03*
X143458000Y-112486000D03*
X136958000Y-112486000D03*
D18*
X213868000Y-86868000D03*
D19*
X216408000Y-86868000D03*
D25*
X160401000Y-83058000D03*
D26*
X159131000Y-83058000D03*
X157861000Y-83058000D03*
D25*
X153797000Y-83058000D03*
D26*
X152527000Y-83058000D03*
X151257000Y-83058000D03*
D25*
X205232000Y-77216000D03*
D26*
X206502000Y-77216000D03*
X207772000Y-77216000D03*
D23*
X214376000Y-80391000D03*
D24*
X211836000Y-80391000D03*
D20*
X96230000Y-98246000D03*
X96230000Y-91746000D03*
X91730000Y-91746000D03*
X91730000Y-98246000D03*
D25*
X169291000Y-96520000D03*
D26*
X168021000Y-96520000D03*
X166751000Y-96520000D03*
D16*
X168656000Y-63314000D03*
D17*
X166116000Y-63314000D03*
X163576000Y-63314000D03*
X161036000Y-63314000D03*
X158496000Y-63314000D03*
X155956000Y-63314000D03*
X153416000Y-63314000D03*
X150876000Y-63314000D03*
X148336000Y-63314000D03*
X148336000Y-71814000D03*
X150876000Y-71814000D03*
X153416000Y-71814000D03*
X155956000Y-71814000D03*
X158496000Y-71814000D03*
X161036000Y-71814000D03*
X163576000Y-71814000D03*
X166116000Y-71814000D03*
X168656000Y-71814000D03*
D18*
X149479000Y-100584000D03*
D19*
X146939000Y-100584000D03*
D25*
X198628000Y-77216000D03*
D26*
X199898000Y-77216000D03*
X201168000Y-77216000D03*
D27*
X93980000Y-71852000D03*
D28*
X93980000Y-73152000D03*
D29*
X93980000Y-74452000D03*
D18*
X192024000Y-73152000D03*
D19*
X194564000Y-73152000D03*
D23*
X160147000Y-93345000D03*
D24*
X162687000Y-93345000D03*
D23*
X153543000Y-93345000D03*
D24*
X156083000Y-93345000D03*
D23*
X171323000Y-79883000D03*
D24*
X173863000Y-79883000D03*
D23*
X164719000Y-79883000D03*
D24*
X167259000Y-79883000D03*
D18*
X141224000Y-101600000D03*
D19*
X141224000Y-99060000D03*
X141224000Y-96520000D03*
X141224000Y-93980000D03*
X141224000Y-91440000D03*
X141224000Y-88900000D03*
X141224000Y-86360000D03*
X141224000Y-83820000D03*
X141224000Y-81280000D03*
X141224000Y-78740000D03*
X141224000Y-76200000D03*
X141224000Y-73660000D03*
X141224000Y-71120000D03*
X141224000Y-68580000D03*
X141224000Y-66040000D03*
X125984000Y-66040000D03*
X125984000Y-68580000D03*
X125984000Y-71120000D03*
X125984000Y-73660000D03*
X125984000Y-76200000D03*
X125984000Y-78740000D03*
X125984000Y-81280000D03*
X125984000Y-83820000D03*
X125984000Y-86360000D03*
X125984000Y-88900000D03*
X125984000Y-91440000D03*
X125984000Y-93980000D03*
X125984000Y-96520000D03*
X125984000Y-99060000D03*
X125984000Y-101600000D03*
D23*
X194564000Y-80391000D03*
D24*
X192024000Y-80391000D03*
D18*
X154051000Y-87122000D03*
D19*
X151511000Y-87122000D03*
D23*
X146939000Y-93345000D03*
D24*
X149479000Y-93345000D03*
D18*
X194154315Y-86868000D03*
D19*
X196694315Y-86868000D03*
D21*
X94312155Y-112600155D03*
X92456000Y-113369000D03*
X90599845Y-112600155D03*
X95081000Y-110744000D03*
X89831000Y-110744000D03*
X94312155Y-108887845D03*
X92456000Y-108119000D03*
X90599845Y-108887845D03*
D22*
X92456000Y-110744000D03*
D26*
X194564000Y-77216000D03*
X193294000Y-77216000D03*
D25*
X192024000Y-77216000D03*
D18*
X211836000Y-73152000D03*
D19*
X214376000Y-73152000D03*
D30*
X117577000Y-112168000D03*
D31*
X115037000Y-112168000D03*
X112497000Y-112168000D03*
X109957000Y-112168000D03*
X107417000Y-112168000D03*
X104877000Y-112168000D03*
D18*
X167259000Y-87122000D03*
D19*
X164719000Y-87122000D03*
D20*
X96230000Y-86054000D03*
X96230000Y-79554000D03*
X91730000Y-79554000D03*
X91730000Y-86054000D03*
D30*
X156464000Y-109220000D03*
D31*
X159004000Y-109220000D03*
X161544000Y-109220000D03*
X164084000Y-109220000D03*
X166624000Y-109220000D03*
X169164000Y-109220000D03*
X171704000Y-109220000D03*
X174244000Y-109220000D03*
X176784000Y-109220000D03*
X179324000Y-109220000D03*
D18*
X156083000Y-100584000D03*
D19*
X153543000Y-100584000D03*
D25*
X156083000Y-96520000D03*
D26*
X154813000Y-96520000D03*
X153543000Y-96520000D03*
D23*
X201168000Y-80391000D03*
D24*
X198628000Y-80391000D03*
D23*
X216408000Y-94107000D03*
D24*
X213868000Y-94107000D03*
D18*
X162687000Y-100584000D03*
D19*
X160147000Y-100584000D03*
D18*
X205232000Y-73152000D03*
D19*
X207772000Y-73152000D03*
D25*
X213868000Y-90932000D03*
D26*
X215138000Y-90932000D03*
X216408000Y-90932000D03*
D30*
X212852000Y-65024000D03*
D31*
X210312000Y-65024000D03*
X207772000Y-65024000D03*
X205232000Y-65024000D03*
X202692000Y-65024000D03*
X200152000Y-65024000D03*
X197612000Y-65024000D03*
X195072000Y-65024000D03*
D23*
X151511000Y-79883000D03*
D24*
X154051000Y-79883000D03*
D23*
X196596000Y-94107000D03*
D24*
X194056000Y-94107000D03*
D22*
X220980000Y-110744000D03*
D21*
X223605000Y-110744000D03*
X219123845Y-112600155D03*
X220980000Y-108119000D03*
X222836155Y-112600155D03*
X220980000Y-113369000D03*
X218355000Y-110744000D03*
X222836155Y-108887845D03*
X219123845Y-108887845D03*
D30*
X118872000Y-70684000D03*
D31*
X116332000Y-70684000D03*
X113792000Y-70684000D03*
X111252000Y-70684000D03*
X108712000Y-70684000D03*
X106172000Y-70684000D03*
X103632000Y-70684000D03*
M02*
