G04 #@! TF.GenerationSoftware,KiCad,Pcbnew,(6.0.2)*
G04 #@! TF.CreationDate,2022-06-24T18:07:30+02:00*
G04 #@! TF.ProjectId,divergence_meter_logic,64697665-7267-4656-9e63-655f6d657465,rev?*
G04 #@! TF.SameCoordinates,Original*
G04 #@! TF.FileFunction,Legend,Bot*
G04 #@! TF.FilePolarity,Positive*
%FSLAX46Y46*%
G04 Gerber Fmt 4.6, Leading zero omitted, Abs format (unit mm)*
G04 Created by KiCad (PCBNEW (6.0.2)) date 2022-06-24 18:07:30*
%MOMM*%
%LPD*%
G01*
G04 APERTURE LIST*
%ADD10C,0.300000*%
%ADD11C,0.150000*%
%ADD12C,0.120000*%
%ADD13R,1.600000X1.600000*%
%ADD14O,1.600000X1.600000*%
%ADD15R,1.130000X1.130000*%
%ADD16C,1.130000*%
%ADD17C,2.000000*%
%ADD18C,0.800000*%
%ADD19C,7.000000*%
%ADD20C,1.400000*%
%ADD21O,1.400000X1.400000*%
%ADD22R,1.060000X1.060000*%
%ADD23C,1.060000*%
%ADD24R,1.050000X1.500000*%
%ADD25O,1.050000X1.500000*%
%ADD26R,1.700000X1.700000*%
%ADD27O,1.700000X1.700000*%
G04 APERTURE END LIST*
D10*
X122228000Y-103433904D02*
X119370857Y-103433904D01*
X120799428Y-108433904D02*
X120799428Y-103433904D01*
X116989904Y-108433904D02*
X117466095Y-108195809D01*
X117704190Y-107957714D01*
X117942285Y-107481523D01*
X117942285Y-106052952D01*
X117704190Y-105576761D01*
X117466095Y-105338666D01*
X116989904Y-105100571D01*
X116275619Y-105100571D01*
X115799428Y-105338666D01*
X115561333Y-105576761D01*
X115323238Y-106052952D01*
X115323238Y-107481523D01*
X115561333Y-107957714D01*
X115799428Y-108195809D01*
X116275619Y-108433904D01*
X116989904Y-108433904D01*
X112466095Y-108433904D02*
X112942285Y-108195809D01*
X113180380Y-107957714D01*
X113418476Y-107481523D01*
X113418476Y-106052952D01*
X113180380Y-105576761D01*
X112942285Y-105338666D01*
X112466095Y-105100571D01*
X111751809Y-105100571D01*
X111275619Y-105338666D01*
X111037523Y-105576761D01*
X110799428Y-106052952D01*
X110799428Y-107481523D01*
X111037523Y-107957714D01*
X111275619Y-108195809D01*
X111751809Y-108433904D01*
X112466095Y-108433904D01*
X108656571Y-108433904D02*
X108656571Y-103433904D01*
X106513714Y-108433904D02*
X106513714Y-105814857D01*
X106751809Y-105338666D01*
X107228000Y-105100571D01*
X107942285Y-105100571D01*
X108418476Y-105338666D01*
X108656571Y-105576761D01*
X104132761Y-108433904D02*
X104132761Y-103433904D01*
X103656571Y-106529142D02*
X102228000Y-108433904D01*
X102228000Y-105100571D02*
X104132761Y-107005333D01*
X97942285Y-108433904D02*
X97942285Y-105814857D01*
X98180380Y-105338666D01*
X98656571Y-105100571D01*
X99608952Y-105100571D01*
X100085142Y-105338666D01*
X97942285Y-108195809D02*
X98418476Y-108433904D01*
X99608952Y-108433904D01*
X100085142Y-108195809D01*
X100323238Y-107719619D01*
X100323238Y-107243428D01*
X100085142Y-106767238D01*
X99608952Y-106529142D01*
X98418476Y-106529142D01*
X97942285Y-106291047D01*
D11*
X120594380Y-64394238D02*
X121308666Y-64394238D01*
X121451523Y-64346619D01*
X121546761Y-64251380D01*
X121594380Y-64108523D01*
X121594380Y-64013285D01*
X121594380Y-64870428D02*
X120594380Y-64870428D01*
X120594380Y-65251380D01*
X120642000Y-65346619D01*
X120689619Y-65394238D01*
X120784857Y-65441857D01*
X120927714Y-65441857D01*
X121022952Y-65394238D01*
X121070571Y-65346619D01*
X121118190Y-65251380D01*
X121118190Y-64870428D01*
X120594380Y-65775190D02*
X121594380Y-66013285D01*
X120880095Y-66203761D01*
X121594380Y-66394238D01*
X120594380Y-66632333D01*
X121594380Y-67584714D02*
X121118190Y-67251380D01*
X121594380Y-67013285D02*
X120594380Y-67013285D01*
X120594380Y-67394238D01*
X120642000Y-67489476D01*
X120689619Y-67537095D01*
X120784857Y-67584714D01*
X120927714Y-67584714D01*
X121022952Y-67537095D01*
X121070571Y-67489476D01*
X121118190Y-67394238D01*
X121118190Y-67013285D01*
X121594380Y-68537095D02*
X121594380Y-67965666D01*
X121594380Y-68251380D02*
X120594380Y-68251380D01*
X120737238Y-68156142D01*
X120832476Y-68060904D01*
X120880095Y-67965666D01*
D12*
X118872000Y-71954000D02*
X120142000Y-71954000D01*
X107442000Y-69244000D02*
X107442000Y-66584000D01*
X118832000Y-66584000D02*
X118832000Y-60584000D01*
X109092000Y-69641071D02*
X109092000Y-69244000D01*
X117602000Y-69244000D02*
X117602000Y-66584000D01*
X106552000Y-66584000D02*
X106552000Y-60584000D01*
X120202000Y-69244000D02*
X102302000Y-69244000D01*
X118592000Y-66584000D02*
X118592000Y-60584000D01*
X104012000Y-60584000D02*
X103252000Y-60584000D01*
X116712000Y-69641071D02*
X116712000Y-69244000D01*
X104902000Y-69244000D02*
X104902000Y-66584000D01*
X104012000Y-69641071D02*
X104012000Y-69244000D01*
X118492000Y-69574000D02*
X118492000Y-69244000D01*
X120142000Y-71954000D02*
X120142000Y-70684000D01*
X105792000Y-60584000D02*
X105792000Y-66584000D01*
X108332000Y-60584000D02*
X108332000Y-66584000D01*
X105792000Y-69641071D02*
X105792000Y-69244000D01*
X111632000Y-69641071D02*
X111632000Y-69244000D01*
X102302000Y-69244000D02*
X102302000Y-66584000D01*
X111632000Y-66584000D02*
X111632000Y-60584000D01*
X113412000Y-60584000D02*
X113412000Y-66584000D01*
X109092000Y-60584000D02*
X108332000Y-60584000D01*
X119192000Y-66584000D02*
X119192000Y-60584000D01*
X106552000Y-69641071D02*
X106552000Y-69244000D01*
X120202000Y-66584000D02*
X120202000Y-69244000D01*
X119252000Y-69574000D02*
X119252000Y-69244000D01*
X112522000Y-69244000D02*
X112522000Y-66584000D01*
X104012000Y-66584000D02*
X104012000Y-60584000D01*
X115062000Y-69244000D02*
X115062000Y-66584000D01*
X110872000Y-60584000D02*
X110872000Y-66584000D01*
X114172000Y-66584000D02*
X114172000Y-60584000D01*
X118712000Y-66584000D02*
X118712000Y-60584000D01*
X114172000Y-69641071D02*
X114172000Y-69244000D01*
X106552000Y-60584000D02*
X105792000Y-60584000D01*
X103252000Y-69641071D02*
X103252000Y-69244000D01*
X114172000Y-60584000D02*
X113412000Y-60584000D01*
X118492000Y-60584000D02*
X118492000Y-66584000D01*
X110872000Y-69641071D02*
X110872000Y-69244000D01*
X111632000Y-60584000D02*
X110872000Y-60584000D01*
X115952000Y-60584000D02*
X115952000Y-66584000D01*
X109982000Y-69244000D02*
X109982000Y-66584000D01*
X103252000Y-60584000D02*
X103252000Y-66584000D01*
X116712000Y-66584000D02*
X116712000Y-60584000D01*
X116712000Y-60584000D02*
X115952000Y-60584000D01*
X102302000Y-66584000D02*
X120202000Y-66584000D01*
X113412000Y-69641071D02*
X113412000Y-69244000D01*
X119072000Y-66584000D02*
X119072000Y-60584000D01*
X109092000Y-66584000D02*
X109092000Y-60584000D01*
X119252000Y-60584000D02*
X118492000Y-60584000D01*
X115952000Y-69641071D02*
X115952000Y-69244000D01*
X108332000Y-69641071D02*
X108332000Y-69244000D01*
X118952000Y-66584000D02*
X118952000Y-60584000D01*
X119252000Y-66584000D02*
X119252000Y-60584000D01*
%LPC*%
D13*
X169291000Y-100584000D03*
D14*
X166751000Y-100584000D03*
D13*
X160655000Y-87122000D03*
D14*
X158115000Y-87122000D03*
D15*
X178910000Y-61722000D03*
D16*
X178910000Y-64262000D03*
X178910000Y-66802000D03*
X178910000Y-69342000D03*
X178910000Y-71882000D03*
X178910000Y-74422000D03*
X178910000Y-76962000D03*
X178910000Y-79502000D03*
X186850000Y-79502000D03*
X186850000Y-76962000D03*
X186850000Y-74422000D03*
X186850000Y-71882000D03*
X186850000Y-69342000D03*
X186850000Y-66802000D03*
X186850000Y-64262000D03*
X186850000Y-61722000D03*
D13*
X207264000Y-86868000D03*
D14*
X209804000Y-86868000D03*
D17*
X131774000Y-107986000D03*
X125274000Y-107986000D03*
X131774000Y-112486000D03*
X125274000Y-112486000D03*
D13*
X200660000Y-86868000D03*
D14*
X203200000Y-86868000D03*
D18*
X222836155Y-65356155D03*
X220980000Y-60875000D03*
X222836155Y-61643845D03*
X219123845Y-61643845D03*
X219123845Y-65356155D03*
X223605000Y-63500000D03*
X220980000Y-66125000D03*
X218355000Y-63500000D03*
D19*
X220980000Y-63500000D03*
D20*
X207772000Y-80391000D03*
D21*
X205232000Y-80391000D03*
D20*
X209804000Y-94107000D03*
D21*
X207264000Y-94107000D03*
D22*
X193040000Y-109914000D03*
D23*
X195580000Y-109914000D03*
X198120000Y-109914000D03*
X200660000Y-109914000D03*
X203200000Y-109914000D03*
X205740000Y-109914000D03*
X208280000Y-109914000D03*
X210820000Y-109914000D03*
X213360000Y-109914000D03*
X213360000Y-101414000D03*
X210820000Y-101414000D03*
X208280000Y-101414000D03*
X205740000Y-101414000D03*
X203200000Y-101414000D03*
X200660000Y-101414000D03*
X198120000Y-101414000D03*
X195580000Y-101414000D03*
X193040000Y-101414000D03*
D13*
X173863000Y-87122000D03*
D14*
X171323000Y-87122000D03*
D13*
X198628000Y-73152000D03*
D14*
X201168000Y-73152000D03*
D18*
X94312155Y-65356155D03*
X89831000Y-63500000D03*
X90599845Y-65356155D03*
X92456000Y-66125000D03*
X94312155Y-61643845D03*
D19*
X92456000Y-63500000D03*
D18*
X92456000Y-60875000D03*
X90599845Y-61643845D03*
X95081000Y-63500000D03*
D24*
X207264000Y-90932000D03*
D25*
X208534000Y-90932000D03*
X209804000Y-90932000D03*
D24*
X173863000Y-83058000D03*
D25*
X172593000Y-83058000D03*
X171323000Y-83058000D03*
D24*
X194056000Y-90932000D03*
D25*
X195326000Y-90932000D03*
X196596000Y-90932000D03*
D20*
X166751000Y-93345000D03*
D21*
X169291000Y-93345000D03*
D24*
X149225000Y-96520000D03*
D25*
X147955000Y-96520000D03*
X146685000Y-96520000D03*
D15*
X186850000Y-102362000D03*
D16*
X186850000Y-99822000D03*
X186850000Y-97282000D03*
X186850000Y-94742000D03*
X186850000Y-92202000D03*
X186850000Y-89662000D03*
X186850000Y-87122000D03*
X186850000Y-84582000D03*
X178910000Y-84582000D03*
X178910000Y-87122000D03*
X178910000Y-89662000D03*
X178910000Y-92202000D03*
X178910000Y-94742000D03*
X178910000Y-97282000D03*
X178910000Y-99822000D03*
X178910000Y-102362000D03*
D24*
X211836000Y-77216000D03*
D25*
X213106000Y-77216000D03*
X214376000Y-77216000D03*
D24*
X167005000Y-83058000D03*
D25*
X165735000Y-83058000D03*
X164465000Y-83058000D03*
D20*
X157911000Y-79883000D03*
D21*
X160451000Y-79883000D03*
D24*
X162687000Y-96520000D03*
D25*
X161417000Y-96520000D03*
X160147000Y-96520000D03*
D24*
X200660000Y-90932000D03*
D25*
X201930000Y-90932000D03*
X203200000Y-90932000D03*
D20*
X203200000Y-94107000D03*
D21*
X200660000Y-94107000D03*
D17*
X143458000Y-107986000D03*
X136958000Y-107986000D03*
X143458000Y-112486000D03*
X136958000Y-112486000D03*
D13*
X213868000Y-86868000D03*
D14*
X216408000Y-86868000D03*
D24*
X160401000Y-83058000D03*
D25*
X159131000Y-83058000D03*
X157861000Y-83058000D03*
D24*
X153797000Y-83058000D03*
D25*
X152527000Y-83058000D03*
X151257000Y-83058000D03*
D24*
X205232000Y-77216000D03*
D25*
X206502000Y-77216000D03*
X207772000Y-77216000D03*
D20*
X214376000Y-80391000D03*
D21*
X211836000Y-80391000D03*
D17*
X96230000Y-98246000D03*
X96230000Y-91746000D03*
X91730000Y-91746000D03*
X91730000Y-98246000D03*
D24*
X169291000Y-96520000D03*
D25*
X168021000Y-96520000D03*
X166751000Y-96520000D03*
D22*
X168656000Y-63314000D03*
D23*
X166116000Y-63314000D03*
X163576000Y-63314000D03*
X161036000Y-63314000D03*
X158496000Y-63314000D03*
X155956000Y-63314000D03*
X153416000Y-63314000D03*
X150876000Y-63314000D03*
X148336000Y-63314000D03*
X148336000Y-71814000D03*
X150876000Y-71814000D03*
X153416000Y-71814000D03*
X155956000Y-71814000D03*
X158496000Y-71814000D03*
X161036000Y-71814000D03*
X163576000Y-71814000D03*
X166116000Y-71814000D03*
X168656000Y-71814000D03*
D13*
X149479000Y-100584000D03*
D14*
X146939000Y-100584000D03*
D24*
X198628000Y-77216000D03*
D25*
X199898000Y-77216000D03*
X201168000Y-77216000D03*
D13*
X192024000Y-73152000D03*
D14*
X194564000Y-73152000D03*
D20*
X160147000Y-93345000D03*
D21*
X162687000Y-93345000D03*
D20*
X153543000Y-93345000D03*
D21*
X156083000Y-93345000D03*
D20*
X171323000Y-79883000D03*
D21*
X173863000Y-79883000D03*
D20*
X164719000Y-79883000D03*
D21*
X167259000Y-79883000D03*
D13*
X141224000Y-101600000D03*
D14*
X141224000Y-99060000D03*
X141224000Y-96520000D03*
X141224000Y-93980000D03*
X141224000Y-91440000D03*
X141224000Y-88900000D03*
X141224000Y-86360000D03*
X141224000Y-83820000D03*
X141224000Y-81280000D03*
X141224000Y-78740000D03*
X141224000Y-76200000D03*
X141224000Y-73660000D03*
X141224000Y-71120000D03*
X141224000Y-68580000D03*
X141224000Y-66040000D03*
X125984000Y-66040000D03*
X125984000Y-68580000D03*
X125984000Y-71120000D03*
X125984000Y-73660000D03*
X125984000Y-76200000D03*
X125984000Y-78740000D03*
X125984000Y-81280000D03*
X125984000Y-83820000D03*
X125984000Y-86360000D03*
X125984000Y-88900000D03*
X125984000Y-91440000D03*
X125984000Y-93980000D03*
X125984000Y-96520000D03*
X125984000Y-99060000D03*
X125984000Y-101600000D03*
D20*
X194564000Y-80391000D03*
D21*
X192024000Y-80391000D03*
D13*
X154051000Y-87122000D03*
D14*
X151511000Y-87122000D03*
D20*
X146939000Y-93345000D03*
D21*
X149479000Y-93345000D03*
D13*
X194154315Y-86868000D03*
D14*
X196694315Y-86868000D03*
D18*
X94312155Y-112600155D03*
X92456000Y-113369000D03*
X90599845Y-112600155D03*
X95081000Y-110744000D03*
X89831000Y-110744000D03*
X94312155Y-108887845D03*
X92456000Y-108119000D03*
X90599845Y-108887845D03*
D19*
X92456000Y-110744000D03*
D25*
X194564000Y-77216000D03*
X193294000Y-77216000D03*
D24*
X192024000Y-77216000D03*
D13*
X211836000Y-73152000D03*
D14*
X214376000Y-73152000D03*
D26*
X117577000Y-112168000D03*
D27*
X115037000Y-112168000D03*
X112497000Y-112168000D03*
X109957000Y-112168000D03*
X107417000Y-112168000D03*
X104877000Y-112168000D03*
D13*
X167259000Y-87122000D03*
D14*
X164719000Y-87122000D03*
D17*
X96230000Y-86054000D03*
X96230000Y-79554000D03*
X91730000Y-79554000D03*
X91730000Y-86054000D03*
D26*
X156464000Y-109220000D03*
D27*
X159004000Y-109220000D03*
X161544000Y-109220000D03*
X164084000Y-109220000D03*
X166624000Y-109220000D03*
X169164000Y-109220000D03*
X171704000Y-109220000D03*
X174244000Y-109220000D03*
X176784000Y-109220000D03*
X179324000Y-109220000D03*
D13*
X156083000Y-100584000D03*
D14*
X153543000Y-100584000D03*
D24*
X156083000Y-96520000D03*
D25*
X154813000Y-96520000D03*
X153543000Y-96520000D03*
D20*
X201168000Y-80391000D03*
D21*
X198628000Y-80391000D03*
D20*
X216408000Y-94107000D03*
D21*
X213868000Y-94107000D03*
D13*
X162687000Y-100584000D03*
D14*
X160147000Y-100584000D03*
D13*
X205232000Y-73152000D03*
D14*
X207772000Y-73152000D03*
D24*
X213868000Y-90932000D03*
D25*
X215138000Y-90932000D03*
X216408000Y-90932000D03*
D26*
X212852000Y-65024000D03*
D27*
X210312000Y-65024000D03*
X207772000Y-65024000D03*
X205232000Y-65024000D03*
X202692000Y-65024000D03*
X200152000Y-65024000D03*
X197612000Y-65024000D03*
X195072000Y-65024000D03*
D20*
X151511000Y-79883000D03*
D21*
X154051000Y-79883000D03*
D20*
X196596000Y-94107000D03*
D21*
X194056000Y-94107000D03*
D19*
X220980000Y-110744000D03*
D18*
X223605000Y-110744000D03*
X219123845Y-112600155D03*
X220980000Y-108119000D03*
X222836155Y-112600155D03*
X220980000Y-113369000D03*
X218355000Y-110744000D03*
X222836155Y-108887845D03*
X219123845Y-108887845D03*
D26*
X118872000Y-70684000D03*
D27*
X116332000Y-70684000D03*
X113792000Y-70684000D03*
X111252000Y-70684000D03*
X108712000Y-70684000D03*
X106172000Y-70684000D03*
X103632000Y-70684000D03*
M02*
