%FSLAX45Y45*%
G04 Gerber Fmt 4.5, Leading zero omitted, Abs format (unit mm)*
G04 Created by KiCad (PCBNEW (6.0.2)) date 2022-06-24 18:07:36*
%MOMM*%
%LPD*%
G01*
G04 APERTURE LIST*
%TA.AperFunction,Profile*%
%ADD10C,0.100000*%
%TD*%
%ADD11C,0.200000*%
%ADD12C,0.040000*%
%ADD13C,0.050000*%
%ADD14C,0.066000*%
%ADD15C,0.070000*%
%ADD16C,0.073000*%
%ADD17C,0.075000*%
%ADD18C,0.080000*%
%ADD19C,0.100000*%
%ADD20C,0.110000*%
%ADD21C,0.350000*%
G04 APERTURE END LIST*
D10*
X8788400Y-5892800D02*
X22555200Y-5892800D01*
X22555200Y-5892800D02*
X22555200Y-11531600D01*
X22555200Y-11531600D02*
X8788400Y-11531600D01*
X8788400Y-11531600D02*
X8788400Y-5892800D01*
D11*
D12*
X9225600Y-6838000D02*
X9265600Y-6878000D01*
X9265600Y-6838000D02*
X9225600Y-6878000D01*
X9225600Y-10546400D02*
X9265600Y-10586400D01*
X9265600Y-10546400D02*
X9225600Y-10586400D01*
X9733600Y-6330000D02*
X9773600Y-6370000D01*
X9773600Y-6330000D02*
X9733600Y-6370000D01*
X9733600Y-11054400D02*
X9773600Y-11094400D01*
X9773600Y-11054400D02*
X9733600Y-11094400D01*
X11765600Y-9632000D02*
X11805600Y-9672000D01*
X11805600Y-9632000D02*
X11765600Y-9672000D01*
X11918000Y-9632000D02*
X11958000Y-9672000D01*
X11958000Y-9632000D02*
X11918000Y-9672000D01*
X12070400Y-9784400D02*
X12110400Y-9824400D01*
X12110400Y-9784400D02*
X12070400Y-9824400D01*
X12273600Y-10546400D02*
X12313600Y-10586400D01*
X12313600Y-10546400D02*
X12273600Y-10586400D01*
X12527600Y-10546400D02*
X12567600Y-10586400D01*
X12567600Y-10546400D02*
X12527600Y-10586400D01*
X12883200Y-9733600D02*
X12923200Y-9773600D01*
X12923200Y-9733600D02*
X12883200Y-9773600D01*
X13594400Y-10190800D02*
X13634400Y-10230800D01*
X13634400Y-10190800D02*
X13594400Y-10230800D01*
X19030000Y-6279200D02*
X19070000Y-6319200D01*
X19070000Y-6279200D02*
X19030000Y-6319200D01*
X21570000Y-11054400D02*
X21610000Y-11094400D01*
X21610000Y-11054400D02*
X21570000Y-11094400D01*
X21620800Y-6076000D02*
X21660800Y-6116000D01*
X21660800Y-6076000D02*
X21620800Y-6116000D01*
X22078000Y-6838000D02*
X22118000Y-6878000D01*
X22118000Y-6838000D02*
X22078000Y-6878000D01*
X22078000Y-10546400D02*
X22118000Y-10586400D01*
X22118000Y-10546400D02*
X22078000Y-10586400D01*
D13*
X9008100Y-6350000D02*
G75*
G03*
X9008100Y-6350000I-25000J0D01*
G01*
X9008100Y-11074400D02*
G75*
G03*
X9008100Y-11074400I-25000J0D01*
G01*
X9084985Y-6164384D02*
G75*
G03*
X9084985Y-6164384I-25000J0D01*
G01*
X9084985Y-6535615D02*
G75*
G03*
X9084985Y-6535615I-25000J0D01*
G01*
X9084985Y-10888785D02*
G75*
G03*
X9084985Y-10888785I-25000J0D01*
G01*
X9084985Y-11260015D02*
G75*
G03*
X9084985Y-11260015I-25000J0D01*
G01*
X9270600Y-6087500D02*
G75*
G03*
X9270600Y-6087500I-25000J0D01*
G01*
X9270600Y-6612500D02*
G75*
G03*
X9270600Y-6612500I-25000J0D01*
G01*
X9270600Y-10811900D02*
G75*
G03*
X9270600Y-10811900I-25000J0D01*
G01*
X9270600Y-11336900D02*
G75*
G03*
X9270600Y-11336900I-25000J0D01*
G01*
X9456216Y-6164384D02*
G75*
G03*
X9456216Y-6164384I-25000J0D01*
G01*
X9456216Y-6535615D02*
G75*
G03*
X9456216Y-6535615I-25000J0D01*
G01*
X9456216Y-10888785D02*
G75*
G03*
X9456216Y-10888785I-25000J0D01*
G01*
X9456216Y-11260015D02*
G75*
G03*
X9456216Y-11260015I-25000J0D01*
G01*
X9533100Y-6350000D02*
G75*
G03*
X9533100Y-6350000I-25000J0D01*
G01*
X9533100Y-11074400D02*
G75*
G03*
X9533100Y-11074400I-25000J0D01*
G01*
X21860500Y-6350000D02*
G75*
G03*
X21860500Y-6350000I-25000J0D01*
G01*
X21860500Y-11074400D02*
G75*
G03*
X21860500Y-11074400I-25000J0D01*
G01*
X21937385Y-6164384D02*
G75*
G03*
X21937385Y-6164384I-25000J0D01*
G01*
X21937385Y-6535615D02*
G75*
G03*
X21937385Y-6535615I-25000J0D01*
G01*
X21937385Y-10888785D02*
G75*
G03*
X21937385Y-10888785I-25000J0D01*
G01*
X21937385Y-11260015D02*
G75*
G03*
X21937385Y-11260015I-25000J0D01*
G01*
X22123000Y-6087500D02*
G75*
G03*
X22123000Y-6087500I-25000J0D01*
G01*
X22123000Y-6612500D02*
G75*
G03*
X22123000Y-6612500I-25000J0D01*
G01*
X22123000Y-10811900D02*
G75*
G03*
X22123000Y-10811900I-25000J0D01*
G01*
X22123000Y-11336900D02*
G75*
G03*
X22123000Y-11336900I-25000J0D01*
G01*
X22308616Y-6164384D02*
G75*
G03*
X22308616Y-6164384I-25000J0D01*
G01*
X22308616Y-6535615D02*
G75*
G03*
X22308616Y-6535615I-25000J0D01*
G01*
X22308616Y-10888785D02*
G75*
G03*
X22308616Y-10888785I-25000J0D01*
G01*
X22308616Y-11260015D02*
G75*
G03*
X22308616Y-11260015I-25000J0D01*
G01*
X22385500Y-6350000D02*
G75*
G03*
X22385500Y-6350000I-25000J0D01*
G01*
X22385500Y-11074400D02*
G75*
G03*
X22385500Y-11074400I-25000J0D01*
G01*
D14*
X14833600Y-6298400D02*
X14833600Y-6364400D01*
X14800600Y-6331400D02*
X14866600Y-6331400D01*
X14833600Y-7148400D02*
X14833600Y-7214400D01*
X14800600Y-7181400D02*
X14866600Y-7181400D01*
X15087600Y-6298400D02*
X15087600Y-6364400D01*
X15054600Y-6331400D02*
X15120600Y-6331400D01*
X15087600Y-7148400D02*
X15087600Y-7214400D01*
X15054600Y-7181400D02*
X15120600Y-7181400D01*
X15341600Y-6298400D02*
X15341600Y-6364400D01*
X15308600Y-6331400D02*
X15374600Y-6331400D01*
X15341600Y-7148400D02*
X15341600Y-7214400D01*
X15308600Y-7181400D02*
X15374600Y-7181400D01*
X15595600Y-6298400D02*
X15595600Y-6364400D01*
X15562600Y-6331400D02*
X15628600Y-6331400D01*
X15595600Y-7148400D02*
X15595600Y-7214400D01*
X15562600Y-7181400D02*
X15628600Y-7181400D01*
X15849600Y-6298400D02*
X15849600Y-6364400D01*
X15816600Y-6331400D02*
X15882600Y-6331400D01*
X15849600Y-7148400D02*
X15849600Y-7214400D01*
X15816600Y-7181400D02*
X15882600Y-7181400D01*
X16103600Y-6298400D02*
X16103600Y-6364400D01*
X16070600Y-6331400D02*
X16136600Y-6331400D01*
X16103600Y-7148400D02*
X16103600Y-7214400D01*
X16070600Y-7181400D02*
X16136600Y-7181400D01*
X16357600Y-6298400D02*
X16357600Y-6364400D01*
X16324600Y-6331400D02*
X16390600Y-6331400D01*
X16357600Y-7148400D02*
X16357600Y-7214400D01*
X16324600Y-7181400D02*
X16390600Y-7181400D01*
X16611600Y-6298400D02*
X16611600Y-6364400D01*
X16578600Y-6331400D02*
X16644600Y-6331400D01*
X16611600Y-7148400D02*
X16611600Y-7214400D01*
X16578600Y-7181400D02*
X16644600Y-7181400D01*
X16865600Y-6298400D02*
X16865600Y-6364400D01*
X16832600Y-6331400D02*
X16898600Y-6331400D01*
X16865600Y-7148400D02*
X16865600Y-7214400D01*
X16832600Y-7181400D02*
X16898600Y-7181400D01*
X19304000Y-10108400D02*
X19304000Y-10174400D01*
X19271000Y-10141400D02*
X19337000Y-10141400D01*
X19304000Y-10958400D02*
X19304000Y-11024400D01*
X19271000Y-10991400D02*
X19337000Y-10991400D01*
X19558000Y-10108400D02*
X19558000Y-10174400D01*
X19525000Y-10141400D02*
X19591000Y-10141400D01*
X19558000Y-10958400D02*
X19558000Y-11024400D01*
X19525000Y-10991400D02*
X19591000Y-10991400D01*
X19812000Y-10108400D02*
X19812000Y-10174400D01*
X19779000Y-10141400D02*
X19845000Y-10141400D01*
X19812000Y-10958400D02*
X19812000Y-11024400D01*
X19779000Y-10991400D02*
X19845000Y-10991400D01*
X20066000Y-10108400D02*
X20066000Y-10174400D01*
X20033000Y-10141400D02*
X20099000Y-10141400D01*
X20066000Y-10958400D02*
X20066000Y-11024400D01*
X20033000Y-10991400D02*
X20099000Y-10991400D01*
X20320000Y-10108400D02*
X20320000Y-10174400D01*
X20287000Y-10141400D02*
X20353000Y-10141400D01*
X20320000Y-10958400D02*
X20320000Y-11024400D01*
X20287000Y-10991400D02*
X20353000Y-10991400D01*
X20574000Y-10108400D02*
X20574000Y-10174400D01*
X20541000Y-10141400D02*
X20607000Y-10141400D01*
X20574000Y-10958400D02*
X20574000Y-11024400D01*
X20541000Y-10991400D02*
X20607000Y-10991400D01*
X20828000Y-10108400D02*
X20828000Y-10174400D01*
X20795000Y-10141400D02*
X20861000Y-10141400D01*
X20828000Y-10958400D02*
X20828000Y-11024400D01*
X20795000Y-10991400D02*
X20861000Y-10991400D01*
X21082000Y-10108400D02*
X21082000Y-10174400D01*
X21049000Y-10141400D02*
X21115000Y-10141400D01*
X21082000Y-10958400D02*
X21082000Y-11024400D01*
X21049000Y-10991400D02*
X21115000Y-10991400D01*
X21336000Y-10108400D02*
X21336000Y-10174400D01*
X21303000Y-10141400D02*
X21369000Y-10141400D01*
X21336000Y-10958400D02*
X21336000Y-11024400D01*
X21303000Y-10991400D02*
X21369000Y-10991400D01*
D15*
X14718649Y-9359249D02*
X14718649Y-9309751D01*
X14669151Y-9309751D01*
X14669151Y-9359249D01*
X14718649Y-9359249D01*
X14972649Y-9359249D02*
X14972649Y-9309751D01*
X14923151Y-9309751D01*
X14923151Y-9359249D01*
X14972649Y-9359249D01*
X15175849Y-8013049D02*
X15175849Y-7963551D01*
X15126351Y-7963551D01*
X15126351Y-8013049D01*
X15175849Y-8013049D01*
X15379049Y-9359249D02*
X15379049Y-9309751D01*
X15329551Y-9309751D01*
X15329551Y-9359249D01*
X15379049Y-9359249D01*
X15429849Y-8013049D02*
X15429849Y-7963551D01*
X15380351Y-7963551D01*
X15380351Y-8013049D01*
X15429849Y-8013049D01*
X15633049Y-9359249D02*
X15633049Y-9309751D01*
X15583551Y-9309751D01*
X15583551Y-9359249D01*
X15633049Y-9359249D01*
X15815849Y-8013049D02*
X15815849Y-7963551D01*
X15766351Y-7963551D01*
X15766351Y-8013049D01*
X15815849Y-8013049D01*
X16039449Y-9359249D02*
X16039449Y-9309751D01*
X15989951Y-9309751D01*
X15989951Y-9359249D01*
X16039449Y-9359249D01*
X16069849Y-8013049D02*
X16069849Y-7963551D01*
X16020351Y-7963551D01*
X16020351Y-8013049D01*
X16069849Y-8013049D01*
X16293449Y-9359249D02*
X16293449Y-9309751D01*
X16243951Y-9309751D01*
X16243951Y-9359249D01*
X16293449Y-9359249D01*
X16496649Y-8013049D02*
X16496649Y-7963551D01*
X16447151Y-7963551D01*
X16447151Y-8013049D01*
X16496649Y-8013049D01*
X16699849Y-9359249D02*
X16699849Y-9309751D01*
X16650351Y-9309751D01*
X16650351Y-9359249D01*
X16699849Y-9359249D01*
X16750649Y-8013049D02*
X16750649Y-7963551D01*
X16701151Y-7963551D01*
X16701151Y-8013049D01*
X16750649Y-8013049D01*
X16953849Y-9359249D02*
X16953849Y-9309751D01*
X16904351Y-9309751D01*
X16904351Y-9359249D01*
X16953849Y-9359249D01*
X17157049Y-8013049D02*
X17157049Y-7963551D01*
X17107551Y-7963551D01*
X17107551Y-8013049D01*
X17157049Y-8013049D01*
X17411049Y-8013049D02*
X17411049Y-7963551D01*
X17361551Y-7963551D01*
X17361551Y-8013049D01*
X17411049Y-8013049D01*
X19227149Y-8063849D02*
X19227149Y-8014351D01*
X19177651Y-8014351D01*
X19177651Y-8063849D01*
X19227149Y-8063849D01*
X19430349Y-9435449D02*
X19430349Y-9385951D01*
X19380851Y-9385951D01*
X19380851Y-9435449D01*
X19430349Y-9435449D01*
X19481149Y-8063849D02*
X19481149Y-8014351D01*
X19431651Y-8014351D01*
X19431651Y-8063849D01*
X19481149Y-8063849D01*
X19684349Y-9435449D02*
X19684349Y-9385951D01*
X19634851Y-9385951D01*
X19634851Y-9435449D01*
X19684349Y-9435449D01*
X19887549Y-8063849D02*
X19887549Y-8014351D01*
X19838051Y-8014351D01*
X19838051Y-8063849D01*
X19887549Y-8063849D01*
X20090749Y-9435449D02*
X20090749Y-9385951D01*
X20041251Y-9385951D01*
X20041251Y-9435449D01*
X20090749Y-9435449D01*
X20141549Y-8063849D02*
X20141549Y-8014351D01*
X20092051Y-8014351D01*
X20092051Y-8063849D01*
X20141549Y-8063849D01*
X20344749Y-9435449D02*
X20344749Y-9385951D01*
X20295251Y-9385951D01*
X20295251Y-9435449D01*
X20344749Y-9435449D01*
X20547949Y-8063849D02*
X20547949Y-8014351D01*
X20498451Y-8014351D01*
X20498451Y-8063849D01*
X20547949Y-8063849D01*
X20751149Y-9435449D02*
X20751149Y-9385951D01*
X20701651Y-9385951D01*
X20701651Y-9435449D01*
X20751149Y-9435449D01*
X20801949Y-8063849D02*
X20801949Y-8014351D01*
X20752451Y-8014351D01*
X20752451Y-8063849D01*
X20801949Y-8063849D01*
X21005149Y-9435449D02*
X21005149Y-9385951D01*
X20955651Y-9385951D01*
X20955651Y-9435449D01*
X21005149Y-9435449D01*
X21208349Y-8063849D02*
X21208349Y-8014351D01*
X21158851Y-8014351D01*
X21158851Y-8063849D01*
X21208349Y-8063849D01*
X21411549Y-9435449D02*
X21411549Y-9385951D01*
X21362051Y-9385951D01*
X21362051Y-9435449D01*
X21411549Y-9435449D01*
X21462349Y-8063849D02*
X21462349Y-8014351D01*
X21412851Y-8014351D01*
X21412851Y-8063849D01*
X21462349Y-8063849D01*
X21665549Y-9435449D02*
X21665549Y-9385951D01*
X21616051Y-9385951D01*
X21616051Y-9435449D01*
X21665549Y-9435449D01*
D16*
X17891000Y-6208700D02*
X17927500Y-6172200D01*
X17891000Y-6135700D01*
X17854500Y-6172200D01*
X17891000Y-6208700D01*
X17891000Y-6462700D02*
X17927500Y-6426200D01*
X17891000Y-6389700D01*
X17854500Y-6426200D01*
X17891000Y-6462700D01*
X17891000Y-6716700D02*
X17927500Y-6680200D01*
X17891000Y-6643700D01*
X17854500Y-6680200D01*
X17891000Y-6716700D01*
X17891000Y-6970700D02*
X17927500Y-6934200D01*
X17891000Y-6897700D01*
X17854500Y-6934200D01*
X17891000Y-6970700D01*
X17891000Y-7224700D02*
X17927500Y-7188200D01*
X17891000Y-7151700D01*
X17854500Y-7188200D01*
X17891000Y-7224700D01*
X17891000Y-7478700D02*
X17927500Y-7442200D01*
X17891000Y-7405700D01*
X17854500Y-7442200D01*
X17891000Y-7478700D01*
X17891000Y-7732700D02*
X17927500Y-7696200D01*
X17891000Y-7659700D01*
X17854500Y-7696200D01*
X17891000Y-7732700D01*
X17891000Y-7986700D02*
X17927500Y-7950200D01*
X17891000Y-7913700D01*
X17854500Y-7950200D01*
X17891000Y-7986700D01*
X17891000Y-8494700D02*
X17927500Y-8458200D01*
X17891000Y-8421700D01*
X17854500Y-8458200D01*
X17891000Y-8494700D01*
X17891000Y-8748700D02*
X17927500Y-8712200D01*
X17891000Y-8675700D01*
X17854500Y-8712200D01*
X17891000Y-8748700D01*
X17891000Y-9002700D02*
X17927500Y-8966200D01*
X17891000Y-8929700D01*
X17854500Y-8966200D01*
X17891000Y-9002700D01*
X17891000Y-9256700D02*
X17927500Y-9220200D01*
X17891000Y-9183700D01*
X17854500Y-9220200D01*
X17891000Y-9256700D01*
X17891000Y-9510700D02*
X17927500Y-9474200D01*
X17891000Y-9437700D01*
X17854500Y-9474200D01*
X17891000Y-9510700D01*
X17891000Y-9764700D02*
X17927500Y-9728200D01*
X17891000Y-9691700D01*
X17854500Y-9728200D01*
X17891000Y-9764700D01*
X17891000Y-10018700D02*
X17927500Y-9982200D01*
X17891000Y-9945700D01*
X17854500Y-9982200D01*
X17891000Y-10018700D01*
X17891000Y-10272700D02*
X17927500Y-10236200D01*
X17891000Y-10199700D01*
X17854500Y-10236200D01*
X17891000Y-10272700D01*
X18685000Y-6208700D02*
X18721500Y-6172200D01*
X18685000Y-6135700D01*
X18648500Y-6172200D01*
X18685000Y-6208700D01*
X18685000Y-6462700D02*
X18721500Y-6426200D01*
X18685000Y-6389700D01*
X18648500Y-6426200D01*
X18685000Y-6462700D01*
X18685000Y-6716700D02*
X18721500Y-6680200D01*
X18685000Y-6643700D01*
X18648500Y-6680200D01*
X18685000Y-6716700D01*
X18685000Y-6970700D02*
X18721500Y-6934200D01*
X18685000Y-6897700D01*
X18648500Y-6934200D01*
X18685000Y-6970700D01*
X18685000Y-7224700D02*
X18721500Y-7188200D01*
X18685000Y-7151700D01*
X18648500Y-7188200D01*
X18685000Y-7224700D01*
X18685000Y-7478700D02*
X18721500Y-7442200D01*
X18685000Y-7405700D01*
X18648500Y-7442200D01*
X18685000Y-7478700D01*
X18685000Y-7732700D02*
X18721500Y-7696200D01*
X18685000Y-7659700D01*
X18648500Y-7696200D01*
X18685000Y-7732700D01*
X18685000Y-7986700D02*
X18721500Y-7950200D01*
X18685000Y-7913700D01*
X18648500Y-7950200D01*
X18685000Y-7986700D01*
X18685000Y-8494700D02*
X18721500Y-8458200D01*
X18685000Y-8421700D01*
X18648500Y-8458200D01*
X18685000Y-8494700D01*
X18685000Y-8748700D02*
X18721500Y-8712200D01*
X18685000Y-8675700D01*
X18648500Y-8712200D01*
X18685000Y-8748700D01*
X18685000Y-9002700D02*
X18721500Y-8966200D01*
X18685000Y-8929700D01*
X18648500Y-8966200D01*
X18685000Y-9002700D01*
X18685000Y-9256700D02*
X18721500Y-9220200D01*
X18685000Y-9183700D01*
X18648500Y-9220200D01*
X18685000Y-9256700D01*
X18685000Y-9510700D02*
X18721500Y-9474200D01*
X18685000Y-9437700D01*
X18648500Y-9474200D01*
X18685000Y-9510700D01*
X18685000Y-9764700D02*
X18721500Y-9728200D01*
X18685000Y-9691700D01*
X18648500Y-9728200D01*
X18685000Y-9764700D01*
X18685000Y-10018700D02*
X18721500Y-9982200D01*
X18685000Y-9945700D01*
X18648500Y-9982200D01*
X18685000Y-10018700D01*
X18685000Y-10272700D02*
X18721500Y-10236200D01*
X18685000Y-10199700D01*
X18648500Y-10236200D01*
X18685000Y-10272700D01*
D17*
X14631000Y-9614500D02*
X14706000Y-9689500D01*
X14706000Y-9614500D02*
X14631000Y-9689500D01*
X14706000Y-9652000D02*
G75*
G03*
X14706000Y-9652000I-37500J0D01*
G01*
X14758000Y-9614500D02*
X14833000Y-9689500D01*
X14833000Y-9614500D02*
X14758000Y-9689500D01*
X14833000Y-9652000D02*
G75*
G03*
X14833000Y-9652000I-37500J0D01*
G01*
X14885000Y-9614500D02*
X14960000Y-9689500D01*
X14960000Y-9614500D02*
X14885000Y-9689500D01*
X14960000Y-9652000D02*
G75*
G03*
X14960000Y-9652000I-37500J0D01*
G01*
X15088200Y-8268300D02*
X15163200Y-8343300D01*
X15163200Y-8268300D02*
X15088200Y-8343300D01*
X15163200Y-8305800D02*
G75*
G03*
X15163200Y-8305800I-37500J0D01*
G01*
X15215200Y-8268300D02*
X15290200Y-8343300D01*
X15290200Y-8268300D02*
X15215200Y-8343300D01*
X15290200Y-8305800D02*
G75*
G03*
X15290200Y-8305800I-37500J0D01*
G01*
X15316800Y-9614500D02*
X15391800Y-9689500D01*
X15391800Y-9614500D02*
X15316800Y-9689500D01*
X15391800Y-9652000D02*
G75*
G03*
X15391800Y-9652000I-37500J0D01*
G01*
X15342200Y-8268300D02*
X15417200Y-8343300D01*
X15417200Y-8268300D02*
X15342200Y-8343300D01*
X15417200Y-8305800D02*
G75*
G03*
X15417200Y-8305800I-37500J0D01*
G01*
X15443800Y-9614500D02*
X15518800Y-9689500D01*
X15518800Y-9614500D02*
X15443800Y-9689500D01*
X15518800Y-9652000D02*
G75*
G03*
X15518800Y-9652000I-37500J0D01*
G01*
X15570800Y-9614500D02*
X15645800Y-9689500D01*
X15645800Y-9614500D02*
X15570800Y-9689500D01*
X15645800Y-9652000D02*
G75*
G03*
X15645800Y-9652000I-37500J0D01*
G01*
X15748600Y-8268300D02*
X15823600Y-8343300D01*
X15823600Y-8268300D02*
X15748600Y-8343300D01*
X15823600Y-8305800D02*
G75*
G03*
X15823600Y-8305800I-37500J0D01*
G01*
X15875600Y-8268300D02*
X15950600Y-8343300D01*
X15950600Y-8268300D02*
X15875600Y-8343300D01*
X15950600Y-8305800D02*
G75*
G03*
X15950600Y-8305800I-37500J0D01*
G01*
X15977200Y-9614500D02*
X16052200Y-9689500D01*
X16052200Y-9614500D02*
X15977200Y-9689500D01*
X16052200Y-9652000D02*
G75*
G03*
X16052200Y-9652000I-37500J0D01*
G01*
X16002600Y-8268300D02*
X16077600Y-8343300D01*
X16077600Y-8268300D02*
X16002600Y-8343300D01*
X16077600Y-8305800D02*
G75*
G03*
X16077600Y-8305800I-37500J0D01*
G01*
X16104200Y-9614500D02*
X16179200Y-9689500D01*
X16179200Y-9614500D02*
X16104200Y-9689500D01*
X16179200Y-9652000D02*
G75*
G03*
X16179200Y-9652000I-37500J0D01*
G01*
X16231200Y-9614500D02*
X16306200Y-9689500D01*
X16306200Y-9614500D02*
X16231200Y-9689500D01*
X16306200Y-9652000D02*
G75*
G03*
X16306200Y-9652000I-37500J0D01*
G01*
X16409000Y-8268300D02*
X16484000Y-8343300D01*
X16484000Y-8268300D02*
X16409000Y-8343300D01*
X16484000Y-8305800D02*
G75*
G03*
X16484000Y-8305800I-37500J0D01*
G01*
X16536000Y-8268300D02*
X16611000Y-8343300D01*
X16611000Y-8268300D02*
X16536000Y-8343300D01*
X16611000Y-8305800D02*
G75*
G03*
X16611000Y-8305800I-37500J0D01*
G01*
X16637600Y-9614500D02*
X16712600Y-9689500D01*
X16712600Y-9614500D02*
X16637600Y-9689500D01*
X16712600Y-9652000D02*
G75*
G03*
X16712600Y-9652000I-37500J0D01*
G01*
X16663000Y-8268300D02*
X16738000Y-8343300D01*
X16738000Y-8268300D02*
X16663000Y-8343300D01*
X16738000Y-8305800D02*
G75*
G03*
X16738000Y-8305800I-37500J0D01*
G01*
X16764600Y-9614500D02*
X16839600Y-9689500D01*
X16839600Y-9614500D02*
X16764600Y-9689500D01*
X16839600Y-9652000D02*
G75*
G03*
X16839600Y-9652000I-37500J0D01*
G01*
X16891600Y-9614500D02*
X16966600Y-9689500D01*
X16966600Y-9614500D02*
X16891600Y-9689500D01*
X16966600Y-9652000D02*
G75*
G03*
X16966600Y-9652000I-37500J0D01*
G01*
X17094800Y-8268300D02*
X17169800Y-8343300D01*
X17169800Y-8268300D02*
X17094800Y-8343300D01*
X17169800Y-8305800D02*
G75*
G03*
X17169800Y-8305800I-37500J0D01*
G01*
X17221800Y-8268300D02*
X17296800Y-8343300D01*
X17296800Y-8268300D02*
X17221800Y-8343300D01*
X17296800Y-8305800D02*
G75*
G03*
X17296800Y-8305800I-37500J0D01*
G01*
X17348800Y-8268300D02*
X17423800Y-8343300D01*
X17423800Y-8268300D02*
X17348800Y-8343300D01*
X17423800Y-8305800D02*
G75*
G03*
X17423800Y-8305800I-37500J0D01*
G01*
X19164900Y-7684100D02*
X19239900Y-7759100D01*
X19239900Y-7684100D02*
X19164900Y-7759100D01*
X19239900Y-7721600D02*
G75*
G03*
X19239900Y-7721600I-37500J0D01*
G01*
X19291900Y-7684100D02*
X19366900Y-7759100D01*
X19366900Y-7684100D02*
X19291900Y-7759100D01*
X19366900Y-7721600D02*
G75*
G03*
X19366900Y-7721600I-37500J0D01*
G01*
X19368100Y-9055700D02*
X19443100Y-9130700D01*
X19443100Y-9055700D02*
X19368100Y-9130700D01*
X19443100Y-9093200D02*
G75*
G03*
X19443100Y-9093200I-37500J0D01*
G01*
X19418900Y-7684100D02*
X19493900Y-7759100D01*
X19493900Y-7684100D02*
X19418900Y-7759100D01*
X19493900Y-7721600D02*
G75*
G03*
X19493900Y-7721600I-37500J0D01*
G01*
X19495100Y-9055700D02*
X19570100Y-9130700D01*
X19570100Y-9055700D02*
X19495100Y-9130700D01*
X19570100Y-9093200D02*
G75*
G03*
X19570100Y-9093200I-37500J0D01*
G01*
X19622100Y-9055700D02*
X19697100Y-9130700D01*
X19697100Y-9055700D02*
X19622100Y-9130700D01*
X19697100Y-9093200D02*
G75*
G03*
X19697100Y-9093200I-37500J0D01*
G01*
X19825300Y-7684100D02*
X19900300Y-7759100D01*
X19900300Y-7684100D02*
X19825300Y-7759100D01*
X19900300Y-7721600D02*
G75*
G03*
X19900300Y-7721600I-37500J0D01*
G01*
X19952300Y-7684100D02*
X20027300Y-7759100D01*
X20027300Y-7684100D02*
X19952300Y-7759100D01*
X20027300Y-7721600D02*
G75*
G03*
X20027300Y-7721600I-37500J0D01*
G01*
X20028500Y-9055700D02*
X20103500Y-9130700D01*
X20103500Y-9055700D02*
X20028500Y-9130700D01*
X20103500Y-9093200D02*
G75*
G03*
X20103500Y-9093200I-37500J0D01*
G01*
X20079300Y-7684100D02*
X20154300Y-7759100D01*
X20154300Y-7684100D02*
X20079300Y-7759100D01*
X20154300Y-7721600D02*
G75*
G03*
X20154300Y-7721600I-37500J0D01*
G01*
X20155500Y-9055700D02*
X20230500Y-9130700D01*
X20230500Y-9055700D02*
X20155500Y-9130700D01*
X20230500Y-9093200D02*
G75*
G03*
X20230500Y-9093200I-37500J0D01*
G01*
X20282500Y-9055700D02*
X20357500Y-9130700D01*
X20357500Y-9055700D02*
X20282500Y-9130700D01*
X20357500Y-9093200D02*
G75*
G03*
X20357500Y-9093200I-37500J0D01*
G01*
X20485700Y-7684100D02*
X20560700Y-7759100D01*
X20560700Y-7684100D02*
X20485700Y-7759100D01*
X20560700Y-7721600D02*
G75*
G03*
X20560700Y-7721600I-37500J0D01*
G01*
X20612700Y-7684100D02*
X20687700Y-7759100D01*
X20687700Y-7684100D02*
X20612700Y-7759100D01*
X20687700Y-7721600D02*
G75*
G03*
X20687700Y-7721600I-37500J0D01*
G01*
X20688900Y-9055700D02*
X20763900Y-9130700D01*
X20763900Y-9055700D02*
X20688900Y-9130700D01*
X20763900Y-9093200D02*
G75*
G03*
X20763900Y-9093200I-37500J0D01*
G01*
X20739700Y-7684100D02*
X20814700Y-7759100D01*
X20814700Y-7684100D02*
X20739700Y-7759100D01*
X20814700Y-7721600D02*
G75*
G03*
X20814700Y-7721600I-37500J0D01*
G01*
X20815900Y-9055700D02*
X20890900Y-9130700D01*
X20890900Y-9055700D02*
X20815900Y-9130700D01*
X20890900Y-9093200D02*
G75*
G03*
X20890900Y-9093200I-37500J0D01*
G01*
X20942900Y-9055700D02*
X21017900Y-9130700D01*
X21017900Y-9055700D02*
X20942900Y-9130700D01*
X21017900Y-9093200D02*
G75*
G03*
X21017900Y-9093200I-37500J0D01*
G01*
X21146100Y-7684100D02*
X21221100Y-7759100D01*
X21221100Y-7684100D02*
X21146100Y-7759100D01*
X21221100Y-7721600D02*
G75*
G03*
X21221100Y-7721600I-37500J0D01*
G01*
X21273100Y-7684100D02*
X21348100Y-7759100D01*
X21348100Y-7684100D02*
X21273100Y-7759100D01*
X21348100Y-7721600D02*
G75*
G03*
X21348100Y-7721600I-37500J0D01*
G01*
X21349300Y-9055700D02*
X21424300Y-9130700D01*
X21424300Y-9055700D02*
X21349300Y-9130700D01*
X21424300Y-9093200D02*
G75*
G03*
X21424300Y-9093200I-37500J0D01*
G01*
X21400100Y-7684100D02*
X21475100Y-7759100D01*
X21475100Y-7684100D02*
X21400100Y-7759100D01*
X21475100Y-7721600D02*
G75*
G03*
X21475100Y-7721600I-37500J0D01*
G01*
X21476300Y-9055700D02*
X21551300Y-9130700D01*
X21551300Y-9055700D02*
X21476300Y-9130700D01*
X21551300Y-9093200D02*
G75*
G03*
X21551300Y-9093200I-37500J0D01*
G01*
X21603300Y-9055700D02*
X21678300Y-9130700D01*
X21678300Y-9055700D02*
X21603300Y-9130700D01*
X21678300Y-9093200D02*
G75*
G03*
X21678300Y-9093200I-37500J0D01*
G01*
D18*
X14653900Y-10018400D02*
X14733900Y-10098400D01*
X14733900Y-10018400D02*
X14653900Y-10098400D01*
X14693900Y-10018400D02*
X14693900Y-10098400D01*
X14653900Y-10058400D02*
X14733900Y-10058400D01*
X14907900Y-10018400D02*
X14987900Y-10098400D01*
X14987900Y-10018400D02*
X14907900Y-10098400D01*
X14947900Y-10018400D02*
X14947900Y-10098400D01*
X14907900Y-10058400D02*
X14987900Y-10058400D01*
X15111100Y-8672200D02*
X15191100Y-8752200D01*
X15191100Y-8672200D02*
X15111100Y-8752200D01*
X15151100Y-8672200D02*
X15151100Y-8752200D01*
X15111100Y-8712200D02*
X15191100Y-8712200D01*
X15314300Y-10018400D02*
X15394300Y-10098400D01*
X15394300Y-10018400D02*
X15314300Y-10098400D01*
X15354300Y-10018400D02*
X15354300Y-10098400D01*
X15314300Y-10058400D02*
X15394300Y-10058400D01*
X15365100Y-8672200D02*
X15445100Y-8752200D01*
X15445100Y-8672200D02*
X15365100Y-8752200D01*
X15405100Y-8672200D02*
X15405100Y-8752200D01*
X15365100Y-8712200D02*
X15445100Y-8712200D01*
X15568300Y-10018400D02*
X15648300Y-10098400D01*
X15648300Y-10018400D02*
X15568300Y-10098400D01*
X15608300Y-10018400D02*
X15608300Y-10098400D01*
X15568300Y-10058400D02*
X15648300Y-10058400D01*
X15771500Y-8672200D02*
X15851500Y-8752200D01*
X15851500Y-8672200D02*
X15771500Y-8752200D01*
X15811500Y-8672200D02*
X15811500Y-8752200D01*
X15771500Y-8712200D02*
X15851500Y-8712200D01*
X15974700Y-10018400D02*
X16054700Y-10098400D01*
X16054700Y-10018400D02*
X15974700Y-10098400D01*
X16014700Y-10018400D02*
X16014700Y-10098400D01*
X15974700Y-10058400D02*
X16054700Y-10058400D01*
X16025500Y-8672200D02*
X16105500Y-8752200D01*
X16105500Y-8672200D02*
X16025500Y-8752200D01*
X16065500Y-8672200D02*
X16065500Y-8752200D01*
X16025500Y-8712200D02*
X16105500Y-8712200D01*
X16228700Y-10018400D02*
X16308700Y-10098400D01*
X16308700Y-10018400D02*
X16228700Y-10098400D01*
X16268700Y-10018400D02*
X16268700Y-10098400D01*
X16228700Y-10058400D02*
X16308700Y-10058400D01*
X16431900Y-8672200D02*
X16511900Y-8752200D01*
X16511900Y-8672200D02*
X16431900Y-8752200D01*
X16471900Y-8672200D02*
X16471900Y-8752200D01*
X16431900Y-8712200D02*
X16511900Y-8712200D01*
X16635100Y-10018400D02*
X16715100Y-10098400D01*
X16715100Y-10018400D02*
X16635100Y-10098400D01*
X16675100Y-10018400D02*
X16675100Y-10098400D01*
X16635100Y-10058400D02*
X16715100Y-10058400D01*
X16685900Y-8672200D02*
X16765900Y-8752200D01*
X16765900Y-8672200D02*
X16685900Y-8752200D01*
X16725900Y-8672200D02*
X16725900Y-8752200D01*
X16685900Y-8712200D02*
X16765900Y-8712200D01*
X16889100Y-10018400D02*
X16969100Y-10098400D01*
X16969100Y-10018400D02*
X16889100Y-10098400D01*
X16929100Y-10018400D02*
X16929100Y-10098400D01*
X16889100Y-10058400D02*
X16969100Y-10058400D01*
X17092300Y-8672200D02*
X17172300Y-8752200D01*
X17172300Y-8672200D02*
X17092300Y-8752200D01*
X17132300Y-8672200D02*
X17132300Y-8752200D01*
X17092300Y-8712200D02*
X17172300Y-8712200D01*
X17346300Y-8672200D02*
X17426300Y-8752200D01*
X17426300Y-8672200D02*
X17346300Y-8752200D01*
X17386300Y-8672200D02*
X17386300Y-8752200D01*
X17346300Y-8712200D02*
X17426300Y-8712200D01*
X19162400Y-7275200D02*
X19242400Y-7355200D01*
X19242400Y-7275200D02*
X19162400Y-7355200D01*
X19202400Y-7275200D02*
X19202400Y-7355200D01*
X19162400Y-7315200D02*
X19242400Y-7315200D01*
X19375432Y-8646800D02*
X19455432Y-8726800D01*
X19455432Y-8646800D02*
X19375432Y-8726800D01*
X19415432Y-8646800D02*
X19415432Y-8726800D01*
X19375432Y-8686800D02*
X19455432Y-8686800D01*
X19416400Y-7275200D02*
X19496400Y-7355200D01*
X19496400Y-7275200D02*
X19416400Y-7355200D01*
X19456400Y-7275200D02*
X19456400Y-7355200D01*
X19416400Y-7315200D02*
X19496400Y-7315200D01*
X19629432Y-8646800D02*
X19709432Y-8726800D01*
X19709432Y-8646800D02*
X19629432Y-8726800D01*
X19669432Y-8646800D02*
X19669432Y-8726800D01*
X19629432Y-8686800D02*
X19709432Y-8686800D01*
X19822800Y-7275200D02*
X19902800Y-7355200D01*
X19902800Y-7275200D02*
X19822800Y-7355200D01*
X19862800Y-7275200D02*
X19862800Y-7355200D01*
X19822800Y-7315200D02*
X19902800Y-7315200D01*
X20026000Y-8646800D02*
X20106000Y-8726800D01*
X20106000Y-8646800D02*
X20026000Y-8726800D01*
X20066000Y-8646800D02*
X20066000Y-8726800D01*
X20026000Y-8686800D02*
X20106000Y-8686800D01*
X20076800Y-7275200D02*
X20156800Y-7355200D01*
X20156800Y-7275200D02*
X20076800Y-7355200D01*
X20116800Y-7275200D02*
X20116800Y-7355200D01*
X20076800Y-7315200D02*
X20156800Y-7315200D01*
X20280000Y-8646800D02*
X20360000Y-8726800D01*
X20360000Y-8646800D02*
X20280000Y-8726800D01*
X20320000Y-8646800D02*
X20320000Y-8726800D01*
X20280000Y-8686800D02*
X20360000Y-8686800D01*
X20483200Y-7275200D02*
X20563200Y-7355200D01*
X20563200Y-7275200D02*
X20483200Y-7355200D01*
X20523200Y-7275200D02*
X20523200Y-7355200D01*
X20483200Y-7315200D02*
X20563200Y-7315200D01*
X20686400Y-8646800D02*
X20766400Y-8726800D01*
X20766400Y-8646800D02*
X20686400Y-8726800D01*
X20726400Y-8646800D02*
X20726400Y-8726800D01*
X20686400Y-8686800D02*
X20766400Y-8686800D01*
X20737200Y-7275200D02*
X20817200Y-7355200D01*
X20817200Y-7275200D02*
X20737200Y-7355200D01*
X20777200Y-7275200D02*
X20777200Y-7355200D01*
X20737200Y-7315200D02*
X20817200Y-7315200D01*
X20940400Y-8646800D02*
X21020400Y-8726800D01*
X21020400Y-8646800D02*
X20940400Y-8726800D01*
X20980400Y-8646800D02*
X20980400Y-8726800D01*
X20940400Y-8686800D02*
X21020400Y-8686800D01*
X21143600Y-7275200D02*
X21223600Y-7355200D01*
X21223600Y-7275200D02*
X21143600Y-7355200D01*
X21183600Y-7275200D02*
X21183600Y-7355200D01*
X21143600Y-7315200D02*
X21223600Y-7315200D01*
X21346800Y-8646800D02*
X21426800Y-8726800D01*
X21426800Y-8646800D02*
X21346800Y-8726800D01*
X21386800Y-8646800D02*
X21386800Y-8726800D01*
X21346800Y-8686800D02*
X21426800Y-8686800D01*
X21397600Y-7275200D02*
X21477600Y-7355200D01*
X21477600Y-7275200D02*
X21397600Y-7355200D01*
X21437600Y-7275200D02*
X21437600Y-7355200D01*
X21397600Y-7315200D02*
X21477600Y-7315200D01*
X21600800Y-8646800D02*
X21680800Y-8726800D01*
X21680800Y-8646800D02*
X21600800Y-8726800D01*
X21640800Y-8646800D02*
X21640800Y-8726800D01*
X21600800Y-8686800D02*
X21680800Y-8686800D01*
D19*
X10313200Y-7018400D02*
X10413200Y-7118400D01*
X10413200Y-7018400D02*
X10313200Y-7118400D01*
X10398556Y-7103756D02*
X10398556Y-7033044D01*
X10327844Y-7033044D01*
X10327844Y-7103756D01*
X10398556Y-7103756D01*
X10437700Y-11166800D02*
X10537700Y-11266800D01*
X10537700Y-11166800D02*
X10437700Y-11266800D01*
X10523056Y-11252156D02*
X10523056Y-11181444D01*
X10452344Y-11181444D01*
X10452344Y-11252156D01*
X10523056Y-11252156D01*
X10567200Y-7018400D02*
X10667200Y-7118400D01*
X10667200Y-7018400D02*
X10567200Y-7118400D01*
X10652556Y-7103756D02*
X10652556Y-7033044D01*
X10581844Y-7033044D01*
X10581844Y-7103756D01*
X10652556Y-7103756D01*
X10691700Y-11166800D02*
X10791700Y-11266800D01*
X10791700Y-11166800D02*
X10691700Y-11266800D01*
X10777056Y-11252156D02*
X10777056Y-11181444D01*
X10706344Y-11181444D01*
X10706344Y-11252156D01*
X10777056Y-11252156D01*
X10821200Y-7018400D02*
X10921200Y-7118400D01*
X10921200Y-7018400D02*
X10821200Y-7118400D01*
X10906556Y-7103756D02*
X10906556Y-7033044D01*
X10835844Y-7033044D01*
X10835844Y-7103756D01*
X10906556Y-7103756D01*
X10945700Y-11166800D02*
X11045700Y-11266800D01*
X11045700Y-11166800D02*
X10945700Y-11266800D01*
X11031056Y-11252156D02*
X11031056Y-11181444D01*
X10960344Y-11181444D01*
X10960344Y-11252156D01*
X11031056Y-11252156D01*
X11075200Y-7018400D02*
X11175200Y-7118400D01*
X11175200Y-7018400D02*
X11075200Y-7118400D01*
X11160556Y-7103756D02*
X11160556Y-7033044D01*
X11089844Y-7033044D01*
X11089844Y-7103756D01*
X11160556Y-7103756D01*
X11199700Y-11166800D02*
X11299700Y-11266800D01*
X11299700Y-11166800D02*
X11199700Y-11266800D01*
X11285056Y-11252156D02*
X11285056Y-11181444D01*
X11214344Y-11181444D01*
X11214344Y-11252156D01*
X11285056Y-11252156D01*
X11329200Y-7018400D02*
X11429200Y-7118400D01*
X11429200Y-7018400D02*
X11329200Y-7118400D01*
X11414556Y-7103756D02*
X11414556Y-7033044D01*
X11343844Y-7033044D01*
X11343844Y-7103756D01*
X11414556Y-7103756D01*
X11453700Y-11166800D02*
X11553700Y-11266800D01*
X11553700Y-11166800D02*
X11453700Y-11266800D01*
X11539056Y-11252156D02*
X11539056Y-11181444D01*
X11468344Y-11181444D01*
X11468344Y-11252156D01*
X11539056Y-11252156D01*
X11583200Y-7018400D02*
X11683200Y-7118400D01*
X11683200Y-7018400D02*
X11583200Y-7118400D01*
X11668556Y-7103756D02*
X11668556Y-7033044D01*
X11597844Y-7033044D01*
X11597844Y-7103756D01*
X11668556Y-7103756D01*
X11707700Y-11166800D02*
X11807700Y-11266800D01*
X11807700Y-11166800D02*
X11707700Y-11266800D01*
X11793056Y-11252156D02*
X11793056Y-11181444D01*
X11722344Y-11181444D01*
X11722344Y-11252156D01*
X11793056Y-11252156D01*
X11837200Y-7018400D02*
X11937200Y-7118400D01*
X11937200Y-7018400D02*
X11837200Y-7118400D01*
X11922556Y-7103756D02*
X11922556Y-7033044D01*
X11851844Y-7033044D01*
X11851844Y-7103756D01*
X11922556Y-7103756D01*
X12548400Y-6554000D02*
X12648400Y-6654000D01*
X12648400Y-6554000D02*
X12548400Y-6654000D01*
X12633756Y-6639356D02*
X12633756Y-6568644D01*
X12563044Y-6568644D01*
X12563044Y-6639356D01*
X12633756Y-6639356D01*
X12548400Y-6808000D02*
X12648400Y-6908000D01*
X12648400Y-6808000D02*
X12548400Y-6908000D01*
X12633756Y-6893356D02*
X12633756Y-6822644D01*
X12563044Y-6822644D01*
X12563044Y-6893356D01*
X12633756Y-6893356D01*
X12548400Y-7062000D02*
X12648400Y-7162000D01*
X12648400Y-7062000D02*
X12548400Y-7162000D01*
X12633756Y-7147356D02*
X12633756Y-7076644D01*
X12563044Y-7076644D01*
X12563044Y-7147356D01*
X12633756Y-7147356D01*
X12548400Y-7316000D02*
X12648400Y-7416000D01*
X12648400Y-7316000D02*
X12548400Y-7416000D01*
X12633756Y-7401356D02*
X12633756Y-7330644D01*
X12563044Y-7330644D01*
X12563044Y-7401356D01*
X12633756Y-7401356D01*
X12548400Y-7570000D02*
X12648400Y-7670000D01*
X12648400Y-7570000D02*
X12548400Y-7670000D01*
X12633756Y-7655356D02*
X12633756Y-7584644D01*
X12563044Y-7584644D01*
X12563044Y-7655356D01*
X12633756Y-7655356D01*
X12548400Y-7824000D02*
X12648400Y-7924000D01*
X12648400Y-7824000D02*
X12548400Y-7924000D01*
X12633756Y-7909356D02*
X12633756Y-7838644D01*
X12563044Y-7838644D01*
X12563044Y-7909356D01*
X12633756Y-7909356D01*
X12548400Y-8078000D02*
X12648400Y-8178000D01*
X12648400Y-8078000D02*
X12548400Y-8178000D01*
X12633756Y-8163356D02*
X12633756Y-8092644D01*
X12563044Y-8092644D01*
X12563044Y-8163356D01*
X12633756Y-8163356D01*
X12548400Y-8332000D02*
X12648400Y-8432000D01*
X12648400Y-8332000D02*
X12548400Y-8432000D01*
X12633756Y-8417356D02*
X12633756Y-8346644D01*
X12563044Y-8346644D01*
X12563044Y-8417356D01*
X12633756Y-8417356D01*
X12548400Y-8586000D02*
X12648400Y-8686000D01*
X12648400Y-8586000D02*
X12548400Y-8686000D01*
X12633756Y-8671356D02*
X12633756Y-8600644D01*
X12563044Y-8600644D01*
X12563044Y-8671356D01*
X12633756Y-8671356D01*
X12548400Y-8840000D02*
X12648400Y-8940000D01*
X12648400Y-8840000D02*
X12548400Y-8940000D01*
X12633756Y-8925356D02*
X12633756Y-8854644D01*
X12563044Y-8854644D01*
X12563044Y-8925356D01*
X12633756Y-8925356D01*
X12548400Y-9094000D02*
X12648400Y-9194000D01*
X12648400Y-9094000D02*
X12548400Y-9194000D01*
X12633756Y-9179356D02*
X12633756Y-9108644D01*
X12563044Y-9108644D01*
X12563044Y-9179356D01*
X12633756Y-9179356D01*
X12548400Y-9348000D02*
X12648400Y-9448000D01*
X12648400Y-9348000D02*
X12548400Y-9448000D01*
X12633756Y-9433356D02*
X12633756Y-9362644D01*
X12563044Y-9362644D01*
X12563044Y-9433356D01*
X12633756Y-9433356D01*
X12548400Y-9602000D02*
X12648400Y-9702000D01*
X12648400Y-9602000D02*
X12548400Y-9702000D01*
X12633756Y-9687356D02*
X12633756Y-9616644D01*
X12563044Y-9616644D01*
X12563044Y-9687356D01*
X12633756Y-9687356D01*
X12548400Y-9856000D02*
X12648400Y-9956000D01*
X12648400Y-9856000D02*
X12548400Y-9956000D01*
X12633756Y-9941356D02*
X12633756Y-9870644D01*
X12563044Y-9870644D01*
X12563044Y-9941356D01*
X12633756Y-9941356D01*
X12548400Y-10110000D02*
X12648400Y-10210000D01*
X12648400Y-10110000D02*
X12548400Y-10210000D01*
X12633756Y-10195356D02*
X12633756Y-10124644D01*
X12563044Y-10124644D01*
X12563044Y-10195356D01*
X12633756Y-10195356D01*
X14072400Y-6554000D02*
X14172400Y-6654000D01*
X14172400Y-6554000D02*
X14072400Y-6654000D01*
X14157756Y-6639356D02*
X14157756Y-6568644D01*
X14087044Y-6568644D01*
X14087044Y-6639356D01*
X14157756Y-6639356D01*
X14072400Y-6808000D02*
X14172400Y-6908000D01*
X14172400Y-6808000D02*
X14072400Y-6908000D01*
X14157756Y-6893356D02*
X14157756Y-6822644D01*
X14087044Y-6822644D01*
X14087044Y-6893356D01*
X14157756Y-6893356D01*
X14072400Y-7062000D02*
X14172400Y-7162000D01*
X14172400Y-7062000D02*
X14072400Y-7162000D01*
X14157756Y-7147356D02*
X14157756Y-7076644D01*
X14087044Y-7076644D01*
X14087044Y-7147356D01*
X14157756Y-7147356D01*
X14072400Y-7316000D02*
X14172400Y-7416000D01*
X14172400Y-7316000D02*
X14072400Y-7416000D01*
X14157756Y-7401356D02*
X14157756Y-7330644D01*
X14087044Y-7330644D01*
X14087044Y-7401356D01*
X14157756Y-7401356D01*
X14072400Y-7570000D02*
X14172400Y-7670000D01*
X14172400Y-7570000D02*
X14072400Y-7670000D01*
X14157756Y-7655356D02*
X14157756Y-7584644D01*
X14087044Y-7584644D01*
X14087044Y-7655356D01*
X14157756Y-7655356D01*
X14072400Y-7824000D02*
X14172400Y-7924000D01*
X14172400Y-7824000D02*
X14072400Y-7924000D01*
X14157756Y-7909356D02*
X14157756Y-7838644D01*
X14087044Y-7838644D01*
X14087044Y-7909356D01*
X14157756Y-7909356D01*
X14072400Y-8078000D02*
X14172400Y-8178000D01*
X14172400Y-8078000D02*
X14072400Y-8178000D01*
X14157756Y-8163356D02*
X14157756Y-8092644D01*
X14087044Y-8092644D01*
X14087044Y-8163356D01*
X14157756Y-8163356D01*
X14072400Y-8332000D02*
X14172400Y-8432000D01*
X14172400Y-8332000D02*
X14072400Y-8432000D01*
X14157756Y-8417356D02*
X14157756Y-8346644D01*
X14087044Y-8346644D01*
X14087044Y-8417356D01*
X14157756Y-8417356D01*
X14072400Y-8586000D02*
X14172400Y-8686000D01*
X14172400Y-8586000D02*
X14072400Y-8686000D01*
X14157756Y-8671356D02*
X14157756Y-8600644D01*
X14087044Y-8600644D01*
X14087044Y-8671356D01*
X14157756Y-8671356D01*
X14072400Y-8840000D02*
X14172400Y-8940000D01*
X14172400Y-8840000D02*
X14072400Y-8940000D01*
X14157756Y-8925356D02*
X14157756Y-8854644D01*
X14087044Y-8854644D01*
X14087044Y-8925356D01*
X14157756Y-8925356D01*
X14072400Y-9094000D02*
X14172400Y-9194000D01*
X14172400Y-9094000D02*
X14072400Y-9194000D01*
X14157756Y-9179356D02*
X14157756Y-9108644D01*
X14087044Y-9108644D01*
X14087044Y-9179356D01*
X14157756Y-9179356D01*
X14072400Y-9348000D02*
X14172400Y-9448000D01*
X14172400Y-9348000D02*
X14072400Y-9448000D01*
X14157756Y-9433356D02*
X14157756Y-9362644D01*
X14087044Y-9362644D01*
X14087044Y-9433356D01*
X14157756Y-9433356D01*
X14072400Y-9602000D02*
X14172400Y-9702000D01*
X14172400Y-9602000D02*
X14072400Y-9702000D01*
X14157756Y-9687356D02*
X14157756Y-9616644D01*
X14087044Y-9616644D01*
X14087044Y-9687356D01*
X14157756Y-9687356D01*
X14072400Y-9856000D02*
X14172400Y-9956000D01*
X14172400Y-9856000D02*
X14072400Y-9956000D01*
X14157756Y-9941356D02*
X14157756Y-9870644D01*
X14087044Y-9870644D01*
X14087044Y-9941356D01*
X14157756Y-9941356D01*
X14072400Y-10110000D02*
X14172400Y-10210000D01*
X14172400Y-10110000D02*
X14072400Y-10210000D01*
X14157756Y-10195356D02*
X14157756Y-10124644D01*
X14087044Y-10124644D01*
X14087044Y-10195356D01*
X14157756Y-10195356D01*
X15596400Y-10872000D02*
X15696400Y-10972000D01*
X15696400Y-10872000D02*
X15596400Y-10972000D01*
X15681756Y-10957356D02*
X15681756Y-10886644D01*
X15611044Y-10886644D01*
X15611044Y-10957356D01*
X15681756Y-10957356D01*
X15850400Y-10872000D02*
X15950400Y-10972000D01*
X15950400Y-10872000D02*
X15850400Y-10972000D01*
X15935756Y-10957356D02*
X15935756Y-10886644D01*
X15865044Y-10886644D01*
X15865044Y-10957356D01*
X15935756Y-10957356D01*
X16104400Y-10872000D02*
X16204400Y-10972000D01*
X16204400Y-10872000D02*
X16104400Y-10972000D01*
X16189756Y-10957356D02*
X16189756Y-10886644D01*
X16119044Y-10886644D01*
X16119044Y-10957356D01*
X16189756Y-10957356D01*
X16358400Y-10872000D02*
X16458400Y-10972000D01*
X16458400Y-10872000D02*
X16358400Y-10972000D01*
X16443756Y-10957356D02*
X16443756Y-10886644D01*
X16373044Y-10886644D01*
X16373044Y-10957356D01*
X16443756Y-10957356D01*
X16612400Y-10872000D02*
X16712400Y-10972000D01*
X16712400Y-10872000D02*
X16612400Y-10972000D01*
X16697756Y-10957356D02*
X16697756Y-10886644D01*
X16627044Y-10886644D01*
X16627044Y-10957356D01*
X16697756Y-10957356D01*
X16866400Y-10872000D02*
X16966400Y-10972000D01*
X16966400Y-10872000D02*
X16866400Y-10972000D01*
X16951756Y-10957356D02*
X16951756Y-10886644D01*
X16881044Y-10886644D01*
X16881044Y-10957356D01*
X16951756Y-10957356D01*
X17120400Y-10872000D02*
X17220400Y-10972000D01*
X17220400Y-10872000D02*
X17120400Y-10972000D01*
X17205756Y-10957356D02*
X17205756Y-10886644D01*
X17135044Y-10886644D01*
X17135044Y-10957356D01*
X17205756Y-10957356D01*
X17374400Y-10872000D02*
X17474400Y-10972000D01*
X17474400Y-10872000D02*
X17374400Y-10972000D01*
X17459756Y-10957356D02*
X17459756Y-10886644D01*
X17389044Y-10886644D01*
X17389044Y-10957356D01*
X17459756Y-10957356D01*
X17628400Y-10872000D02*
X17728400Y-10972000D01*
X17728400Y-10872000D02*
X17628400Y-10972000D01*
X17713756Y-10957356D02*
X17713756Y-10886644D01*
X17643044Y-10886644D01*
X17643044Y-10957356D01*
X17713756Y-10957356D01*
X17882400Y-10872000D02*
X17982400Y-10972000D01*
X17982400Y-10872000D02*
X17882400Y-10972000D01*
X17967756Y-10957356D02*
X17967756Y-10886644D01*
X17897044Y-10886644D01*
X17897044Y-10957356D01*
X17967756Y-10957356D01*
X19457200Y-6452400D02*
X19557200Y-6552400D01*
X19557200Y-6452400D02*
X19457200Y-6552400D01*
X19542556Y-6537756D02*
X19542556Y-6467044D01*
X19471844Y-6467044D01*
X19471844Y-6537756D01*
X19542556Y-6537756D01*
X19711200Y-6452400D02*
X19811200Y-6552400D01*
X19811200Y-6452400D02*
X19711200Y-6552400D01*
X19796556Y-6537756D02*
X19796556Y-6467044D01*
X19725844Y-6467044D01*
X19725844Y-6537756D01*
X19796556Y-6537756D01*
X19965200Y-6452400D02*
X20065200Y-6552400D01*
X20065200Y-6452400D02*
X19965200Y-6552400D01*
X20050556Y-6537756D02*
X20050556Y-6467044D01*
X19979844Y-6467044D01*
X19979844Y-6537756D01*
X20050556Y-6537756D01*
X20219200Y-6452400D02*
X20319200Y-6552400D01*
X20319200Y-6452400D02*
X20219200Y-6552400D01*
X20304556Y-6537756D02*
X20304556Y-6467044D01*
X20233844Y-6467044D01*
X20233844Y-6537756D01*
X20304556Y-6537756D01*
X20473200Y-6452400D02*
X20573200Y-6552400D01*
X20573200Y-6452400D02*
X20473200Y-6552400D01*
X20558556Y-6537756D02*
X20558556Y-6467044D01*
X20487844Y-6467044D01*
X20487844Y-6537756D01*
X20558556Y-6537756D01*
X20727200Y-6452400D02*
X20827200Y-6552400D01*
X20827200Y-6452400D02*
X20727200Y-6552400D01*
X20812556Y-6537756D02*
X20812556Y-6467044D01*
X20741844Y-6467044D01*
X20741844Y-6537756D01*
X20812556Y-6537756D01*
X20981200Y-6452400D02*
X21081200Y-6552400D01*
X21081200Y-6452400D02*
X20981200Y-6552400D01*
X21066556Y-6537756D02*
X21066556Y-6467044D01*
X20995844Y-6467044D01*
X20995844Y-6537756D01*
X21066556Y-6537756D01*
X21235200Y-6452400D02*
X21335200Y-6552400D01*
X21335200Y-6452400D02*
X21235200Y-6552400D01*
X21320556Y-6537756D02*
X21320556Y-6467044D01*
X21249844Y-6467044D01*
X21249844Y-6537756D01*
X21320556Y-6537756D01*
D20*
X9118000Y-7900400D02*
X9228000Y-8010400D01*
X9228000Y-7900400D02*
X9118000Y-8010400D01*
X9173000Y-8010400D02*
X9228000Y-7955400D01*
X9173000Y-7900400D01*
X9118000Y-7955400D01*
X9173000Y-8010400D01*
X9118000Y-8550400D02*
X9228000Y-8660400D01*
X9228000Y-8550400D02*
X9118000Y-8660400D01*
X9173000Y-8660400D02*
X9228000Y-8605400D01*
X9173000Y-8550400D01*
X9118000Y-8605400D01*
X9173000Y-8660400D01*
X9118000Y-9119600D02*
X9228000Y-9229600D01*
X9228000Y-9119600D02*
X9118000Y-9229600D01*
X9173000Y-9229600D02*
X9228000Y-9174600D01*
X9173000Y-9119600D01*
X9118000Y-9174600D01*
X9173000Y-9229600D01*
X9118000Y-9769600D02*
X9228000Y-9879600D01*
X9228000Y-9769600D02*
X9118000Y-9879600D01*
X9173000Y-9879600D02*
X9228000Y-9824600D01*
X9173000Y-9769600D01*
X9118000Y-9824600D01*
X9173000Y-9879600D01*
X9568000Y-7900400D02*
X9678000Y-8010400D01*
X9678000Y-7900400D02*
X9568000Y-8010400D01*
X9623000Y-8010400D02*
X9678000Y-7955400D01*
X9623000Y-7900400D01*
X9568000Y-7955400D01*
X9623000Y-8010400D01*
X9568000Y-8550400D02*
X9678000Y-8660400D01*
X9678000Y-8550400D02*
X9568000Y-8660400D01*
X9623000Y-8660400D02*
X9678000Y-8605400D01*
X9623000Y-8550400D01*
X9568000Y-8605400D01*
X9623000Y-8660400D01*
X9568000Y-9119600D02*
X9678000Y-9229600D01*
X9678000Y-9119600D02*
X9568000Y-9229600D01*
X9623000Y-9229600D02*
X9678000Y-9174600D01*
X9623000Y-9119600D01*
X9568000Y-9174600D01*
X9623000Y-9229600D01*
X9568000Y-9769600D02*
X9678000Y-9879600D01*
X9678000Y-9769600D02*
X9568000Y-9879600D01*
X9623000Y-9879600D02*
X9678000Y-9824600D01*
X9623000Y-9769600D01*
X9568000Y-9824600D01*
X9623000Y-9879600D01*
X12472400Y-10743600D02*
X12582400Y-10853600D01*
X12582400Y-10743600D02*
X12472400Y-10853600D01*
X12527400Y-10853600D02*
X12582400Y-10798600D01*
X12527400Y-10743600D01*
X12472400Y-10798600D01*
X12527400Y-10853600D01*
X12472400Y-11193600D02*
X12582400Y-11303600D01*
X12582400Y-11193600D02*
X12472400Y-11303600D01*
X12527400Y-11303600D02*
X12582400Y-11248600D01*
X12527400Y-11193600D01*
X12472400Y-11248600D01*
X12527400Y-11303600D01*
X13122400Y-10743600D02*
X13232400Y-10853600D01*
X13232400Y-10743600D02*
X13122400Y-10853600D01*
X13177400Y-10853600D02*
X13232400Y-10798600D01*
X13177400Y-10743600D01*
X13122400Y-10798600D01*
X13177400Y-10853600D01*
X13122400Y-11193600D02*
X13232400Y-11303600D01*
X13232400Y-11193600D02*
X13122400Y-11303600D01*
X13177400Y-11303600D02*
X13232400Y-11248600D01*
X13177400Y-11193600D01*
X13122400Y-11248600D01*
X13177400Y-11303600D01*
X13640800Y-10743600D02*
X13750800Y-10853600D01*
X13750800Y-10743600D02*
X13640800Y-10853600D01*
X13695800Y-10853600D02*
X13750800Y-10798600D01*
X13695800Y-10743600D01*
X13640800Y-10798600D01*
X13695800Y-10853600D01*
X13640800Y-11193600D02*
X13750800Y-11303600D01*
X13750800Y-11193600D02*
X13640800Y-11303600D01*
X13695800Y-11303600D02*
X13750800Y-11248600D01*
X13695800Y-11193600D01*
X13640800Y-11248600D01*
X13695800Y-11303600D01*
X14290800Y-10743600D02*
X14400800Y-10853600D01*
X14400800Y-10743600D02*
X14290800Y-10853600D01*
X14345800Y-10853600D02*
X14400800Y-10798600D01*
X14345800Y-10743600D01*
X14290800Y-10798600D01*
X14345800Y-10853600D01*
X14290800Y-11193600D02*
X14400800Y-11303600D01*
X14400800Y-11193600D02*
X14290800Y-11303600D01*
X14345800Y-11303600D02*
X14400800Y-11248600D01*
X14345800Y-11193600D01*
X14290800Y-11248600D01*
X14345800Y-11303600D01*
D21*
X9245600Y-6175000D02*
X9245600Y-6525000D01*
X9070600Y-6350000D02*
X9420600Y-6350000D01*
X9420600Y-6350000D02*
G75*
G03*
X9420600Y-6350000I-175000J0D01*
G01*
X9245600Y-10899400D02*
X9245600Y-11249400D01*
X9070600Y-11074400D02*
X9420600Y-11074400D01*
X9420600Y-11074400D02*
G75*
G03*
X9420600Y-11074400I-175000J0D01*
G01*
X22098000Y-6175000D02*
X22098000Y-6525000D01*
X21923000Y-6350000D02*
X22273000Y-6350000D01*
X22273000Y-6350000D02*
G75*
G03*
X22273000Y-6350000I-175000J0D01*
G01*
X22098000Y-10899400D02*
X22098000Y-11249400D01*
X21923000Y-11074400D02*
X22273000Y-11074400D01*
X22273000Y-11074400D02*
G75*
G03*
X22273000Y-11074400I-175000J0D01*
G01*
D11*
X9041019Y-11847076D02*
X9041019Y-11647076D01*
X9088638Y-11647076D01*
X9117210Y-11656600D01*
X9136257Y-11675648D01*
X9145781Y-11694695D01*
X9155305Y-11732790D01*
X9155305Y-11761362D01*
X9145781Y-11799457D01*
X9136257Y-11818505D01*
X9117210Y-11837552D01*
X9088638Y-11847076D01*
X9041019Y-11847076D01*
X9241019Y-11847076D02*
X9241019Y-11713743D01*
X9241019Y-11751838D02*
X9250543Y-11732790D01*
X9260067Y-11723267D01*
X9279114Y-11713743D01*
X9298162Y-11713743D01*
X9364829Y-11847076D02*
X9364829Y-11713743D01*
X9364829Y-11647076D02*
X9355305Y-11656600D01*
X9364829Y-11666124D01*
X9374352Y-11656600D01*
X9364829Y-11647076D01*
X9364829Y-11666124D01*
X9488638Y-11847076D02*
X9469590Y-11837552D01*
X9460067Y-11818505D01*
X9460067Y-11647076D01*
X9593400Y-11847076D02*
X9574352Y-11837552D01*
X9564829Y-11818505D01*
X9564829Y-11647076D01*
X9821971Y-11847076D02*
X9821971Y-11647076D01*
X9888638Y-11789933D01*
X9955305Y-11647076D01*
X9955305Y-11847076D01*
X10136257Y-11847076D02*
X10136257Y-11742314D01*
X10126733Y-11723267D01*
X10107686Y-11713743D01*
X10069590Y-11713743D01*
X10050543Y-11723267D01*
X10136257Y-11837552D02*
X10117210Y-11847076D01*
X10069590Y-11847076D01*
X10050543Y-11837552D01*
X10041019Y-11818505D01*
X10041019Y-11799457D01*
X10050543Y-11780409D01*
X10069590Y-11770886D01*
X10117210Y-11770886D01*
X10136257Y-11761362D01*
X10231495Y-11713743D02*
X10231495Y-11913743D01*
X10231495Y-11723267D02*
X10250543Y-11713743D01*
X10288638Y-11713743D01*
X10307686Y-11723267D01*
X10317210Y-11732790D01*
X10326733Y-11751838D01*
X10326733Y-11808981D01*
X10317210Y-11828028D01*
X10307686Y-11837552D01*
X10288638Y-11847076D01*
X10250543Y-11847076D01*
X10231495Y-11837552D01*
X10412448Y-11828028D02*
X10421971Y-11837552D01*
X10412448Y-11847076D01*
X10402924Y-11837552D01*
X10412448Y-11828028D01*
X10412448Y-11847076D01*
X10412448Y-11723267D02*
X10421971Y-11732790D01*
X10412448Y-11742314D01*
X10402924Y-11732790D01*
X10412448Y-11723267D01*
X10412448Y-11742314D01*
D12*
X8743400Y-12156600D02*
X8783400Y-12196600D01*
X8783400Y-12156600D02*
X8743400Y-12196600D01*
D11*
X9079114Y-12067076D02*
X9098162Y-12067076D01*
X9117210Y-12076600D01*
X9126733Y-12086124D01*
X9136257Y-12105171D01*
X9145781Y-12143267D01*
X9145781Y-12190886D01*
X9136257Y-12228981D01*
X9126733Y-12248028D01*
X9117210Y-12257552D01*
X9098162Y-12267076D01*
X9079114Y-12267076D01*
X9060067Y-12257552D01*
X9050543Y-12248028D01*
X9041019Y-12228981D01*
X9031495Y-12190886D01*
X9031495Y-12143267D01*
X9041019Y-12105171D01*
X9050543Y-12086124D01*
X9060067Y-12076600D01*
X9079114Y-12067076D01*
X9231495Y-12248028D02*
X9241019Y-12257552D01*
X9231495Y-12267076D01*
X9221971Y-12257552D01*
X9231495Y-12248028D01*
X9231495Y-12267076D01*
X9412448Y-12133743D02*
X9412448Y-12267076D01*
X9364829Y-12057552D02*
X9317210Y-12200409D01*
X9441019Y-12200409D01*
X9555305Y-12067076D02*
X9574352Y-12067076D01*
X9593400Y-12076600D01*
X9602924Y-12086124D01*
X9612448Y-12105171D01*
X9621971Y-12143267D01*
X9621971Y-12190886D01*
X9612448Y-12228981D01*
X9602924Y-12248028D01*
X9593400Y-12257552D01*
X9574352Y-12267076D01*
X9555305Y-12267076D01*
X9536257Y-12257552D01*
X9526733Y-12248028D01*
X9517210Y-12228981D01*
X9507686Y-12190886D01*
X9507686Y-12143267D01*
X9517210Y-12105171D01*
X9526733Y-12086124D01*
X9536257Y-12076600D01*
X9555305Y-12067076D01*
X9745781Y-12067076D02*
X9764829Y-12067076D01*
X9783876Y-12076600D01*
X9793400Y-12086124D01*
X9802924Y-12105171D01*
X9812448Y-12143267D01*
X9812448Y-12190886D01*
X9802924Y-12228981D01*
X9793400Y-12248028D01*
X9783876Y-12257552D01*
X9764829Y-12267076D01*
X9745781Y-12267076D01*
X9726733Y-12257552D01*
X9717210Y-12248028D01*
X9707686Y-12228981D01*
X9698162Y-12190886D01*
X9698162Y-12143267D01*
X9707686Y-12105171D01*
X9717210Y-12086124D01*
X9726733Y-12076600D01*
X9745781Y-12067076D01*
X9898162Y-12267076D02*
X9898162Y-12133743D01*
X9898162Y-12152790D02*
X9907686Y-12143267D01*
X9926733Y-12133743D01*
X9955305Y-12133743D01*
X9974352Y-12143267D01*
X9983876Y-12162314D01*
X9983876Y-12267076D01*
X9983876Y-12162314D02*
X9993400Y-12143267D01*
X10012448Y-12133743D01*
X10041019Y-12133743D01*
X10060067Y-12143267D01*
X10069590Y-12162314D01*
X10069590Y-12267076D01*
X10164829Y-12267076D02*
X10164829Y-12133743D01*
X10164829Y-12152790D02*
X10174352Y-12143267D01*
X10193400Y-12133743D01*
X10221971Y-12133743D01*
X10241019Y-12143267D01*
X10250543Y-12162314D01*
X10250543Y-12267076D01*
X10250543Y-12162314D02*
X10260067Y-12143267D01*
X10279114Y-12133743D01*
X10307686Y-12133743D01*
X10326733Y-12143267D01*
X10336257Y-12162314D01*
X10336257Y-12267076D01*
X10726733Y-12057552D02*
X10555305Y-12314695D01*
X10983876Y-12067076D02*
X11002924Y-12067076D01*
X11021971Y-12076600D01*
X11031495Y-12086124D01*
X11041019Y-12105171D01*
X11050543Y-12143267D01*
X11050543Y-12190886D01*
X11041019Y-12228981D01*
X11031495Y-12248028D01*
X11021971Y-12257552D01*
X11002924Y-12267076D01*
X10983876Y-12267076D01*
X10964829Y-12257552D01*
X10955305Y-12248028D01*
X10945781Y-12228981D01*
X10936257Y-12190886D01*
X10936257Y-12143267D01*
X10945781Y-12105171D01*
X10955305Y-12086124D01*
X10964829Y-12076600D01*
X10983876Y-12067076D01*
X11136257Y-12248028D02*
X11145781Y-12257552D01*
X11136257Y-12267076D01*
X11126733Y-12257552D01*
X11136257Y-12248028D01*
X11136257Y-12267076D01*
X11269590Y-12067076D02*
X11288638Y-12067076D01*
X11307686Y-12076600D01*
X11317209Y-12086124D01*
X11326733Y-12105171D01*
X11336257Y-12143267D01*
X11336257Y-12190886D01*
X11326733Y-12228981D01*
X11317209Y-12248028D01*
X11307686Y-12257552D01*
X11288638Y-12267076D01*
X11269590Y-12267076D01*
X11250543Y-12257552D01*
X11241019Y-12248028D01*
X11231495Y-12228981D01*
X11221971Y-12190886D01*
X11221971Y-12143267D01*
X11231495Y-12105171D01*
X11241019Y-12086124D01*
X11250543Y-12076600D01*
X11269590Y-12067076D01*
X11526733Y-12267076D02*
X11412448Y-12267076D01*
X11469590Y-12267076D02*
X11469590Y-12067076D01*
X11450543Y-12095648D01*
X11431495Y-12114695D01*
X11412448Y-12124219D01*
X11707686Y-12067076D02*
X11612448Y-12067076D01*
X11602924Y-12162314D01*
X11612448Y-12152790D01*
X11631495Y-12143267D01*
X11679114Y-12143267D01*
X11698162Y-12152790D01*
X11707686Y-12162314D01*
X11717209Y-12181362D01*
X11717209Y-12228981D01*
X11707686Y-12248028D01*
X11698162Y-12257552D01*
X11679114Y-12267076D01*
X11631495Y-12267076D01*
X11612448Y-12257552D01*
X11602924Y-12248028D01*
X11783876Y-12067076D02*
X11917209Y-12067076D01*
X11831495Y-12267076D01*
X11983876Y-12067076D02*
X11983876Y-12105171D01*
X12060067Y-12067076D02*
X12060067Y-12105171D01*
X12355305Y-12343267D02*
X12345781Y-12333743D01*
X12326733Y-12305171D01*
X12317209Y-12286124D01*
X12307686Y-12257552D01*
X12298162Y-12209933D01*
X12298162Y-12171838D01*
X12307686Y-12124219D01*
X12317209Y-12095648D01*
X12326733Y-12076600D01*
X12345781Y-12048028D01*
X12355305Y-12038505D01*
X12536257Y-12267076D02*
X12421971Y-12267076D01*
X12479114Y-12267076D02*
X12479114Y-12067076D01*
X12460067Y-12095648D01*
X12441019Y-12114695D01*
X12421971Y-12124219D01*
X12707686Y-12067076D02*
X12669590Y-12067076D01*
X12650543Y-12076600D01*
X12641019Y-12086124D01*
X12621971Y-12114695D01*
X12612448Y-12152790D01*
X12612448Y-12228981D01*
X12621971Y-12248028D01*
X12631495Y-12257552D01*
X12650543Y-12267076D01*
X12688638Y-12267076D01*
X12707686Y-12257552D01*
X12717209Y-12248028D01*
X12726733Y-12228981D01*
X12726733Y-12181362D01*
X12717209Y-12162314D01*
X12707686Y-12152790D01*
X12688638Y-12143267D01*
X12650543Y-12143267D01*
X12631495Y-12152790D01*
X12621971Y-12162314D01*
X12612448Y-12181362D01*
X12964828Y-12267076D02*
X12964828Y-12067076D01*
X13050543Y-12267076D02*
X13050543Y-12162314D01*
X13041019Y-12143267D01*
X13021971Y-12133743D01*
X12993400Y-12133743D01*
X12974352Y-12143267D01*
X12964828Y-12152790D01*
X13174352Y-12267076D02*
X13155305Y-12257552D01*
X13145781Y-12248028D01*
X13136257Y-12228981D01*
X13136257Y-12171838D01*
X13145781Y-12152790D01*
X13155305Y-12143267D01*
X13174352Y-12133743D01*
X13202924Y-12133743D01*
X13221971Y-12143267D01*
X13231495Y-12152790D01*
X13241019Y-12171838D01*
X13241019Y-12228981D01*
X13231495Y-12248028D01*
X13221971Y-12257552D01*
X13202924Y-12267076D01*
X13174352Y-12267076D01*
X13355305Y-12267076D02*
X13336257Y-12257552D01*
X13326733Y-12238505D01*
X13326733Y-12067076D01*
X13507686Y-12257552D02*
X13488638Y-12267076D01*
X13450543Y-12267076D01*
X13431495Y-12257552D01*
X13421971Y-12238505D01*
X13421971Y-12162314D01*
X13431495Y-12143267D01*
X13450543Y-12133743D01*
X13488638Y-12133743D01*
X13507686Y-12143267D01*
X13517209Y-12162314D01*
X13517209Y-12181362D01*
X13421971Y-12200409D01*
X13593400Y-12257552D02*
X13612448Y-12267076D01*
X13650543Y-12267076D01*
X13669590Y-12257552D01*
X13679114Y-12238505D01*
X13679114Y-12228981D01*
X13669590Y-12209933D01*
X13650543Y-12200409D01*
X13621971Y-12200409D01*
X13602924Y-12190886D01*
X13593400Y-12171838D01*
X13593400Y-12162314D01*
X13602924Y-12143267D01*
X13621971Y-12133743D01*
X13650543Y-12133743D01*
X13669590Y-12143267D01*
X13745781Y-12343267D02*
X13755305Y-12333743D01*
X13774352Y-12305171D01*
X13783876Y-12286124D01*
X13793400Y-12257552D01*
X13802924Y-12209933D01*
X13802924Y-12171838D01*
X13793400Y-12124219D01*
X13783876Y-12095648D01*
X13774352Y-12076600D01*
X13755305Y-12048028D01*
X13745781Y-12038505D01*
D13*
X8783400Y-12440600D02*
G75*
G03*
X8783400Y-12440600I-25000J0D01*
G01*
D11*
X9079114Y-12331076D02*
X9098162Y-12331076D01*
X9117210Y-12340600D01*
X9126733Y-12350124D01*
X9136257Y-12369171D01*
X9145781Y-12407267D01*
X9145781Y-12454886D01*
X9136257Y-12492981D01*
X9126733Y-12512028D01*
X9117210Y-12521552D01*
X9098162Y-12531076D01*
X9079114Y-12531076D01*
X9060067Y-12521552D01*
X9050543Y-12512028D01*
X9041019Y-12492981D01*
X9031495Y-12454886D01*
X9031495Y-12407267D01*
X9041019Y-12369171D01*
X9050543Y-12350124D01*
X9060067Y-12340600D01*
X9079114Y-12331076D01*
X9231495Y-12512028D02*
X9241019Y-12521552D01*
X9231495Y-12531076D01*
X9221971Y-12521552D01*
X9231495Y-12512028D01*
X9231495Y-12531076D01*
X9421971Y-12331076D02*
X9326733Y-12331076D01*
X9317210Y-12426314D01*
X9326733Y-12416790D01*
X9345781Y-12407267D01*
X9393400Y-12407267D01*
X9412448Y-12416790D01*
X9421971Y-12426314D01*
X9431495Y-12445362D01*
X9431495Y-12492981D01*
X9421971Y-12512028D01*
X9412448Y-12521552D01*
X9393400Y-12531076D01*
X9345781Y-12531076D01*
X9326733Y-12521552D01*
X9317210Y-12512028D01*
X9555305Y-12331076D02*
X9574352Y-12331076D01*
X9593400Y-12340600D01*
X9602924Y-12350124D01*
X9612448Y-12369171D01*
X9621971Y-12407267D01*
X9621971Y-12454886D01*
X9612448Y-12492981D01*
X9602924Y-12512028D01*
X9593400Y-12521552D01*
X9574352Y-12531076D01*
X9555305Y-12531076D01*
X9536257Y-12521552D01*
X9526733Y-12512028D01*
X9517210Y-12492981D01*
X9507686Y-12454886D01*
X9507686Y-12407267D01*
X9517210Y-12369171D01*
X9526733Y-12350124D01*
X9536257Y-12340600D01*
X9555305Y-12331076D01*
X9745781Y-12331076D02*
X9764829Y-12331076D01*
X9783876Y-12340600D01*
X9793400Y-12350124D01*
X9802924Y-12369171D01*
X9812448Y-12407267D01*
X9812448Y-12454886D01*
X9802924Y-12492981D01*
X9793400Y-12512028D01*
X9783876Y-12521552D01*
X9764829Y-12531076D01*
X9745781Y-12531076D01*
X9726733Y-12521552D01*
X9717210Y-12512028D01*
X9707686Y-12492981D01*
X9698162Y-12454886D01*
X9698162Y-12407267D01*
X9707686Y-12369171D01*
X9717210Y-12350124D01*
X9726733Y-12340600D01*
X9745781Y-12331076D01*
X9898162Y-12531076D02*
X9898162Y-12397743D01*
X9898162Y-12416790D02*
X9907686Y-12407267D01*
X9926733Y-12397743D01*
X9955305Y-12397743D01*
X9974352Y-12407267D01*
X9983876Y-12426314D01*
X9983876Y-12531076D01*
X9983876Y-12426314D02*
X9993400Y-12407267D01*
X10012448Y-12397743D01*
X10041019Y-12397743D01*
X10060067Y-12407267D01*
X10069590Y-12426314D01*
X10069590Y-12531076D01*
X10164829Y-12531076D02*
X10164829Y-12397743D01*
X10164829Y-12416790D02*
X10174352Y-12407267D01*
X10193400Y-12397743D01*
X10221971Y-12397743D01*
X10241019Y-12407267D01*
X10250543Y-12426314D01*
X10250543Y-12531076D01*
X10250543Y-12426314D02*
X10260067Y-12407267D01*
X10279114Y-12397743D01*
X10307686Y-12397743D01*
X10326733Y-12407267D01*
X10336257Y-12426314D01*
X10336257Y-12531076D01*
X10726733Y-12321552D02*
X10555305Y-12578695D01*
X10983876Y-12331076D02*
X11002924Y-12331076D01*
X11021971Y-12340600D01*
X11031495Y-12350124D01*
X11041019Y-12369171D01*
X11050543Y-12407267D01*
X11050543Y-12454886D01*
X11041019Y-12492981D01*
X11031495Y-12512028D01*
X11021971Y-12521552D01*
X11002924Y-12531076D01*
X10983876Y-12531076D01*
X10964829Y-12521552D01*
X10955305Y-12512028D01*
X10945781Y-12492981D01*
X10936257Y-12454886D01*
X10936257Y-12407267D01*
X10945781Y-12369171D01*
X10955305Y-12350124D01*
X10964829Y-12340600D01*
X10983876Y-12331076D01*
X11136257Y-12512028D02*
X11145781Y-12521552D01*
X11136257Y-12531076D01*
X11126733Y-12521552D01*
X11136257Y-12512028D01*
X11136257Y-12531076D01*
X11269590Y-12331076D02*
X11288638Y-12331076D01*
X11307686Y-12340600D01*
X11317209Y-12350124D01*
X11326733Y-12369171D01*
X11336257Y-12407267D01*
X11336257Y-12454886D01*
X11326733Y-12492981D01*
X11317209Y-12512028D01*
X11307686Y-12521552D01*
X11288638Y-12531076D01*
X11269590Y-12531076D01*
X11250543Y-12521552D01*
X11241019Y-12512028D01*
X11231495Y-12492981D01*
X11221971Y-12454886D01*
X11221971Y-12407267D01*
X11231495Y-12369171D01*
X11241019Y-12350124D01*
X11250543Y-12340600D01*
X11269590Y-12331076D01*
X11526733Y-12531076D02*
X11412448Y-12531076D01*
X11469590Y-12531076D02*
X11469590Y-12331076D01*
X11450543Y-12359648D01*
X11431495Y-12378695D01*
X11412448Y-12388219D01*
X11621971Y-12531076D02*
X11660067Y-12531076D01*
X11679114Y-12521552D01*
X11688638Y-12512028D01*
X11707686Y-12483457D01*
X11717209Y-12445362D01*
X11717209Y-12369171D01*
X11707686Y-12350124D01*
X11698162Y-12340600D01*
X11679114Y-12331076D01*
X11641019Y-12331076D01*
X11621971Y-12340600D01*
X11612448Y-12350124D01*
X11602924Y-12369171D01*
X11602924Y-12416790D01*
X11612448Y-12435838D01*
X11621971Y-12445362D01*
X11641019Y-12454886D01*
X11679114Y-12454886D01*
X11698162Y-12445362D01*
X11707686Y-12435838D01*
X11717209Y-12416790D01*
X11783876Y-12331076D02*
X11917209Y-12331076D01*
X11831495Y-12531076D01*
X11983876Y-12331076D02*
X11983876Y-12369171D01*
X12060067Y-12331076D02*
X12060067Y-12369171D01*
X12355305Y-12607267D02*
X12345781Y-12597743D01*
X12326733Y-12569171D01*
X12317209Y-12550124D01*
X12307686Y-12521552D01*
X12298162Y-12473933D01*
X12298162Y-12435838D01*
X12307686Y-12388219D01*
X12317209Y-12359648D01*
X12326733Y-12340600D01*
X12345781Y-12312028D01*
X12355305Y-12302505D01*
X12412448Y-12331076D02*
X12536257Y-12331076D01*
X12469590Y-12407267D01*
X12498162Y-12407267D01*
X12517209Y-12416790D01*
X12526733Y-12426314D01*
X12536257Y-12445362D01*
X12536257Y-12492981D01*
X12526733Y-12512028D01*
X12517209Y-12521552D01*
X12498162Y-12531076D01*
X12441019Y-12531076D01*
X12421971Y-12521552D01*
X12412448Y-12512028D01*
X12612448Y-12350124D02*
X12621971Y-12340600D01*
X12641019Y-12331076D01*
X12688638Y-12331076D01*
X12707686Y-12340600D01*
X12717209Y-12350124D01*
X12726733Y-12369171D01*
X12726733Y-12388219D01*
X12717209Y-12416790D01*
X12602924Y-12531076D01*
X12726733Y-12531076D01*
X12964828Y-12531076D02*
X12964828Y-12331076D01*
X13050543Y-12531076D02*
X13050543Y-12426314D01*
X13041019Y-12407267D01*
X13021971Y-12397743D01*
X12993400Y-12397743D01*
X12974352Y-12407267D01*
X12964828Y-12416790D01*
X13174352Y-12531076D02*
X13155305Y-12521552D01*
X13145781Y-12512028D01*
X13136257Y-12492981D01*
X13136257Y-12435838D01*
X13145781Y-12416790D01*
X13155305Y-12407267D01*
X13174352Y-12397743D01*
X13202924Y-12397743D01*
X13221971Y-12407267D01*
X13231495Y-12416790D01*
X13241019Y-12435838D01*
X13241019Y-12492981D01*
X13231495Y-12512028D01*
X13221971Y-12521552D01*
X13202924Y-12531076D01*
X13174352Y-12531076D01*
X13355305Y-12531076D02*
X13336257Y-12521552D01*
X13326733Y-12502505D01*
X13326733Y-12331076D01*
X13507686Y-12521552D02*
X13488638Y-12531076D01*
X13450543Y-12531076D01*
X13431495Y-12521552D01*
X13421971Y-12502505D01*
X13421971Y-12426314D01*
X13431495Y-12407267D01*
X13450543Y-12397743D01*
X13488638Y-12397743D01*
X13507686Y-12407267D01*
X13517209Y-12426314D01*
X13517209Y-12445362D01*
X13421971Y-12464409D01*
X13593400Y-12521552D02*
X13612448Y-12531076D01*
X13650543Y-12531076D01*
X13669590Y-12521552D01*
X13679114Y-12502505D01*
X13679114Y-12492981D01*
X13669590Y-12473933D01*
X13650543Y-12464409D01*
X13621971Y-12464409D01*
X13602924Y-12454886D01*
X13593400Y-12435838D01*
X13593400Y-12426314D01*
X13602924Y-12407267D01*
X13621971Y-12397743D01*
X13650543Y-12397743D01*
X13669590Y-12407267D01*
X13745781Y-12607267D02*
X13755305Y-12597743D01*
X13774352Y-12569171D01*
X13783876Y-12550124D01*
X13793400Y-12521552D01*
X13802924Y-12473933D01*
X13802924Y-12435838D01*
X13793400Y-12388219D01*
X13783876Y-12359648D01*
X13774352Y-12340600D01*
X13755305Y-12312028D01*
X13745781Y-12302505D01*
D14*
X8750400Y-12671600D02*
X8750400Y-12737600D01*
X8717400Y-12704600D02*
X8783400Y-12704600D01*
D11*
X9079114Y-12595076D02*
X9098162Y-12595076D01*
X9117210Y-12604600D01*
X9126733Y-12614124D01*
X9136257Y-12633171D01*
X9145781Y-12671267D01*
X9145781Y-12718886D01*
X9136257Y-12756981D01*
X9126733Y-12776028D01*
X9117210Y-12785552D01*
X9098162Y-12795076D01*
X9079114Y-12795076D01*
X9060067Y-12785552D01*
X9050543Y-12776028D01*
X9041019Y-12756981D01*
X9031495Y-12718886D01*
X9031495Y-12671267D01*
X9041019Y-12633171D01*
X9050543Y-12614124D01*
X9060067Y-12604600D01*
X9079114Y-12595076D01*
X9231495Y-12776028D02*
X9241019Y-12785552D01*
X9231495Y-12795076D01*
X9221971Y-12785552D01*
X9231495Y-12776028D01*
X9231495Y-12795076D01*
X9412448Y-12595076D02*
X9374352Y-12595076D01*
X9355305Y-12604600D01*
X9345781Y-12614124D01*
X9326733Y-12642695D01*
X9317210Y-12680790D01*
X9317210Y-12756981D01*
X9326733Y-12776028D01*
X9336257Y-12785552D01*
X9355305Y-12795076D01*
X9393400Y-12795076D01*
X9412448Y-12785552D01*
X9421971Y-12776028D01*
X9431495Y-12756981D01*
X9431495Y-12709362D01*
X9421971Y-12690314D01*
X9412448Y-12680790D01*
X9393400Y-12671267D01*
X9355305Y-12671267D01*
X9336257Y-12680790D01*
X9326733Y-12690314D01*
X9317210Y-12709362D01*
X9602924Y-12595076D02*
X9564829Y-12595076D01*
X9545781Y-12604600D01*
X9536257Y-12614124D01*
X9517210Y-12642695D01*
X9507686Y-12680790D01*
X9507686Y-12756981D01*
X9517210Y-12776028D01*
X9526733Y-12785552D01*
X9545781Y-12795076D01*
X9583876Y-12795076D01*
X9602924Y-12785552D01*
X9612448Y-12776028D01*
X9621971Y-12756981D01*
X9621971Y-12709362D01*
X9612448Y-12690314D01*
X9602924Y-12680790D01*
X9583876Y-12671267D01*
X9545781Y-12671267D01*
X9526733Y-12680790D01*
X9517210Y-12690314D01*
X9507686Y-12709362D01*
X9745781Y-12595076D02*
X9764829Y-12595076D01*
X9783876Y-12604600D01*
X9793400Y-12614124D01*
X9802924Y-12633171D01*
X9812448Y-12671267D01*
X9812448Y-12718886D01*
X9802924Y-12756981D01*
X9793400Y-12776028D01*
X9783876Y-12785552D01*
X9764829Y-12795076D01*
X9745781Y-12795076D01*
X9726733Y-12785552D01*
X9717210Y-12776028D01*
X9707686Y-12756981D01*
X9698162Y-12718886D01*
X9698162Y-12671267D01*
X9707686Y-12633171D01*
X9717210Y-12614124D01*
X9726733Y-12604600D01*
X9745781Y-12595076D01*
X9898162Y-12795076D02*
X9898162Y-12661743D01*
X9898162Y-12680790D02*
X9907686Y-12671267D01*
X9926733Y-12661743D01*
X9955305Y-12661743D01*
X9974352Y-12671267D01*
X9983876Y-12690314D01*
X9983876Y-12795076D01*
X9983876Y-12690314D02*
X9993400Y-12671267D01*
X10012448Y-12661743D01*
X10041019Y-12661743D01*
X10060067Y-12671267D01*
X10069590Y-12690314D01*
X10069590Y-12795076D01*
X10164829Y-12795076D02*
X10164829Y-12661743D01*
X10164829Y-12680790D02*
X10174352Y-12671267D01*
X10193400Y-12661743D01*
X10221971Y-12661743D01*
X10241019Y-12671267D01*
X10250543Y-12690314D01*
X10250543Y-12795076D01*
X10250543Y-12690314D02*
X10260067Y-12671267D01*
X10279114Y-12661743D01*
X10307686Y-12661743D01*
X10326733Y-12671267D01*
X10336257Y-12690314D01*
X10336257Y-12795076D01*
X10726733Y-12585552D02*
X10555305Y-12842695D01*
X10983876Y-12595076D02*
X11002924Y-12595076D01*
X11021971Y-12604600D01*
X11031495Y-12614124D01*
X11041019Y-12633171D01*
X11050543Y-12671267D01*
X11050543Y-12718886D01*
X11041019Y-12756981D01*
X11031495Y-12776028D01*
X11021971Y-12785552D01*
X11002924Y-12795076D01*
X10983876Y-12795076D01*
X10964829Y-12785552D01*
X10955305Y-12776028D01*
X10945781Y-12756981D01*
X10936257Y-12718886D01*
X10936257Y-12671267D01*
X10945781Y-12633171D01*
X10955305Y-12614124D01*
X10964829Y-12604600D01*
X10983876Y-12595076D01*
X11136257Y-12776028D02*
X11145781Y-12785552D01*
X11136257Y-12795076D01*
X11126733Y-12785552D01*
X11136257Y-12776028D01*
X11136257Y-12795076D01*
X11269590Y-12595076D02*
X11288638Y-12595076D01*
X11307686Y-12604600D01*
X11317209Y-12614124D01*
X11326733Y-12633171D01*
X11336257Y-12671267D01*
X11336257Y-12718886D01*
X11326733Y-12756981D01*
X11317209Y-12776028D01*
X11307686Y-12785552D01*
X11288638Y-12795076D01*
X11269590Y-12795076D01*
X11250543Y-12785552D01*
X11241019Y-12776028D01*
X11231495Y-12756981D01*
X11221971Y-12718886D01*
X11221971Y-12671267D01*
X11231495Y-12633171D01*
X11241019Y-12614124D01*
X11250543Y-12604600D01*
X11269590Y-12595076D01*
X11412448Y-12614124D02*
X11421971Y-12604600D01*
X11441019Y-12595076D01*
X11488638Y-12595076D01*
X11507686Y-12604600D01*
X11517209Y-12614124D01*
X11526733Y-12633171D01*
X11526733Y-12652219D01*
X11517209Y-12680790D01*
X11402924Y-12795076D01*
X11526733Y-12795076D01*
X11698162Y-12595076D02*
X11660067Y-12595076D01*
X11641019Y-12604600D01*
X11631495Y-12614124D01*
X11612448Y-12642695D01*
X11602924Y-12680790D01*
X11602924Y-12756981D01*
X11612448Y-12776028D01*
X11621971Y-12785552D01*
X11641019Y-12795076D01*
X11679114Y-12795076D01*
X11698162Y-12785552D01*
X11707686Y-12776028D01*
X11717209Y-12756981D01*
X11717209Y-12709362D01*
X11707686Y-12690314D01*
X11698162Y-12680790D01*
X11679114Y-12671267D01*
X11641019Y-12671267D01*
X11621971Y-12680790D01*
X11612448Y-12690314D01*
X11602924Y-12709362D01*
X11841019Y-12595076D02*
X11860067Y-12595076D01*
X11879114Y-12604600D01*
X11888638Y-12614124D01*
X11898162Y-12633171D01*
X11907686Y-12671267D01*
X11907686Y-12718886D01*
X11898162Y-12756981D01*
X11888638Y-12776028D01*
X11879114Y-12785552D01*
X11860067Y-12795076D01*
X11841019Y-12795076D01*
X11821971Y-12785552D01*
X11812448Y-12776028D01*
X11802924Y-12756981D01*
X11793400Y-12718886D01*
X11793400Y-12671267D01*
X11802924Y-12633171D01*
X11812448Y-12614124D01*
X11821971Y-12604600D01*
X11841019Y-12595076D01*
X11983876Y-12595076D02*
X11983876Y-12633171D01*
X12060067Y-12595076D02*
X12060067Y-12633171D01*
X12355305Y-12871267D02*
X12345781Y-12861743D01*
X12326733Y-12833171D01*
X12317209Y-12814124D01*
X12307686Y-12785552D01*
X12298162Y-12737933D01*
X12298162Y-12699838D01*
X12307686Y-12652219D01*
X12317209Y-12623648D01*
X12326733Y-12604600D01*
X12345781Y-12576028D01*
X12355305Y-12566505D01*
X12412448Y-12595076D02*
X12536257Y-12595076D01*
X12469590Y-12671267D01*
X12498162Y-12671267D01*
X12517209Y-12680790D01*
X12526733Y-12690314D01*
X12536257Y-12709362D01*
X12536257Y-12756981D01*
X12526733Y-12776028D01*
X12517209Y-12785552D01*
X12498162Y-12795076D01*
X12441019Y-12795076D01*
X12421971Y-12785552D01*
X12412448Y-12776028D01*
X12707686Y-12595076D02*
X12669590Y-12595076D01*
X12650543Y-12604600D01*
X12641019Y-12614124D01*
X12621971Y-12642695D01*
X12612448Y-12680790D01*
X12612448Y-12756981D01*
X12621971Y-12776028D01*
X12631495Y-12785552D01*
X12650543Y-12795076D01*
X12688638Y-12795076D01*
X12707686Y-12785552D01*
X12717209Y-12776028D01*
X12726733Y-12756981D01*
X12726733Y-12709362D01*
X12717209Y-12690314D01*
X12707686Y-12680790D01*
X12688638Y-12671267D01*
X12650543Y-12671267D01*
X12631495Y-12680790D01*
X12621971Y-12690314D01*
X12612448Y-12709362D01*
X12964828Y-12795076D02*
X12964828Y-12595076D01*
X13050543Y-12795076D02*
X13050543Y-12690314D01*
X13041019Y-12671267D01*
X13021971Y-12661743D01*
X12993400Y-12661743D01*
X12974352Y-12671267D01*
X12964828Y-12680790D01*
X13174352Y-12795076D02*
X13155305Y-12785552D01*
X13145781Y-12776028D01*
X13136257Y-12756981D01*
X13136257Y-12699838D01*
X13145781Y-12680790D01*
X13155305Y-12671267D01*
X13174352Y-12661743D01*
X13202924Y-12661743D01*
X13221971Y-12671267D01*
X13231495Y-12680790D01*
X13241019Y-12699838D01*
X13241019Y-12756981D01*
X13231495Y-12776028D01*
X13221971Y-12785552D01*
X13202924Y-12795076D01*
X13174352Y-12795076D01*
X13355305Y-12795076D02*
X13336257Y-12785552D01*
X13326733Y-12766505D01*
X13326733Y-12595076D01*
X13507686Y-12785552D02*
X13488638Y-12795076D01*
X13450543Y-12795076D01*
X13431495Y-12785552D01*
X13421971Y-12766505D01*
X13421971Y-12690314D01*
X13431495Y-12671267D01*
X13450543Y-12661743D01*
X13488638Y-12661743D01*
X13507686Y-12671267D01*
X13517209Y-12690314D01*
X13517209Y-12709362D01*
X13421971Y-12728409D01*
X13593400Y-12785552D02*
X13612448Y-12795076D01*
X13650543Y-12795076D01*
X13669590Y-12785552D01*
X13679114Y-12766505D01*
X13679114Y-12756981D01*
X13669590Y-12737933D01*
X13650543Y-12728409D01*
X13621971Y-12728409D01*
X13602924Y-12718886D01*
X13593400Y-12699838D01*
X13593400Y-12690314D01*
X13602924Y-12671267D01*
X13621971Y-12661743D01*
X13650543Y-12661743D01*
X13669590Y-12671267D01*
X13745781Y-12871267D02*
X13755305Y-12861743D01*
X13774352Y-12833171D01*
X13783876Y-12814124D01*
X13793400Y-12785552D01*
X13802924Y-12737933D01*
X13802924Y-12699838D01*
X13793400Y-12652219D01*
X13783876Y-12623648D01*
X13774352Y-12604600D01*
X13755305Y-12576028D01*
X13745781Y-12566505D01*
D15*
X8773149Y-12993349D02*
X8773149Y-12943851D01*
X8723651Y-12943851D01*
X8723651Y-12993349D01*
X8773149Y-12993349D01*
D11*
X9079114Y-12859076D02*
X9098162Y-12859076D01*
X9117210Y-12868600D01*
X9126733Y-12878124D01*
X9136257Y-12897171D01*
X9145781Y-12935267D01*
X9145781Y-12982886D01*
X9136257Y-13020981D01*
X9126733Y-13040028D01*
X9117210Y-13049552D01*
X9098162Y-13059076D01*
X9079114Y-13059076D01*
X9060067Y-13049552D01*
X9050543Y-13040028D01*
X9041019Y-13020981D01*
X9031495Y-12982886D01*
X9031495Y-12935267D01*
X9041019Y-12897171D01*
X9050543Y-12878124D01*
X9060067Y-12868600D01*
X9079114Y-12859076D01*
X9231495Y-13040028D02*
X9241019Y-13049552D01*
X9231495Y-13059076D01*
X9221971Y-13049552D01*
X9231495Y-13040028D01*
X9231495Y-13059076D01*
X9307686Y-12859076D02*
X9441019Y-12859076D01*
X9355305Y-13059076D01*
X9555305Y-12859076D02*
X9574352Y-12859076D01*
X9593400Y-12868600D01*
X9602924Y-12878124D01*
X9612448Y-12897171D01*
X9621971Y-12935267D01*
X9621971Y-12982886D01*
X9612448Y-13020981D01*
X9602924Y-13040028D01*
X9593400Y-13049552D01*
X9574352Y-13059076D01*
X9555305Y-13059076D01*
X9536257Y-13049552D01*
X9526733Y-13040028D01*
X9517210Y-13020981D01*
X9507686Y-12982886D01*
X9507686Y-12935267D01*
X9517210Y-12897171D01*
X9526733Y-12878124D01*
X9536257Y-12868600D01*
X9555305Y-12859076D01*
X9745781Y-12859076D02*
X9764829Y-12859076D01*
X9783876Y-12868600D01*
X9793400Y-12878124D01*
X9802924Y-12897171D01*
X9812448Y-12935267D01*
X9812448Y-12982886D01*
X9802924Y-13020981D01*
X9793400Y-13040028D01*
X9783876Y-13049552D01*
X9764829Y-13059076D01*
X9745781Y-13059076D01*
X9726733Y-13049552D01*
X9717210Y-13040028D01*
X9707686Y-13020981D01*
X9698162Y-12982886D01*
X9698162Y-12935267D01*
X9707686Y-12897171D01*
X9717210Y-12878124D01*
X9726733Y-12868600D01*
X9745781Y-12859076D01*
X9898162Y-13059076D02*
X9898162Y-12925743D01*
X9898162Y-12944790D02*
X9907686Y-12935267D01*
X9926733Y-12925743D01*
X9955305Y-12925743D01*
X9974352Y-12935267D01*
X9983876Y-12954314D01*
X9983876Y-13059076D01*
X9983876Y-12954314D02*
X9993400Y-12935267D01*
X10012448Y-12925743D01*
X10041019Y-12925743D01*
X10060067Y-12935267D01*
X10069590Y-12954314D01*
X10069590Y-13059076D01*
X10164829Y-13059076D02*
X10164829Y-12925743D01*
X10164829Y-12944790D02*
X10174352Y-12935267D01*
X10193400Y-12925743D01*
X10221971Y-12925743D01*
X10241019Y-12935267D01*
X10250543Y-12954314D01*
X10250543Y-13059076D01*
X10250543Y-12954314D02*
X10260067Y-12935267D01*
X10279114Y-12925743D01*
X10307686Y-12925743D01*
X10326733Y-12935267D01*
X10336257Y-12954314D01*
X10336257Y-13059076D01*
X10726733Y-12849552D02*
X10555305Y-13106695D01*
X10983876Y-12859076D02*
X11002924Y-12859076D01*
X11021971Y-12868600D01*
X11031495Y-12878124D01*
X11041019Y-12897171D01*
X11050543Y-12935267D01*
X11050543Y-12982886D01*
X11041019Y-13020981D01*
X11031495Y-13040028D01*
X11021971Y-13049552D01*
X11002924Y-13059076D01*
X10983876Y-13059076D01*
X10964829Y-13049552D01*
X10955305Y-13040028D01*
X10945781Y-13020981D01*
X10936257Y-12982886D01*
X10936257Y-12935267D01*
X10945781Y-12897171D01*
X10955305Y-12878124D01*
X10964829Y-12868600D01*
X10983876Y-12859076D01*
X11136257Y-13040028D02*
X11145781Y-13049552D01*
X11136257Y-13059076D01*
X11126733Y-13049552D01*
X11136257Y-13040028D01*
X11136257Y-13059076D01*
X11269590Y-12859076D02*
X11288638Y-12859076D01*
X11307686Y-12868600D01*
X11317209Y-12878124D01*
X11326733Y-12897171D01*
X11336257Y-12935267D01*
X11336257Y-12982886D01*
X11326733Y-13020981D01*
X11317209Y-13040028D01*
X11307686Y-13049552D01*
X11288638Y-13059076D01*
X11269590Y-13059076D01*
X11250543Y-13049552D01*
X11241019Y-13040028D01*
X11231495Y-13020981D01*
X11221971Y-12982886D01*
X11221971Y-12935267D01*
X11231495Y-12897171D01*
X11241019Y-12878124D01*
X11250543Y-12868600D01*
X11269590Y-12859076D01*
X11412448Y-12878124D02*
X11421971Y-12868600D01*
X11441019Y-12859076D01*
X11488638Y-12859076D01*
X11507686Y-12868600D01*
X11517209Y-12878124D01*
X11526733Y-12897171D01*
X11526733Y-12916219D01*
X11517209Y-12944790D01*
X11402924Y-13059076D01*
X11526733Y-13059076D01*
X11593400Y-12859076D02*
X11726733Y-12859076D01*
X11641019Y-13059076D01*
X11888638Y-12859076D02*
X11850543Y-12859076D01*
X11831495Y-12868600D01*
X11821971Y-12878124D01*
X11802924Y-12906695D01*
X11793400Y-12944790D01*
X11793400Y-13020981D01*
X11802924Y-13040028D01*
X11812448Y-13049552D01*
X11831495Y-13059076D01*
X11869590Y-13059076D01*
X11888638Y-13049552D01*
X11898162Y-13040028D01*
X11907686Y-13020981D01*
X11907686Y-12973362D01*
X11898162Y-12954314D01*
X11888638Y-12944790D01*
X11869590Y-12935267D01*
X11831495Y-12935267D01*
X11812448Y-12944790D01*
X11802924Y-12954314D01*
X11793400Y-12973362D01*
X11983876Y-12859076D02*
X11983876Y-12897171D01*
X12060067Y-12859076D02*
X12060067Y-12897171D01*
X12355305Y-13135267D02*
X12345781Y-13125743D01*
X12326733Y-13097171D01*
X12317209Y-13078124D01*
X12307686Y-13049552D01*
X12298162Y-13001933D01*
X12298162Y-12963838D01*
X12307686Y-12916219D01*
X12317209Y-12887648D01*
X12326733Y-12868600D01*
X12345781Y-12840028D01*
X12355305Y-12830505D01*
X12412448Y-12859076D02*
X12536257Y-12859076D01*
X12469590Y-12935267D01*
X12498162Y-12935267D01*
X12517209Y-12944790D01*
X12526733Y-12954314D01*
X12536257Y-12973362D01*
X12536257Y-13020981D01*
X12526733Y-13040028D01*
X12517209Y-13049552D01*
X12498162Y-13059076D01*
X12441019Y-13059076D01*
X12421971Y-13049552D01*
X12412448Y-13040028D01*
X12612448Y-12878124D02*
X12621971Y-12868600D01*
X12641019Y-12859076D01*
X12688638Y-12859076D01*
X12707686Y-12868600D01*
X12717209Y-12878124D01*
X12726733Y-12897171D01*
X12726733Y-12916219D01*
X12717209Y-12944790D01*
X12602924Y-13059076D01*
X12726733Y-13059076D01*
X12964828Y-13059076D02*
X12964828Y-12859076D01*
X13050543Y-13059076D02*
X13050543Y-12954314D01*
X13041019Y-12935267D01*
X13021971Y-12925743D01*
X12993400Y-12925743D01*
X12974352Y-12935267D01*
X12964828Y-12944790D01*
X13174352Y-13059076D02*
X13155305Y-13049552D01*
X13145781Y-13040028D01*
X13136257Y-13020981D01*
X13136257Y-12963838D01*
X13145781Y-12944790D01*
X13155305Y-12935267D01*
X13174352Y-12925743D01*
X13202924Y-12925743D01*
X13221971Y-12935267D01*
X13231495Y-12944790D01*
X13241019Y-12963838D01*
X13241019Y-13020981D01*
X13231495Y-13040028D01*
X13221971Y-13049552D01*
X13202924Y-13059076D01*
X13174352Y-13059076D01*
X13355305Y-13059076D02*
X13336257Y-13049552D01*
X13326733Y-13030505D01*
X13326733Y-12859076D01*
X13507686Y-13049552D02*
X13488638Y-13059076D01*
X13450543Y-13059076D01*
X13431495Y-13049552D01*
X13421971Y-13030505D01*
X13421971Y-12954314D01*
X13431495Y-12935267D01*
X13450543Y-12925743D01*
X13488638Y-12925743D01*
X13507686Y-12935267D01*
X13517209Y-12954314D01*
X13517209Y-12973362D01*
X13421971Y-12992409D01*
X13593400Y-13049552D02*
X13612448Y-13059076D01*
X13650543Y-13059076D01*
X13669590Y-13049552D01*
X13679114Y-13030505D01*
X13679114Y-13020981D01*
X13669590Y-13001933D01*
X13650543Y-12992409D01*
X13621971Y-12992409D01*
X13602924Y-12982886D01*
X13593400Y-12963838D01*
X13593400Y-12954314D01*
X13602924Y-12935267D01*
X13621971Y-12925743D01*
X13650543Y-12925743D01*
X13669590Y-12935267D01*
X13745781Y-13135267D02*
X13755305Y-13125743D01*
X13774352Y-13097171D01*
X13783876Y-13078124D01*
X13793400Y-13049552D01*
X13802924Y-13001933D01*
X13802924Y-12963838D01*
X13793400Y-12916219D01*
X13783876Y-12887648D01*
X13774352Y-12868600D01*
X13755305Y-12840028D01*
X13745781Y-12830505D01*
D16*
X8746900Y-13269100D02*
X8783400Y-13232600D01*
X8746900Y-13196100D01*
X8710400Y-13232600D01*
X8746900Y-13269100D01*
D11*
X9079114Y-13123076D02*
X9098162Y-13123076D01*
X9117210Y-13132600D01*
X9126733Y-13142124D01*
X9136257Y-13161171D01*
X9145781Y-13199267D01*
X9145781Y-13246886D01*
X9136257Y-13284981D01*
X9126733Y-13304028D01*
X9117210Y-13313552D01*
X9098162Y-13323076D01*
X9079114Y-13323076D01*
X9060067Y-13313552D01*
X9050543Y-13304028D01*
X9041019Y-13284981D01*
X9031495Y-13246886D01*
X9031495Y-13199267D01*
X9041019Y-13161171D01*
X9050543Y-13142124D01*
X9060067Y-13132600D01*
X9079114Y-13123076D01*
X9231495Y-13304028D02*
X9241019Y-13313552D01*
X9231495Y-13323076D01*
X9221971Y-13313552D01*
X9231495Y-13304028D01*
X9231495Y-13323076D01*
X9307686Y-13123076D02*
X9441019Y-13123076D01*
X9355305Y-13323076D01*
X9498162Y-13123076D02*
X9621971Y-13123076D01*
X9555305Y-13199267D01*
X9583876Y-13199267D01*
X9602924Y-13208790D01*
X9612448Y-13218314D01*
X9621971Y-13237362D01*
X9621971Y-13284981D01*
X9612448Y-13304028D01*
X9602924Y-13313552D01*
X9583876Y-13323076D01*
X9526733Y-13323076D01*
X9507686Y-13313552D01*
X9498162Y-13304028D01*
X9745781Y-13123076D02*
X9764829Y-13123076D01*
X9783876Y-13132600D01*
X9793400Y-13142124D01*
X9802924Y-13161171D01*
X9812448Y-13199267D01*
X9812448Y-13246886D01*
X9802924Y-13284981D01*
X9793400Y-13304028D01*
X9783876Y-13313552D01*
X9764829Y-13323076D01*
X9745781Y-13323076D01*
X9726733Y-13313552D01*
X9717210Y-13304028D01*
X9707686Y-13284981D01*
X9698162Y-13246886D01*
X9698162Y-13199267D01*
X9707686Y-13161171D01*
X9717210Y-13142124D01*
X9726733Y-13132600D01*
X9745781Y-13123076D01*
X9898162Y-13323076D02*
X9898162Y-13189743D01*
X9898162Y-13208790D02*
X9907686Y-13199267D01*
X9926733Y-13189743D01*
X9955305Y-13189743D01*
X9974352Y-13199267D01*
X9983876Y-13218314D01*
X9983876Y-13323076D01*
X9983876Y-13218314D02*
X9993400Y-13199267D01*
X10012448Y-13189743D01*
X10041019Y-13189743D01*
X10060067Y-13199267D01*
X10069590Y-13218314D01*
X10069590Y-13323076D01*
X10164829Y-13323076D02*
X10164829Y-13189743D01*
X10164829Y-13208790D02*
X10174352Y-13199267D01*
X10193400Y-13189743D01*
X10221971Y-13189743D01*
X10241019Y-13199267D01*
X10250543Y-13218314D01*
X10250543Y-13323076D01*
X10250543Y-13218314D02*
X10260067Y-13199267D01*
X10279114Y-13189743D01*
X10307686Y-13189743D01*
X10326733Y-13199267D01*
X10336257Y-13218314D01*
X10336257Y-13323076D01*
X10726733Y-13113552D02*
X10555305Y-13370695D01*
X10983876Y-13123076D02*
X11002924Y-13123076D01*
X11021971Y-13132600D01*
X11031495Y-13142124D01*
X11041019Y-13161171D01*
X11050543Y-13199267D01*
X11050543Y-13246886D01*
X11041019Y-13284981D01*
X11031495Y-13304028D01*
X11021971Y-13313552D01*
X11002924Y-13323076D01*
X10983876Y-13323076D01*
X10964829Y-13313552D01*
X10955305Y-13304028D01*
X10945781Y-13284981D01*
X10936257Y-13246886D01*
X10936257Y-13199267D01*
X10945781Y-13161171D01*
X10955305Y-13142124D01*
X10964829Y-13132600D01*
X10983876Y-13123076D01*
X11136257Y-13304028D02*
X11145781Y-13313552D01*
X11136257Y-13323076D01*
X11126733Y-13313552D01*
X11136257Y-13304028D01*
X11136257Y-13323076D01*
X11269590Y-13123076D02*
X11288638Y-13123076D01*
X11307686Y-13132600D01*
X11317209Y-13142124D01*
X11326733Y-13161171D01*
X11336257Y-13199267D01*
X11336257Y-13246886D01*
X11326733Y-13284981D01*
X11317209Y-13304028D01*
X11307686Y-13313552D01*
X11288638Y-13323076D01*
X11269590Y-13323076D01*
X11250543Y-13313552D01*
X11241019Y-13304028D01*
X11231495Y-13284981D01*
X11221971Y-13246886D01*
X11221971Y-13199267D01*
X11231495Y-13161171D01*
X11241019Y-13142124D01*
X11250543Y-13132600D01*
X11269590Y-13123076D01*
X11412448Y-13142124D02*
X11421971Y-13132600D01*
X11441019Y-13123076D01*
X11488638Y-13123076D01*
X11507686Y-13132600D01*
X11517209Y-13142124D01*
X11526733Y-13161171D01*
X11526733Y-13180219D01*
X11517209Y-13208790D01*
X11402924Y-13323076D01*
X11526733Y-13323076D01*
X11641019Y-13208790D02*
X11621971Y-13199267D01*
X11612448Y-13189743D01*
X11602924Y-13170695D01*
X11602924Y-13161171D01*
X11612448Y-13142124D01*
X11621971Y-13132600D01*
X11641019Y-13123076D01*
X11679114Y-13123076D01*
X11698162Y-13132600D01*
X11707686Y-13142124D01*
X11717209Y-13161171D01*
X11717209Y-13170695D01*
X11707686Y-13189743D01*
X11698162Y-13199267D01*
X11679114Y-13208790D01*
X11641019Y-13208790D01*
X11621971Y-13218314D01*
X11612448Y-13227838D01*
X11602924Y-13246886D01*
X11602924Y-13284981D01*
X11612448Y-13304028D01*
X11621971Y-13313552D01*
X11641019Y-13323076D01*
X11679114Y-13323076D01*
X11698162Y-13313552D01*
X11707686Y-13304028D01*
X11717209Y-13284981D01*
X11717209Y-13246886D01*
X11707686Y-13227838D01*
X11698162Y-13218314D01*
X11679114Y-13208790D01*
X11783876Y-13123076D02*
X11917209Y-13123076D01*
X11831495Y-13323076D01*
X11983876Y-13123076D02*
X11983876Y-13161171D01*
X12060067Y-13123076D02*
X12060067Y-13161171D01*
X12355305Y-13399267D02*
X12345781Y-13389743D01*
X12326733Y-13361171D01*
X12317209Y-13342124D01*
X12307686Y-13313552D01*
X12298162Y-13265933D01*
X12298162Y-13227838D01*
X12307686Y-13180219D01*
X12317209Y-13151648D01*
X12326733Y-13132600D01*
X12345781Y-13104028D01*
X12355305Y-13094505D01*
X12412448Y-13123076D02*
X12536257Y-13123076D01*
X12469590Y-13199267D01*
X12498162Y-13199267D01*
X12517209Y-13208790D01*
X12526733Y-13218314D01*
X12536257Y-13237362D01*
X12536257Y-13284981D01*
X12526733Y-13304028D01*
X12517209Y-13313552D01*
X12498162Y-13323076D01*
X12441019Y-13323076D01*
X12421971Y-13313552D01*
X12412448Y-13304028D01*
X12612448Y-13142124D02*
X12621971Y-13132600D01*
X12641019Y-13123076D01*
X12688638Y-13123076D01*
X12707686Y-13132600D01*
X12717209Y-13142124D01*
X12726733Y-13161171D01*
X12726733Y-13180219D01*
X12717209Y-13208790D01*
X12602924Y-13323076D01*
X12726733Y-13323076D01*
X12964828Y-13323076D02*
X12964828Y-13123076D01*
X13050543Y-13323076D02*
X13050543Y-13218314D01*
X13041019Y-13199267D01*
X13021971Y-13189743D01*
X12993400Y-13189743D01*
X12974352Y-13199267D01*
X12964828Y-13208790D01*
X13174352Y-13323076D02*
X13155305Y-13313552D01*
X13145781Y-13304028D01*
X13136257Y-13284981D01*
X13136257Y-13227838D01*
X13145781Y-13208790D01*
X13155305Y-13199267D01*
X13174352Y-13189743D01*
X13202924Y-13189743D01*
X13221971Y-13199267D01*
X13231495Y-13208790D01*
X13241019Y-13227838D01*
X13241019Y-13284981D01*
X13231495Y-13304028D01*
X13221971Y-13313552D01*
X13202924Y-13323076D01*
X13174352Y-13323076D01*
X13355305Y-13323076D02*
X13336257Y-13313552D01*
X13326733Y-13294505D01*
X13326733Y-13123076D01*
X13507686Y-13313552D02*
X13488638Y-13323076D01*
X13450543Y-13323076D01*
X13431495Y-13313552D01*
X13421971Y-13294505D01*
X13421971Y-13218314D01*
X13431495Y-13199267D01*
X13450543Y-13189743D01*
X13488638Y-13189743D01*
X13507686Y-13199267D01*
X13517209Y-13218314D01*
X13517209Y-13237362D01*
X13421971Y-13256409D01*
X13593400Y-13313552D02*
X13612448Y-13323076D01*
X13650543Y-13323076D01*
X13669590Y-13313552D01*
X13679114Y-13294505D01*
X13679114Y-13284981D01*
X13669590Y-13265933D01*
X13650543Y-13256409D01*
X13621971Y-13256409D01*
X13602924Y-13246886D01*
X13593400Y-13227838D01*
X13593400Y-13218314D01*
X13602924Y-13199267D01*
X13621971Y-13189743D01*
X13650543Y-13189743D01*
X13669590Y-13199267D01*
X13745781Y-13399267D02*
X13755305Y-13389743D01*
X13774352Y-13361171D01*
X13783876Y-13342124D01*
X13793400Y-13313552D01*
X13802924Y-13265933D01*
X13802924Y-13227838D01*
X13793400Y-13180219D01*
X13783876Y-13151648D01*
X13774352Y-13132600D01*
X13755305Y-13104028D01*
X13745781Y-13094505D01*
D17*
X8708400Y-13459100D02*
X8783400Y-13534100D01*
X8783400Y-13459100D02*
X8708400Y-13534100D01*
X8783400Y-13496600D02*
G75*
G03*
X8783400Y-13496600I-37500J0D01*
G01*
D11*
X9079114Y-13387076D02*
X9098162Y-13387076D01*
X9117210Y-13396600D01*
X9126733Y-13406124D01*
X9136257Y-13425171D01*
X9145781Y-13463267D01*
X9145781Y-13510886D01*
X9136257Y-13548981D01*
X9126733Y-13568028D01*
X9117210Y-13577552D01*
X9098162Y-13587076D01*
X9079114Y-13587076D01*
X9060067Y-13577552D01*
X9050543Y-13568028D01*
X9041019Y-13548981D01*
X9031495Y-13510886D01*
X9031495Y-13463267D01*
X9041019Y-13425171D01*
X9050543Y-13406124D01*
X9060067Y-13396600D01*
X9079114Y-13387076D01*
X9231495Y-13568028D02*
X9241019Y-13577552D01*
X9231495Y-13587076D01*
X9221971Y-13577552D01*
X9231495Y-13568028D01*
X9231495Y-13587076D01*
X9307686Y-13387076D02*
X9441019Y-13387076D01*
X9355305Y-13587076D01*
X9612448Y-13387076D02*
X9517210Y-13387076D01*
X9507686Y-13482314D01*
X9517210Y-13472790D01*
X9536257Y-13463267D01*
X9583876Y-13463267D01*
X9602924Y-13472790D01*
X9612448Y-13482314D01*
X9621971Y-13501362D01*
X9621971Y-13548981D01*
X9612448Y-13568028D01*
X9602924Y-13577552D01*
X9583876Y-13587076D01*
X9536257Y-13587076D01*
X9517210Y-13577552D01*
X9507686Y-13568028D01*
X9745781Y-13387076D02*
X9764829Y-13387076D01*
X9783876Y-13396600D01*
X9793400Y-13406124D01*
X9802924Y-13425171D01*
X9812448Y-13463267D01*
X9812448Y-13510886D01*
X9802924Y-13548981D01*
X9793400Y-13568028D01*
X9783876Y-13577552D01*
X9764829Y-13587076D01*
X9745781Y-13587076D01*
X9726733Y-13577552D01*
X9717210Y-13568028D01*
X9707686Y-13548981D01*
X9698162Y-13510886D01*
X9698162Y-13463267D01*
X9707686Y-13425171D01*
X9717210Y-13406124D01*
X9726733Y-13396600D01*
X9745781Y-13387076D01*
X9898162Y-13587076D02*
X9898162Y-13453743D01*
X9898162Y-13472790D02*
X9907686Y-13463267D01*
X9926733Y-13453743D01*
X9955305Y-13453743D01*
X9974352Y-13463267D01*
X9983876Y-13482314D01*
X9983876Y-13587076D01*
X9983876Y-13482314D02*
X9993400Y-13463267D01*
X10012448Y-13453743D01*
X10041019Y-13453743D01*
X10060067Y-13463267D01*
X10069590Y-13482314D01*
X10069590Y-13587076D01*
X10164829Y-13587076D02*
X10164829Y-13453743D01*
X10164829Y-13472790D02*
X10174352Y-13463267D01*
X10193400Y-13453743D01*
X10221971Y-13453743D01*
X10241019Y-13463267D01*
X10250543Y-13482314D01*
X10250543Y-13587076D01*
X10250543Y-13482314D02*
X10260067Y-13463267D01*
X10279114Y-13453743D01*
X10307686Y-13453743D01*
X10326733Y-13463267D01*
X10336257Y-13482314D01*
X10336257Y-13587076D01*
X10726733Y-13377552D02*
X10555305Y-13634695D01*
X10983876Y-13387076D02*
X11002924Y-13387076D01*
X11021971Y-13396600D01*
X11031495Y-13406124D01*
X11041019Y-13425171D01*
X11050543Y-13463267D01*
X11050543Y-13510886D01*
X11041019Y-13548981D01*
X11031495Y-13568028D01*
X11021971Y-13577552D01*
X11002924Y-13587076D01*
X10983876Y-13587076D01*
X10964829Y-13577552D01*
X10955305Y-13568028D01*
X10945781Y-13548981D01*
X10936257Y-13510886D01*
X10936257Y-13463267D01*
X10945781Y-13425171D01*
X10955305Y-13406124D01*
X10964829Y-13396600D01*
X10983876Y-13387076D01*
X11136257Y-13568028D02*
X11145781Y-13577552D01*
X11136257Y-13587076D01*
X11126733Y-13577552D01*
X11136257Y-13568028D01*
X11136257Y-13587076D01*
X11269590Y-13387076D02*
X11288638Y-13387076D01*
X11307686Y-13396600D01*
X11317209Y-13406124D01*
X11326733Y-13425171D01*
X11336257Y-13463267D01*
X11336257Y-13510886D01*
X11326733Y-13548981D01*
X11317209Y-13568028D01*
X11307686Y-13577552D01*
X11288638Y-13587076D01*
X11269590Y-13587076D01*
X11250543Y-13577552D01*
X11241019Y-13568028D01*
X11231495Y-13548981D01*
X11221971Y-13510886D01*
X11221971Y-13463267D01*
X11231495Y-13425171D01*
X11241019Y-13406124D01*
X11250543Y-13396600D01*
X11269590Y-13387076D01*
X11412448Y-13406124D02*
X11421971Y-13396600D01*
X11441019Y-13387076D01*
X11488638Y-13387076D01*
X11507686Y-13396600D01*
X11517209Y-13406124D01*
X11526733Y-13425171D01*
X11526733Y-13444219D01*
X11517209Y-13472790D01*
X11402924Y-13587076D01*
X11526733Y-13587076D01*
X11621971Y-13587076D02*
X11660067Y-13587076D01*
X11679114Y-13577552D01*
X11688638Y-13568028D01*
X11707686Y-13539457D01*
X11717209Y-13501362D01*
X11717209Y-13425171D01*
X11707686Y-13406124D01*
X11698162Y-13396600D01*
X11679114Y-13387076D01*
X11641019Y-13387076D01*
X11621971Y-13396600D01*
X11612448Y-13406124D01*
X11602924Y-13425171D01*
X11602924Y-13472790D01*
X11612448Y-13491838D01*
X11621971Y-13501362D01*
X11641019Y-13510886D01*
X11679114Y-13510886D01*
X11698162Y-13501362D01*
X11707686Y-13491838D01*
X11717209Y-13472790D01*
X11898162Y-13387076D02*
X11802924Y-13387076D01*
X11793400Y-13482314D01*
X11802924Y-13472790D01*
X11821971Y-13463267D01*
X11869590Y-13463267D01*
X11888638Y-13472790D01*
X11898162Y-13482314D01*
X11907686Y-13501362D01*
X11907686Y-13548981D01*
X11898162Y-13568028D01*
X11888638Y-13577552D01*
X11869590Y-13587076D01*
X11821971Y-13587076D01*
X11802924Y-13577552D01*
X11793400Y-13568028D01*
X11983876Y-13387076D02*
X11983876Y-13425171D01*
X12060067Y-13387076D02*
X12060067Y-13425171D01*
X12355305Y-13663267D02*
X12345781Y-13653743D01*
X12326733Y-13625171D01*
X12317209Y-13606124D01*
X12307686Y-13577552D01*
X12298162Y-13529933D01*
X12298162Y-13491838D01*
X12307686Y-13444219D01*
X12317209Y-13415648D01*
X12326733Y-13396600D01*
X12345781Y-13368028D01*
X12355305Y-13358505D01*
X12517209Y-13453743D02*
X12517209Y-13587076D01*
X12469590Y-13377552D02*
X12421971Y-13520409D01*
X12545781Y-13520409D01*
X12650543Y-13472790D02*
X12631495Y-13463267D01*
X12621971Y-13453743D01*
X12612448Y-13434695D01*
X12612448Y-13425171D01*
X12621971Y-13406124D01*
X12631495Y-13396600D01*
X12650543Y-13387076D01*
X12688638Y-13387076D01*
X12707686Y-13396600D01*
X12717209Y-13406124D01*
X12726733Y-13425171D01*
X12726733Y-13434695D01*
X12717209Y-13453743D01*
X12707686Y-13463267D01*
X12688638Y-13472790D01*
X12650543Y-13472790D01*
X12631495Y-13482314D01*
X12621971Y-13491838D01*
X12612448Y-13510886D01*
X12612448Y-13548981D01*
X12621971Y-13568028D01*
X12631495Y-13577552D01*
X12650543Y-13587076D01*
X12688638Y-13587076D01*
X12707686Y-13577552D01*
X12717209Y-13568028D01*
X12726733Y-13548981D01*
X12726733Y-13510886D01*
X12717209Y-13491838D01*
X12707686Y-13482314D01*
X12688638Y-13472790D01*
X12964828Y-13587076D02*
X12964828Y-13387076D01*
X13050543Y-13587076D02*
X13050543Y-13482314D01*
X13041019Y-13463267D01*
X13021971Y-13453743D01*
X12993400Y-13453743D01*
X12974352Y-13463267D01*
X12964828Y-13472790D01*
X13174352Y-13587076D02*
X13155305Y-13577552D01*
X13145781Y-13568028D01*
X13136257Y-13548981D01*
X13136257Y-13491838D01*
X13145781Y-13472790D01*
X13155305Y-13463267D01*
X13174352Y-13453743D01*
X13202924Y-13453743D01*
X13221971Y-13463267D01*
X13231495Y-13472790D01*
X13241019Y-13491838D01*
X13241019Y-13548981D01*
X13231495Y-13568028D01*
X13221971Y-13577552D01*
X13202924Y-13587076D01*
X13174352Y-13587076D01*
X13355305Y-13587076D02*
X13336257Y-13577552D01*
X13326733Y-13558505D01*
X13326733Y-13387076D01*
X13507686Y-13577552D02*
X13488638Y-13587076D01*
X13450543Y-13587076D01*
X13431495Y-13577552D01*
X13421971Y-13558505D01*
X13421971Y-13482314D01*
X13431495Y-13463267D01*
X13450543Y-13453743D01*
X13488638Y-13453743D01*
X13507686Y-13463267D01*
X13517209Y-13482314D01*
X13517209Y-13501362D01*
X13421971Y-13520409D01*
X13593400Y-13577552D02*
X13612448Y-13587076D01*
X13650543Y-13587076D01*
X13669590Y-13577552D01*
X13679114Y-13558505D01*
X13679114Y-13548981D01*
X13669590Y-13529933D01*
X13650543Y-13520409D01*
X13621971Y-13520409D01*
X13602924Y-13510886D01*
X13593400Y-13491838D01*
X13593400Y-13482314D01*
X13602924Y-13463267D01*
X13621971Y-13453743D01*
X13650543Y-13453743D01*
X13669590Y-13463267D01*
X13745781Y-13663267D02*
X13755305Y-13653743D01*
X13774352Y-13625171D01*
X13783876Y-13606124D01*
X13793400Y-13577552D01*
X13802924Y-13529933D01*
X13802924Y-13491838D01*
X13793400Y-13444219D01*
X13783876Y-13415648D01*
X13774352Y-13396600D01*
X13755305Y-13368028D01*
X13745781Y-13358505D01*
D18*
X8703400Y-13720600D02*
X8783400Y-13800600D01*
X8783400Y-13720600D02*
X8703400Y-13800600D01*
X8743400Y-13720600D02*
X8743400Y-13800600D01*
X8703400Y-13760600D02*
X8783400Y-13760600D01*
D11*
X9079114Y-13651076D02*
X9098162Y-13651076D01*
X9117210Y-13660600D01*
X9126733Y-13670124D01*
X9136257Y-13689171D01*
X9145781Y-13727267D01*
X9145781Y-13774886D01*
X9136257Y-13812981D01*
X9126733Y-13832028D01*
X9117210Y-13841552D01*
X9098162Y-13851076D01*
X9079114Y-13851076D01*
X9060067Y-13841552D01*
X9050543Y-13832028D01*
X9041019Y-13812981D01*
X9031495Y-13774886D01*
X9031495Y-13727267D01*
X9041019Y-13689171D01*
X9050543Y-13670124D01*
X9060067Y-13660600D01*
X9079114Y-13651076D01*
X9231495Y-13832028D02*
X9241019Y-13841552D01*
X9231495Y-13851076D01*
X9221971Y-13841552D01*
X9231495Y-13832028D01*
X9231495Y-13851076D01*
X9355305Y-13736790D02*
X9336257Y-13727267D01*
X9326733Y-13717743D01*
X9317210Y-13698695D01*
X9317210Y-13689171D01*
X9326733Y-13670124D01*
X9336257Y-13660600D01*
X9355305Y-13651076D01*
X9393400Y-13651076D01*
X9412448Y-13660600D01*
X9421971Y-13670124D01*
X9431495Y-13689171D01*
X9431495Y-13698695D01*
X9421971Y-13717743D01*
X9412448Y-13727267D01*
X9393400Y-13736790D01*
X9355305Y-13736790D01*
X9336257Y-13746314D01*
X9326733Y-13755838D01*
X9317210Y-13774886D01*
X9317210Y-13812981D01*
X9326733Y-13832028D01*
X9336257Y-13841552D01*
X9355305Y-13851076D01*
X9393400Y-13851076D01*
X9412448Y-13841552D01*
X9421971Y-13832028D01*
X9431495Y-13812981D01*
X9431495Y-13774886D01*
X9421971Y-13755838D01*
X9412448Y-13746314D01*
X9393400Y-13736790D01*
X9555305Y-13651076D02*
X9574352Y-13651076D01*
X9593400Y-13660600D01*
X9602924Y-13670124D01*
X9612448Y-13689171D01*
X9621971Y-13727267D01*
X9621971Y-13774886D01*
X9612448Y-13812981D01*
X9602924Y-13832028D01*
X9593400Y-13841552D01*
X9574352Y-13851076D01*
X9555305Y-13851076D01*
X9536257Y-13841552D01*
X9526733Y-13832028D01*
X9517210Y-13812981D01*
X9507686Y-13774886D01*
X9507686Y-13727267D01*
X9517210Y-13689171D01*
X9526733Y-13670124D01*
X9536257Y-13660600D01*
X9555305Y-13651076D01*
X9745781Y-13651076D02*
X9764829Y-13651076D01*
X9783876Y-13660600D01*
X9793400Y-13670124D01*
X9802924Y-13689171D01*
X9812448Y-13727267D01*
X9812448Y-13774886D01*
X9802924Y-13812981D01*
X9793400Y-13832028D01*
X9783876Y-13841552D01*
X9764829Y-13851076D01*
X9745781Y-13851076D01*
X9726733Y-13841552D01*
X9717210Y-13832028D01*
X9707686Y-13812981D01*
X9698162Y-13774886D01*
X9698162Y-13727267D01*
X9707686Y-13689171D01*
X9717210Y-13670124D01*
X9726733Y-13660600D01*
X9745781Y-13651076D01*
X9898162Y-13851076D02*
X9898162Y-13717743D01*
X9898162Y-13736790D02*
X9907686Y-13727267D01*
X9926733Y-13717743D01*
X9955305Y-13717743D01*
X9974352Y-13727267D01*
X9983876Y-13746314D01*
X9983876Y-13851076D01*
X9983876Y-13746314D02*
X9993400Y-13727267D01*
X10012448Y-13717743D01*
X10041019Y-13717743D01*
X10060067Y-13727267D01*
X10069590Y-13746314D01*
X10069590Y-13851076D01*
X10164829Y-13851076D02*
X10164829Y-13717743D01*
X10164829Y-13736790D02*
X10174352Y-13727267D01*
X10193400Y-13717743D01*
X10221971Y-13717743D01*
X10241019Y-13727267D01*
X10250543Y-13746314D01*
X10250543Y-13851076D01*
X10250543Y-13746314D02*
X10260067Y-13727267D01*
X10279114Y-13717743D01*
X10307686Y-13717743D01*
X10326733Y-13727267D01*
X10336257Y-13746314D01*
X10336257Y-13851076D01*
X10726733Y-13641552D02*
X10555305Y-13898695D01*
X10983876Y-13651076D02*
X11002924Y-13651076D01*
X11021971Y-13660600D01*
X11031495Y-13670124D01*
X11041019Y-13689171D01*
X11050543Y-13727267D01*
X11050543Y-13774886D01*
X11041019Y-13812981D01*
X11031495Y-13832028D01*
X11021971Y-13841552D01*
X11002924Y-13851076D01*
X10983876Y-13851076D01*
X10964829Y-13841552D01*
X10955305Y-13832028D01*
X10945781Y-13812981D01*
X10936257Y-13774886D01*
X10936257Y-13727267D01*
X10945781Y-13689171D01*
X10955305Y-13670124D01*
X10964829Y-13660600D01*
X10983876Y-13651076D01*
X11136257Y-13832028D02*
X11145781Y-13841552D01*
X11136257Y-13851076D01*
X11126733Y-13841552D01*
X11136257Y-13832028D01*
X11136257Y-13851076D01*
X11269590Y-13651076D02*
X11288638Y-13651076D01*
X11307686Y-13660600D01*
X11317209Y-13670124D01*
X11326733Y-13689171D01*
X11336257Y-13727267D01*
X11336257Y-13774886D01*
X11326733Y-13812981D01*
X11317209Y-13832028D01*
X11307686Y-13841552D01*
X11288638Y-13851076D01*
X11269590Y-13851076D01*
X11250543Y-13841552D01*
X11241019Y-13832028D01*
X11231495Y-13812981D01*
X11221971Y-13774886D01*
X11221971Y-13727267D01*
X11231495Y-13689171D01*
X11241019Y-13670124D01*
X11250543Y-13660600D01*
X11269590Y-13651076D01*
X11402924Y-13651076D02*
X11526733Y-13651076D01*
X11460067Y-13727267D01*
X11488638Y-13727267D01*
X11507686Y-13736790D01*
X11517209Y-13746314D01*
X11526733Y-13765362D01*
X11526733Y-13812981D01*
X11517209Y-13832028D01*
X11507686Y-13841552D01*
X11488638Y-13851076D01*
X11431495Y-13851076D01*
X11412448Y-13841552D01*
X11402924Y-13832028D01*
X11717209Y-13851076D02*
X11602924Y-13851076D01*
X11660067Y-13851076D02*
X11660067Y-13651076D01*
X11641019Y-13679648D01*
X11621971Y-13698695D01*
X11602924Y-13708219D01*
X11898162Y-13651076D02*
X11802924Y-13651076D01*
X11793400Y-13746314D01*
X11802924Y-13736790D01*
X11821971Y-13727267D01*
X11869590Y-13727267D01*
X11888638Y-13736790D01*
X11898162Y-13746314D01*
X11907686Y-13765362D01*
X11907686Y-13812981D01*
X11898162Y-13832028D01*
X11888638Y-13841552D01*
X11869590Y-13851076D01*
X11821971Y-13851076D01*
X11802924Y-13841552D01*
X11793400Y-13832028D01*
X11983876Y-13651076D02*
X11983876Y-13689171D01*
X12060067Y-13651076D02*
X12060067Y-13689171D01*
X12355305Y-13927267D02*
X12345781Y-13917743D01*
X12326733Y-13889171D01*
X12317209Y-13870124D01*
X12307686Y-13841552D01*
X12298162Y-13793933D01*
X12298162Y-13755838D01*
X12307686Y-13708219D01*
X12317209Y-13679648D01*
X12326733Y-13660600D01*
X12345781Y-13632028D01*
X12355305Y-13622505D01*
X12412448Y-13651076D02*
X12536257Y-13651076D01*
X12469590Y-13727267D01*
X12498162Y-13727267D01*
X12517209Y-13736790D01*
X12526733Y-13746314D01*
X12536257Y-13765362D01*
X12536257Y-13812981D01*
X12526733Y-13832028D01*
X12517209Y-13841552D01*
X12498162Y-13851076D01*
X12441019Y-13851076D01*
X12421971Y-13841552D01*
X12412448Y-13832028D01*
X12612448Y-13670124D02*
X12621971Y-13660600D01*
X12641019Y-13651076D01*
X12688638Y-13651076D01*
X12707686Y-13660600D01*
X12717209Y-13670124D01*
X12726733Y-13689171D01*
X12726733Y-13708219D01*
X12717209Y-13736790D01*
X12602924Y-13851076D01*
X12726733Y-13851076D01*
X12964828Y-13851076D02*
X12964828Y-13651076D01*
X13050543Y-13851076D02*
X13050543Y-13746314D01*
X13041019Y-13727267D01*
X13021971Y-13717743D01*
X12993400Y-13717743D01*
X12974352Y-13727267D01*
X12964828Y-13736790D01*
X13174352Y-13851076D02*
X13155305Y-13841552D01*
X13145781Y-13832028D01*
X13136257Y-13812981D01*
X13136257Y-13755838D01*
X13145781Y-13736790D01*
X13155305Y-13727267D01*
X13174352Y-13717743D01*
X13202924Y-13717743D01*
X13221971Y-13727267D01*
X13231495Y-13736790D01*
X13241019Y-13755838D01*
X13241019Y-13812981D01*
X13231495Y-13832028D01*
X13221971Y-13841552D01*
X13202924Y-13851076D01*
X13174352Y-13851076D01*
X13355305Y-13851076D02*
X13336257Y-13841552D01*
X13326733Y-13822505D01*
X13326733Y-13651076D01*
X13507686Y-13841552D02*
X13488638Y-13851076D01*
X13450543Y-13851076D01*
X13431495Y-13841552D01*
X13421971Y-13822505D01*
X13421971Y-13746314D01*
X13431495Y-13727267D01*
X13450543Y-13717743D01*
X13488638Y-13717743D01*
X13507686Y-13727267D01*
X13517209Y-13746314D01*
X13517209Y-13765362D01*
X13421971Y-13784409D01*
X13593400Y-13841552D02*
X13612448Y-13851076D01*
X13650543Y-13851076D01*
X13669590Y-13841552D01*
X13679114Y-13822505D01*
X13679114Y-13812981D01*
X13669590Y-13793933D01*
X13650543Y-13784409D01*
X13621971Y-13784409D01*
X13602924Y-13774886D01*
X13593400Y-13755838D01*
X13593400Y-13746314D01*
X13602924Y-13727267D01*
X13621971Y-13717743D01*
X13650543Y-13717743D01*
X13669590Y-13727267D01*
X13745781Y-13927267D02*
X13755305Y-13917743D01*
X13774352Y-13889171D01*
X13783876Y-13870124D01*
X13793400Y-13841552D01*
X13802924Y-13793933D01*
X13802924Y-13755838D01*
X13793400Y-13708219D01*
X13783876Y-13679648D01*
X13774352Y-13660600D01*
X13755305Y-13632028D01*
X13745781Y-13622505D01*
D19*
X8683400Y-13974600D02*
X8783400Y-14074600D01*
X8783400Y-13974600D02*
X8683400Y-14074600D01*
X8768756Y-14059956D02*
X8768756Y-13989244D01*
X8698044Y-13989244D01*
X8698044Y-14059956D01*
X8768756Y-14059956D01*
D11*
X9145781Y-14115076D02*
X9031495Y-14115076D01*
X9088638Y-14115076D02*
X9088638Y-13915076D01*
X9069590Y-13943648D01*
X9050543Y-13962695D01*
X9031495Y-13972219D01*
X9231495Y-14096028D02*
X9241019Y-14105552D01*
X9231495Y-14115076D01*
X9221971Y-14105552D01*
X9231495Y-14096028D01*
X9231495Y-14115076D01*
X9364829Y-13915076D02*
X9383876Y-13915076D01*
X9402924Y-13924600D01*
X9412448Y-13934124D01*
X9421971Y-13953171D01*
X9431495Y-13991267D01*
X9431495Y-14038886D01*
X9421971Y-14076981D01*
X9412448Y-14096028D01*
X9402924Y-14105552D01*
X9383876Y-14115076D01*
X9364829Y-14115076D01*
X9345781Y-14105552D01*
X9336257Y-14096028D01*
X9326733Y-14076981D01*
X9317210Y-14038886D01*
X9317210Y-13991267D01*
X9326733Y-13953171D01*
X9336257Y-13934124D01*
X9345781Y-13924600D01*
X9364829Y-13915076D01*
X9555305Y-13915076D02*
X9574352Y-13915076D01*
X9593400Y-13924600D01*
X9602924Y-13934124D01*
X9612448Y-13953171D01*
X9621971Y-13991267D01*
X9621971Y-14038886D01*
X9612448Y-14076981D01*
X9602924Y-14096028D01*
X9593400Y-14105552D01*
X9574352Y-14115076D01*
X9555305Y-14115076D01*
X9536257Y-14105552D01*
X9526733Y-14096028D01*
X9517210Y-14076981D01*
X9507686Y-14038886D01*
X9507686Y-13991267D01*
X9517210Y-13953171D01*
X9526733Y-13934124D01*
X9536257Y-13924600D01*
X9555305Y-13915076D01*
X9745781Y-13915076D02*
X9764829Y-13915076D01*
X9783876Y-13924600D01*
X9793400Y-13934124D01*
X9802924Y-13953171D01*
X9812448Y-13991267D01*
X9812448Y-14038886D01*
X9802924Y-14076981D01*
X9793400Y-14096028D01*
X9783876Y-14105552D01*
X9764829Y-14115076D01*
X9745781Y-14115076D01*
X9726733Y-14105552D01*
X9717210Y-14096028D01*
X9707686Y-14076981D01*
X9698162Y-14038886D01*
X9698162Y-13991267D01*
X9707686Y-13953171D01*
X9717210Y-13934124D01*
X9726733Y-13924600D01*
X9745781Y-13915076D01*
X9898162Y-14115076D02*
X9898162Y-13981743D01*
X9898162Y-14000790D02*
X9907686Y-13991267D01*
X9926733Y-13981743D01*
X9955305Y-13981743D01*
X9974352Y-13991267D01*
X9983876Y-14010314D01*
X9983876Y-14115076D01*
X9983876Y-14010314D02*
X9993400Y-13991267D01*
X10012448Y-13981743D01*
X10041019Y-13981743D01*
X10060067Y-13991267D01*
X10069590Y-14010314D01*
X10069590Y-14115076D01*
X10164829Y-14115076D02*
X10164829Y-13981743D01*
X10164829Y-14000790D02*
X10174352Y-13991267D01*
X10193400Y-13981743D01*
X10221971Y-13981743D01*
X10241019Y-13991267D01*
X10250543Y-14010314D01*
X10250543Y-14115076D01*
X10250543Y-14010314D02*
X10260067Y-13991267D01*
X10279114Y-13981743D01*
X10307686Y-13981743D01*
X10326733Y-13991267D01*
X10336257Y-14010314D01*
X10336257Y-14115076D01*
X10726733Y-13905552D02*
X10555305Y-14162695D01*
X10983876Y-13915076D02*
X11002924Y-13915076D01*
X11021971Y-13924600D01*
X11031495Y-13934124D01*
X11041019Y-13953171D01*
X11050543Y-13991267D01*
X11050543Y-14038886D01*
X11041019Y-14076981D01*
X11031495Y-14096028D01*
X11021971Y-14105552D01*
X11002924Y-14115076D01*
X10983876Y-14115076D01*
X10964829Y-14105552D01*
X10955305Y-14096028D01*
X10945781Y-14076981D01*
X10936257Y-14038886D01*
X10936257Y-13991267D01*
X10945781Y-13953171D01*
X10955305Y-13934124D01*
X10964829Y-13924600D01*
X10983876Y-13915076D01*
X11136257Y-14096028D02*
X11145781Y-14105552D01*
X11136257Y-14115076D01*
X11126733Y-14105552D01*
X11136257Y-14096028D01*
X11136257Y-14115076D01*
X11269590Y-13915076D02*
X11288638Y-13915076D01*
X11307686Y-13924600D01*
X11317209Y-13934124D01*
X11326733Y-13953171D01*
X11336257Y-13991267D01*
X11336257Y-14038886D01*
X11326733Y-14076981D01*
X11317209Y-14096028D01*
X11307686Y-14105552D01*
X11288638Y-14115076D01*
X11269590Y-14115076D01*
X11250543Y-14105552D01*
X11241019Y-14096028D01*
X11231495Y-14076981D01*
X11221971Y-14038886D01*
X11221971Y-13991267D01*
X11231495Y-13953171D01*
X11241019Y-13934124D01*
X11250543Y-13924600D01*
X11269590Y-13915076D01*
X11402924Y-13915076D02*
X11526733Y-13915076D01*
X11460067Y-13991267D01*
X11488638Y-13991267D01*
X11507686Y-14000790D01*
X11517209Y-14010314D01*
X11526733Y-14029362D01*
X11526733Y-14076981D01*
X11517209Y-14096028D01*
X11507686Y-14105552D01*
X11488638Y-14115076D01*
X11431495Y-14115076D01*
X11412448Y-14105552D01*
X11402924Y-14096028D01*
X11621971Y-14115076D02*
X11660067Y-14115076D01*
X11679114Y-14105552D01*
X11688638Y-14096028D01*
X11707686Y-14067457D01*
X11717209Y-14029362D01*
X11717209Y-13953171D01*
X11707686Y-13934124D01*
X11698162Y-13924600D01*
X11679114Y-13915076D01*
X11641019Y-13915076D01*
X11621971Y-13924600D01*
X11612448Y-13934124D01*
X11602924Y-13953171D01*
X11602924Y-14000790D01*
X11612448Y-14019838D01*
X11621971Y-14029362D01*
X11641019Y-14038886D01*
X11679114Y-14038886D01*
X11698162Y-14029362D01*
X11707686Y-14019838D01*
X11717209Y-14000790D01*
X11888638Y-13981743D02*
X11888638Y-14115076D01*
X11841019Y-13905552D02*
X11793400Y-14048409D01*
X11917209Y-14048409D01*
X11983876Y-13915076D02*
X11983876Y-13953171D01*
X12060067Y-13915076D02*
X12060067Y-13953171D01*
X12355305Y-14191267D02*
X12345781Y-14181743D01*
X12326733Y-14153171D01*
X12317209Y-14134124D01*
X12307686Y-14105552D01*
X12298162Y-14057933D01*
X12298162Y-14019838D01*
X12307686Y-13972219D01*
X12317209Y-13943648D01*
X12326733Y-13924600D01*
X12345781Y-13896028D01*
X12355305Y-13886505D01*
X12517209Y-13915076D02*
X12479114Y-13915076D01*
X12460067Y-13924600D01*
X12450543Y-13934124D01*
X12431495Y-13962695D01*
X12421971Y-14000790D01*
X12421971Y-14076981D01*
X12431495Y-14096028D01*
X12441019Y-14105552D01*
X12460067Y-14115076D01*
X12498162Y-14115076D01*
X12517209Y-14105552D01*
X12526733Y-14096028D01*
X12536257Y-14076981D01*
X12536257Y-14029362D01*
X12526733Y-14010314D01*
X12517209Y-14000790D01*
X12498162Y-13991267D01*
X12460067Y-13991267D01*
X12441019Y-14000790D01*
X12431495Y-14010314D01*
X12421971Y-14029362D01*
X12726733Y-14115076D02*
X12612448Y-14115076D01*
X12669590Y-14115076D02*
X12669590Y-13915076D01*
X12650543Y-13943648D01*
X12631495Y-13962695D01*
X12612448Y-13972219D01*
X12964828Y-14115076D02*
X12964828Y-13915076D01*
X13050543Y-14115076D02*
X13050543Y-14010314D01*
X13041019Y-13991267D01*
X13021971Y-13981743D01*
X12993400Y-13981743D01*
X12974352Y-13991267D01*
X12964828Y-14000790D01*
X13174352Y-14115076D02*
X13155305Y-14105552D01*
X13145781Y-14096028D01*
X13136257Y-14076981D01*
X13136257Y-14019838D01*
X13145781Y-14000790D01*
X13155305Y-13991267D01*
X13174352Y-13981743D01*
X13202924Y-13981743D01*
X13221971Y-13991267D01*
X13231495Y-14000790D01*
X13241019Y-14019838D01*
X13241019Y-14076981D01*
X13231495Y-14096028D01*
X13221971Y-14105552D01*
X13202924Y-14115076D01*
X13174352Y-14115076D01*
X13355305Y-14115076D02*
X13336257Y-14105552D01*
X13326733Y-14086505D01*
X13326733Y-13915076D01*
X13507686Y-14105552D02*
X13488638Y-14115076D01*
X13450543Y-14115076D01*
X13431495Y-14105552D01*
X13421971Y-14086505D01*
X13421971Y-14010314D01*
X13431495Y-13991267D01*
X13450543Y-13981743D01*
X13488638Y-13981743D01*
X13507686Y-13991267D01*
X13517209Y-14010314D01*
X13517209Y-14029362D01*
X13421971Y-14048409D01*
X13593400Y-14105552D02*
X13612448Y-14115076D01*
X13650543Y-14115076D01*
X13669590Y-14105552D01*
X13679114Y-14086505D01*
X13679114Y-14076981D01*
X13669590Y-14057933D01*
X13650543Y-14048409D01*
X13621971Y-14048409D01*
X13602924Y-14038886D01*
X13593400Y-14019838D01*
X13593400Y-14010314D01*
X13602924Y-13991267D01*
X13621971Y-13981743D01*
X13650543Y-13981743D01*
X13669590Y-13991267D01*
X13745781Y-14191267D02*
X13755305Y-14181743D01*
X13774352Y-14153171D01*
X13783876Y-14134124D01*
X13793400Y-14105552D01*
X13802924Y-14057933D01*
X13802924Y-14019838D01*
X13793400Y-13972219D01*
X13783876Y-13943648D01*
X13774352Y-13924600D01*
X13755305Y-13896028D01*
X13745781Y-13886505D01*
D20*
X8673400Y-14233600D02*
X8783400Y-14343600D01*
X8783400Y-14233600D02*
X8673400Y-14343600D01*
X8728400Y-14343600D02*
X8783400Y-14288600D01*
X8728400Y-14233600D01*
X8673400Y-14288600D01*
X8728400Y-14343600D01*
D11*
X9145781Y-14379076D02*
X9031495Y-14379076D01*
X9088638Y-14379076D02*
X9088638Y-14179076D01*
X9069590Y-14207648D01*
X9050543Y-14226695D01*
X9031495Y-14236219D01*
X9231495Y-14360028D02*
X9241019Y-14369552D01*
X9231495Y-14379076D01*
X9221971Y-14369552D01*
X9231495Y-14360028D01*
X9231495Y-14379076D01*
X9431495Y-14379076D02*
X9317210Y-14379076D01*
X9374352Y-14379076D02*
X9374352Y-14179076D01*
X9355305Y-14207648D01*
X9336257Y-14226695D01*
X9317210Y-14236219D01*
X9555305Y-14179076D02*
X9574352Y-14179076D01*
X9593400Y-14188600D01*
X9602924Y-14198124D01*
X9612448Y-14217171D01*
X9621971Y-14255267D01*
X9621971Y-14302886D01*
X9612448Y-14340981D01*
X9602924Y-14360028D01*
X9593400Y-14369552D01*
X9574352Y-14379076D01*
X9555305Y-14379076D01*
X9536257Y-14369552D01*
X9526733Y-14360028D01*
X9517210Y-14340981D01*
X9507686Y-14302886D01*
X9507686Y-14255267D01*
X9517210Y-14217171D01*
X9526733Y-14198124D01*
X9536257Y-14188600D01*
X9555305Y-14179076D01*
X9745781Y-14179076D02*
X9764829Y-14179076D01*
X9783876Y-14188600D01*
X9793400Y-14198124D01*
X9802924Y-14217171D01*
X9812448Y-14255267D01*
X9812448Y-14302886D01*
X9802924Y-14340981D01*
X9793400Y-14360028D01*
X9783876Y-14369552D01*
X9764829Y-14379076D01*
X9745781Y-14379076D01*
X9726733Y-14369552D01*
X9717210Y-14360028D01*
X9707686Y-14340981D01*
X9698162Y-14302886D01*
X9698162Y-14255267D01*
X9707686Y-14217171D01*
X9717210Y-14198124D01*
X9726733Y-14188600D01*
X9745781Y-14179076D01*
X9898162Y-14379076D02*
X9898162Y-14245743D01*
X9898162Y-14264790D02*
X9907686Y-14255267D01*
X9926733Y-14245743D01*
X9955305Y-14245743D01*
X9974352Y-14255267D01*
X9983876Y-14274314D01*
X9983876Y-14379076D01*
X9983876Y-14274314D02*
X9993400Y-14255267D01*
X10012448Y-14245743D01*
X10041019Y-14245743D01*
X10060067Y-14255267D01*
X10069590Y-14274314D01*
X10069590Y-14379076D01*
X10164829Y-14379076D02*
X10164829Y-14245743D01*
X10164829Y-14264790D02*
X10174352Y-14255267D01*
X10193400Y-14245743D01*
X10221971Y-14245743D01*
X10241019Y-14255267D01*
X10250543Y-14274314D01*
X10250543Y-14379076D01*
X10250543Y-14274314D02*
X10260067Y-14255267D01*
X10279114Y-14245743D01*
X10307686Y-14245743D01*
X10326733Y-14255267D01*
X10336257Y-14274314D01*
X10336257Y-14379076D01*
X10726733Y-14169552D02*
X10555305Y-14426695D01*
X10983876Y-14179076D02*
X11002924Y-14179076D01*
X11021971Y-14188600D01*
X11031495Y-14198124D01*
X11041019Y-14217171D01*
X11050543Y-14255267D01*
X11050543Y-14302886D01*
X11041019Y-14340981D01*
X11031495Y-14360028D01*
X11021971Y-14369552D01*
X11002924Y-14379076D01*
X10983876Y-14379076D01*
X10964829Y-14369552D01*
X10955305Y-14360028D01*
X10945781Y-14340981D01*
X10936257Y-14302886D01*
X10936257Y-14255267D01*
X10945781Y-14217171D01*
X10955305Y-14198124D01*
X10964829Y-14188600D01*
X10983876Y-14179076D01*
X11136257Y-14360028D02*
X11145781Y-14369552D01*
X11136257Y-14379076D01*
X11126733Y-14369552D01*
X11136257Y-14360028D01*
X11136257Y-14379076D01*
X11269590Y-14179076D02*
X11288638Y-14179076D01*
X11307686Y-14188600D01*
X11317209Y-14198124D01*
X11326733Y-14217171D01*
X11336257Y-14255267D01*
X11336257Y-14302886D01*
X11326733Y-14340981D01*
X11317209Y-14360028D01*
X11307686Y-14369552D01*
X11288638Y-14379076D01*
X11269590Y-14379076D01*
X11250543Y-14369552D01*
X11241019Y-14360028D01*
X11231495Y-14340981D01*
X11221971Y-14302886D01*
X11221971Y-14255267D01*
X11231495Y-14217171D01*
X11241019Y-14198124D01*
X11250543Y-14188600D01*
X11269590Y-14179076D01*
X11507686Y-14245743D02*
X11507686Y-14379076D01*
X11460067Y-14169552D02*
X11412448Y-14312409D01*
X11536257Y-14312409D01*
X11593400Y-14179076D02*
X11717209Y-14179076D01*
X11650543Y-14255267D01*
X11679114Y-14255267D01*
X11698162Y-14264790D01*
X11707686Y-14274314D01*
X11717209Y-14293362D01*
X11717209Y-14340981D01*
X11707686Y-14360028D01*
X11698162Y-14369552D01*
X11679114Y-14379076D01*
X11621971Y-14379076D01*
X11602924Y-14369552D01*
X11593400Y-14360028D01*
X11783876Y-14179076D02*
X11907686Y-14179076D01*
X11841019Y-14255267D01*
X11869590Y-14255267D01*
X11888638Y-14264790D01*
X11898162Y-14274314D01*
X11907686Y-14293362D01*
X11907686Y-14340981D01*
X11898162Y-14360028D01*
X11888638Y-14369552D01*
X11869590Y-14379076D01*
X11812448Y-14379076D01*
X11793400Y-14369552D01*
X11783876Y-14360028D01*
X11983876Y-14179076D02*
X11983876Y-14217171D01*
X12060067Y-14179076D02*
X12060067Y-14217171D01*
X12355305Y-14455267D02*
X12345781Y-14445743D01*
X12326733Y-14417171D01*
X12317209Y-14398124D01*
X12307686Y-14369552D01*
X12298162Y-14321933D01*
X12298162Y-14283838D01*
X12307686Y-14236219D01*
X12317209Y-14207648D01*
X12326733Y-14188600D01*
X12345781Y-14160028D01*
X12355305Y-14150505D01*
X12536257Y-14379076D02*
X12421971Y-14379076D01*
X12479114Y-14379076D02*
X12479114Y-14179076D01*
X12460067Y-14207648D01*
X12441019Y-14226695D01*
X12421971Y-14236219D01*
X12707686Y-14179076D02*
X12669590Y-14179076D01*
X12650543Y-14188600D01*
X12641019Y-14198124D01*
X12621971Y-14226695D01*
X12612448Y-14264790D01*
X12612448Y-14340981D01*
X12621971Y-14360028D01*
X12631495Y-14369552D01*
X12650543Y-14379076D01*
X12688638Y-14379076D01*
X12707686Y-14369552D01*
X12717209Y-14360028D01*
X12726733Y-14340981D01*
X12726733Y-14293362D01*
X12717209Y-14274314D01*
X12707686Y-14264790D01*
X12688638Y-14255267D01*
X12650543Y-14255267D01*
X12631495Y-14264790D01*
X12621971Y-14274314D01*
X12612448Y-14293362D01*
X12964828Y-14379076D02*
X12964828Y-14179076D01*
X13050543Y-14379076D02*
X13050543Y-14274314D01*
X13041019Y-14255267D01*
X13021971Y-14245743D01*
X12993400Y-14245743D01*
X12974352Y-14255267D01*
X12964828Y-14264790D01*
X13174352Y-14379076D02*
X13155305Y-14369552D01*
X13145781Y-14360028D01*
X13136257Y-14340981D01*
X13136257Y-14283838D01*
X13145781Y-14264790D01*
X13155305Y-14255267D01*
X13174352Y-14245743D01*
X13202924Y-14245743D01*
X13221971Y-14255267D01*
X13231495Y-14264790D01*
X13241019Y-14283838D01*
X13241019Y-14340981D01*
X13231495Y-14360028D01*
X13221971Y-14369552D01*
X13202924Y-14379076D01*
X13174352Y-14379076D01*
X13355305Y-14379076D02*
X13336257Y-14369552D01*
X13326733Y-14350505D01*
X13326733Y-14179076D01*
X13507686Y-14369552D02*
X13488638Y-14379076D01*
X13450543Y-14379076D01*
X13431495Y-14369552D01*
X13421971Y-14350505D01*
X13421971Y-14274314D01*
X13431495Y-14255267D01*
X13450543Y-14245743D01*
X13488638Y-14245743D01*
X13507686Y-14255267D01*
X13517209Y-14274314D01*
X13517209Y-14293362D01*
X13421971Y-14312409D01*
X13593400Y-14369552D02*
X13612448Y-14379076D01*
X13650543Y-14379076D01*
X13669590Y-14369552D01*
X13679114Y-14350505D01*
X13679114Y-14340981D01*
X13669590Y-14321933D01*
X13650543Y-14312409D01*
X13621971Y-14312409D01*
X13602924Y-14302886D01*
X13593400Y-14283838D01*
X13593400Y-14274314D01*
X13602924Y-14255267D01*
X13621971Y-14245743D01*
X13650543Y-14245743D01*
X13669590Y-14255267D01*
X13745781Y-14455267D02*
X13755305Y-14445743D01*
X13774352Y-14417171D01*
X13783876Y-14398124D01*
X13793400Y-14369552D01*
X13802924Y-14321933D01*
X13802924Y-14283838D01*
X13793400Y-14236219D01*
X13783876Y-14207648D01*
X13774352Y-14188600D01*
X13755305Y-14160028D01*
X13745781Y-14150505D01*
X8683400Y-14452600D02*
X8683400Y-14652600D01*
X8583400Y-14552600D02*
X8783400Y-14552600D01*
X8783400Y-14552600D02*
G75*
G03*
X8783400Y-14552600I-100000J0D01*
G01*
X9021971Y-14443076D02*
X9145781Y-14443076D01*
X9079114Y-14519267D01*
X9107686Y-14519267D01*
X9126733Y-14528790D01*
X9136257Y-14538314D01*
X9145781Y-14557362D01*
X9145781Y-14604981D01*
X9136257Y-14624028D01*
X9126733Y-14633552D01*
X9107686Y-14643076D01*
X9050543Y-14643076D01*
X9031495Y-14633552D01*
X9021971Y-14624028D01*
X9231495Y-14624028D02*
X9241019Y-14633552D01*
X9231495Y-14643076D01*
X9221971Y-14633552D01*
X9231495Y-14624028D01*
X9231495Y-14643076D01*
X9421971Y-14443076D02*
X9326733Y-14443076D01*
X9317210Y-14538314D01*
X9326733Y-14528790D01*
X9345781Y-14519267D01*
X9393400Y-14519267D01*
X9412448Y-14528790D01*
X9421971Y-14538314D01*
X9431495Y-14557362D01*
X9431495Y-14604981D01*
X9421971Y-14624028D01*
X9412448Y-14633552D01*
X9393400Y-14643076D01*
X9345781Y-14643076D01*
X9326733Y-14633552D01*
X9317210Y-14624028D01*
X9555305Y-14443076D02*
X9574352Y-14443076D01*
X9593400Y-14452600D01*
X9602924Y-14462124D01*
X9612448Y-14481171D01*
X9621971Y-14519267D01*
X9621971Y-14566886D01*
X9612448Y-14604981D01*
X9602924Y-14624028D01*
X9593400Y-14633552D01*
X9574352Y-14643076D01*
X9555305Y-14643076D01*
X9536257Y-14633552D01*
X9526733Y-14624028D01*
X9517210Y-14604981D01*
X9507686Y-14566886D01*
X9507686Y-14519267D01*
X9517210Y-14481171D01*
X9526733Y-14462124D01*
X9536257Y-14452600D01*
X9555305Y-14443076D01*
X9745781Y-14443076D02*
X9764829Y-14443076D01*
X9783876Y-14452600D01*
X9793400Y-14462124D01*
X9802924Y-14481171D01*
X9812448Y-14519267D01*
X9812448Y-14566886D01*
X9802924Y-14604981D01*
X9793400Y-14624028D01*
X9783876Y-14633552D01*
X9764829Y-14643076D01*
X9745781Y-14643076D01*
X9726733Y-14633552D01*
X9717210Y-14624028D01*
X9707686Y-14604981D01*
X9698162Y-14566886D01*
X9698162Y-14519267D01*
X9707686Y-14481171D01*
X9717210Y-14462124D01*
X9726733Y-14452600D01*
X9745781Y-14443076D01*
X9898162Y-14643076D02*
X9898162Y-14509743D01*
X9898162Y-14528790D02*
X9907686Y-14519267D01*
X9926733Y-14509743D01*
X9955305Y-14509743D01*
X9974352Y-14519267D01*
X9983876Y-14538314D01*
X9983876Y-14643076D01*
X9983876Y-14538314D02*
X9993400Y-14519267D01*
X10012448Y-14509743D01*
X10041019Y-14509743D01*
X10060067Y-14519267D01*
X10069590Y-14538314D01*
X10069590Y-14643076D01*
X10164829Y-14643076D02*
X10164829Y-14509743D01*
X10164829Y-14528790D02*
X10174352Y-14519267D01*
X10193400Y-14509743D01*
X10221971Y-14509743D01*
X10241019Y-14519267D01*
X10250543Y-14538314D01*
X10250543Y-14643076D01*
X10250543Y-14538314D02*
X10260067Y-14519267D01*
X10279114Y-14509743D01*
X10307686Y-14509743D01*
X10326733Y-14519267D01*
X10336257Y-14538314D01*
X10336257Y-14643076D01*
X10726733Y-14433552D02*
X10555305Y-14690695D01*
X10983876Y-14443076D02*
X11002924Y-14443076D01*
X11021971Y-14452600D01*
X11031495Y-14462124D01*
X11041019Y-14481171D01*
X11050543Y-14519267D01*
X11050543Y-14566886D01*
X11041019Y-14604981D01*
X11031495Y-14624028D01*
X11021971Y-14633552D01*
X11002924Y-14643076D01*
X10983876Y-14643076D01*
X10964829Y-14633552D01*
X10955305Y-14624028D01*
X10945781Y-14604981D01*
X10936257Y-14566886D01*
X10936257Y-14519267D01*
X10945781Y-14481171D01*
X10955305Y-14462124D01*
X10964829Y-14452600D01*
X10983876Y-14443076D01*
X11136257Y-14624028D02*
X11145781Y-14633552D01*
X11136257Y-14643076D01*
X11126733Y-14633552D01*
X11136257Y-14624028D01*
X11136257Y-14643076D01*
X11336257Y-14643076D02*
X11221971Y-14643076D01*
X11279114Y-14643076D02*
X11279114Y-14443076D01*
X11260067Y-14471648D01*
X11241019Y-14490695D01*
X11221971Y-14500219D01*
X11402924Y-14443076D02*
X11526733Y-14443076D01*
X11460067Y-14519267D01*
X11488638Y-14519267D01*
X11507686Y-14528790D01*
X11517209Y-14538314D01*
X11526733Y-14557362D01*
X11526733Y-14604981D01*
X11517209Y-14624028D01*
X11507686Y-14633552D01*
X11488638Y-14643076D01*
X11431495Y-14643076D01*
X11412448Y-14633552D01*
X11402924Y-14624028D01*
X11593400Y-14443076D02*
X11726733Y-14443076D01*
X11641019Y-14643076D01*
X11831495Y-14528790D02*
X11812448Y-14519267D01*
X11802924Y-14509743D01*
X11793400Y-14490695D01*
X11793400Y-14481171D01*
X11802924Y-14462124D01*
X11812448Y-14452600D01*
X11831495Y-14443076D01*
X11869590Y-14443076D01*
X11888638Y-14452600D01*
X11898162Y-14462124D01*
X11907686Y-14481171D01*
X11907686Y-14490695D01*
X11898162Y-14509743D01*
X11888638Y-14519267D01*
X11869590Y-14528790D01*
X11831495Y-14528790D01*
X11812448Y-14538314D01*
X11802924Y-14547838D01*
X11793400Y-14566886D01*
X11793400Y-14604981D01*
X11802924Y-14624028D01*
X11812448Y-14633552D01*
X11831495Y-14643076D01*
X11869590Y-14643076D01*
X11888638Y-14633552D01*
X11898162Y-14624028D01*
X11907686Y-14604981D01*
X11907686Y-14566886D01*
X11898162Y-14547838D01*
X11888638Y-14538314D01*
X11869590Y-14528790D01*
X11983876Y-14443076D02*
X11983876Y-14481171D01*
X12060067Y-14443076D02*
X12060067Y-14481171D01*
X12355305Y-14719267D02*
X12345781Y-14709743D01*
X12326733Y-14681171D01*
X12317209Y-14662124D01*
X12307686Y-14633552D01*
X12298162Y-14585933D01*
X12298162Y-14547838D01*
X12307686Y-14500219D01*
X12317209Y-14471648D01*
X12326733Y-14452600D01*
X12345781Y-14424028D01*
X12355305Y-14414505D01*
X12517209Y-14509743D02*
X12517209Y-14643076D01*
X12469590Y-14433552D02*
X12421971Y-14576409D01*
X12545781Y-14576409D01*
X12774352Y-14643076D02*
X12774352Y-14443076D01*
X12860067Y-14643076D02*
X12860067Y-14538314D01*
X12850543Y-14519267D01*
X12831495Y-14509743D01*
X12802924Y-14509743D01*
X12783876Y-14519267D01*
X12774352Y-14528790D01*
X12983876Y-14643076D02*
X12964828Y-14633552D01*
X12955305Y-14624028D01*
X12945781Y-14604981D01*
X12945781Y-14547838D01*
X12955305Y-14528790D01*
X12964828Y-14519267D01*
X12983876Y-14509743D01*
X13012448Y-14509743D01*
X13031495Y-14519267D01*
X13041019Y-14528790D01*
X13050543Y-14547838D01*
X13050543Y-14604981D01*
X13041019Y-14624028D01*
X13031495Y-14633552D01*
X13012448Y-14643076D01*
X12983876Y-14643076D01*
X13164828Y-14643076D02*
X13145781Y-14633552D01*
X13136257Y-14614505D01*
X13136257Y-14443076D01*
X13317209Y-14633552D02*
X13298162Y-14643076D01*
X13260067Y-14643076D01*
X13241019Y-14633552D01*
X13231495Y-14614505D01*
X13231495Y-14538314D01*
X13241019Y-14519267D01*
X13260067Y-14509743D01*
X13298162Y-14509743D01*
X13317209Y-14519267D01*
X13326733Y-14538314D01*
X13326733Y-14557362D01*
X13231495Y-14576409D01*
X13402924Y-14633552D02*
X13421971Y-14643076D01*
X13460067Y-14643076D01*
X13479114Y-14633552D01*
X13488638Y-14614505D01*
X13488638Y-14604981D01*
X13479114Y-14585933D01*
X13460067Y-14576409D01*
X13431495Y-14576409D01*
X13412448Y-14566886D01*
X13402924Y-14547838D01*
X13402924Y-14538314D01*
X13412448Y-14519267D01*
X13431495Y-14509743D01*
X13460067Y-14509743D01*
X13479114Y-14519267D01*
X13555305Y-14719267D02*
X13564828Y-14709743D01*
X13583876Y-14681171D01*
X13593400Y-14662124D01*
X13602924Y-14633552D01*
X13612448Y-14585933D01*
X13612448Y-14547838D01*
X13602924Y-14500219D01*
X13593400Y-14471648D01*
X13583876Y-14452600D01*
X13564828Y-14424028D01*
X13555305Y-14414505D01*
M02*
